<svg width="164" height="61" viewBox="0 0 164 61" fill="none" xmlns="http://www.w3.org/2000/svg">
<g filter="url(#filter0_d_420_328)">
<path d="M4.02109 54.0045L4.71964 4.18799C4.73146 3.34505 5.4354 2.67739 6.27779 2.71016L20.5455 3.26509H70.1818L115.091 4.13178L158.451 2.7015C159.298 2.67355 160 3.35288 160 4.20069V55.0704C160 55.6746 159.638 56.2198 159.08 56.4536L158.078 56.8744C157.88 56.9571 157.668 56.9968 157.454 56.9906L105.82 55.5083L53.2439 56.0677L5.5039 55.5254C4.67397 55.516 4.00945 54.8344 4.02109 54.0045Z" fill="#14385D"/>
</g>
<path d="M1.5 2.82324C27.1333 2.82324 31.0168 3.00778 56.6366 3.00778C82.2699 3.00778 83.8278 3.25975 109.461 3.25975C135.094 3.25975 135.867 2.82324 161.5 2.82324" stroke="black" stroke-width="3" stroke-miterlimit="10" stroke-linecap="round" stroke-linejoin="round"/>
<path d="M4 56.4016C30.0023 56.4016 30.0023 56.3071 55.9908 56.3071C81.9931 56.3071 81.9931 55.9922 107.995 55.9922C133.998 55.9922 133.998 57.0001 160 57.0001" stroke="black" stroke-width="3" stroke-miterlimit="10" stroke-linecap="round" stroke-linejoin="round"/>
<path d="M160.831 56.7203C161.065 56.466 160.286 2.23999 160.286 2.23999C160.286 2.23999 159.895 56.2086 160.027 56.7203C160.159 57.232 160.643 56.9238 160.831 56.7203Z" stroke="black" stroke-width="3" stroke-miterlimit="10" stroke-linecap="round" stroke-linejoin="round"/>
<path d="M4.05024 56.4803C3.78328 56.226 4.67005 2 4.67005 2C4.67005 2 5.11524 55.9686 4.9652 56.4803C4.81516 56.992 4.2638 56.6838 4.05024 56.4803Z" stroke="black" stroke-width="3" stroke-miterlimit="10" stroke-linecap="round" stroke-linejoin="round"/>
<path d="M54.9172 21.18C55.3039 21.18 55.6505 21.2467 55.9572 21.38C56.2772 21.5133 56.4639 21.7933 56.5172 22.22C56.5439 22.4333 56.5105 22.6267 56.4172 22.8C56.3372 22.9733 56.2239 23.12 56.0772 23.24C55.9305 23.36 55.7572 23.4533 55.5572 23.52C55.3705 23.5867 55.1905 23.6267 55.0172 23.64C54.8705 23.64 54.6105 23.64 54.2372 23.64C53.8772 23.64 53.4705 23.64 53.0172 23.64C52.5772 23.64 52.1239 23.64 51.6572 23.64C51.1905 23.64 50.7972 23.64 50.4772 23.64H50.3172C50.0105 23.6267 49.6905 23.6133 49.3572 23.6C49.0372 23.5867 48.7239 23.5333 48.4172 23.44C48.2039 23.3733 48.0039 23.2533 47.8172 23.08C47.6305 22.9067 47.4839 22.7067 47.3772 22.48C47.3105 22.3333 47.2639 22.16 47.2372 21.96C47.2105 21.7467 47.1905 21.5467 47.1772 21.36C47.1639 21.16 47.1572 20.9867 47.1572 20.84C47.1705 20.6933 47.1772 20.6133 47.1772 20.6V12.1C47.1772 12.06 47.1705 11.9533 47.1572 11.78C47.1439 11.6067 47.1372 11.4067 47.1372 11.18C47.1505 10.9533 47.1705 10.72 47.1972 10.48C47.2372 10.24 47.3105 10.04 47.4172 9.88C47.4972 9.74667 47.6372 9.64 47.8372 9.56C48.0505 9.48 48.2639 9.42 48.4772 9.38C48.7039 9.34 48.9039 9.32 49.0772 9.32C49.2639 9.30667 49.3772 9.3 49.4172 9.3H54.0972C54.1105 9.3 54.2105 9.3 54.3972 9.3C54.5972 9.3 54.8105 9.32667 55.0372 9.38C55.2639 9.42 55.4839 9.49333 55.6972 9.6C55.9105 9.70667 56.0505 9.86667 56.1172 10.08C56.1439 10.16 56.1572 10.26 56.1572 10.38C56.1705 10.4867 56.1772 10.6067 56.1772 10.74C56.1772 10.86 56.1639 10.9733 56.1372 11.08C56.1239 11.1867 56.1039 11.2667 56.0772 11.32C55.9839 11.4933 55.8172 11.6133 55.5772 11.68C55.3105 11.7467 54.9305 11.78 54.4372 11.78C54.3572 11.78 54.2639 11.78 54.1572 11.78C54.0639 11.78 53.9105 11.78 53.6972 11.78C53.4972 11.7667 53.2105 11.76 52.8372 11.76C52.4772 11.76 51.9905 11.76 51.3772 11.76C51.1905 11.76 50.9972 11.7667 50.7972 11.78C50.6105 11.7933 50.4705 11.82 50.3772 11.86C50.2839 11.9 50.2105 11.98 50.1572 12.1C50.1172 12.2067 50.0839 12.3333 50.0572 12.48C50.0439 12.6133 50.0372 12.7467 50.0372 12.88C50.0372 13.0133 50.0439 13.12 50.0572 13.2V13.22L50.1372 20.14C50.1372 20.4067 50.1972 20.6267 50.3172 20.8C50.4372 20.96 50.6505 21.04 50.9572 21.04C50.9972 21.04 51.1372 21.0533 51.3772 21.08C51.6305 21.0933 51.9439 21.1067 52.3172 21.12C52.7039 21.1333 53.1239 21.1467 53.5772 21.16C54.0305 21.1733 54.4772 21.18 54.9172 21.18ZM61.8172 14.86C62.0572 14.9133 62.2639 15.02 62.4372 15.18C62.6239 15.34 62.7172 15.5667 62.7172 15.86C62.7172 15.9667 62.7105 16.0667 62.6972 16.16C62.6972 16.24 62.6839 16.3333 62.6572 16.44C62.6172 16.6667 62.5305 16.86 62.3972 17.02C62.2772 17.18 62.0905 17.26 61.8372 17.26L60.1972 17.28C60.1839 17.6267 60.1772 18.0133 60.1772 18.44C60.1772 18.8667 60.1772 19.3067 60.1772 19.76C60.1772 20.2133 60.1772 20.6733 60.1772 21.14C60.1905 21.5933 60.1972 22.0267 60.1972 22.44C60.1972 22.6133 60.1905 22.8267 60.1772 23.08C60.1639 23.3333 60.1172 23.58 60.0372 23.82C59.9572 24.0467 59.8372 24.2467 59.6772 24.42C59.5172 24.5933 59.2905 24.6867 58.9972 24.7C58.6772 24.7267 58.4239 24.6733 58.2372 24.54C58.0505 24.4067 57.9105 24.2333 57.8172 24.02C57.7239 23.82 57.6639 23.6 57.6372 23.36C57.6105 23.1067 57.5972 22.8733 57.5972 22.66V10.38C57.5972 10.3667 57.5972 10.3067 57.5972 10.2C57.5972 10.08 57.6105 9.94667 57.6372 9.8C57.6639 9.64 57.7039 9.48 57.7572 9.32C57.8239 9.14667 57.9105 9.00667 58.0172 8.9C58.1105 8.80667 58.2439 8.74 58.4172 8.7C58.6039 8.64667 58.7705 8.62 58.9172 8.62C59.2105 8.62 59.4572 8.72 59.6572 8.92C59.8439 9.10667 59.9505 9.30667 59.9772 9.52C60.0172 9.72 60.0505 9.93333 60.0772 10.16C60.1439 10.8933 60.1839 11.6467 60.1972 12.42C60.2239 13.1933 60.2372 13.96 60.2372 14.72L61.8172 14.86ZM77.3588 13.54C77.5721 13.5533 77.7588 13.6067 77.9188 13.7C78.0788 13.78 78.1921 13.9333 78.2588 14.16C78.4054 14.68 78.2321 15.04 77.7388 15.24C77.5788 15.3067 77.4121 15.3467 77.2388 15.36C77.0788 15.3733 76.9254 15.38 76.7788 15.38H67.6388C67.3721 15.38 67.0921 15.38 66.7988 15.38C66.5188 15.38 66.2321 15.3733 65.9388 15.36C65.6588 15.3333 65.4188 15.2267 65.2188 15.04C65.0321 14.84 64.9254 14.58 64.8988 14.26C64.8721 14.02 64.8588 13.7733 64.8588 13.52C64.8588 13.2533 64.8588 13.0267 64.8588 12.84C64.8588 12.8133 64.8521 12.78 64.8388 12.74C64.8388 12.7 64.8388 12.6667 64.8388 12.64C64.8388 12.4933 64.8454 12.3133 64.8588 12.1C64.8721 11.8733 64.9388 11.6867 65.0588 11.54C65.2454 11.3267 65.4921 11.2 65.7988 11.16C66.1054 11.1067 66.4054 11.08 66.6988 11.08H74.1188C74.3588 11.08 74.5454 11.08 74.6788 11.08C74.8121 11.08 74.9321 11.08 75.0388 11.08C75.1454 11.08 75.2521 11.08 75.3588 11.08C75.4654 11.08 75.5988 11.08 75.7588 11.08C75.7588 11.0533 75.7588 11 75.7588 10.92C75.7721 10.8267 75.7788 10.74 75.7788 10.66C75.7921 10.5667 75.7988 10.4867 75.7988 10.42C75.7988 10.34 75.7854 10.3 75.7588 10.3H67.1988C67.1321 10.3 67.0588 10.3 66.9788 10.3C66.9121 10.2867 66.8388 10.2867 66.7588 10.3H66.2788C66.1454 10.3 66.0254 10.3 65.9188 10.3C65.8121 10.3 65.7054 10.2867 65.5988 10.26C65.4788 10.2333 65.3654 10.1933 65.2588 10.14C65.1521 10.0733 65.0654 9.98667 64.9988 9.88C64.9454 9.76 64.9121 9.63333 64.8988 9.5C64.8988 9.36667 64.8988 9.24 64.8988 9.12C64.8988 9 64.9321 8.88667 64.9988 8.78C65.0788 8.67333 65.1654 8.58667 65.2588 8.52C65.3654 8.45333 65.4721 8.41333 65.5788 8.4C65.6854 8.38667 65.8054 8.36667 65.9388 8.34C66.0454 8.31333 66.1521 8.30667 66.2588 8.32C66.3654 8.33333 66.4721 8.33333 66.5788 8.32C66.6988 8.30667 66.8121 8.3 66.9188 8.3C67.0388 8.3 67.1588 8.3 67.2788 8.3C67.6921 8.31333 68.2188 8.32 68.8587 8.32C69.4988 8.30667 70.1188 8.3 70.7188 8.3H76.1788C76.8588 8.3 77.3788 8.41333 77.7388 8.64C78.0988 8.85333 78.2788 9.21333 78.2788 9.72V11.12C78.2788 11.24 78.2788 11.3733 78.2788 11.52C78.2921 11.6533 78.2854 11.7933 78.2588 11.94C78.2454 12.0733 78.2121 12.2 78.1588 12.32C78.1054 12.44 78.0188 12.5333 77.8988 12.6C77.6988 12.7067 77.4654 12.7667 77.1988 12.78C76.9454 12.78 76.7054 12.78 76.4788 12.78H67.2988V13.52H76.6988C76.8054 13.52 76.9121 13.52 77.0188 13.52C77.1388 13.52 77.2521 13.5267 77.3588 13.54ZM77.5188 22.02C77.5321 22.02 77.5788 22.0333 77.6588 22.06C77.7388 22.0867 77.8254 22.1333 77.9188 22.2C78.0254 22.2533 78.1188 22.3333 78.1988 22.44C78.2921 22.5333 78.3521 22.6467 78.3788 22.78C78.4588 23.2867 78.3788 23.68 78.1388 23.96C77.9921 24.1467 77.8321 24.26 77.6588 24.3C77.4854 24.34 77.3921 24.36 77.3788 24.36H66.4588C65.9521 24.36 65.5521 24.2733 65.2588 24.1C64.9654 23.94 64.8188 23.7067 64.8188 23.4V21.62C64.7921 21.3267 64.7921 21.0267 64.8188 20.72C64.8454 20.44 64.9521 20.2133 65.1388 20.04C65.3254 19.8667 65.5588 19.78 65.8388 19.78C65.9054 19.78 65.9921 19.7867 66.0988 19.8C66.2188 19.8 66.3121 19.8133 66.3788 19.84C66.5521 19.8933 66.6854 19.9733 66.7788 20.08C66.8721 20.1867 66.9454 20.3133 66.9988 20.46C67.0521 20.5933 67.0854 20.74 67.0988 20.9C67.1121 21.0467 67.1254 21.1933 67.1388 21.34C67.1388 21.4467 67.1454 21.56 67.1588 21.68C67.1721 21.7867 67.1921 21.8867 67.2188 21.98C67.2454 21.9933 67.3654 22.0133 67.5788 22.04C67.8054 22.0533 68.1521 22.06 68.6188 22.06C69.0188 22.06 69.3721 22.0533 69.6788 22.04C69.9988 22.0267 70.1654 22.02 70.1788 22.02H77.5188ZM76.8988 16.1C77.1254 16.1 77.3654 16.1 77.6188 16.1C77.8854 16.0867 78.1254 16.1133 78.3388 16.18C78.5654 16.2333 78.7454 16.3467 78.8788 16.52C79.0254 16.6933 79.0988 16.96 79.0988 17.32C79.0988 17.64 78.9654 17.92 78.6988 18.16C78.4854 18.3467 78.2254 18.4533 77.9188 18.48C77.6254 18.4933 77.3454 18.4933 77.0788 18.48C77.0121 18.4667 76.9521 18.46 76.8988 18.46C76.8454 18.46 76.7854 18.46 76.7188 18.46H65.6988C65.6854 18.46 65.6254 18.46 65.5188 18.46C65.4121 18.46 65.2854 18.4467 65.1388 18.42C65.0054 18.3933 64.8654 18.36 64.7188 18.32C64.5721 18.2667 64.4521 18.1867 64.3588 18.08C64.1988 17.9067 64.1188 17.6733 64.1188 17.38C64.1188 17.1 64.2054 16.8733 64.3787 16.7C64.5521 16.54 64.7321 16.4067 64.9188 16.3C65.1054 16.1933 65.2988 16.1267 65.4988 16.1C65.5388 16.1 65.5788 16.1067 65.6188 16.12C65.6588 16.12 65.6988 16.1133 65.7388 16.1C65.9254 16.0733 66.1254 16.0733 66.3388 16.1C66.5521 16.1133 66.7721 16.1133 66.9988 16.1C67.6921 16.0733 68.3921 16.0667 69.0988 16.08C69.8188 16.0933 70.5654 16.1 71.3388 16.1C72.1788 16.1 73.0721 16.0933 74.0188 16.08C74.9654 16.0667 75.8921 16.0733 76.7988 16.1H76.8988ZM98.5353 9.1C98.7753 9.20667 99.0486 9.36 99.3553 9.56C99.6753 9.76 99.9286 9.98 100.115 10.22C100.635 10.9 100.935 11.5467 101.015 12.16C101.109 12.7733 101.115 13.3667 101.035 13.94C100.929 15.0467 100.409 15.9 99.4753 16.5C98.542 17.0867 97.2686 17.38 95.6553 17.38C95.2286 17.38 94.762 17.3867 94.2553 17.4C93.762 17.4 93.262 17.38 92.7553 17.34C92.262 17.3 91.7753 17.2267 91.2953 17.12C90.8286 17.0133 90.4086 16.8467 90.0353 16.62C89.302 16.1933 88.802 15.6533 88.5353 15C88.2686 14.3333 88.1353 13.6267 88.1353 12.88C88.1353 12.16 88.2753 11.52 88.5553 10.96C88.8486 10.4 89.3286 9.89333 89.9953 9.44C90.2753 9.25333 90.6486 9.09333 91.1153 8.96C91.582 8.81333 92.0686 8.7 92.5753 8.62C93.0953 8.52667 93.602 8.46667 94.0953 8.44C94.5886 8.4 95.002 8.39333 95.3353 8.42C95.962 8.46 96.5153 8.52667 96.9953 8.62C97.4753 8.71333 97.9886 8.87333 98.5353 9.1ZM99.8753 18.8C100.089 18.7867 100.309 18.7933 100.535 18.82C100.775 18.8333 100.995 18.88 101.195 18.96C101.395 19.04 101.555 19.16 101.675 19.32C101.809 19.48 101.875 19.7 101.875 19.98C101.875 20.3133 101.782 20.5667 101.595 20.74C101.409 20.9 101.182 21.02 100.915 21.1C100.662 21.1667 100.382 21.2067 100.075 21.22C99.782 21.22 99.5286 21.22 99.3153 21.22C99.2486 21.22 99.1886 21.2267 99.1353 21.24C99.082 21.24 99.022 21.24 98.9553 21.24C98.9686 21.6267 98.9753 22.0333 98.9753 22.46C98.9886 22.8867 98.9753 23.2667 98.9353 23.6C98.8953 23.8533 98.8286 24.0933 98.7353 24.32C98.642 24.56 98.482 24.7533 98.2553 24.9C98.0553 25.0333 97.822 25.1 97.5553 25.1C97.2886 25.1 97.0486 25.04 96.8353 24.92C96.662 24.8133 96.5286 24.66 96.4353 24.46C96.3553 24.26 96.2953 24.0667 96.2553 23.88C96.2286 23.7333 96.222 23.5733 96.2353 23.4C96.2486 23.2267 96.2486 23.0667 96.2353 22.92V21.24L92.7753 21.22C92.7886 21.6333 92.802 22.0467 92.8153 22.46C92.8286 22.86 92.8086 23.2333 92.7553 23.58C92.7153 23.8333 92.6486 24.0733 92.5553 24.3C92.462 24.54 92.302 24.7333 92.0753 24.88C91.8753 25.0133 91.642 25.08 91.3753 25.08C91.1086 25.08 90.8686 25.02 90.6553 24.9C90.482 24.7933 90.3486 24.64 90.2553 24.44C90.1753 24.24 90.1153 24.0467 90.0753 23.86C90.0486 23.7133 90.042 23.5533 90.0553 23.38C90.0686 23.2067 90.0686 23.0467 90.0553 22.9V21.22L88.8553 21.18C88.5486 21.18 88.2553 21.1533 87.9753 21.1C87.6953 21.0333 87.4753 20.8667 87.3153 20.6C87.1686 20.3733 87.0953 20.1267 87.0953 19.86C87.1086 19.5933 87.2086 19.36 87.3953 19.16C87.4886 19.0533 87.6153 18.9733 87.7753 18.92C87.9353 18.8667 88.0886 18.8267 88.2353 18.8C88.3953 18.7733 88.5286 18.76 88.6353 18.76C88.7553 18.76 88.822 18.76 88.8353 18.76L99.8753 18.8ZM97.9953 14.18C98.0886 13.8867 98.142 13.58 98.1553 13.26C98.1686 12.9267 98.1153 12.62 97.9953 12.34C97.8753 12.0467 97.6686 11.8 97.3753 11.6C97.0953 11.3867 96.6953 11.2533 96.1753 11.2C95.802 11.16 95.3353 11.12 94.7753 11.08C94.2153 11.04 93.6686 11.0533 93.1353 11.12C92.602 11.1867 92.1286 11.34 91.7153 11.58C91.302 11.8067 91.0553 12.1667 90.9753 12.66C90.9353 12.9533 90.9353 13.2333 90.9753 13.5C91.0286 13.7533 91.142 13.9867 91.3153 14.2C91.4886 14.4133 91.7353 14.5933 92.0553 14.74C92.3753 14.8733 92.7753 14.96 93.2553 15C93.6153 15.04 94.0286 15.08 94.4953 15.12C94.962 15.1467 95.422 15.1467 95.8753 15.12C96.342 15.08 96.762 14.9933 97.1353 14.86C97.522 14.7133 97.8086 14.4867 97.9953 14.18ZM113.381 14.02C113.381 14.6467 113.241 15.24 112.961 15.8C112.681 16.36 112.288 16.8333 111.781 17.22C111.435 17.4733 111.068 17.6667 110.681 17.8C110.295 17.9333 109.895 18.02 109.481 18.06C109.068 18.0867 108.655 18.0733 108.241 18.02C107.841 17.9533 107.455 17.84 107.081 17.68C106.708 17.5333 106.355 17.34 106.021 17.1C105.701 16.86 105.421 16.5867 105.181 16.28C104.941 15.9733 104.755 15.6333 104.621 15.26C104.488 14.8733 104.421 14.46 104.421 14.02C104.421 13.4733 104.501 12.9933 104.661 12.58C104.821 12.1533 105.041 11.7733 105.321 11.44H104.961C104.628 11.44 104.348 11.34 104.121 11.14C103.895 10.9267 103.781 10.6733 103.781 10.38C103.781 10.0733 103.895 9.82 104.121 9.62C104.348 9.40667 104.628 9.3 104.961 9.3H107.601V8.66C107.601 8.39333 107.715 8.17333 107.941 8C108.168 7.81333 108.441 7.72 108.761 7.72C109.081 7.72 109.355 7.81333 109.581 8C109.808 8.17333 109.921 8.39333 109.921 8.66V9.3H112.701C113.035 9.3 113.315 9.40667 113.541 9.62C113.768 9.82 113.881 10.0733 113.881 10.38C113.881 10.6733 113.768 10.9267 113.541 11.14C113.315 11.34 113.035 11.44 112.701 11.44H112.461C112.741 11.7733 112.961 12.1533 113.121 12.58C113.295 13.0067 113.381 13.4867 113.381 14.02ZM105.421 21.6C105.421 21 105.595 20.5 105.941 20.1C106.301 19.7 106.781 19.3867 107.381 19.16C107.981 18.92 108.688 18.7533 109.501 18.66C110.315 18.5667 111.181 18.52 112.101 18.52C113.021 18.52 113.888 18.5533 114.701 18.62C115.515 18.6867 116.221 18.8333 116.821 19.06C117.421 19.2733 117.895 19.58 118.241 19.98C118.601 20.38 118.781 20.92 118.781 21.6C118.781 22.2667 118.601 22.8 118.241 23.2C117.895 23.6 117.421 23.9067 116.821 24.12C116.221 24.3467 115.515 24.4933 114.701 24.56C113.888 24.64 113.021 24.68 112.101 24.68C111.181 24.68 110.315 24.64 109.501 24.56C108.688 24.4933 107.981 24.3467 107.381 24.12C106.781 23.9067 106.301 23.6 105.941 23.2C105.595 22.8 105.421 22.2667 105.421 21.6ZM118.441 9.18C118.481 9.27333 118.515 9.39333 118.541 9.54C118.568 9.68667 118.588 9.83333 118.601 9.98C118.615 10.1133 118.621 10.24 118.621 10.36C118.621 10.48 118.621 10.5533 118.621 10.58V17.08C118.621 17.0933 118.615 17.1467 118.601 17.24C118.588 17.32 118.555 17.42 118.501 17.54C118.461 17.66 118.395 17.78 118.301 17.9C118.221 18.02 118.115 18.12 117.981 18.2C117.795 18.32 117.601 18.38 117.401 18.38C117.135 18.38 116.901 18.3 116.701 18.14C116.541 18.0467 116.421 17.9133 116.341 17.74C116.248 17.58 116.188 17.42 116.161 17.26C116.135 17.1 116.115 16.9467 116.101 16.8V16.22H116.041C115.841 16.2067 115.621 16.2 115.381 16.2C115.155 16.1867 114.928 16.1667 114.701 16.14C114.488 16.1133 114.295 16.0667 114.121 16C113.948 15.92 113.821 15.8133 113.741 15.68C113.648 15.5333 113.601 15.36 113.601 15.16C113.615 14.9467 113.635 14.7667 113.661 14.62C113.701 14.46 113.781 14.3267 113.901 14.22C114.021 14.1133 114.221 14.0267 114.501 13.96C114.555 13.9467 114.655 13.94 114.801 13.94C114.961 13.9267 115.121 13.9133 115.281 13.9C115.455 13.8867 115.615 13.88 115.761 13.88C115.921 13.8667 116.035 13.86 116.101 13.86V12.96C115.901 12.96 115.675 12.9667 115.421 12.98C115.181 12.98 114.948 12.9733 114.721 12.96C114.508 12.9333 114.308 12.8933 114.121 12.84C113.948 12.7867 113.821 12.6933 113.741 12.56C113.701 12.4933 113.668 12.4067 113.641 12.3C113.628 12.1933 113.615 12.0867 113.601 11.98C113.601 11.86 113.608 11.7467 113.621 11.64C113.635 11.5333 113.648 11.44 113.661 11.36C113.701 11.2133 113.781 11.0867 113.901 10.98C114.021 10.8733 114.221 10.7867 114.501 10.72C114.541 10.7067 114.621 10.7 114.741 10.7C114.875 10.6867 115.021 10.68 115.181 10.68C115.341 10.6667 115.501 10.66 115.661 10.66C115.835 10.6467 115.981 10.64 116.101 10.64C116.088 10.52 116.088 10.3533 116.101 10.14C116.115 9.92667 116.135 9.76667 116.161 9.66C116.201 9.55333 116.235 9.44667 116.261 9.34C116.288 9.23333 116.348 9.12667 116.441 9.02C116.561 8.88667 116.721 8.79333 116.921 8.74C117.135 8.67333 117.361 8.65333 117.601 8.68C118.028 8.74667 118.308 8.91333 118.441 9.18ZM116.081 21.6C116.081 21.3733 115.961 21.1933 115.721 21.06C115.481 20.9267 115.168 20.8267 114.781 20.76C114.408 20.6933 113.981 20.6533 113.501 20.64C113.035 20.6133 112.568 20.6 112.101 20.6C111.635 20.6 111.168 20.6133 110.701 20.64C110.248 20.6533 109.835 20.6933 109.461 20.76C109.101 20.8267 108.808 20.9267 108.581 21.06C108.355 21.1933 108.241 21.3733 108.241 21.6C108.241 21.8 108.355 21.9667 108.581 22.1C108.808 22.2333 109.101 22.3333 109.461 22.4C109.835 22.4667 110.248 22.5133 110.701 22.54C111.168 22.5667 111.635 22.58 112.101 22.58C112.568 22.58 113.035 22.58 113.501 22.58C113.981 22.58 114.408 22.5533 114.781 22.5C115.168 22.4467 115.481 22.3533 115.721 22.22C115.961 22.0733 116.081 21.8667 116.081 21.6ZM109.301 15.8C109.728 15.72 110.095 15.5333 110.401 15.24C110.721 14.9333 110.881 14.5267 110.881 14.02C110.881 13.7267 110.821 13.4667 110.701 13.24C110.595 13.0133 110.448 12.8267 110.261 12.68C110.088 12.52 109.881 12.4 109.641 12.32C109.401 12.24 109.161 12.2 108.921 12.2C108.668 12.1867 108.421 12.22 108.181 12.3C107.941 12.3667 107.728 12.4733 107.541 12.62C107.355 12.7667 107.201 12.96 107.081 13.2C106.975 13.4267 106.921 13.7 106.921 14.02C106.921 14.38 106.995 14.6867 107.141 14.94C107.288 15.1933 107.475 15.3933 107.701 15.54C107.928 15.6867 108.181 15.78 108.461 15.82C108.741 15.86 109.021 15.8533 109.301 15.8ZM62.8856 46.04C62.9256 46.0533 62.9656 46.06 63.0056 46.06C63.0456 46.0467 63.0856 46.04 63.1256 46.04C63.3523 46.0667 63.559 46.1133 63.7456 46.18C63.9456 46.2333 64.139 46.34 64.3256 46.5C64.5123 46.6867 64.6056 46.92 64.6056 47.2C64.6056 47.3467 64.579 47.5067 64.5256 47.68C64.4856 47.84 64.4256 47.9667 64.3456 48.06C64.239 48.1667 64.1056 48.2467 63.9456 48.3C63.7856 48.3533 63.6323 48.3933 63.4856 48.42C63.339 48.4333 63.2056 48.44 63.0856 48.44C62.979 48.44 62.919 48.44 62.9056 48.44H51.7056C51.639 48.44 51.5723 48.4467 51.5056 48.46C51.439 48.46 51.3723 48.46 51.3056 48.46C51.0256 48.4733 50.7256 48.4733 50.4056 48.46C50.0856 48.4333 49.8123 48.3267 49.5856 48.14C49.3056 47.8867 49.1656 47.6 49.1656 47.28C49.1656 47.08 49.2256 46.8733 49.3456 46.66C49.4656 46.4467 49.6256 46.3 49.8256 46.22C50.0923 46.1133 50.3656 46.06 50.6456 46.06C50.939 46.06 51.2323 46.0533 51.5256 46.04H51.6256C52.7856 46.0133 53.979 46.0133 55.2056 46.04L55.1856 43.28C54.679 43.2933 54.219 43.3 53.8056 43.3C53.4056 43.3 53.0856 43.2867 52.8456 43.26C52.5656 43.2467 52.259 43.2267 51.9256 43.2C51.5923 43.16 51.3123 43.0533 51.0856 42.88C50.939 42.76 50.819 42.5933 50.7256 42.38C50.6456 42.1667 50.5856 41.9533 50.5456 41.74C50.5056 41.5267 50.479 41.34 50.4656 41.18C50.4656 41.0067 50.4656 40.9133 50.4656 40.9V36.6C50.4656 36.3333 50.4523 36.0667 50.4256 35.8C50.4123 35.5333 50.4323 35.2667 50.4856 35C50.5256 34.84 50.5923 34.7133 50.6856 34.62C50.7923 34.5133 50.9123 34.4333 51.0456 34.38C51.1923 34.3133 51.3456 34.2667 51.5056 34.24C51.679 34.2133 51.839 34.1933 51.9856 34.18C52.1056 34.18 52.2323 34.1867 52.3656 34.2C52.499 34.2133 52.6256 34.2467 52.7456 34.3C52.8656 34.34 52.9656 34.4067 53.0456 34.5C53.139 34.58 53.199 34.6867 53.2256 34.82C53.239 34.8867 53.239 35.0133 53.2256 35.2C53.2256 35.3867 53.2256 35.5933 53.2256 35.82C53.2256 36.0333 53.2256 36.24 53.2256 36.44C53.239 36.6267 53.259 36.7467 53.2856 36.8C53.3123 36.8667 53.379 36.9133 53.4856 36.94C53.6056 36.9533 53.699 36.9667 53.7656 36.98C54.0723 37.0067 54.3123 37.0133 54.4856 37C54.659 36.9733 54.899 36.96 55.2056 36.96L59.7856 36.98C59.9323 36.9933 60.0523 36.9933 60.1456 36.98C60.2523 36.9533 60.3256 36.8667 60.3656 36.72C60.3656 36.6533 60.3656 36.54 60.3656 36.38C60.379 36.2067 60.3856 36.0333 60.3856 35.86C60.3856 35.6733 60.3856 35.5067 60.3856 35.36C60.399 35.2 60.4056 35.0933 60.4056 35.04C60.419 34.8 60.4656 34.6133 60.5456 34.48C60.639 34.3333 60.8123 34.2333 61.0656 34.18C61.3323 34.1133 61.619 34.1 61.9256 34.14C62.2456 34.1667 62.479 34.2533 62.6256 34.4C62.839 34.6267 62.959 34.8867 62.9856 35.18C63.0123 35.4733 63.0256 35.88 63.0256 36.4C63.0123 36.7067 63.0056 37.1067 63.0056 37.6C63.019 38.08 63.0256 38.58 63.0256 39.1C63.0256 39.62 63.019 40.12 63.0056 40.6C63.0056 41.08 62.9923 41.4733 62.9656 41.78C62.899 42.5933 62.479 43.06 61.7056 43.18C61.5056 43.2067 61.279 43.22 61.0256 43.22C60.7856 43.22 60.5656 43.22 60.3656 43.22C59.939 43.2333 59.519 43.24 59.1056 43.24C58.6923 43.24 58.2856 43.24 57.8856 43.24L57.9256 46.04C58.259 46.04 58.5723 46.04 58.8656 46.04C59.1723 46.0267 59.4656 46.02 59.7456 46.02C60.0256 46.02 60.3123 46.02 60.6056 46.02C60.899 46.02 61.2056 46.0267 61.5256 46.04C61.7656 46.0533 61.999 46.0533 62.2256 46.04C62.4523 46.0133 62.6723 46.0133 62.8856 46.04ZM53.2856 40.7C53.339 40.9 53.479 41.02 53.7056 41.06C53.9456 41.0867 54.179 41.1067 54.4056 41.12C54.4323 41.12 54.559 41.12 54.7856 41.12C55.0123 41.1067 55.2856 41.1 55.6056 41.1C55.9256 41.1 56.2656 41.1 56.6256 41.1C56.999 41.0867 57.3456 41.08 57.6656 41.08C57.999 41.08 58.279 41.0867 58.5056 41.1C58.7323 41.1 58.8656 41.1 58.9056 41.1C59.0123 41.1133 59.119 41.12 59.2256 41.12C59.3456 41.1067 59.459 41.1067 59.5656 41.12C59.6323 41.12 59.7056 41.1267 59.7856 41.14C59.879 41.1533 59.9656 41.1533 60.0456 41.14C60.1256 41.1267 60.1923 41.0933 60.2456 41.04C60.299 40.9867 60.3256 40.9067 60.3256 40.8C60.3256 40.7467 60.3256 40.6667 60.3256 40.56C60.3256 40.44 60.3256 40.3133 60.3256 40.18C60.3256 40.0333 60.319 39.8933 60.3056 39.76C60.3056 39.6133 60.2923 39.4933 60.2656 39.4C60.2256 39.24 60.159 39.1533 60.0656 39.14C59.9856 39.1133 59.879 39.1067 59.7456 39.12C59.679 39.12 59.5723 39.1267 59.4256 39.14C59.2923 39.14 59.1923 39.1333 59.1256 39.12H54.5656C54.4456 39.12 54.3123 39.12 54.1656 39.12C54.019 39.1067 53.879 39.1133 53.7456 39.14C53.6256 39.1533 53.519 39.2 53.4256 39.28C53.3323 39.3467 53.279 39.46 53.2656 39.62C53.2656 39.66 53.2656 39.7333 53.2656 39.84C53.2656 39.9467 53.2656 40.06 53.2656 40.18C53.2656 40.3 53.2656 40.4133 53.2656 40.52C53.279 40.6133 53.2856 40.6733 53.2856 40.7ZM78.2561 37.52C78.2294 37.36 78.2161 37.1667 78.2161 36.94C78.2161 36.7 78.2294 36.5 78.2561 36.34V35.54C78.2561 35.4333 78.2628 35.3333 78.2761 35.24C78.2894 35.1333 78.2961 35.0267 78.2961 34.92C78.3228 34.8133 78.3428 34.7133 78.3561 34.62C78.3828 34.5267 78.4161 34.44 78.4561 34.36C78.4961 34.1867 78.5761 34.04 78.6961 33.92C78.9628 33.7467 79.2228 33.6533 79.4761 33.64C79.7294 33.6133 79.9494 33.6667 80.1361 33.8C80.3361 33.92 80.4894 34.1133 80.5961 34.38C80.7161 34.6333 80.7694 34.9533 80.7561 35.34C80.7561 35.4867 80.7628 35.62 80.7761 35.74C80.7894 35.8467 80.7961 35.9533 80.7961 36.06V48.08C80.7961 48.12 80.7961 48.1733 80.7961 48.24C80.7961 48.3067 80.7828 48.3733 80.7561 48.44C80.7561 48.6 80.7161 48.76 80.6361 48.92C80.5961 49.0667 80.5161 49.2 80.3961 49.32C80.3028 49.4133 80.1828 49.48 80.0361 49.52C79.9294 49.5467 79.8294 49.5667 79.7361 49.58C79.6561 49.5933 79.5761 49.6 79.4961 49.6C79.1894 49.6 78.9494 49.4933 78.7761 49.28C78.6028 49.1067 78.4961 48.92 78.4561 48.72C78.4028 48.4933 78.3628 48.2467 78.3361 47.98C78.3228 47.7133 78.3161 47.4467 78.3161 47.18L78.2161 42.3C78.1094 42.2733 77.9894 42.2667 77.8561 42.28C77.7361 42.2933 77.4961 42.2867 77.1361 42.26C77.0161 42.2333 76.9028 42.2133 76.7961 42.2C76.7028 42.1733 76.6028 42.14 76.4961 42.1C76.3228 42.0333 76.1494 41.9133 75.9761 41.74C75.9094 41.6733 75.8561 41.5933 75.8161 41.5C75.7761 41.3933 75.7428 41.2867 75.7161 41.18C75.6761 40.98 75.6761 40.7533 75.7161 40.5C75.7428 40.46 75.7694 40.4133 75.7961 40.36C75.8228 40.3067 75.8561 40.2467 75.8961 40.18C76.0294 40.0467 76.1094 39.9533 76.1361 39.9C76.2428 39.8333 76.3428 39.78 76.4361 39.74C76.5428 39.6867 76.6494 39.66 76.7561 39.66L78.2561 39.64V37.52ZM70.0161 42.9C69.8828 42.9267 69.7894 42.98 69.7361 43.06C69.6828 43.14 69.6494 43.2333 69.6361 43.34C69.6228 43.4333 69.6228 43.54 69.6361 43.66C69.6494 43.7667 69.6561 43.8667 69.6561 43.96C69.6561 44.1333 69.6561 44.38 69.6561 44.7C69.6561 45.0067 69.6694 45.2533 69.6961 45.44C69.6961 45.5333 69.6894 45.6533 69.6761 45.8C69.6761 45.9467 69.7094 46.0533 69.7761 46.12C69.7761 46.1467 69.7894 46.1667 69.8161 46.18C69.8428 46.1933 69.8694 46.2 69.8961 46.2C70.2028 46.2 70.5428 46.2 70.9161 46.2C71.2894 46.2 71.6294 46.1867 71.9361 46.16C72.4028 46.16 72.8894 46.16 73.3961 46.16C73.9161 46.1467 74.4094 46.16 74.8761 46.2C75.0628 46.2267 75.2028 46.28 75.2961 46.36C75.4028 46.4267 75.4894 46.5133 75.5561 46.62C75.6361 46.7267 75.6894 46.82 75.7161 46.9C75.7428 46.9667 75.7561 47.0733 75.7561 47.22C75.7828 47.38 75.7694 47.5333 75.7161 47.68C75.6761 47.8267 75.6228 47.9467 75.5561 48.04C75.4894 48.12 75.4094 48.1933 75.3161 48.26C75.2361 48.3133 75.1428 48.3733 75.0361 48.44C74.7694 48.5733 74.5028 48.64 74.2361 48.64C73.9828 48.6267 73.7161 48.6333 73.4361 48.66C73.1961 48.66 72.9228 48.6667 72.6161 48.68C72.3094 48.6933 72.0294 48.6867 71.7761 48.66C71.5761 48.6333 71.3494 48.6267 71.0961 48.64C70.8561 48.6533 70.6428 48.66 70.4561 48.66C70.2694 48.6333 70.0894 48.6267 69.9161 48.64C69.7428 48.6533 69.5628 48.66 69.3761 48.66C69.0561 48.6333 68.7361 48.6 68.4161 48.56C68.0961 48.5067 67.8028 48.3867 67.5361 48.2C67.4294 48.1333 67.3428 48.0533 67.2761 47.96C67.2094 47.8533 67.1561 47.7467 67.1161 47.64C66.9428 47.2667 66.8761 46.8733 66.9161 46.46C66.9294 46.14 66.9294 45.8467 66.9161 45.58C66.9161 45.3 66.9094 45.0267 66.8961 44.76C66.8961 44.48 66.8894 44.2 66.8761 43.92C66.8761 43.6267 66.8761 43.3133 66.8761 42.98C66.8761 42.7267 66.8694 42.42 66.8561 42.06C66.8561 41.7 66.9161 41.4133 67.0361 41.2C67.1561 41 67.2894 40.8533 67.4361 40.76C67.5828 40.6533 67.7361 40.5867 67.8961 40.56C68.0694 40.52 68.2428 40.5 68.4161 40.5C68.6028 40.5 68.7894 40.5 68.9761 40.5H70.6161C70.7761 40.5 70.9961 40.5 71.2761 40.5C71.5561 40.4867 71.7828 40.46 71.9561 40.42C72.0761 40.3533 72.1561 40.2667 72.1961 40.16C72.2628 39.8 72.2961 39.42 72.2961 39.02C72.3094 38.6067 72.3028 38.22 72.2761 37.86C72.2761 37.7133 72.2761 37.52 72.2761 37.28C72.2761 37.04 72.2361 36.86 72.1561 36.74C72.0628 36.5933 71.8561 36.52 71.5361 36.52L68.2161 36.58C68.0294 36.58 67.8228 36.5533 67.5961 36.5C67.3694 36.4467 67.1961 36.3467 67.0761 36.2C67.0361 36.1333 66.9961 36.0667 66.9561 36C66.9161 35.9333 66.8761 35.8467 66.8361 35.74C66.7294 35.3533 66.7561 35.0133 66.9161 34.72C67.0894 34.4133 67.3628 34.2133 67.7361 34.12C68.0561 34.0533 68.3761 34.0333 68.6961 34.06C69.0161 34.0733 69.3361 34.0667 69.6561 34.04H72.2761C72.5428 34.04 72.8161 34.04 73.0961 34.04C73.3761 34.04 73.6494 34.08 73.9161 34.16C74.2094 34.2667 74.4494 34.48 74.6361 34.8C74.6628 34.8667 74.6828 34.9267 74.6961 34.98C74.7094 35.0333 74.7294 35.1067 74.7561 35.2C74.7828 35.2667 74.8028 35.3267 74.8161 35.38C74.8294 35.4333 74.8361 35.4933 74.8361 35.56C74.8628 35.7867 74.8761 36.0667 74.8761 36.4C74.8761 36.72 74.8761 36.9867 74.8761 37.2C74.8761 37.64 74.8828 38.08 74.8961 38.52C74.9094 38.96 74.9161 39.4067 74.9161 39.86C74.9161 40.3267 74.9094 40.7467 74.8961 41.12C74.8961 41.4933 74.8361 41.8333 74.7161 42.14C74.5828 42.42 74.3961 42.6 74.1561 42.68C73.9294 42.7867 73.6828 42.84 73.4161 42.84C73.1494 42.8267 72.9028 42.82 72.6761 42.82C72.3694 42.82 72.0294 42.8267 71.6561 42.84C71.2828 42.84 70.9761 42.84 70.7361 42.84C70.6294 42.84 70.5494 42.84 70.4961 42.84C70.4561 42.84 70.4161 42.84 70.3761 42.84C70.3361 42.84 70.2894 42.8467 70.2361 42.86C70.1961 42.86 70.1228 42.8733 70.0161 42.9ZM88.8513 46.18C88.8379 46.02 88.8313 45.86 88.8313 45.7C88.8313 45.54 88.8313 45.38 88.8313 45.22V38.86C88.8313 38.6467 88.8313 38.4333 88.8313 38.22C88.8313 38.0067 88.8179 37.7867 88.7913 37.56C88.7779 37.4933 88.7579 37.4 88.7313 37.28C88.7179 37.16 88.6779 37.0867 88.6113 37.06C88.5446 37.02 88.4646 37.0067 88.3713 37.02C88.2913 37.02 88.2113 37.0133 88.1313 37C88.0379 36.9867 87.9446 36.9867 87.8513 37C87.7713 37.0133 87.6846 37.0133 87.5913 37H86.6513C86.4246 37.0133 86.1979 37.0133 85.9712 37C85.7446 36.9867 85.5179 36.9867 85.2913 37C85.1846 37.0133 85.0846 37.02 84.9913 37.02C84.9113 37.0067 84.8179 37 84.7113 37C84.5646 37 84.4113 36.9933 84.2513 36.98C84.0913 36.9667 83.9446 36.9133 83.8113 36.82C83.6246 36.6867 83.4979 36.52 83.4313 36.32C83.3646 36.12 83.3313 35.9133 83.3313 35.7C83.3179 35.4467 83.3713 35.1933 83.4913 34.94C83.5579 34.78 83.6446 34.6667 83.7513 34.6C83.8179 34.5333 83.9113 34.48 84.0313 34.44C84.1646 34.3867 84.2779 34.3467 84.3713 34.32C84.6513 34.2533 84.9446 34.22 85.2513 34.22C85.5579 34.2067 85.8579 34.2 86.1513 34.2H89.6313C89.8046 34.2267 89.9846 34.2533 90.1713 34.28C90.3713 34.2933 90.5513 34.3333 90.7113 34.4C90.8179 34.44 90.9179 34.4933 91.0113 34.56C91.1179 34.6267 91.2046 34.7067 91.2713 34.8C91.3913 34.9867 91.4579 35.1733 91.4713 35.36C91.4979 35.5467 91.5246 35.7533 91.5513 35.98C91.5779 36.3533 91.5913 36.7267 91.5913 37.1C91.5913 37.46 91.5913 37.8267 91.5913 38.2V44.76C91.5913 44.7733 91.5913 44.88 91.5913 45.08C91.6046 45.2667 91.6113 45.4933 91.6113 45.76C91.6113 46.0133 91.6113 46.2867 91.6113 46.58C91.6113 46.86 91.6046 47.1067 91.5913 47.32C91.5779 47.4533 91.5579 47.5933 91.5313 47.74C91.5046 47.8867 91.4579 48.0267 91.3913 48.16C91.3379 48.2933 91.2579 48.4133 91.1513 48.52C91.0446 48.6267 90.9046 48.7133 90.7313 48.78C90.5046 48.8733 90.2779 48.92 90.0513 48.92C89.8779 48.92 89.7046 48.8867 89.5313 48.82C89.3579 48.74 89.2379 48.6267 89.1713 48.48C88.9579 48.0533 88.8513 47.58 88.8513 47.06V46.18ZM97.3113 39.7C97.4979 39.7133 97.6913 39.7267 97.8913 39.74C98.0913 39.74 98.2846 39.7467 98.4713 39.76C98.5379 39.76 98.6113 39.7667 98.6913 39.78C98.7713 39.7933 98.8513 39.8067 98.9313 39.82C99.1979 39.8733 99.4113 39.9867 99.5713 40.16C99.7446 40.32 99.8313 40.54 99.8313 40.82C99.8313 41.0067 99.8113 41.22 99.7713 41.46C99.7446 41.7 99.6446 41.8867 99.4713 42.02C99.3913 42.0867 99.3113 42.14 99.2313 42.18C99.1513 42.22 99.0579 42.2533 98.9513 42.28C98.7379 42.3067 98.4779 42.3133 98.1713 42.3C97.8646 42.2867 97.6046 42.2867 97.3913 42.3C97.3379 42.3 97.3113 42.3333 97.3113 42.4C97.3113 42.56 97.3113 42.7533 97.3113 42.98C97.3113 43.1933 97.3113 43.42 97.3113 43.66C97.3113 43.8867 97.3113 44.1133 97.3113 44.34C97.3113 44.5533 97.3113 44.7467 97.3113 44.92C97.3379 45.6133 97.3379 46.2933 97.3113 46.96V47.24C97.3113 47.4133 97.3046 47.6067 97.2913 47.82C97.2913 48.02 97.2779 48.22 97.2513 48.42C97.2246 48.62 97.1779 48.8133 97.1113 49C97.0446 49.1733 96.9513 49.32 96.8313 49.44C96.6713 49.6267 96.4579 49.72 96.1913 49.72C96.1913 49.72 96.1779 49.7133 96.1513 49.7C95.8313 49.6867 95.5713 49.5933 95.3713 49.42C95.1846 49.2467 95.0379 49.0333 94.9313 48.78C94.8379 48.5267 94.7779 48.2667 94.7513 48C94.7246 47.72 94.7113 47.4733 94.7113 47.26V35.38C94.7113 35.3667 94.7113 35.3067 94.7113 35.2C94.7113 35.08 94.7246 34.9467 94.7513 34.8C94.7779 34.64 94.8179 34.48 94.8713 34.32C94.9379 34.1467 95.0246 34.0067 95.1313 33.9C95.2246 33.8067 95.3579 33.74 95.5312 33.7C95.7179 33.6467 95.8846 33.62 96.0313 33.62C96.3246 33.62 96.5713 33.72 96.7713 33.92C96.9579 34.1067 97.0646 34.3067 97.0913 34.52C97.1313 34.72 97.1646 34.9333 97.1913 35.16C97.2046 35.2133 97.2113 35.2933 97.2113 35.4C97.2379 35.6267 97.2513 35.86 97.2513 36.1C97.2646 36.34 97.2779 36.58 97.2913 36.82C97.2913 36.9267 97.2913 37.0133 97.2913 37.08C97.2913 37.1467 97.2913 37.2533 97.2913 37.4C97.3046 37.5333 97.3113 37.74 97.3113 38.02C97.3113 38.3 97.3113 38.7067 97.3113 39.24V39.7ZM115.893 48.14C115.866 48.3 115.846 48.46 115.833 48.62C115.819 48.7667 115.786 48.92 115.733 49.08C115.706 49.1333 115.686 49.18 115.673 49.22C115.659 49.26 115.639 49.3067 115.613 49.36C115.519 49.5467 115.399 49.6933 115.253 49.8C114.946 49.9867 114.606 50.0333 114.233 49.94C114.019 49.9 113.846 49.82 113.713 49.7C113.593 49.5933 113.499 49.4533 113.433 49.28C113.379 49.12 113.333 48.96 113.293 48.8C113.266 48.64 113.253 48.5 113.253 48.38C113.253 48.26 113.253 48.1933 113.253 48.18V35.82C113.253 35.66 113.253 35.4867 113.253 35.3C113.253 35.1133 113.266 34.9267 113.293 34.74C113.319 34.5533 113.359 34.38 113.413 34.22C113.466 34.06 113.539 33.9333 113.633 33.84C113.779 33.6933 113.933 33.6067 114.093 33.58C114.253 33.54 114.426 33.52 114.613 33.52C114.839 33.52 115.046 33.5867 115.233 33.72C115.433 33.84 115.573 34.0133 115.653 34.24C115.773 34.52 115.839 34.8133 115.853 35.12C115.866 35.4267 115.879 35.7333 115.893 36.04V36.14C115.919 37.1667 115.926 38.22 115.913 39.3C115.899 40.38 115.893 41.4 115.893 42.36V47.42C115.893 47.54 115.893 47.66 115.893 47.78C115.906 47.9 115.906 48.02 115.893 48.14ZM106.453 46.18C106.439 46.02 106.433 45.86 106.433 45.7C106.433 45.54 106.433 45.38 106.433 45.22V38.86C106.433 38.6467 106.433 38.4333 106.433 38.22C106.433 38.0067 106.419 37.7867 106.393 37.56C106.379 37.4933 106.359 37.4 106.333 37.28C106.319 37.16 106.279 37.0867 106.213 37.06C106.146 37.02 106.066 37.0067 105.973 37.02C105.893 37.02 105.813 37.0133 105.733 37C105.639 36.9867 105.546 36.9867 105.453 37C105.373 37.0133 105.286 37.0133 105.193 37H104.253C104.026 37.0133 103.799 37.0133 103.573 37C103.346 36.9867 103.119 36.9867 102.893 37C102.786 37.0133 102.686 37.02 102.593 37.02C102.513 37.0067 102.419 37 102.313 37C102.166 37 102.013 36.9933 101.853 36.98C101.693 36.9667 101.546 36.9133 101.413 36.82C101.226 36.6867 101.099 36.52 101.033 36.32C100.966 36.12 100.933 35.9133 100.933 35.7C100.919 35.4467 100.973 35.1933 101.093 34.94C101.159 34.78 101.246 34.6667 101.353 34.6C101.419 34.5333 101.513 34.48 101.633 34.44C101.766 34.3867 101.879 34.3467 101.973 34.32C102.253 34.2533 102.546 34.22 102.853 34.22C103.159 34.2067 103.459 34.2 103.753 34.2H107.233C107.406 34.2267 107.586 34.2533 107.773 34.28C107.973 34.2933 108.153 34.3333 108.313 34.4C108.419 34.44 108.519 34.4933 108.613 34.56C108.719 34.6267 108.806 34.7067 108.873 34.8C108.993 34.9867 109.059 35.1733 109.073 35.36C109.099 35.5467 109.126 35.7533 109.153 35.98C109.179 36.3533 109.193 36.7267 109.193 37.1C109.193 37.46 109.193 37.8267 109.193 38.2V44.76C109.193 44.7733 109.193 44.88 109.193 45.08C109.206 45.2667 109.213 45.4933 109.213 45.76C109.213 46.0133 109.213 46.2867 109.213 46.58C109.213 46.86 109.206 47.1067 109.193 47.32C109.179 47.4533 109.159 47.5933 109.133 47.74C109.106 47.8867 109.059 48.0267 108.993 48.16C108.939 48.2933 108.859 48.4133 108.753 48.52C108.646 48.6267 108.506 48.7133 108.333 48.78C108.106 48.8733 107.879 48.92 107.653 48.92C107.479 48.92 107.306 48.8867 107.133 48.82C106.959 48.74 106.839 48.6267 106.773 48.48C106.559 48.0533 106.453 47.58 106.453 47.06V46.18Z" fill="white"/>
<defs>
<filter id="filter0_d_420_328" x="4.021" y="2.70068" width="159.979" height="58.2905" filterUnits="userSpaceOnUse" color-interpolation-filters="sRGB">
<feFlood flood-opacity="0" result="BackgroundImageFix"/>
<feColorMatrix in="SourceAlpha" type="matrix" values="0 0 0 0 0 0 0 0 0 0 0 0 0 0 0 0 0 0 127 0" result="hardAlpha"/>
<feOffset dx="4" dy="4"/>
<feColorMatrix type="matrix" values="0 0 0 0 0.694118 0 0 0 0 0.721569 0 0 0 0 0.741176 0 0 0 1 0"/>
<feBlend mode="multiply" in2="BackgroundImageFix" result="effect1_dropShadow_420_328"/>
<feBlend mode="normal" in="SourceGraphic" in2="effect1_dropShadow_420_328" result="shape"/>
</filter>
</defs>
</svg>
