<svg width="60" height="60" viewBox="0 0 60 60" fill="none" xmlns="http://www.w3.org/2000/svg">
<path d="M30.0098 0C17.4851 0 13.8221 0.0129242 13.11 0.0720061C10.5398 0.285716 8.94037 0.69052 7.19793 1.55829C5.8551 2.22527 4.79607 2.99841 3.75088 4.08219C1.8474 6.05867 0.693767 8.49026 0.276153 11.3807C0.0731145 12.7839 0.0140486 13.07 0.0020509 20.2374C-0.00256362 22.6265 0.0020509 25.7708 0.0020509 29.9882C0.0020509 42.5062 0.0158945 46.1665 0.0758832 46.8773C0.283536 49.3791 0.67577 50.9531 1.50638 52.6748C3.09378 55.9704 6.12551 58.4445 9.69715 59.3676C10.9338 59.6861 12.2997 59.8615 14.0533 59.9446C14.7962 59.9769 22.3686 60 29.9456 60C37.5227 60 45.0997 59.9908 45.8242 59.9538C47.8546 59.8583 49.0336 59.7 50.3372 59.363C52.1082 58.9087 53.7586 58.0732 55.1734 56.9148C56.5881 55.7565 57.7329 54.3031 58.528 52.6563C59.3424 50.9762 59.7554 49.3422 59.9423 46.9711C59.9829 46.4541 60 38.2117 60 29.9804C60 21.7477 59.9815 13.5205 59.9409 13.0036C59.7517 10.5941 59.3387 8.97399 58.498 7.26154C57.8081 5.85973 57.0421 4.81287 55.93 3.74247C53.9458 1.84631 51.5185 0.692366 48.6257 0.2751C47.2242 0.0724677 46.9451 0.0124626 39.7741 0H30.0098Z" fill="url(#paint0_radial_166_143)"/>
<path d="M30.0098 0C17.4851 0 13.8221 0.0129242 13.11 0.0720061C10.5398 0.285716 8.94037 0.69052 7.19793 1.55829C5.8551 2.22527 4.79607 2.99841 3.75088 4.08219C1.8474 6.05867 0.693767 8.49026 0.276153 11.3807C0.0731145 12.7839 0.0140486 13.07 0.0020509 20.2374C-0.00256362 22.6265 0.0020509 25.7708 0.0020509 29.9882C0.0020509 42.5062 0.0158945 46.1665 0.0758832 46.8773C0.283536 49.3791 0.67577 50.9531 1.50638 52.6748C3.09378 55.9704 6.12551 58.4445 9.69715 59.3676C10.9338 59.6861 12.2997 59.8615 14.0533 59.9446C14.7962 59.9769 22.3686 60 29.9456 60C37.5227 60 45.0997 59.9908 45.8242 59.9538C47.8546 59.8583 49.0336 59.7 50.3372 59.363C52.1082 58.9087 53.7586 58.0732 55.1734 56.9148C56.5881 55.7565 57.7329 54.3031 58.528 52.6563C59.3424 50.9762 59.7554 49.3422 59.9423 46.9711C59.9829 46.4541 60 38.2117 60 29.9804C60 21.7477 59.9815 13.5205 59.9409 13.0036C59.7517 10.5941 59.3387 8.97399 58.498 7.26154C57.8081 5.85973 57.0421 4.81287 55.93 3.74247C53.9458 1.84631 51.5185 0.692366 48.6257 0.2751C47.2242 0.0724677 46.9451 0.0124626 39.7741 0H30.0098Z" fill="url(#paint1_radial_166_143)"/>
<path d="M29.9958 7.8468C23.9803 7.8468 23.2254 7.87311 20.8627 7.98066C18.5047 8.08867 16.8952 8.46208 15.4868 9.00998C14.03 9.57587 12.7943 10.3329 11.5631 11.5648C10.331 12.7963 9.57425 14.0324 9.00666 15.4891C8.45753 16.8983 8.08376 18.5088 7.97762 20.8665C7.87241 23.2298 7.84473 23.9854 7.84473 30.0025C7.84473 36.0196 7.87149 36.7725 7.97855 39.1358C8.08699 41.4944 8.4603 43.1044 9.00759 44.5131C9.57379 45.9703 10.3306 47.2064 11.5622 48.4379C12.7929 49.6703 14.0286 50.4292 15.4845 50.9951C16.8938 51.543 18.5038 51.9164 20.8614 52.0244C23.224 52.1319 23.9785 52.1582 29.9935 52.1582C36.0094 52.1582 36.7621 52.1319 39.1247 52.0244C41.4827 51.9164 43.0941 51.543 44.5034 50.9951C45.9597 50.4292 47.1936 49.6703 48.4243 48.4379C49.6564 47.2064 50.4132 45.9703 50.9808 44.5136C51.5253 43.1044 51.8991 41.494 52.0098 39.1362C52.1159 36.7729 52.1436 36.0196 52.1436 30.0025C52.1436 23.9854 52.1159 23.2303 52.0098 20.867C51.8991 18.5083 51.5253 16.8983 50.9808 15.4896C50.4132 14.0324 49.6564 12.7963 48.4243 11.5648C47.1922 10.3324 45.9602 9.57541 44.502 9.00998C43.0899 8.46208 41.4795 8.08867 39.1215 7.98066C36.7588 7.87311 36.0067 7.8468 29.9893 7.8468H29.9958ZM28.0088 11.8394C28.5985 11.8385 29.2565 11.8394 29.9958 11.8394C35.9098 11.8394 36.6107 11.8607 38.9461 11.9668C41.1057 12.0656 42.2778 12.4266 43.0586 12.7298C44.0922 13.1314 44.8292 13.6114 45.6039 14.3869C46.3792 15.1623 46.8591 15.9009 47.2615 16.9348C47.5646 17.7149 47.926 18.8873 48.0242 21.0475C48.1304 23.383 48.1535 24.0846 48.1535 29.9974C48.1535 35.9102 48.1304 36.6118 48.0242 38.9474C47.9255 41.1076 47.5646 42.28 47.2615 43.0601C46.86 44.094 46.3792 44.8302 45.6039 45.6052C44.8287 46.3807 44.0927 46.8607 43.0586 47.2623C42.2787 47.5669 41.1057 47.927 38.9461 48.0257C36.6112 48.1319 35.9098 48.155 29.9958 48.155C24.0814 48.155 23.3804 48.1319 21.0455 48.0257C18.8859 47.926 17.7138 47.5651 16.9326 47.2618C15.8989 46.8603 15.1606 46.3802 14.3853 45.6048C13.6101 44.8293 13.1302 44.0926 12.7278 43.0582C12.4246 42.2782 12.0633 41.1058 11.965 38.9456C11.8589 36.61 11.8377 35.9084 11.8377 29.9919C11.8377 24.0754 11.8589 23.3775 11.965 21.0419C12.0638 18.8817 12.4246 17.7093 12.7278 16.9283C13.1293 15.8944 13.6101 15.1559 14.3853 14.3804C15.1606 13.605 15.8989 13.1249 16.9326 12.7224C17.7133 12.4178 18.8859 12.0578 21.0455 11.9585C23.0888 11.8662 23.8806 11.8385 28.0088 11.8339V11.8394ZM41.8191 15.5182C41.2934 15.5182 40.7794 15.6742 40.3423 15.9664C39.9052 16.2585 39.5645 16.6738 39.3634 17.1597C39.1622 17.6455 39.1096 18.1802 39.2123 18.6959C39.3149 19.2117 39.5682 19.6854 39.94 20.0572C40.3118 20.429 40.7855 20.6821 41.3011 20.7846C41.8168 20.8871 42.3512 20.8343 42.8369 20.6329C43.3226 20.4316 43.7376 20.0907 44.0296 19.6533C44.3215 19.216 44.4772 18.7019 44.4771 18.176C44.4771 16.7082 43.2865 15.5173 41.8191 15.5173V15.5182ZM29.9958 18.6246C23.714 18.6246 18.621 23.7191 18.621 30.0025C18.621 36.286 23.714 41.3781 29.9958 41.3781C36.2775 41.3781 41.3692 36.286 41.3692 30.0025C41.3692 23.7191 36.2771 18.6246 29.9953 18.6246H29.9958ZM29.9958 22.6173C34.0732 22.6173 37.379 25.9236 37.379 30.0025C37.379 34.081 34.0732 37.3878 29.9958 37.3878C25.9179 37.3878 22.6126 34.081 22.6126 30.0025C22.6126 25.9236 25.9179 22.6173 29.9958 22.6173Z" fill="white"/>
<defs>
<radialGradient id="paint0_radial_166_143" cx="0" cy="0" r="1" gradientUnits="userSpaceOnUse" gradientTransform="translate(15.9376 64.6213) rotate(-90) scale(59.4644 55.3066)">
<stop stop-color="#FFDD55"/>
<stop offset="0.1" stop-color="#FFDD55"/>
<stop offset="0.5" stop-color="#FF543E"/>
<stop offset="1" stop-color="#C837AB"/>
</radialGradient>
<radialGradient id="paint1_radial_166_143" cx="0" cy="0" r="1" gradientUnits="userSpaceOnUse" gradientTransform="translate(-10.0503 4.3223) rotate(78.6806) scale(26.5808 109.567)">
<stop stop-color="#3771C8"/>
<stop offset="0.128" stop-color="#3771C8"/>
<stop offset="1" stop-color="#6600FF" stop-opacity="0"/>
</radialGradient>
</defs>
</svg>
