<svg width="314" height="182" viewBox="0 0 314 182" fill="none" xmlns="http://www.w3.org/2000/svg">
<g filter="url(#filter0_d_111_341)">
<path d="M246.965 67.9722C246.517 67.1273 246.13 65.9929 245.802 64.569C245.474 63.1451 245.371 61.6656 245.494 60.1304C245.721 57.2795 246.506 55.2822 247.848 54.1386C249.263 53.0009 250.993 52.5136 253.04 52.6769L300.848 56.4905C301.296 57.3354 301.684 58.4699 302.011 59.8938C302.339 61.3177 302.442 62.7972 302.32 64.3323C302.092 67.1833 301.271 69.1776 299.856 70.3154C298.514 71.459 296.82 71.9491 294.773 71.7858L282.602 70.815L278.561 121.474C277.739 121.629 276.442 121.746 274.67 121.826C272.971 121.911 271.281 121.887 269.6 121.752C267.919 121.618 266.432 121.353 265.139 120.955C263.914 120.637 262.889 120.114 262.064 119.386C261.24 118.658 260.655 117.692 260.309 116.487C259.964 115.282 259.867 113.73 260.019 111.829L263.413 69.2843L246.965 67.9722Z" fill="#1F5B81"/>
</g>
<g filter="url(#filter1_d_111_341)">
<path d="M227.4 118.862C226.593 119.082 225.31 119.302 223.55 119.522C221.863 119.742 220.177 119.852 218.49 119.852C216.803 119.852 215.3 119.705 213.98 119.412C212.733 119.192 211.67 118.752 210.79 118.092C209.91 117.432 209.25 116.515 208.81 115.342C208.37 114.168 208.15 112.628 208.15 110.722V52.6415C208.957 52.4949 210.24 52.3115 212 52.0915C213.76 51.7982 215.447 51.6515 217.06 51.6515C218.747 51.6515 220.213 51.7982 221.46 52.0915C222.78 52.3115 223.88 52.7515 224.76 53.4115C225.64 54.0715 226.3 54.9882 226.74 56.1615C227.18 57.3349 227.4 58.8749 227.4 60.7815V118.862Z" fill="#1F5B81"/>
</g>
<g filter="url(#filter2_d_111_341)">
<path d="M143.789 102.876C144.792 103.244 146.092 103.56 147.69 103.825C149.294 104.017 150.827 104.167 152.29 104.274C155.215 104.49 157.671 104.083 159.659 103.053C161.725 101.955 162.853 100.126 163.042 97.5665C163.219 95.153 162.542 93.3751 161.008 92.2326C159.475 91.0901 157.062 90.3977 153.771 90.1551L144.776 89.4922L143.789 102.876ZM145.762 76.1085L153.77 76.6987C156.915 76.9304 159.225 76.5124 160.701 75.4446C162.25 74.3823 163.108 72.7175 163.275 70.4503C163.421 68.4757 162.695 66.8413 161.099 65.5472C159.577 64.2584 157.17 63.4928 153.879 63.2503C152.782 63.1694 151.499 63.1117 150.031 63.077C148.636 63.0478 147.531 63.0766 146.716 63.1636L145.762 76.1085ZM149.78 118.869C148.537 118.778 147.077 118.634 145.4 118.436C143.723 118.239 141.979 117.964 140.167 117.61C138.428 117.261 136.694 116.839 134.966 116.344C133.232 115.922 131.655 115.365 130.236 114.672C126.327 112.84 124.512 110.022 124.792 106.219L128.567 54.9878C128.681 53.4519 129.169 52.3114 130.033 51.5662C130.975 50.7533 132.197 50.1447 133.697 49.7406C136.248 49.0462 139.402 48.6536 143.159 48.5628C146.921 48.3988 150.777 48.4624 154.726 48.7534C164.088 49.4432 171.176 51.5465 175.99 55.0631C180.805 58.5798 182.97 63.6292 182.484 70.2114C182.242 73.5025 181.081 76.2847 179.002 78.558C176.928 80.7582 174.241 82.2882 170.943 83.1481C174.524 84.4415 177.422 86.5301 179.636 89.4139C181.923 92.3032 182.915 95.7956 182.614 99.8911C182.08 107.132 178.978 112.308 173.307 115.419C167.715 118.463 159.873 119.613 149.78 118.869Z" fill="#F5C718"/>
</g>
<g filter="url(#filter3_d_111_341)">
<path d="M78.3151 102.01C77.44 102.901 76.2594 103.673 74.7731 104.326C73.3531 104.899 71.6574 105.276 69.6858 105.459C67.057 105.702 64.8359 105.575 63.0227 105.08C61.2824 104.578 60.0825 103.547 59.4229 101.988C56.7846 95.7511 54.626 90.7217 52.9473 86.8999C51.2618 83.0051 49.9157 79.5945 48.9088 76.668L48.3612 76.7186C48.5402 81.0472 48.7219 85.0073 48.9065 88.5989C49.1573 92.1107 49.4014 95.5495 49.6387 98.9153C49.9491 102.274 50.1898 105.677 50.3608 109.122C50.6049 112.561 50.8097 116.372 50.9752 120.554C50.0597 121.007 48.8453 121.414 47.332 121.774C45.8256 122.208 44.3056 122.496 42.7721 122.638C39.5591 122.934 36.9926 122.656 35.0726 121.802C33.2256 120.942 32.1773 119.161 31.9277 116.459L29.9428 60.3036C30.4393 59.3003 31.6227 58.1599 33.4931 56.8824C35.3635 55.6049 38.0878 54.8009 41.6659 54.4703C45.536 54.1127 48.6238 54.4534 50.9292 55.4924C53.2278 56.4583 55.0131 58.245 56.285 60.8523C57.1042 62.5442 57.9834 64.4882 58.9228 66.6844C59.9352 68.8739 60.9178 71.1397 61.8707 73.482C62.8966 75.8175 63.886 78.1564 64.8388 80.4987C65.7849 82.7679 66.6378 84.8249 67.3974 86.6695L67.9451 86.6189C69.1309 80.3231 70.3369 74.2463 71.5632 68.3887C72.7827 62.458 73.9439 57.4901 75.0468 53.485C76.0882 52.7996 77.4317 52.1967 79.0775 51.6765C80.7896 51.0764 82.7044 50.6785 84.822 50.4829C88.4001 50.1523 91.3716 50.4301 93.7365 51.3163C96.0947 52.1294 97.5474 53.5049 98.0947 55.4428C98.5217 56.8763 99.0229 59.113 99.5984 62.1529C100.24 65.1131 100.919 68.4749 101.635 72.2383C102.351 76.0018 103.087 79.9842 103.843 84.1858C104.6 88.3874 105.306 92.4463 105.963 96.3625C106.685 100.199 107.308 103.75 107.831 107.016C108.347 110.209 108.722 112.678 108.957 114.424C107.783 115.269 106.516 115.901 105.156 116.321C103.875 116.808 102.176 117.149 100.058 117.345C97.2833 117.601 94.9027 117.342 92.9164 116.568C90.9301 115.795 89.7358 114.027 89.3334 111.266C88.1598 103.347 87.2065 96.2175 86.4735 89.878C85.8135 83.5318 85.1749 78.2147 84.5578 73.9266L84.0101 73.9772C83.543 76.8926 82.8148 80.5685 81.8255 85.005C80.8361 89.4415 79.666 95.1099 78.3151 102.01Z" fill="#EC974C"/>
</g>
<path d="M2.79 142.892C2.95 142.892 3.09 142.902 3.21 142.922C3.33 142.942 3.42 142.962 3.48 142.982C3.6 143.082 3.66 143.562 3.66 144.422V145.742L4.8 147.122C5.66 148.142 6.23 148.882 6.51 149.342C6.83 149.762 7.23 150.262 7.71 150.842C8.21 151.422 8.65 151.912 9.03 152.312C9.23 152.512 9.38 152.662 9.48 152.762C9.6 152.842 9.68 152.872 9.72 152.852C9.76 152.852 9.8 152.822 9.84 152.762C9.9 152.702 9.95 152.632 9.99 152.552C10.05 152.452 10.1 152.332 10.14 152.192C10.28 151.772 10.5 151.332 10.8 150.872C10.86 150.752 10.91 150.652 10.95 150.572C11.01 150.472 11.05 150.392 11.07 150.332C11.11 150.252 11.13 150.182 11.13 150.122C11.15 150.062 11.16 150.012 11.16 149.972C11.16 149.832 11.21 149.722 11.31 149.642C11.41 149.542 11.55 149.322 11.73 148.982C11.93 148.622 12.17 148.142 12.45 147.542C12.59 147.242 12.69 147.032 12.75 146.912C12.77 146.892 12.79 146.862 12.81 146.822C12.83 146.782 12.86 146.732 12.9 146.672C12.94 146.612 12.98 146.542 13.02 146.462C13.06 146.382 13.11 146.292 13.17 146.192C13.23 146.092 13.29 145.992 13.35 145.892C13.41 145.772 13.48 145.642 13.56 145.502C13.64 145.362 13.71 145.242 13.77 145.142C13.83 145.022 13.89 144.912 13.95 144.812C14.01 144.712 14.06 144.632 14.1 144.572C14.16 144.492 14.21 144.422 14.25 144.362C14.31 144.302 14.36 144.252 14.4 144.212C14.44 144.152 14.48 144.112 14.52 144.092C14.62 144.032 14.77 143.982 14.97 143.942C15.19 143.902 15.46 143.882 15.78 143.882C16.46 143.882 16.83 143.962 16.89 144.122C17.11 144.582 17.32 146.602 17.52 150.182C17.78 154.942 17.92 157.892 17.94 159.032C17.96 160.152 17.91 160.742 17.79 160.802C17.73 160.862 17.6 160.892 17.4 160.892C17.2 160.912 16.94 160.922 16.62 160.922L15.6 160.892L15.51 160.232C15.43 159.692 15.37 159.002 15.33 158.162L15.15 154.352C15.11 153.852 15.07 153.112 15.03 152.132C14.99 151.152 14.95 150.532 14.91 150.272C14.89 149.452 14.84 148.942 14.76 148.742C14.74 148.682 14.71 148.662 14.67 148.682L14.4 149.072C14.26 149.312 14.13 149.562 14.01 149.822C13.89 150.082 13.83 150.252 13.83 150.332C13.81 150.472 13.72 150.642 13.56 150.842C13.46 150.962 13.39 151.072 13.35 151.172C13.31 151.272 13.29 151.362 13.29 151.442C13.29 151.582 13.2 151.732 13.02 151.892C12.84 152.052 12.75 152.202 12.75 152.342C12.75 152.382 12.74 152.422 12.72 152.462C12.72 152.502 12.71 152.552 12.69 152.612C12.67 152.652 12.64 152.702 12.6 152.762C12.58 152.822 12.55 152.892 12.51 152.972C12.47 153.052 12.43 153.132 12.39 153.212C12.35 153.292 12.3 153.382 12.24 153.482C12.18 153.562 12.12 153.652 12.06 153.752C11.84 154.112 11.65 154.402 11.49 154.622C11.33 154.822 11.21 154.942 11.13 154.982C10.55 155.262 9.79 155.342 8.85 155.222C8.61 155.162 8.4 155.082 8.22 154.982C8.14 154.922 8.03 154.832 7.89 154.712C7.75 154.572 7.58 154.402 7.38 154.202C6.62 153.482 5.71 152.402 4.65 150.962V150.932C4.63 150.932 4.6 150.912 4.56 150.872C4.52 150.812 4.46 150.732 4.38 150.632C4.34 150.552 4.3 150.482 4.26 150.422C4.22 150.362 4.18 150.312 4.14 150.272C4.1 150.212 4.06 150.162 4.02 150.122C3.88 149.942 3.76 149.802 3.66 149.702C3.58 149.602 3.52 149.552 3.48 149.552C3.44 149.552 3.36 149.692 3.24 149.972C3.14 150.272 3.09 151.582 3.09 153.902C3.09 154.682 3.1 155.352 3.12 155.912C3.14 156.472 3.16 156.922 3.18 157.262C3.2 157.602 3.23 157.842 3.27 157.982C3.37 158.282 3.39 158.602 3.33 158.942C3.29 159.122 3.25 159.272 3.21 159.392C3.17 159.512 3.11 159.612 3.03 159.692C2.99 159.732 2.92 159.762 2.82 159.782C2.74 159.822 2.62 159.852 2.46 159.872C2.32 159.892 2.15 159.902 1.95 159.902C1.83 159.902 1.72 159.892 1.62 159.872C1.52 159.872 1.43 159.862 1.35 159.842C1.27 159.842 1.2 159.832 1.14 159.812C1.08 159.812 1.03 159.802 0.99 159.782C0.95 159.762 0.91 159.742 0.87 159.722C0.77 159.582 0.73 157.322 0.75 152.942C0.77 148.562 0.72 146.332 0.6 146.252C0.46 146.152 0.42 145.762 0.48 145.082C0.48 144.982 0.59 144.892 0.81 144.812C0.89 144.792 0.95 144.762 0.99 144.722C1.03 144.682 1.06 144.642 1.08 144.602C1.1 144.562 1.12 144.512 1.14 144.452C1.16 144.372 1.17 144.282 1.17 144.182C1.17 143.922 1.24 143.702 1.38 143.522C1.52 143.322 1.74 143.162 2.04 143.042C2.22 142.942 2.47 142.892 2.79 142.892ZM21.3977 151.022C21.7177 150.862 22.1177 150.802 22.5977 150.842L23.2877 150.872L23.3777 151.352C23.3977 151.652 23.3177 152.102 23.1377 152.702C22.9177 153.322 22.8177 154.052 22.8377 154.892C22.8377 155.172 22.8477 155.432 22.8677 155.672C22.9077 155.912 22.9477 156.132 22.9877 156.332C23.0477 156.532 23.1177 156.712 23.1977 156.872C23.3977 157.372 23.5377 157.622 23.6177 157.622C23.7577 157.622 23.9977 157.342 24.3377 156.782C24.6777 156.222 24.9977 155.622 25.2977 154.982C25.6777 154.182 25.9677 153.752 26.1677 153.692C26.3877 153.592 26.7677 153.562 27.3077 153.602C27.8677 153.642 28.1977 153.712 28.2977 153.812C28.3377 153.852 28.3777 153.922 28.4177 154.022C28.4577 154.102 28.4877 154.212 28.5077 154.352C28.5477 154.492 28.5777 154.642 28.5977 154.802C28.6577 155.062 28.7777 155.722 28.9577 156.782C29.0977 157.582 29.1877 158.412 29.2277 159.272C29.2677 159.852 29.2877 160.222 29.2877 160.382C29.2677 160.522 29.2177 160.602 29.1377 160.622C28.9977 160.702 28.9177 160.802 28.8977 160.922C28.8777 161.062 28.9477 161.162 29.1077 161.222C29.1677 161.262 29.2177 161.322 29.2577 161.402C29.2977 161.502 29.3177 161.632 29.3177 161.792C29.3377 161.852 29.3477 161.902 29.3477 161.942C29.3677 162.002 29.3777 162.052 29.3777 162.092C29.3977 162.132 29.4077 162.162 29.4077 162.182C29.4277 162.202 29.4477 162.222 29.4677 162.242C29.5477 162.282 29.7777 162.312 30.1577 162.332C30.6177 162.372 31.0477 162.352 31.4477 162.272C31.7877 162.192 32.1677 162.172 32.5877 162.212C32.6877 162.232 32.7677 162.242 32.8277 162.242C32.9077 162.262 32.9677 162.282 33.0077 162.302C33.0477 162.322 33.0777 162.342 33.0977 162.362C33.1177 162.362 33.1277 162.372 33.1277 162.392C33.1477 162.432 33.1577 162.472 33.1577 162.512C33.1777 162.552 33.1877 162.592 33.1877 162.632C33.2077 162.692 33.2177 162.752 33.2177 162.812C33.2377 163.172 33.1377 163.472 32.9177 163.712C32.8577 163.752 32.7977 163.792 32.7377 163.832C32.6977 163.872 32.6477 163.902 32.5877 163.922C32.5277 163.962 32.4677 163.982 32.4077 163.982C32.2277 164.022 31.7777 164.042 31.0577 164.042C30.8577 164.042 30.6777 164.042 30.5177 164.042C30.3777 164.042 30.2477 164.042 30.1277 164.042C30.0077 164.062 29.9077 164.072 29.8277 164.072C29.7477 164.092 29.6777 164.102 29.6177 164.102C29.5577 164.122 29.4977 164.142 29.4377 164.162C29.3977 164.202 29.3677 164.242 29.3477 164.282C29.2477 164.382 29.1677 164.562 29.1077 164.822C29.0477 165.102 28.8677 165.562 28.5677 166.202C28.4077 166.522 28.2277 166.802 28.0277 167.042C27.8477 167.302 27.6577 167.512 27.4577 167.672C27.0777 167.952 26.7477 168.152 26.4677 168.272C26.3277 168.352 26.1777 168.412 26.0177 168.452C25.8577 168.512 25.6977 168.552 25.5377 168.572C25.2177 168.612 24.7777 168.632 24.2177 168.632C23.2777 168.632 22.6077 168.532 22.2077 168.332C21.8677 168.132 21.6477 167.942 21.5477 167.762C21.5077 167.662 21.4677 167.522 21.4277 167.342C21.4077 167.182 21.3977 166.972 21.3977 166.712C21.3977 165.912 21.7277 165.152 22.3877 164.432C22.4277 164.392 22.4677 164.352 22.5077 164.312C22.5477 164.292 22.5877 164.262 22.6277 164.222C22.6677 164.182 22.7077 164.142 22.7477 164.102C22.9077 164.002 23.0777 163.892 23.2577 163.772C23.4377 163.652 23.6277 163.532 23.8277 163.412C24.0477 163.292 24.2577 163.182 24.4577 163.082C24.6777 163.002 24.8977 162.922 25.1177 162.842C25.1777 162.822 25.2377 162.792 25.2977 162.752C25.3777 162.732 25.4477 162.712 25.5077 162.692C25.5877 162.692 25.6577 162.682 25.7177 162.662C26.3777 162.462 26.7377 162.332 26.7977 162.272C26.8577 162.192 26.8377 161.582 26.7377 160.442C26.6577 159.302 26.5677 158.682 26.4677 158.582C26.4477 158.522 26.3977 158.502 26.3177 158.522C26.2577 158.542 26.1777 158.582 26.0777 158.642C25.9977 158.702 25.8877 158.782 25.7477 158.882C25.5877 159.042 25.4077 159.182 25.2077 159.302C25.0277 159.402 24.8377 159.482 24.6377 159.542C24.4377 159.622 24.2277 159.672 24.0077 159.692C23.6677 159.732 23.3377 159.722 23.0177 159.662C22.6977 159.622 22.3877 159.522 22.0877 159.362C22.0277 159.342 21.9677 159.322 21.9077 159.302C21.8677 159.262 21.8277 159.232 21.7877 159.212C21.7477 159.192 21.7077 159.172 21.6677 159.152C21.6277 159.132 21.5877 159.112 21.5477 159.092C21.5277 159.052 21.4977 159.022 21.4577 159.002C21.4377 158.982 21.4177 158.962 21.3977 158.942C21.2777 158.822 21.1277 158.562 20.9477 158.162C20.4677 157.102 20.2977 155.622 20.4377 153.722C20.5177 152.842 20.6277 152.212 20.7677 151.832C20.8277 151.632 20.9077 151.472 21.0077 151.352C21.1077 151.212 21.2377 151.102 21.3977 151.022ZM26.6477 164.432C26.6477 164.112 26.3077 164.202 25.6277 164.702C25.4877 164.782 25.3577 164.862 25.2377 164.942C25.1177 165.042 25.0077 165.142 24.9077 165.242C24.8277 165.322 24.7477 165.392 24.6677 165.452C24.6077 165.512 24.5477 165.572 24.4877 165.632C24.4277 165.712 24.3677 165.782 24.3077 165.842C24.1477 166.042 24.0577 166.202 24.0377 166.322C23.9777 166.422 23.9577 166.512 23.9777 166.592C24.0177 166.672 24.0677 166.742 24.1277 166.802C24.2077 166.862 24.2977 166.912 24.3977 166.952C24.4377 166.952 24.4777 166.952 24.5177 166.952C24.5777 166.952 24.6277 166.952 24.6677 166.952C25.0277 166.852 25.4477 166.492 25.9277 165.872C26.4077 165.272 26.6477 164.792 26.6477 164.432ZM46.9221 144.002C47.7821 143.882 48.3121 143.892 48.5121 144.032C48.5521 144.072 48.5821 144.182 48.6021 144.362C48.6421 144.542 48.6721 144.772 48.6921 145.052C48.7121 145.632 48.7321 147.002 48.7521 149.162C48.7721 150.102 48.7821 150.842 48.7821 151.382C48.8021 151.902 48.8121 152.402 48.8121 152.882C48.8321 153.362 48.8421 153.702 48.8421 153.902C48.8621 154.102 48.8821 154.222 48.9021 154.262C48.9821 154.362 49.1721 154.262 49.4721 153.962C49.8921 153.542 50.5121 153.202 51.3321 152.942C52.1721 152.682 53.0321 152.552 53.9121 152.552C54.9321 152.552 55.6921 152.712 56.1921 153.032C56.6921 153.332 57.0021 153.792 57.1221 154.412C57.1821 154.772 57.1621 155.222 57.0621 155.762C57.0421 155.882 57.0121 155.992 56.9721 156.092C56.9521 156.172 56.9321 156.252 56.9121 156.332C56.8921 156.392 56.8721 156.452 56.8521 156.512C56.8321 156.572 56.8021 156.622 56.7621 156.662C56.7421 156.702 56.7221 156.732 56.7021 156.752C56.5221 156.872 56.3521 157.142 56.1921 157.562C56.1321 157.702 56.0521 157.832 55.9521 157.952C55.8521 158.072 55.7321 158.192 55.5921 158.312C55.3321 158.532 54.6821 158.962 53.6421 159.602C53.4821 159.702 53.3121 159.792 53.1321 159.872C52.9521 159.972 52.7521 160.062 52.5321 160.142C52.3321 160.242 52.1121 160.332 51.8721 160.412C51.6521 160.512 51.4021 160.602 51.1221 160.682C50.7221 160.822 50.0721 160.902 49.1721 160.922C48.2721 160.922 47.6221 160.862 47.2221 160.742C47.1021 160.722 47.0021 160.692 46.9221 160.652C46.8421 160.612 46.7921 160.572 46.7721 160.532C46.6921 160.452 46.6121 160.262 46.5321 159.962C46.4321 159.482 46.3321 158.272 46.2321 156.332C46.1521 154.652 46.1121 152.312 46.1121 149.312C46.1121 146.292 46.1521 144.662 46.2321 144.422C46.2521 144.362 46.2721 144.312 46.2921 144.272C46.3321 144.212 46.3721 144.172 46.4121 144.152C46.4921 144.112 46.6621 144.062 46.9221 144.002ZM54.2421 154.472C54.1021 154.392 53.9521 154.332 53.7921 154.292C53.6321 154.252 53.4621 154.232 53.2821 154.232C52.7621 154.252 52.2621 154.462 51.7821 154.862C51.3221 155.262 50.8821 155.862 50.4621 156.662C50.3621 156.822 50.2721 156.972 50.1921 157.112C50.1321 157.252 50.0721 157.372 50.0121 157.472C49.9521 157.572 49.9021 157.652 49.8621 157.712C49.8221 157.772 49.7921 157.812 49.7721 157.832C49.6721 157.892 49.6221 158.012 49.6221 158.192C49.6221 158.432 49.8921 158.572 50.4321 158.612C50.6921 158.652 50.9221 158.662 51.1221 158.642C51.3421 158.602 51.5421 158.542 51.7221 158.462C51.7621 158.462 51.8121 158.452 51.8721 158.432C51.9321 158.392 51.9921 158.362 52.0521 158.342C52.1121 158.302 52.1721 158.262 52.2321 158.222C52.4321 158.082 52.6321 157.952 52.8321 157.832C52.9321 157.772 53.0221 157.712 53.1021 157.652C53.1821 157.592 53.2621 157.532 53.3421 157.472C53.3821 157.432 53.4121 157.402 53.4321 157.382C53.4721 157.342 53.5021 157.312 53.5221 157.292C53.5421 157.252 53.5621 157.222 53.5821 157.202C53.6021 157.182 53.6121 157.162 53.6121 157.142L53.9721 156.902C54.1321 156.862 54.2421 156.642 54.3021 156.242C54.3021 156.222 54.3021 156.192 54.3021 156.152C54.3221 156.092 54.3321 156.022 54.3321 155.942C54.3521 155.862 54.3721 155.762 54.3921 155.642C54.4121 155.522 54.4421 155.392 54.4821 155.252C54.5621 154.932 54.4821 154.672 54.2421 154.472ZM66.8552 151.052C67.2552 151.012 67.5352 151.022 67.6952 151.082C67.7752 151.102 67.8552 151.142 67.9352 151.202C68.0352 151.242 68.1352 151.302 68.2352 151.382C68.3752 151.502 68.5052 151.652 68.6252 151.832C68.7452 151.992 68.8552 152.182 68.9552 152.402C69.1552 152.842 69.2152 153.332 69.1352 153.872C69.1352 153.992 69.1252 154.102 69.1052 154.202C69.0852 154.302 69.0652 154.392 69.0452 154.472C69.0252 154.532 68.9952 154.592 68.9552 154.652C68.9352 154.692 68.8952 154.752 68.8352 154.832C68.7952 154.892 68.7352 154.962 68.6552 155.042C68.5752 155.122 68.4852 155.202 68.3852 155.282C68.1652 155.502 67.9552 155.682 67.7552 155.822C67.5752 155.962 67.3952 156.062 67.2152 156.122L66.1952 156.512C65.8352 156.652 65.4452 156.732 65.0252 156.752C64.6652 156.752 64.4452 156.802 64.3652 156.902C64.2852 157.002 64.2652 157.242 64.3052 157.622C64.3252 157.762 64.3552 157.882 64.3952 157.982C64.4552 158.082 64.5352 158.182 64.6352 158.282C64.6952 158.322 64.7552 158.372 64.8152 158.432C64.8952 158.472 64.9752 158.522 65.0552 158.582C65.3552 158.782 65.6452 158.902 65.9252 158.942C66.2052 158.982 66.9152 159.032 68.0552 159.092C68.8352 159.092 69.4752 159.112 69.9752 159.152C70.4752 159.172 70.8352 159.212 71.0552 159.272C71.3152 159.332 71.4552 159.402 71.4752 159.482C71.4952 159.502 71.5052 159.532 71.5052 159.572C71.5252 159.612 71.5352 159.672 71.5352 159.752C71.5352 159.832 71.5352 159.922 71.5352 160.022C71.5352 160.082 71.5252 160.132 71.5052 160.172C71.5052 160.232 71.4952 160.282 71.4752 160.322C71.4752 160.362 71.4652 160.402 71.4452 160.442C71.4452 160.482 71.4352 160.512 71.4152 160.532C71.3552 160.632 71.2052 160.722 70.9652 160.802C70.7252 160.902 70.3652 160.942 69.8852 160.922C69.4052 160.882 68.7452 160.862 67.9052 160.862C66.6452 160.842 65.8052 160.802 65.3852 160.742C64.9652 160.702 64.5352 160.612 64.0952 160.472C63.2352 160.172 62.6152 159.792 62.2352 159.332C62.0952 159.172 61.9752 159.002 61.8752 158.822C61.7952 158.622 61.7152 158.402 61.6352 158.162C61.5752 157.922 61.5352 157.662 61.5152 157.382C61.4552 157.002 61.3152 156.672 61.0952 156.392C60.8952 156.092 60.6452 155.902 60.3452 155.822H60.3152C60.2352 155.822 60.1552 155.792 60.0752 155.732C59.9952 155.672 59.9052 155.572 59.8052 155.432C59.6452 155.232 59.5652 155.042 59.5652 154.862C59.5652 154.682 59.6452 154.512 59.8052 154.352C60.1452 154.052 60.6752 153.902 61.3952 153.902C61.7552 153.902 61.9852 153.872 62.0852 153.812C62.1452 153.792 62.2152 153.742 62.2952 153.662C62.3752 153.562 62.4652 153.442 62.5652 153.302C62.6652 153.162 62.7452 153.042 62.8052 152.942C62.8852 152.842 62.9552 152.752 63.0152 152.672C63.0752 152.592 63.1352 152.522 63.1952 152.462C63.4152 152.242 63.7852 151.982 64.3052 151.682C64.4652 151.582 64.6152 151.502 64.7552 151.442C64.9152 151.362 65.0452 151.302 65.1452 151.262C65.2452 151.202 65.3352 151.162 65.4152 151.142C65.6952 151.082 66.1752 151.052 66.8552 151.052ZM66.4652 153.152C66.3052 152.992 66.0052 153.132 65.5652 153.572C65.4252 153.712 65.3052 153.852 65.2052 153.992C65.1052 154.112 65.0152 154.232 64.9352 154.352C64.8752 154.472 64.8352 154.582 64.8152 154.682C64.8152 154.762 64.8352 154.822 64.8752 154.862C64.9152 154.922 64.9752 154.942 65.0552 154.922C65.1552 154.902 65.2652 154.852 65.3852 154.772C65.5252 154.672 65.6852 154.542 65.8652 154.382C66.3652 153.902 66.5952 153.562 66.5552 153.362C66.5352 153.322 66.5152 153.282 66.4952 153.242C66.4952 153.202 66.4852 153.172 66.4652 153.152ZM78.0666 159.272C78.4066 159.292 78.6466 159.262 78.7866 159.182C78.8866 159.102 78.9866 158.932 79.0866 158.672C79.2066 158.392 79.2466 158.182 79.2066 158.042C79.1666 157.882 78.9366 157.602 78.5166 157.202C78.0966 156.802 77.6166 156.422 77.0766 156.062C76.3966 155.622 76.0566 155.362 76.0566 155.282C76.0566 155.222 75.8766 155.102 75.5166 154.922C75.0966 154.702 74.7266 154.352 74.4066 153.872C74.0866 153.372 73.9266 152.892 73.9266 152.432C73.9266 152.252 73.9466 152.082 73.9866 151.922C74.0466 151.742 74.1166 151.562 74.1966 151.382C74.3766 151.022 74.6066 150.742 74.8866 150.542C75.5866 150.022 76.1366 149.762 76.5366 149.762C76.7366 149.762 76.9066 149.732 77.0466 149.672C77.1466 149.572 77.3266 149.542 77.5866 149.582C77.7266 149.622 78.0966 149.682 78.6966 149.762C79.4566 149.882 80.0366 149.992 80.4366 150.092C80.6366 150.152 80.8166 150.222 80.9766 150.302C81.1366 150.362 81.2766 150.442 81.3966 150.542C81.6166 150.722 81.8166 150.982 81.9966 151.322C82.1566 151.682 82.2566 152.062 82.2966 152.462C82.3366 152.842 82.2866 153.102 82.1466 153.242C82.1066 153.282 82.0266 153.322 81.9066 153.362C81.7866 153.382 81.6166 153.392 81.3966 153.392C80.9966 153.412 80.7166 153.392 80.5566 153.332C80.4166 153.292 80.2266 153.002 79.9866 152.462C79.9266 152.342 79.8666 152.242 79.8066 152.162C79.7666 152.082 79.7266 152.012 79.6866 151.952C79.6466 151.872 79.6066 151.822 79.5666 151.802C79.4666 151.682 79.2866 151.552 79.0266 151.412C78.7466 151.292 78.4766 151.212 78.2166 151.172C77.9566 151.132 77.7066 151.132 77.4666 151.172C77.0066 151.252 76.6766 151.482 76.4766 151.862C76.3166 152.142 76.2866 152.372 76.3866 152.552C76.4666 152.752 76.7366 153.072 77.1966 153.512C77.3966 153.712 77.5966 153.902 77.7966 154.082C78.0166 154.262 78.2366 154.432 78.4566 154.592C78.6766 154.732 78.9066 154.872 79.1466 155.012C79.2266 155.052 79.3166 155.112 79.4166 155.192C79.5166 155.252 79.6166 155.332 79.7166 155.432C79.8366 155.512 79.9466 155.602 80.0466 155.702C80.1666 155.802 80.2866 155.912 80.4066 156.032C80.8866 156.512 81.1866 156.882 81.3066 157.142C81.4266 157.462 81.4666 157.922 81.4266 158.522C81.4066 159.122 81.3166 159.542 81.1566 159.782C80.7966 160.262 80.1766 160.592 79.2966 160.772C78.4166 160.972 77.5366 160.972 76.6566 160.772C75.7966 160.572 75.2066 160.232 74.8866 159.752C74.8466 159.692 74.8066 159.632 74.7666 159.572C74.7466 159.532 74.7166 159.482 74.6766 159.422C74.6566 159.382 74.6366 159.342 74.6166 159.302C74.5966 159.242 74.5766 159.192 74.5566 159.152C74.5366 159.092 74.5166 159.042 74.4966 159.002C74.4966 158.942 74.4966 158.892 74.4966 158.852C74.4366 158.532 74.4566 158.302 74.5566 158.162C74.6766 158.002 75.0066 157.912 75.5466 157.892L76.3266 157.862H76.3566V157.892L76.6266 158.372C76.8266 158.712 77.0466 158.952 77.2866 159.092C77.3666 159.132 77.4666 159.172 77.5866 159.212C77.7266 159.232 77.8866 159.252 78.0666 159.272ZM90.8344 146.882C91.0544 146.782 91.2944 146.722 91.5544 146.702C91.8344 146.662 92.1344 146.652 92.4544 146.672C92.5144 146.672 92.5444 146.742 92.5444 146.882C92.5644 147.002 92.5644 147.202 92.5444 147.482C92.5444 147.602 92.5344 147.732 92.5144 147.872C92.4944 147.992 92.4744 148.112 92.4544 148.232C92.4344 148.352 92.4044 148.472 92.3644 148.592C92.3444 148.692 92.3144 148.792 92.2744 148.892C92.2344 149.032 92.1844 149.172 92.1244 149.312C92.0844 149.452 92.0444 149.602 92.0044 149.762C92.0044 149.782 91.9844 149.872 91.9444 150.032C91.9244 150.192 91.8744 150.412 91.7944 150.692C91.6944 151.112 91.6744 151.352 91.7344 151.412C91.7944 151.492 92.1044 151.572 92.6644 151.652C95.0444 152.112 96.3844 152.432 96.6844 152.612C96.8644 152.712 96.9544 152.932 96.9544 153.272C96.9544 153.612 96.9044 153.822 96.8044 153.902C96.7844 153.942 96.7444 153.972 96.6844 153.992C96.6244 154.012 96.5544 154.032 96.4744 154.052C96.3944 154.052 96.2944 154.062 96.1744 154.082C96.0744 154.082 95.9544 154.082 95.8144 154.082C95.2744 154.082 94.9044 154.042 94.7044 153.962C94.5244 153.862 93.8544 153.712 92.6944 153.512C91.9944 153.372 91.5944 153.322 91.4944 153.362C91.4744 153.402 91.4544 153.482 91.4344 153.602C91.4144 153.702 91.4044 153.852 91.4044 154.052C91.4244 154.232 91.4444 154.472 91.4644 154.772C91.5044 155.632 91.5944 156.222 91.7344 156.542C92.2144 157.722 93.2044 158.542 94.7044 159.002C94.9244 159.082 95.1044 159.142 95.2444 159.182C95.3844 159.202 95.4844 159.212 95.5444 159.212C95.6044 159.212 95.6744 159.202 95.7544 159.182C95.8344 159.162 95.9344 159.132 96.0544 159.092C96.2944 158.952 96.6544 158.872 97.1344 158.852C97.2344 158.852 97.3344 158.862 97.4344 158.882C97.5344 158.882 97.6144 158.892 97.6744 158.912C97.7544 158.912 97.8144 158.922 97.8544 158.942C97.9144 158.962 97.9644 158.982 98.0044 159.002C98.1244 159.142 98.1644 159.352 98.1244 159.632C98.1044 159.932 98.0044 160.172 97.8244 160.352C97.7644 160.412 97.7044 160.462 97.6444 160.502C97.5844 160.562 97.5244 160.612 97.4644 160.652C97.3444 160.692 97.1944 160.732 97.0144 160.772C96.9144 160.792 96.7844 160.812 96.6244 160.832C96.4644 160.852 96.2644 160.872 96.0244 160.892C94.5844 161.012 93.2344 160.742 91.9744 160.082C90.7344 159.442 89.8644 158.572 89.3644 157.472C89.2644 157.272 89.1944 157.122 89.1544 157.022C89.1144 156.902 89.0744 156.742 89.0344 156.542C88.9944 156.322 88.9744 156.102 88.9744 155.882V154.832V154.352C88.9744 154.192 88.9744 154.042 88.9744 153.902C88.9744 153.762 88.9644 153.642 88.9444 153.542C88.9444 153.442 88.9344 153.362 88.9144 153.302C88.9144 153.242 88.9044 153.202 88.8844 153.182C88.8844 153.142 88.8644 153.112 88.8244 153.092C88.7844 153.052 88.7344 153.022 88.6744 153.002C88.6344 152.962 88.5744 152.932 88.4944 152.912C88.4144 152.892 88.3244 152.872 88.2244 152.852C88.1244 152.832 88.0444 152.822 87.9844 152.822C87.9244 152.822 87.8344 152.812 87.7144 152.792C87.6144 152.772 87.4944 152.752 87.3544 152.732C87.2344 152.692 87.0844 152.652 86.9044 152.612C86.8644 152.612 86.6744 152.582 86.3344 152.522C86.0144 152.462 85.7944 152.422 85.6744 152.402C85.1944 152.302 84.9044 152.212 84.8044 152.132C84.7244 152.052 84.6844 151.872 84.6844 151.592C84.6844 151.252 84.7644 151.022 84.9244 150.902C85.1244 150.822 85.5344 150.782 86.1544 150.782C86.4544 150.802 86.7244 150.832 86.9644 150.872C87.2244 150.892 87.4444 150.932 87.6244 150.992C87.8444 151.052 88.0444 151.102 88.2244 151.142C88.4244 151.162 88.5944 151.172 88.7344 151.172C88.9944 151.172 89.1644 151.092 89.2444 150.932C89.3444 150.772 89.4644 150.362 89.6044 149.702C89.6044 149.582 89.6144 149.472 89.6344 149.372C89.6744 149.272 89.7044 149.172 89.7244 149.072C89.7444 148.972 89.7644 148.882 89.7844 148.802C89.8044 148.702 89.8244 148.612 89.8444 148.532C89.8844 148.432 89.9144 148.342 89.9344 148.262C89.9744 148.162 90.0044 148.072 90.0244 147.992C90.1244 147.732 90.1944 147.542 90.2344 147.422C90.2944 147.282 90.3744 147.182 90.4744 147.122L90.8344 146.882ZM118.354 143.072C118.414 143.072 118.604 143.072 118.924 143.072C119.264 143.052 119.734 143.042 120.334 143.042C121.154 143.062 121.664 143.092 121.864 143.132C122.064 143.192 122.214 143.272 122.314 143.372C122.614 143.752 122.614 144.112 122.314 144.452C122.254 144.532 122.174 144.602 122.074 144.662C121.994 144.702 121.904 144.732 121.804 144.752C121.704 144.772 121.494 144.792 121.174 144.812C120.874 144.812 120.464 144.812 119.944 144.812H117.844L117.874 145.292C117.874 145.472 117.864 145.632 117.844 145.772C117.844 145.912 117.824 146.032 117.784 146.132C117.664 146.392 117.564 148.112 117.484 151.292C117.404 154.452 117.314 156.452 117.214 157.292C117.154 157.872 117.134 158.242 117.154 158.402C117.154 158.442 117.154 158.482 117.154 158.522C117.174 158.562 117.184 158.602 117.184 158.642C117.204 158.662 117.224 158.682 117.244 158.702C117.284 158.722 117.314 158.742 117.334 158.762C117.394 158.802 117.444 158.832 117.484 158.852C117.544 158.872 117.604 158.882 117.664 158.882C117.724 158.882 117.784 158.872 117.844 158.852C118.104 158.772 118.674 158.722 119.554 158.702C119.994 158.682 120.334 158.682 120.574 158.702C120.834 158.722 120.984 158.752 121.024 158.792C121.184 158.932 121.254 159.162 121.234 159.482C121.214 159.802 121.134 160.012 120.994 160.112C120.954 160.112 120.904 160.112 120.844 160.112C120.804 160.132 120.744 160.152 120.664 160.172C120.584 160.192 120.494 160.202 120.394 160.202C120.294 160.222 120.184 160.232 120.064 160.232C119.944 160.252 119.804 160.272 119.644 160.292C119.504 160.312 119.354 160.322 119.194 160.322C119.034 160.342 118.854 160.362 118.654 160.382C117.254 160.462 116.434 160.522 116.194 160.562C115.614 160.662 114.534 160.762 112.954 160.862L111.244 160.922L111.124 160.592C111.004 160.332 111.014 160.092 111.154 159.872C111.234 159.712 111.344 159.602 111.484 159.542C111.644 159.502 112.004 159.432 112.564 159.332C112.784 159.312 112.974 159.292 113.134 159.272C113.314 159.232 113.464 159.202 113.584 159.182C113.724 159.162 113.834 159.142 113.914 159.122C114.014 159.082 114.084 159.052 114.124 159.032C114.224 158.992 114.304 158.922 114.364 158.822C114.444 158.722 114.504 158.602 114.544 158.462C114.784 157.222 114.984 154.012 115.144 148.832C115.164 147.712 115.184 146.852 115.204 146.252C115.244 145.652 115.284 145.312 115.324 145.232C115.404 145.072 115.344 144.992 115.144 144.992C115.084 144.992 114.994 144.992 114.874 144.992C114.774 144.992 114.644 144.992 114.484 144.992C114.324 144.992 114.134 144.992 113.914 144.992C112.894 145.052 112.184 145.052 111.784 144.992C111.484 144.952 111.314 144.912 111.274 144.872C111.254 144.852 111.234 144.832 111.214 144.812C111.214 144.772 111.204 144.722 111.184 144.662C111.184 144.602 111.184 144.522 111.184 144.422C111.164 144.222 111.204 144.062 111.304 143.942C111.424 143.802 111.594 143.702 111.814 143.642C112.274 143.522 113.404 143.402 115.204 143.282C117.184 143.162 118.234 143.092 118.354 143.072ZM142.027 143.042C142.267 143.242 142.387 143.452 142.387 143.672C142.387 144.472 141.727 144.872 140.407 144.872C140.347 144.872 140.287 144.872 140.227 144.872C140.167 144.872 140.107 144.872 140.047 144.872C140.007 144.872 139.967 144.872 139.927 144.872C139.887 144.852 139.847 144.842 139.807 144.842C139.767 144.842 139.737 144.842 139.717 144.842C139.697 144.842 139.677 144.842 139.657 144.842C139.597 144.822 139.557 144.792 139.537 144.752C139.517 144.712 139.507 144.662 139.507 144.602C139.487 144.502 139.447 144.432 139.387 144.392C139.347 144.392 139.277 144.392 139.177 144.392C139.077 144.392 138.937 144.402 138.757 144.422C138.257 144.502 137.977 144.562 137.917 144.602C137.877 144.622 137.847 144.702 137.827 144.842C137.807 144.962 137.787 145.152 137.767 145.412C137.767 145.652 137.757 145.962 137.737 146.342C137.717 147.402 137.677 148.042 137.617 148.262C137.557 148.442 137.577 148.732 137.677 149.132C137.757 149.632 137.817 151.312 137.857 154.172C137.877 154.772 137.887 155.312 137.887 155.792C137.907 156.272 137.917 156.702 137.917 157.082C137.937 157.442 137.957 157.752 137.977 158.012C137.997 158.272 138.007 158.472 138.007 158.612C138.027 158.752 138.047 158.842 138.067 158.882C138.107 159.002 138.137 159.142 138.157 159.302C138.197 159.462 138.217 159.652 138.217 159.872C138.217 160.312 138.137 160.592 137.977 160.712C137.917 160.752 137.837 160.782 137.737 160.802C137.637 160.842 137.517 160.872 137.377 160.892C137.237 160.912 137.067 160.922 136.867 160.922H135.967L135.757 160.442C135.697 160.282 135.647 160.072 135.607 159.812C135.587 159.552 135.577 159.252 135.577 158.912C135.577 158.172 135.537 157.202 135.457 156.002C135.377 154.682 135.337 152.532 135.337 149.552V144.842L134.827 144.932C133.287 145.132 131.767 145.332 130.267 145.532C128.947 145.672 128.107 145.812 127.747 145.952C127.427 146.092 126.897 146.192 126.157 146.252C126.037 146.252 125.927 146.262 125.827 146.282C125.727 146.282 125.627 146.282 125.527 146.282C125.447 146.282 125.377 146.282 125.317 146.282C125.257 146.282 125.197 146.282 125.137 146.282C125.097 146.262 125.067 146.252 125.047 146.252C125.027 146.232 125.007 146.212 124.987 146.192C124.907 146.052 124.907 145.812 124.987 145.472C125.027 145.312 125.077 145.172 125.137 145.052C125.217 144.932 125.287 144.852 125.347 144.812C125.547 144.672 125.987 144.522 126.667 144.362C127.367 144.182 128.207 144.032 129.187 143.912C130.167 143.772 131.147 143.652 132.127 143.552C133.247 143.472 134.097 143.392 134.677 143.312C135.677 143.152 137.177 142.982 139.177 142.802C140.757 142.642 141.707 142.722 142.027 143.042ZM155.41 151.382C155.45 151.322 155.55 151.282 155.71 151.262C155.87 151.222 156.08 151.202 156.34 151.202C156.8 151.202 157.14 151.272 157.36 151.412C157.6 151.532 157.72 151.732 157.72 152.012C157.72 152.112 157.72 152.202 157.72 152.282C157.74 152.362 157.75 152.442 157.75 152.522C157.77 152.582 157.79 152.632 157.81 152.672C157.85 152.712 157.89 152.742 157.93 152.762C158.07 152.822 158.48 152.822 159.16 152.762C160.04 152.722 160.65 152.752 160.99 152.852C161.33 152.932 161.77 153.212 162.31 153.692C162.69 154.032 162.96 154.302 163.12 154.502C163.18 154.562 163.23 154.632 163.27 154.712C163.31 154.792 163.35 154.882 163.39 154.982C163.43 155.062 163.46 155.162 163.48 155.282C163.6 155.622 163.67 155.942 163.69 156.242C163.71 156.542 163.7 156.802 163.66 157.022C163.62 157.162 163.56 157.312 163.48 157.472C163.4 157.632 163.3 157.792 163.18 157.952C163.06 158.112 162.92 158.272 162.76 158.432C162.3 158.892 161.63 159.332 160.75 159.752C160.31 159.972 159.92 160.132 159.58 160.232C159.24 160.352 158.95 160.412 158.71 160.412C158.63 160.412 158.56 160.412 158.5 160.412C158.44 160.432 158.38 160.452 158.32 160.472C158.28 160.492 158.26 160.512 158.26 160.532C158.2 160.632 158.24 161.322 158.38 162.602C158.5 163.902 158.61 164.792 158.71 165.272C158.73 165.372 158.75 165.482 158.77 165.602C158.81 165.722 158.83 165.812 158.83 165.872C158.85 165.952 158.87 166.032 158.89 166.112C158.91 166.172 158.92 166.212 158.92 166.232C158.92 166.272 158.93 166.322 158.95 166.382C158.99 166.462 159.03 166.552 159.07 166.652C159.13 166.752 159.2 166.882 159.28 167.042C159.48 167.422 159.54 167.772 159.46 168.092C159.44 168.292 159.4 168.422 159.34 168.482C159.3 168.502 159.24 168.522 159.16 168.542C159.08 168.562 158.98 168.582 158.86 168.602C158.48 168.642 158.08 168.642 157.66 168.602C157.34 168.542 157.14 168.482 157.06 168.422C157 168.362 156.89 168.122 156.73 167.702C156.29 166.442 155.96 164.872 155.74 162.992C155.52 161.132 155.38 158.592 155.32 155.372C155.26 152.852 155.29 151.522 155.41 151.382ZM161.05 156.962C161.23 156.702 161.27 156.452 161.17 156.212C161.15 156.112 161.1 156.012 161.02 155.912C160.96 155.812 160.88 155.702 160.78 155.582C160.68 155.462 160.56 155.332 160.42 155.192C160 154.752 159.73 154.532 159.61 154.532C159.51 154.532 159.26 154.702 158.86 155.042C158.52 155.342 158.29 155.492 158.17 155.492C158.07 155.492 158.01 155.562 157.99 155.702C157.99 155.782 157.98 155.882 157.96 156.002C157.96 156.122 157.97 156.262 157.99 156.422C157.99 156.742 157.99 157.062 157.99 157.382C157.99 157.702 158 157.982 158.02 158.222C158.06 158.462 158.08 158.592 158.08 158.612V158.642C158.2 158.722 158.46 158.672 158.86 158.492C159.26 158.312 159.68 158.072 160.12 157.772C160.34 157.612 160.53 157.472 160.69 157.352C160.85 157.212 160.97 157.082 161.05 156.962ZM173.396 151.052C173.796 151.012 174.076 151.022 174.236 151.082C174.316 151.102 174.396 151.142 174.476 151.202C174.576 151.242 174.676 151.302 174.776 151.382C174.916 151.502 175.046 151.652 175.166 151.832C175.286 151.992 175.396 152.182 175.496 152.402C175.696 152.842 175.756 153.332 175.676 153.872C175.676 153.992 175.666 154.102 175.646 154.202C175.626 154.302 175.606 154.392 175.586 154.472C175.566 154.532 175.536 154.592 175.496 154.652C175.476 154.692 175.436 154.752 175.376 154.832C175.336 154.892 175.276 154.962 175.196 155.042C175.116 155.122 175.026 155.202 174.926 155.282C174.706 155.502 174.496 155.682 174.296 155.822C174.116 155.962 173.936 156.062 173.756 156.122L172.736 156.512C172.376 156.652 171.986 156.732 171.566 156.752C171.206 156.752 170.986 156.802 170.906 156.902C170.826 157.002 170.806 157.242 170.846 157.622C170.866 157.762 170.896 157.882 170.936 157.982C170.996 158.082 171.076 158.182 171.176 158.282C171.236 158.322 171.296 158.372 171.356 158.432C171.436 158.472 171.516 158.522 171.596 158.582C171.896 158.782 172.186 158.902 172.466 158.942C172.746 158.982 173.456 159.032 174.596 159.092C175.376 159.092 176.016 159.112 176.516 159.152C177.016 159.172 177.376 159.212 177.596 159.272C177.856 159.332 177.996 159.402 178.016 159.482C178.036 159.502 178.046 159.532 178.046 159.572C178.066 159.612 178.076 159.672 178.076 159.752C178.076 159.832 178.076 159.922 178.076 160.022C178.076 160.082 178.066 160.132 178.046 160.172C178.046 160.232 178.036 160.282 178.016 160.322C178.016 160.362 178.006 160.402 177.986 160.442C177.986 160.482 177.976 160.512 177.956 160.532C177.896 160.632 177.746 160.722 177.506 160.802C177.266 160.902 176.906 160.942 176.426 160.922C175.946 160.882 175.286 160.862 174.446 160.862C173.186 160.842 172.346 160.802 171.926 160.742C171.506 160.702 171.076 160.612 170.636 160.472C169.776 160.172 169.156 159.792 168.776 159.332C168.636 159.172 168.516 159.002 168.416 158.822C168.336 158.622 168.256 158.402 168.176 158.162C168.116 157.922 168.076 157.662 168.056 157.382C167.996 157.002 167.856 156.672 167.636 156.392C167.436 156.092 167.186 155.902 166.886 155.822H166.856C166.776 155.822 166.696 155.792 166.616 155.732C166.536 155.672 166.446 155.572 166.346 155.432C166.186 155.232 166.106 155.042 166.106 154.862C166.106 154.682 166.186 154.512 166.346 154.352C166.686 154.052 167.216 153.902 167.936 153.902C168.296 153.902 168.526 153.872 168.626 153.812C168.686 153.792 168.756 153.742 168.836 153.662C168.916 153.562 169.006 153.442 169.106 153.302C169.206 153.162 169.286 153.042 169.346 152.942C169.426 152.842 169.496 152.752 169.556 152.672C169.616 152.592 169.676 152.522 169.736 152.462C169.956 152.242 170.326 151.982 170.846 151.682C171.006 151.582 171.156 151.502 171.296 151.442C171.456 151.362 171.586 151.302 171.686 151.262C171.786 151.202 171.876 151.162 171.956 151.142C172.236 151.082 172.716 151.052 173.396 151.052ZM173.006 153.152C172.846 152.992 172.546 153.132 172.106 153.572C171.966 153.712 171.846 153.852 171.746 153.992C171.646 154.112 171.556 154.232 171.476 154.352C171.416 154.472 171.376 154.582 171.356 154.682C171.356 154.762 171.376 154.822 171.416 154.862C171.456 154.922 171.516 154.942 171.596 154.922C171.696 154.902 171.806 154.852 171.926 154.772C172.066 154.672 172.226 154.542 172.406 154.382C172.906 153.902 173.136 153.562 173.096 153.362C173.076 153.322 173.056 153.282 173.036 153.242C173.036 153.202 173.026 153.172 173.006 153.152ZM180.948 150.722C181.208 150.602 181.518 150.542 181.878 150.542C182.238 150.542 182.498 150.622 182.658 150.782C182.678 150.802 182.698 150.832 182.718 150.872C182.758 150.892 182.788 150.922 182.808 150.962C182.828 151.002 182.848 151.052 182.868 151.112C182.888 151.152 182.898 151.202 182.898 151.262C182.918 151.322 182.938 151.392 182.958 151.472C182.978 151.552 182.998 151.632 183.018 151.712C183.038 151.792 183.058 151.872 183.078 151.952C183.178 152.612 183.288 153.132 183.408 153.512C183.548 153.912 183.618 154.162 183.618 154.262C183.598 154.362 183.588 154.472 183.588 154.592C183.608 154.712 183.638 154.852 183.678 155.012C183.738 155.152 183.788 155.262 183.828 155.342C183.868 155.402 183.918 155.432 183.978 155.432C184.058 155.432 184.238 155.332 184.518 155.132C185.098 154.652 186.078 154.462 187.458 154.562C188.838 154.642 189.698 154.962 190.038 155.522C190.358 156.022 190.368 156.412 190.068 156.692C190.048 156.712 190.018 156.732 189.978 156.752C189.958 156.752 189.928 156.762 189.888 156.782C189.848 156.782 189.798 156.792 189.738 156.812C189.578 156.852 189.388 156.882 189.168 156.902C188.968 156.922 188.768 156.932 188.568 156.932C188.388 156.932 188.228 156.922 188.088 156.902C187.968 156.862 187.908 156.812 187.908 156.752C187.908 156.652 187.748 156.542 187.428 156.422C187.108 156.282 186.848 156.232 186.648 156.272C186.288 156.372 185.868 156.832 185.388 157.652C184.908 158.452 184.668 159.102 184.668 159.602C184.668 159.662 184.658 159.752 184.638 159.872C184.618 160.012 184.588 160.182 184.548 160.382L184.338 160.922H183.228H182.058L181.968 159.932C181.928 159.272 181.838 158.732 181.698 158.312C181.578 157.852 181.498 157.332 181.458 156.752C181.338 155.872 181.038 154.382 180.558 152.282C180.358 151.502 180.488 150.982 180.948 150.722ZM196.83 159.272C197.17 159.292 197.41 159.262 197.55 159.182C197.65 159.102 197.75 158.932 197.85 158.672C197.97 158.392 198.01 158.182 197.97 158.042C197.93 157.882 197.7 157.602 197.28 157.202C196.86 156.802 196.38 156.422 195.84 156.062C195.16 155.622 194.82 155.362 194.82 155.282C194.82 155.222 194.64 155.102 194.28 154.922C193.86 154.702 193.49 154.352 193.17 153.872C192.85 153.372 192.69 152.892 192.69 152.432C192.69 152.252 192.71 152.082 192.75 151.922C192.81 151.742 192.88 151.562 192.96 151.382C193.14 151.022 193.37 150.742 193.65 150.542C194.35 150.022 194.9 149.762 195.3 149.762C195.5 149.762 195.67 149.732 195.81 149.672C195.91 149.572 196.09 149.542 196.35 149.582C196.49 149.622 196.86 149.682 197.46 149.762C198.22 149.882 198.8 149.992 199.2 150.092C199.4 150.152 199.58 150.222 199.74 150.302C199.9 150.362 200.04 150.442 200.16 150.542C200.38 150.722 200.58 150.982 200.76 151.322C200.92 151.682 201.02 152.062 201.06 152.462C201.1 152.842 201.05 153.102 200.91 153.242C200.87 153.282 200.79 153.322 200.67 153.362C200.55 153.382 200.38 153.392 200.16 153.392C199.76 153.412 199.48 153.392 199.32 153.332C199.18 153.292 198.99 153.002 198.75 152.462C198.69 152.342 198.63 152.242 198.57 152.162C198.53 152.082 198.49 152.012 198.45 151.952C198.41 151.872 198.37 151.822 198.33 151.802C198.23 151.682 198.05 151.552 197.79 151.412C197.51 151.292 197.24 151.212 196.98 151.172C196.72 151.132 196.47 151.132 196.23 151.172C195.77 151.252 195.44 151.482 195.24 151.862C195.08 152.142 195.05 152.372 195.15 152.552C195.23 152.752 195.5 153.072 195.96 153.512C196.16 153.712 196.36 153.902 196.56 154.082C196.78 154.262 197 154.432 197.22 154.592C197.44 154.732 197.67 154.872 197.91 155.012C197.99 155.052 198.08 155.112 198.18 155.192C198.28 155.252 198.38 155.332 198.48 155.432C198.6 155.512 198.71 155.602 198.81 155.702C198.93 155.802 199.05 155.912 199.17 156.032C199.65 156.512 199.95 156.882 200.07 157.142C200.19 157.462 200.23 157.922 200.19 158.522C200.17 159.122 200.08 159.542 199.92 159.782C199.56 160.262 198.94 160.592 198.06 160.772C197.18 160.972 196.3 160.972 195.42 160.772C194.56 160.572 193.97 160.232 193.65 159.752C193.61 159.692 193.57 159.632 193.53 159.572C193.51 159.532 193.48 159.482 193.44 159.422C193.42 159.382 193.4 159.342 193.38 159.302C193.36 159.242 193.34 159.192 193.32 159.152C193.3 159.092 193.28 159.042 193.26 159.002C193.26 158.942 193.26 158.892 193.26 158.852C193.2 158.532 193.22 158.302 193.32 158.162C193.44 158.002 193.77 157.912 194.31 157.892L195.09 157.862H195.12V157.892L195.39 158.372C195.59 158.712 195.81 158.952 196.05 159.092C196.13 159.132 196.23 159.172 196.35 159.212C196.49 159.232 196.65 159.252 196.83 159.272ZM206.118 150.692C206.578 150.512 206.838 150.422 206.898 150.422L207.198 150.482C207.318 150.542 207.428 150.612 207.528 150.692L207.678 150.842C207.678 150.882 207.758 150.952 207.918 151.052C208.098 151.132 208.298 151.232 208.518 151.352C208.738 151.452 208.948 151.542 209.148 151.622C209.368 151.702 209.508 151.742 209.568 151.742C209.688 151.742 209.858 151.822 210.078 151.982C210.298 152.122 210.568 152.342 210.888 152.642C211.048 152.802 211.188 152.952 211.308 153.092C211.448 153.212 211.558 153.322 211.638 153.422C211.718 153.522 211.778 153.612 211.818 153.692C211.858 153.772 211.878 153.842 211.878 153.902C211.878 153.922 211.878 153.952 211.878 153.992C211.898 154.012 211.908 154.042 211.908 154.082C211.928 154.122 211.948 154.162 211.968 154.202C211.988 154.242 212.008 154.282 212.028 154.322C212.068 154.362 212.098 154.412 212.118 154.472C212.418 154.872 212.588 155.542 212.628 156.482C212.668 157.422 212.568 158.202 212.328 158.822C212.228 159.042 212.068 159.282 211.848 159.542C211.628 159.802 211.378 160.032 211.098 160.232C210.838 160.452 210.618 160.582 210.438 160.622C210.338 160.642 210.228 160.662 210.108 160.682C210.008 160.722 209.908 160.772 209.808 160.832C209.608 160.892 209.128 160.922 208.368 160.922C206.388 160.922 205.048 160.282 204.348 159.002C203.948 158.262 203.698 157.742 203.598 157.442C203.498 157.122 203.448 156.692 203.448 156.152C203.468 155.452 203.548 154.852 203.688 154.352C203.848 153.912 203.918 153.342 203.898 152.642C203.858 152.082 203.888 151.732 203.988 151.592C204.028 151.512 204.118 151.442 204.258 151.382C204.398 151.302 204.578 151.232 204.798 151.172C204.958 151.112 205.148 151.042 205.368 150.962C205.588 150.882 205.838 150.792 206.118 150.692ZM207.738 153.092C207.298 152.892 207.038 152.792 206.958 152.792C206.898 152.792 206.838 152.812 206.778 152.852C206.738 152.872 206.688 152.922 206.628 153.002C206.568 153.082 206.518 153.182 206.478 153.302C206.318 153.642 206.188 154.082 206.088 154.622C205.988 155.142 205.938 155.652 205.938 156.152C205.938 156.532 205.968 156.862 206.028 157.142C206.048 157.202 206.068 157.272 206.088 157.352C206.108 157.412 206.128 157.482 206.148 157.562C206.188 157.622 206.228 157.682 206.268 157.742C206.308 157.802 206.348 157.862 206.388 157.922C206.448 158.002 206.508 158.082 206.568 158.162C206.648 158.242 206.728 158.322 206.808 158.402C206.888 158.482 206.978 158.572 207.078 158.672C207.138 158.712 207.188 158.762 207.228 158.822C207.268 158.862 207.308 158.902 207.348 158.942C207.408 158.962 207.458 158.992 207.498 159.032C207.538 159.052 207.568 159.072 207.588 159.092C207.628 159.112 207.658 159.132 207.678 159.152C207.818 159.212 208.048 159.242 208.368 159.242C208.648 159.242 208.848 159.212 208.968 159.152C209.028 159.132 209.098 159.092 209.178 159.032C209.278 158.972 209.378 158.892 209.478 158.792C209.598 158.652 209.708 158.502 209.808 158.342C209.908 158.162 209.988 157.972 210.048 157.772C210.148 157.392 210.168 156.932 210.108 156.392C210.068 155.832 209.958 155.382 209.778 155.042C209.678 154.862 209.558 154.682 209.418 154.502C209.278 154.302 209.118 154.122 208.938 153.962C208.758 153.782 208.558 153.622 208.338 153.482C208.118 153.322 207.918 153.192 207.738 153.092ZM215.326 150.752C215.566 150.652 215.976 150.612 216.556 150.632C216.656 150.632 216.736 150.632 216.796 150.632C216.876 150.632 216.946 150.642 217.006 150.662C217.066 150.662 217.116 150.672 217.156 150.692C217.216 150.692 217.266 150.692 217.306 150.692C217.346 150.692 217.376 150.702 217.396 150.722C217.436 150.722 217.456 150.732 217.456 150.752C217.476 150.752 217.486 150.762 217.486 150.782C217.506 150.842 217.596 151.162 217.756 151.742C217.936 152.302 218.026 152.742 218.026 153.062C218.026 153.222 218.036 153.342 218.056 153.422C218.096 153.502 218.146 153.542 218.206 153.542C218.286 153.582 218.446 153.482 218.686 153.242C218.966 152.942 219.256 152.742 219.556 152.642C219.716 152.582 219.916 152.542 220.156 152.522C220.396 152.482 220.676 152.462 220.996 152.462C221.816 152.462 222.386 152.552 222.706 152.732C222.786 152.772 222.856 152.822 222.916 152.882C222.996 152.942 223.066 153.022 223.126 153.122C223.206 153.202 223.286 153.302 223.366 153.422C223.466 153.522 223.556 153.642 223.636 153.782C223.716 153.902 223.806 154.042 223.906 154.202C224.366 154.982 224.626 155.532 224.686 155.852C224.766 156.112 224.936 156.592 225.196 157.292C225.416 157.892 225.546 158.322 225.586 158.582C225.666 158.862 225.766 159.052 225.886 159.152C225.926 159.192 225.956 159.272 225.976 159.392C226.016 159.532 226.036 159.712 226.036 159.932C226.036 160.252 226.016 160.452 225.976 160.532C225.936 160.612 225.816 160.702 225.616 160.802C225.436 160.862 225.276 160.892 225.136 160.892C225.016 160.912 224.926 160.902 224.866 160.862C224.666 160.762 224.406 160.712 224.086 160.712C223.766 160.712 223.556 160.632 223.456 160.472C223.376 160.332 223.196 159.782 222.916 158.822C222.756 158.242 222.576 157.692 222.376 157.172C222.196 156.652 221.996 156.162 221.776 155.702C221.556 155.222 221.366 154.902 221.206 154.742C221.066 154.562 220.906 154.512 220.726 154.592C220.566 154.652 220.306 155.072 219.946 155.852C219.786 156.232 219.646 156.592 219.526 156.932C219.406 157.272 219.316 157.582 219.256 157.862C219.116 158.582 218.976 159.082 218.836 159.362L218.626 159.782H217.576C216.936 159.782 216.556 159.702 216.436 159.542C216.416 159.522 216.396 159.472 216.376 159.392C216.356 159.312 216.336 159.212 216.316 159.092C216.296 158.952 216.266 158.802 216.226 158.642C216.206 158.462 216.186 158.272 216.166 158.072C216.146 157.852 216.126 157.612 216.106 157.352C216.046 156.732 215.986 156.212 215.926 155.792C215.886 155.372 215.826 155.052 215.746 154.832C215.606 154.292 215.526 153.842 215.506 153.482C215.486 153.062 215.406 152.692 215.266 152.372C215.186 152.212 215.126 152.052 215.086 151.892C215.046 151.732 215.026 151.572 215.026 151.412C215.026 151.072 215.126 150.852 215.326 150.752ZM238.02 157.532C238.32 157.812 238.56 158.012 238.74 158.132C238.86 158.192 238.99 158.402 239.13 158.762C239.21 158.942 239.26 159.092 239.28 159.212C239.3 159.332 239.29 159.422 239.25 159.482C239.23 159.522 239.12 159.542 238.92 159.542C238.74 159.562 238.47 159.572 238.11 159.572H237.03L236.19 158.942C235.93 158.742 235.72 158.592 235.56 158.492C235.42 158.372 235.34 158.312 235.32 158.312C235.28 158.312 235.06 158.602 234.66 159.182C234.24 159.842 233.84 160.282 233.46 160.502C233.38 160.542 233.29 160.582 233.19 160.622C233.09 160.662 232.98 160.692 232.86 160.712C232.76 160.752 232.65 160.782 232.53 160.802C232.41 160.822 232.28 160.842 232.14 160.862C232 160.882 231.85 160.892 231.69 160.892C230.73 160.972 230.02 160.822 229.56 160.442C229.4 160.282 229.24 160.062 229.08 159.782C228.92 159.522 228.79 159.222 228.69 158.882C228.61 158.542 228.54 158.192 228.48 157.832C228.42 157.212 228.43 156.492 228.51 155.672C228.61 154.832 228.74 154.222 228.9 153.842C229.08 153.442 229.17 153.182 229.17 153.062C229.17 153.002 229.19 152.932 229.23 152.852C229.27 152.772 229.33 152.672 229.41 152.552C229.51 152.432 229.7 152.142 229.98 151.682C230.46 150.922 231.14 150.472 232.02 150.332C233 150.172 233.77 150.242 234.33 150.542C234.53 150.622 234.82 150.882 235.2 151.322C235.58 151.742 235.88 152.122 236.1 152.462C236.18 152.602 236.27 152.772 236.37 152.972C236.47 153.152 236.57 153.362 236.67 153.602C236.79 153.942 236.86 154.352 236.88 154.832C236.9 155.072 236.9 155.262 236.88 155.402C236.86 155.542 236.82 155.632 236.76 155.672C236.62 155.752 236.58 155.902 236.64 156.122C236.72 156.322 236.87 156.522 237.09 156.722C237.39 156.962 237.7 157.232 238.02 157.532ZM234.24 154.202C234.04 153.802 233.8 153.402 233.52 153.002C233.26 152.582 233.05 152.332 232.89 152.252C232.75 152.172 232.63 152.132 232.53 152.132C232.43 152.132 232.34 152.152 232.26 152.192C232.24 152.212 232.21 152.242 232.17 152.282C232.13 152.322 232.09 152.372 232.05 152.432C232.03 152.472 232 152.532 231.96 152.612C231.92 152.672 231.87 152.742 231.81 152.822C231.77 152.902 231.73 152.992 231.69 153.092C231.39 153.752 231.16 154.502 231 155.342C230.86 156.162 230.84 156.862 230.94 157.442C231.02 157.922 231.11 158.292 231.21 158.552C231.33 158.812 231.45 158.962 231.57 159.002C231.69 159.062 231.87 158.972 232.11 158.732C232.37 158.472 232.57 158.182 232.71 157.862C233.01 157.122 233.25 156.512 233.43 156.032C233.49 155.832 233.55 155.672 233.61 155.552C233.69 155.432 233.76 155.342 233.82 155.282C233.9 155.202 233.98 155.152 234.06 155.132C234.1 155.112 234.14 155.102 234.18 155.102C234.24 155.082 234.28 155.062 234.3 155.042C234.34 155.022 234.37 155.002 234.39 154.982C234.43 154.962 234.46 154.932 234.48 154.892C234.52 154.832 234.44 154.602 234.24 154.202ZM241.969 159.182C241.969 159.122 241.969 159.062 241.969 159.002C241.969 158.942 241.979 158.872 241.999 158.792C242.039 158.372 242.129 158.112 242.269 158.012C242.429 157.892 242.789 157.842 243.349 157.862C243.429 157.862 243.509 157.872 243.589 157.892C243.669 157.892 243.739 157.892 243.799 157.892C243.859 157.892 243.909 157.902 243.949 157.922C244.009 157.922 244.049 157.922 244.069 157.922C244.109 157.922 244.139 157.932 244.159 157.952C244.279 157.972 244.349 158.052 244.369 158.192C244.389 158.372 244.429 158.472 244.489 158.492C244.509 158.472 244.549 158.432 244.609 158.372C244.689 158.312 244.799 158.222 244.939 158.102C245.199 157.862 245.479 157.582 245.779 157.262C246.079 156.922 246.279 156.672 246.379 156.512C246.579 156.252 246.669 155.972 246.649 155.672C246.629 155.372 246.489 154.882 246.229 154.202C245.609 152.682 245.259 150.852 245.179 148.712C245.119 146.572 245.349 145.012 245.869 144.032C245.909 143.952 245.939 143.882 245.959 143.822C245.979 143.762 245.989 143.712 245.989 143.672C246.009 143.612 246.019 143.562 246.019 143.522C246.019 143.482 246.029 143.442 246.049 143.402C246.069 143.362 246.099 143.312 246.139 143.252C246.199 143.192 246.259 143.132 246.319 143.072C246.379 142.992 246.459 142.922 246.559 142.862L247.069 142.382H248.389C249.349 142.382 250.029 142.512 250.429 142.772C250.829 143.012 251.229 143.552 251.629 144.392C251.789 144.712 251.889 145.012 251.929 145.292C251.989 145.552 252.029 146.012 252.049 146.672C252.069 147.512 252.009 148.402 251.869 149.342C251.849 149.562 251.819 149.782 251.779 150.002C251.739 150.202 251.699 150.382 251.659 150.542C251.619 150.702 251.579 150.852 251.539 150.992C251.499 151.112 251.449 151.222 251.389 151.322C251.329 151.442 251.279 151.562 251.239 151.682C251.219 151.782 251.209 151.882 251.209 151.982C251.209 152.182 251.029 152.662 250.669 153.422C250.089 154.822 249.799 155.652 249.799 155.912C249.799 156.052 250.009 156.452 250.429 157.112C250.849 157.772 251.219 158.262 251.539 158.582C251.959 159.022 252.319 159.282 252.619 159.362C252.659 159.382 252.699 159.392 252.739 159.392C252.779 159.412 252.809 159.432 252.829 159.452C252.869 159.472 252.899 159.482 252.919 159.482C253.299 159.722 253.359 160.072 253.099 160.532C252.979 160.732 252.859 160.842 252.739 160.862C252.639 160.902 252.399 160.922 252.019 160.922C251.439 160.922 251.019 160.862 250.759 160.742C250.619 160.702 250.419 160.562 250.159 160.322C249.899 160.102 249.589 159.792 249.229 159.392L248.059 158.222L247.549 158.792C247.149 159.192 246.689 159.532 246.169 159.812C245.769 160.012 245.469 160.132 245.269 160.172C245.089 160.212 244.689 160.222 244.069 160.202C243.769 160.182 243.519 160.162 243.319 160.142C243.139 160.142 243.009 160.132 242.929 160.112C242.769 160.092 242.579 159.972 242.359 159.752C242.159 159.572 242.039 159.422 241.999 159.302C241.979 159.262 241.969 159.222 241.969 159.182ZM248.899 144.452C248.859 144.392 248.809 144.342 248.749 144.302C248.709 144.262 248.669 144.222 248.629 144.182C248.489 144.122 248.369 144.142 248.269 144.242C248.209 144.302 248.069 144.612 247.849 145.172C247.729 145.532 247.649 145.872 247.609 146.192C247.609 146.252 247.599 146.342 247.579 146.462C247.579 146.582 247.569 146.712 247.549 146.852C247.549 146.992 247.549 147.152 247.549 147.332C247.549 147.492 247.549 147.682 247.549 147.902C247.549 148.162 247.549 148.402 247.549 148.622C247.569 148.842 247.579 149.042 247.579 149.222C247.599 149.402 247.609 149.562 247.609 149.702C247.629 149.822 247.649 149.932 247.669 150.032C247.689 150.112 247.709 150.172 247.729 150.212C247.749 150.332 247.769 150.462 247.789 150.602C247.829 150.742 247.859 150.882 247.879 151.022C247.919 151.162 247.959 151.302 247.999 151.442C248.059 151.802 248.109 152.062 248.149 152.222C248.189 152.362 248.239 152.442 248.299 152.462C248.359 152.482 248.419 152.442 248.479 152.342C248.559 152.222 248.639 152.022 248.719 151.742C248.999 151.022 249.309 149.912 249.649 148.412C249.769 147.812 249.769 147.152 249.649 146.432C249.549 145.692 249.349 145.092 249.049 144.632C249.009 144.552 248.959 144.492 248.899 144.452ZM258.972 142.502C259.392 142.422 259.892 142.412 260.472 142.472C260.592 142.472 260.702 142.482 260.802 142.502C260.922 142.502 261.022 142.512 261.102 142.532C261.182 142.552 261.252 142.572 261.312 142.592C261.392 142.612 261.462 142.642 261.522 142.682C261.582 142.702 261.632 142.722 261.672 142.742C261.912 142.922 262.072 143.172 262.152 143.492C262.252 143.812 262.282 144.192 262.242 144.632C262.182 144.952 262.112 145.182 262.032 145.322C261.972 145.442 261.812 145.622 261.552 145.862C261.392 146.002 261.252 146.122 261.132 146.222C261.012 146.302 260.902 146.372 260.802 146.432C260.602 146.552 260.382 146.642 260.142 146.702C260.082 146.722 260.022 146.742 259.962 146.762C259.902 146.782 259.832 146.802 259.752 146.822C259.672 146.822 259.592 146.832 259.512 146.852C259.432 146.852 259.352 146.852 259.272 146.852C258.652 146.892 258.102 146.792 257.622 146.552C257.362 146.432 257.142 146.332 256.962 146.252C256.802 146.172 256.672 146.122 256.572 146.102C256.272 145.982 256.172 145.692 256.272 145.232C256.392 144.752 256.682 144.252 257.142 143.732C257.482 143.332 257.782 143.052 258.042 142.892C258.322 142.732 258.632 142.602 258.972 142.502ZM261.012 158.852C261.112 159.412 261.092 159.882 260.952 160.262L260.802 160.862H260.772L259.812 160.892C259.352 160.932 259.072 160.932 258.972 160.892C258.872 160.852 258.782 160.752 258.702 160.592C258.622 160.412 258.582 158.782 258.582 155.702C258.582 152.602 258.612 150.952 258.672 150.752C258.732 150.612 258.892 150.492 259.152 150.392C259.312 150.292 259.612 150.242 260.052 150.242C260.512 150.242 260.782 150.282 260.862 150.362C260.942 150.442 260.982 150.722 260.982 151.202C261.002 151.662 260.992 153.012 260.952 155.252C260.932 156.172 260.922 156.932 260.922 157.532C260.942 158.132 260.972 158.572 261.012 158.852ZM271.121 146.882C271.341 146.782 271.581 146.722 271.841 146.702C272.121 146.662 272.421 146.652 272.741 146.672C272.801 146.672 272.831 146.742 272.831 146.882C272.851 147.002 272.851 147.202 272.831 147.482C272.831 147.602 272.821 147.732 272.801 147.872C272.781 147.992 272.761 148.112 272.741 148.232C272.721 148.352 272.691 148.472 272.651 148.592C272.631 148.692 272.601 148.792 272.561 148.892C272.521 149.032 272.471 149.172 272.411 149.312C272.371 149.452 272.331 149.602 272.291 149.762C272.291 149.782 272.271 149.872 272.231 150.032C272.211 150.192 272.161 150.412 272.081 150.692C271.981 151.112 271.961 151.352 272.021 151.412C272.081 151.492 272.391 151.572 272.951 151.652C275.331 152.112 276.671 152.432 276.971 152.612C277.151 152.712 277.241 152.932 277.241 153.272C277.241 153.612 277.191 153.822 277.091 153.902C277.071 153.942 277.031 153.972 276.971 153.992C276.911 154.012 276.841 154.032 276.761 154.052C276.681 154.052 276.581 154.062 276.461 154.082C276.361 154.082 276.241 154.082 276.101 154.082C275.561 154.082 275.191 154.042 274.991 153.962C274.811 153.862 274.141 153.712 272.981 153.512C272.281 153.372 271.881 153.322 271.781 153.362C271.761 153.402 271.741 153.482 271.721 153.602C271.701 153.702 271.691 153.852 271.691 154.052C271.711 154.232 271.731 154.472 271.751 154.772C271.791 155.632 271.881 156.222 272.021 156.542C272.501 157.722 273.491 158.542 274.991 159.002C275.211 159.082 275.391 159.142 275.531 159.182C275.671 159.202 275.771 159.212 275.831 159.212C275.891 159.212 275.961 159.202 276.041 159.182C276.121 159.162 276.221 159.132 276.341 159.092C276.581 158.952 276.941 158.872 277.421 158.852C277.521 158.852 277.621 158.862 277.721 158.882C277.821 158.882 277.901 158.892 277.961 158.912C278.041 158.912 278.101 158.922 278.141 158.942C278.201 158.962 278.251 158.982 278.291 159.002C278.411 159.142 278.451 159.352 278.411 159.632C278.391 159.932 278.291 160.172 278.111 160.352C278.051 160.412 277.991 160.462 277.931 160.502C277.871 160.562 277.811 160.612 277.751 160.652C277.631 160.692 277.481 160.732 277.301 160.772C277.201 160.792 277.071 160.812 276.911 160.832C276.751 160.852 276.551 160.872 276.311 160.892C274.871 161.012 273.521 160.742 272.261 160.082C271.021 159.442 270.151 158.572 269.651 157.472C269.551 157.272 269.481 157.122 269.441 157.022C269.401 156.902 269.361 156.742 269.321 156.542C269.281 156.322 269.261 156.102 269.261 155.882V154.832V154.352C269.261 154.192 269.261 154.042 269.261 153.902C269.261 153.762 269.251 153.642 269.231 153.542C269.231 153.442 269.221 153.362 269.201 153.302C269.201 153.242 269.191 153.202 269.171 153.182C269.171 153.142 269.151 153.112 269.111 153.092C269.071 153.052 269.021 153.022 268.961 153.002C268.921 152.962 268.861 152.932 268.781 152.912C268.701 152.892 268.611 152.872 268.511 152.852C268.411 152.832 268.331 152.822 268.271 152.822C268.211 152.822 268.121 152.812 268.001 152.792C267.901 152.772 267.781 152.752 267.641 152.732C267.521 152.692 267.371 152.652 267.191 152.612C267.151 152.612 266.961 152.582 266.621 152.522C266.301 152.462 266.081 152.422 265.961 152.402C265.481 152.302 265.191 152.212 265.091 152.132C265.011 152.052 264.971 151.872 264.971 151.592C264.971 151.252 265.051 151.022 265.211 150.902C265.411 150.822 265.821 150.782 266.441 150.782C266.741 150.802 267.011 150.832 267.251 150.872C267.511 150.892 267.731 150.932 267.911 150.992C268.131 151.052 268.331 151.102 268.511 151.142C268.711 151.162 268.881 151.172 269.021 151.172C269.281 151.172 269.451 151.092 269.531 150.932C269.631 150.772 269.751 150.362 269.891 149.702C269.891 149.582 269.901 149.472 269.921 149.372C269.961 149.272 269.991 149.172 270.011 149.072C270.031 148.972 270.051 148.882 270.071 148.802C270.091 148.702 270.111 148.612 270.131 148.532C270.171 148.432 270.201 148.342 270.221 148.262C270.261 148.162 270.291 148.072 270.311 147.992C270.411 147.732 270.481 147.542 270.521 147.422C270.581 147.282 270.661 147.182 270.761 147.122L271.121 146.882ZM283.857 142.502C284.277 142.422 284.777 142.412 285.357 142.472C285.477 142.472 285.587 142.482 285.687 142.502C285.807 142.502 285.907 142.512 285.987 142.532C286.067 142.552 286.137 142.572 286.197 142.592C286.277 142.612 286.347 142.642 286.407 142.682C286.467 142.702 286.517 142.722 286.557 142.742C286.797 142.922 286.957 143.172 287.037 143.492C287.137 143.812 287.167 144.192 287.127 144.632C287.067 144.952 286.997 145.182 286.917 145.322C286.857 145.442 286.697 145.622 286.437 145.862C286.277 146.002 286.137 146.122 286.017 146.222C285.897 146.302 285.787 146.372 285.687 146.432C285.487 146.552 285.267 146.642 285.027 146.702C284.967 146.722 284.907 146.742 284.847 146.762C284.787 146.782 284.717 146.802 284.637 146.822C284.557 146.822 284.477 146.832 284.397 146.852C284.317 146.852 284.237 146.852 284.157 146.852C283.537 146.892 282.987 146.792 282.507 146.552C282.247 146.432 282.027 146.332 281.847 146.252C281.687 146.172 281.557 146.122 281.457 146.102C281.157 145.982 281.057 145.692 281.157 145.232C281.277 144.752 281.567 144.252 282.027 143.732C282.367 143.332 282.667 143.052 282.927 142.892C283.207 142.732 283.517 142.602 283.857 142.502ZM285.897 158.852C285.997 159.412 285.977 159.882 285.837 160.262L285.687 160.862H285.657L284.697 160.892C284.237 160.932 283.957 160.932 283.857 160.892C283.757 160.852 283.667 160.752 283.587 160.592C283.507 160.412 283.467 158.782 283.467 155.702C283.467 152.602 283.497 150.952 283.557 150.752C283.617 150.612 283.777 150.492 284.037 150.392C284.197 150.292 284.497 150.242 284.937 150.242C285.397 150.242 285.667 150.282 285.747 150.362C285.827 150.442 285.867 150.722 285.867 151.202C285.887 151.662 285.877 153.012 285.837 155.252C285.817 156.172 285.807 156.932 285.807 157.532C285.827 158.132 285.857 158.572 285.897 158.852ZM297.146 151.052C297.546 151.012 297.826 151.022 297.986 151.082C298.066 151.102 298.146 151.142 298.226 151.202C298.326 151.242 298.426 151.302 298.526 151.382C298.666 151.502 298.796 151.652 298.916 151.832C299.036 151.992 299.146 152.182 299.246 152.402C299.446 152.842 299.506 153.332 299.426 153.872C299.426 153.992 299.416 154.102 299.396 154.202C299.376 154.302 299.356 154.392 299.336 154.472C299.316 154.532 299.286 154.592 299.246 154.652C299.226 154.692 299.186 154.752 299.126 154.832C299.086 154.892 299.026 154.962 298.946 155.042C298.866 155.122 298.776 155.202 298.676 155.282C298.456 155.502 298.246 155.682 298.046 155.822C297.866 155.962 297.686 156.062 297.506 156.122L296.486 156.512C296.126 156.652 295.736 156.732 295.316 156.752C294.956 156.752 294.736 156.802 294.656 156.902C294.576 157.002 294.556 157.242 294.596 157.622C294.616 157.762 294.646 157.882 294.686 157.982C294.746 158.082 294.826 158.182 294.926 158.282C294.986 158.322 295.046 158.372 295.106 158.432C295.186 158.472 295.266 158.522 295.346 158.582C295.646 158.782 295.936 158.902 296.216 158.942C296.496 158.982 297.206 159.032 298.346 159.092C299.126 159.092 299.766 159.112 300.266 159.152C300.766 159.172 301.126 159.212 301.346 159.272C301.606 159.332 301.746 159.402 301.766 159.482C301.786 159.502 301.796 159.532 301.796 159.572C301.816 159.612 301.826 159.672 301.826 159.752C301.826 159.832 301.826 159.922 301.826 160.022C301.826 160.082 301.816 160.132 301.796 160.172C301.796 160.232 301.786 160.282 301.766 160.322C301.766 160.362 301.756 160.402 301.736 160.442C301.736 160.482 301.726 160.512 301.706 160.532C301.646 160.632 301.496 160.722 301.256 160.802C301.016 160.902 300.656 160.942 300.176 160.922C299.696 160.882 299.036 160.862 298.196 160.862C296.936 160.842 296.096 160.802 295.676 160.742C295.256 160.702 294.826 160.612 294.386 160.472C293.526 160.172 292.906 159.792 292.526 159.332C292.386 159.172 292.266 159.002 292.166 158.822C292.086 158.622 292.006 158.402 291.926 158.162C291.866 157.922 291.826 157.662 291.806 157.382C291.746 157.002 291.606 156.672 291.386 156.392C291.186 156.092 290.936 155.902 290.636 155.822H290.606C290.526 155.822 290.446 155.792 290.366 155.732C290.286 155.672 290.196 155.572 290.096 155.432C289.936 155.232 289.856 155.042 289.856 154.862C289.856 154.682 289.936 154.512 290.096 154.352C290.436 154.052 290.966 153.902 291.686 153.902C292.046 153.902 292.276 153.872 292.376 153.812C292.436 153.792 292.506 153.742 292.586 153.662C292.666 153.562 292.756 153.442 292.856 153.302C292.956 153.162 293.036 153.042 293.096 152.942C293.176 152.842 293.246 152.752 293.306 152.672C293.366 152.592 293.426 152.522 293.486 152.462C293.706 152.242 294.076 151.982 294.596 151.682C294.756 151.582 294.906 151.502 295.046 151.442C295.206 151.362 295.336 151.302 295.436 151.262C295.536 151.202 295.626 151.162 295.706 151.142C295.986 151.082 296.466 151.052 297.146 151.052ZM296.756 153.152C296.596 152.992 296.296 153.132 295.856 153.572C295.716 153.712 295.596 153.852 295.496 153.992C295.396 154.112 295.306 154.232 295.226 154.352C295.166 154.472 295.126 154.582 295.106 154.682C295.106 154.762 295.126 154.822 295.166 154.862C295.206 154.922 295.266 154.942 295.346 154.922C295.446 154.902 295.556 154.852 295.676 154.772C295.816 154.672 295.976 154.542 296.156 154.382C296.656 153.902 296.886 153.562 296.846 153.362C296.826 153.322 296.806 153.282 296.786 153.242C296.786 153.202 296.776 153.172 296.756 153.152ZM308.358 159.272C308.698 159.292 308.938 159.262 309.078 159.182C309.178 159.102 309.278 158.932 309.378 158.672C309.498 158.392 309.538 158.182 309.498 158.042C309.458 157.882 309.228 157.602 308.808 157.202C308.388 156.802 307.908 156.422 307.368 156.062C306.688 155.622 306.348 155.362 306.348 155.282C306.348 155.222 306.168 155.102 305.808 154.922C305.388 154.702 305.018 154.352 304.698 153.872C304.378 153.372 304.218 152.892 304.218 152.432C304.218 152.252 304.238 152.082 304.278 151.922C304.338 151.742 304.408 151.562 304.488 151.382C304.668 151.022 304.898 150.742 305.178 150.542C305.878 150.022 306.428 149.762 306.828 149.762C307.028 149.762 307.198 149.732 307.338 149.672C307.438 149.572 307.618 149.542 307.878 149.582C308.018 149.622 308.388 149.682 308.988 149.762C309.748 149.882 310.328 149.992 310.728 150.092C310.928 150.152 311.108 150.222 311.268 150.302C311.428 150.362 311.568 150.442 311.688 150.542C311.908 150.722 312.108 150.982 312.288 151.322C312.448 151.682 312.548 152.062 312.588 152.462C312.628 152.842 312.578 153.102 312.438 153.242C312.398 153.282 312.318 153.322 312.198 153.362C312.078 153.382 311.908 153.392 311.688 153.392C311.288 153.412 311.008 153.392 310.848 153.332C310.708 153.292 310.518 153.002 310.278 152.462C310.218 152.342 310.158 152.242 310.098 152.162C310.058 152.082 310.018 152.012 309.978 151.952C309.938 151.872 309.898 151.822 309.858 151.802C309.758 151.682 309.578 151.552 309.318 151.412C309.038 151.292 308.768 151.212 308.508 151.172C308.248 151.132 307.998 151.132 307.758 151.172C307.298 151.252 306.968 151.482 306.768 151.862C306.608 152.142 306.578 152.372 306.678 152.552C306.758 152.752 307.028 153.072 307.488 153.512C307.688 153.712 307.888 153.902 308.088 154.082C308.308 154.262 308.528 154.432 308.748 154.592C308.968 154.732 309.198 154.872 309.438 155.012C309.518 155.052 309.608 155.112 309.708 155.192C309.808 155.252 309.908 155.332 310.008 155.432C310.128 155.512 310.238 155.602 310.338 155.702C310.458 155.802 310.578 155.912 310.698 156.032C311.178 156.512 311.478 156.882 311.598 157.142C311.718 157.462 311.758 157.922 311.718 158.522C311.698 159.122 311.608 159.542 311.448 159.782C311.088 160.262 310.468 160.592 309.588 160.772C308.708 160.972 307.828 160.972 306.948 160.772C306.088 160.572 305.498 160.232 305.178 159.752C305.138 159.692 305.098 159.632 305.058 159.572C305.038 159.532 305.008 159.482 304.968 159.422C304.948 159.382 304.928 159.342 304.908 159.302C304.888 159.242 304.868 159.192 304.848 159.152C304.828 159.092 304.808 159.042 304.788 159.002C304.788 158.942 304.788 158.892 304.788 158.852C304.728 158.532 304.748 158.302 304.848 158.162C304.968 158.002 305.298 157.912 305.838 157.892L306.618 157.862H306.648V157.892L306.918 158.372C307.118 158.712 307.338 158.952 307.578 159.092C307.658 159.132 307.758 159.172 307.878 159.212C308.018 159.232 308.178 159.252 308.358 159.272Z" fill="#1E1E1E"/>
<defs>
<filter id="filter0_d_111_341" x="236.762" y="52.1259" width="70.1699" height="79.857" filterUnits="userSpaceOnUse" color-interpolation-filters="sRGB">
<feFlood flood-opacity="0" result="BackgroundImageFix"/>
<feColorMatrix in="SourceAlpha" type="matrix" values="0 0 0 0 0 0 0 0 0 0 0 0 0 0 0 0 0 0 127 0" result="hardAlpha"/>
<feOffset dy="4"/>
<feGaussianBlur stdDeviation="2"/>
<feComposite in2="hardAlpha" operator="out"/>
<feColorMatrix type="matrix" values="0 0 0 0 0 0 0 0 0 0 0 0 0 0 0 0 0 0 0.25 0"/>
<feBlend mode="normal" in2="BackgroundImageFix" result="effect1_dropShadow_111_341"/>
<feBlend mode="normal" in="SourceGraphic" in2="effect1_dropShadow_111_341" result="shape"/>
</filter>
<filter id="filter1_d_111_341" x="204.15" y="51.6516" width="27.25" height="76.2" filterUnits="userSpaceOnUse" color-interpolation-filters="sRGB">
<feFlood flood-opacity="0" result="BackgroundImageFix"/>
<feColorMatrix in="SourceAlpha" type="matrix" values="0 0 0 0 0 0 0 0 0 0 0 0 0 0 0 0 0 0 127 0" result="hardAlpha"/>
<feOffset dy="4"/>
<feGaussianBlur stdDeviation="2"/>
<feComposite in2="hardAlpha" operator="out"/>
<feColorMatrix type="matrix" values="0 0 0 0 0 0 0 0 0 0 0 0 0 0 0 0 0 0 0.25 0"/>
<feBlend mode="normal" in2="BackgroundImageFix" result="effect1_dropShadow_111_341"/>
<feBlend mode="normal" in="SourceGraphic" in2="effect1_dropShadow_111_341" result="shape"/>
</filter>
<filter id="filter2_d_111_341" x="120" y="46.8698" width="70.2109" height="82.3036" filterUnits="userSpaceOnUse" color-interpolation-filters="sRGB">
<feFlood flood-opacity="0" result="BackgroundImageFix"/>
<feColorMatrix in="SourceAlpha" type="matrix" values="0 0 0 0 0 0 0 0 0 0 0 0 0 0 0 0 0 0 127 0" result="hardAlpha"/>
<feOffset dy="4"/>
<feGaussianBlur stdDeviation="2"/>
<feComposite in2="hardAlpha" operator="out"/>
<feColorMatrix type="matrix" values="0 0 0 0 0 0 0 0 0 0 0 0 0 0 0 0 0 0 0.25 0"/>
<feBlend mode="normal" in2="BackgroundImageFix" result="effect1_dropShadow_111_341"/>
<feBlend mode="normal" in="SourceGraphic" in2="effect1_dropShadow_111_341" result="shape"/>
</filter>
<filter id="filter3_d_111_341" x="22.3311" y="48.813" width="90.8184" height="82.7657" filterUnits="userSpaceOnUse" color-interpolation-filters="sRGB">
<feFlood flood-opacity="0" result="BackgroundImageFix"/>
<feColorMatrix in="SourceAlpha" type="matrix" values="0 0 0 0 0 0 0 0 0 0 0 0 0 0 0 0 0 0 127 0" result="hardAlpha"/>
<feOffset dy="4"/>
<feGaussianBlur stdDeviation="2"/>
<feComposite in2="hardAlpha" operator="out"/>
<feColorMatrix type="matrix" values="0 0 0 0 0 0 0 0 0 0 0 0 0 0 0 0 0 0 0.25 0"/>
<feBlend mode="normal" in2="BackgroundImageFix" result="effect1_dropShadow_111_341"/>
<feBlend mode="normal" in="SourceGraphic" in2="effect1_dropShadow_111_341" result="shape"/>
</filter>
</defs>
</svg>
