<svg width="71" height="71" viewBox="0 0 71 71" fill="none" xmlns="http://www.w3.org/2000/svg">
<rect x="5" y="5" width="60" height="60" rx="10" fill="#7023AC"/>
<path d="M40.2846 43.7976L34.732 49.3501C32.8823 51.1998 30.6538 52.1248 28.0465 52.125C25.4392 52.1251 23.2108 51.2005 21.3613 49.351C19.5118 47.5015 18.5869 45.2728 18.5865 42.665C18.5862 40.0572 19.5109 37.8284 21.3606 35.9787L26.9131 30.4261L29.1228 32.6357L23.5702 38.1883C22.3331 39.4254 21.7146 40.9174 21.7146 42.6644C21.7146 44.4114 22.3331 45.9034 23.5702 47.1405C24.8073 48.3776 26.2993 48.9961 28.0463 48.9961C29.7933 48.9961 31.2853 48.3776 32.5224 47.1405L38.075 41.5879L40.2846 43.7976ZM30.9359 41.9844L28.7263 39.7748L39.7747 28.7263L41.9844 30.936L30.9359 41.9844ZM43.7975 40.2846L41.5879 38.075L47.1404 32.5225C48.3775 31.2854 48.996 29.7934 48.996 28.0464C48.996 26.2994 48.3775 24.8073 47.1404 23.5703C45.9034 22.3332 44.4113 21.7147 42.6643 21.7147C40.9173 21.7147 39.4253 22.3332 38.1882 23.5703L32.6357 29.1228L30.4261 26.9132L35.9786 21.3606C37.8283 19.5109 40.0568 18.586 42.6641 18.5858C45.2714 18.5856 47.4998 19.5103 49.3493 21.3598C51.1988 23.2093 52.1237 25.4379 52.1241 28.0458C52.1245 30.6536 51.1998 32.8824 49.3501 34.7321L43.7975 40.2846Z" fill="white"/>
</svg>
