<svg width="310" height="202" viewBox="0 0 310 202" fill="none" xmlns="http://www.w3.org/2000/svg">
<path d="M0.170364 201.373C0.115408 200.224 0.0604514 199.069 0 197.707H48.7293C47.2785 191.223 45.7782 185.007 44.5142 178.742C42.0137 166.31 39.6396 153.85 37.2325 141.402C36.7764 139.054 38.0129 137.31 40.5354 137.12C44.0855 136.853 47.6631 136.771 51.2243 136.771C62.5726 136.766 73.921 136.787 85.2694 136.924C87.0884 136.945 87.9787 136.64 88.4293 134.712C90.6056 125.412 94.1832 116.619 98.5192 108.109C98.7995 107.564 98.6786 106.622 98.3983 106.023C96.3869 101.73 94.3041 97.4692 92.1993 93.2198C91.8476 92.5061 91.4354 91.6563 90.8034 91.2749C88.4623 89.8748 88.1765 87.7937 87.8578 85.3039C87.3907 81.6647 86.6598 78.1889 86.9016 74.3862C87.039 72.256 85.8409 69.8753 86.8136 67.489C86.9016 67.2711 86.3135 66.6664 85.9288 66.3994C83.225 64.5417 82.9008 63.038 85.066 60.4067C87.2038 57.808 89.5614 55.3891 91.8696 52.8449C83.3239 46.2692 83.7636 36.4955 85.5826 26.8689C86.1707 23.7636 85.3573 19.8356 88.4623 17.2533C91.1881 14.9814 93.5567 12.2575 96.4144 10.1872C112.456 -1.41152 129.981 -2.41938 148.26 3.70959C151.205 4.69567 154.008 6.55888 156.404 8.57463C159.026 10.7811 161.29 13.4887 163.362 16.2399C167.824 22.1619 168.027 28.7376 164.197 36.4138C165.093 36.9041 165.972 37.487 166.928 37.8902C170.753 39.5191 173.413 42.3957 175.38 45.8769C175.721 46.4871 175.018 47.9362 174.424 48.7208C173.952 49.3473 172.907 49.5543 171.924 50.0446C174.094 51.6245 174.353 53.406 173.776 55.6833C173.528 56.6639 174.276 58.0423 174.891 59.0501C176.161 61.1258 177.787 62.9945 179.002 65.0919C180.041 66.8843 180.381 68.8401 178.716 70.6325C178.458 70.9104 178.304 71.6622 178.491 71.9182C180.541 74.7022 179.865 77.181 177.721 79.4964C180.293 82.3021 180.392 83.2446 178.639 86.7585C178.425 87.1889 178.233 87.7991 178.375 88.2077C179.315 90.9698 178.288 93.1599 176.49 95.1702C176.221 95.4698 175.957 95.7695 175.688 96.0691C175.93 96.0964 176.172 96.1236 176.414 96.1508C177.315 97.4529 178.331 98.6896 179.095 100.068C183.811 108.556 188.575 117.093 190.751 126.6C193.455 138.416 195.593 150.358 197.868 162.268C198.357 164.817 198.374 167.449 198.687 170.036C198.748 170.521 199.138 170.979 199.407 171.431C200.023 172.439 200.704 173.403 201.276 174.433C203.935 179.222 204.771 184.092 201.105 189.725C205.699 189.725 209.596 189.622 213.492 189.753C217.136 189.878 220.812 190.019 224.406 190.581C227.803 191.109 230.419 193.038 231.946 196.274C232.243 196.9 233.172 197.603 233.831 197.63C237.206 197.767 240.591 197.696 244.223 197.696C243.146 193.283 242.009 189.05 241.091 184.773C239.321 176.536 237.607 168.288 235.997 160.023C234.777 153.752 235.81 152.548 242.201 152.439C245.85 152.374 249.499 152.428 253.951 152.428C253.951 147.046 254.066 141.914 253.901 136.793C253.824 134.439 254.561 133.491 256.962 133.562C262.348 133.726 267.745 133.644 273.125 133.889C275.779 134.009 276.642 135.954 276.483 140.214C276.395 142.589 274.702 143.063 272.91 143.052C270.267 143.031 267.618 142.791 264.986 142.48C263.381 142.29 262.864 142.851 262.897 144.376C262.936 146.37 262.81 148.37 262.766 150.364C262.749 150.996 262.766 151.622 262.766 152.499C264.749 152.663 266.634 152.87 268.525 152.968C271.124 153.104 272.449 154.526 272.317 156.988C271.668 168.936 270.926 180.878 270.201 192.825C270.108 194.345 269.926 195.865 269.761 197.668H310V201.406C309.813 201.547 309.632 201.689 309.445 201.836C290.782 201.863 272.119 201.902 253.456 201.923C221.252 201.956 189.048 202.005 156.844 202C105.064 201.989 53.2796 201.945 1.50029 201.912C1.22551 201.912 0.956231 201.863 0.681453 201.842L0.170364 201.411V201.373ZM259.364 162.638C259.408 161.379 259.364 160.105 259.518 158.863C259.809 156.514 258.748 156.106 256.632 156.776V162.703C256.325 171.938 256.006 181.167 255.759 190.401C255.748 190.793 256.435 191.202 256.797 191.605C257.138 191.185 257.748 190.782 257.776 190.341C258.342 181.112 258.847 171.878 259.364 162.643V162.638ZM267.596 162.638C267.875 158.632 266.382 156.671 263.117 156.754C262.974 156.754 262.837 156.961 262.617 157.125V162.703C262.507 163.853 262.364 165.002 262.298 166.152C261.941 172.423 261.606 178.699 261.26 184.969C261.221 185.182 261.183 185.394 261.144 185.601C261.111 186.5 261.067 187.399 261.051 188.303C261.003 191.278 262.632 193.067 265.936 193.67C266.189 190.989 266.442 188.331 266.7 185.667L266.865 184.996C267.113 177.544 267.354 170.085 267.602 162.633L267.596 162.638ZM253.297 162.622V156.667H239.981C240.316 158.721 240.591 160.41 240.866 162.099C243.075 172.924 245.279 183.749 247.493 194.607C249.483 193.555 250.901 192.803 252.324 192.052L252.698 191.572C252.895 181.924 253.099 172.27 253.297 162.622ZM156.695 193.065C156.602 192.945 156.509 192.825 156.421 192.705C156.355 192.771 156.294 192.831 156.228 192.896C156.344 192.994 156.459 193.087 156.574 193.185C157.329 196.181 159.196 197.679 162.174 197.679C183.041 197.679 203.908 197.679 224.769 197.679C225.72 197.679 226.665 197.598 227.753 197.549C226.099 195.102 224.753 194.323 221.109 194.274C201.446 193.997 181.783 193.806 162.12 193.544C160.311 193.523 158.503 193.228 156.695 193.065ZM102.196 36.2667C102.047 35.3896 101.894 34.507 101.745 33.6299C101.778 33.559 101.85 33.4773 101.833 33.4174C101.795 33.2758 101.718 33.1396 101.657 33.0034C100.915 30.786 100.283 28.5251 99.3985 26.3623C98.5577 24.3029 96.7002 23.8507 94.6393 24.0087C92.5235 24.1722 90.4572 24.7824 89.8252 26.9398C87.9182 33.4555 87.8743 39.9659 91.1606 46.1166C92.3807 48.3939 94.2272 50.3388 97.2607 49.745C100.173 49.1784 102.135 46.6832 102.3 43.4308C102.41 41.2625 102.295 39.0833 102.278 36.9095C102.311 36.8387 102.388 36.7516 102.372 36.6916C102.333 36.5445 102.256 36.4083 102.196 36.2667ZM145.655 19.4379C146.21 16.654 145.303 15.913 140.319 15.6515C140.132 22.1455 139.747 28.6232 139.84 35.0954C139.89 38.8273 140.17 38.6202 136.329 39.1105C130.476 39.8569 124.634 40.7885 118.875 42.0416C116.66 42.5264 115.946 42.0361 114.924 40.1892C111.676 34.3545 108.136 28.6777 104.691 22.9464C103.872 21.5844 102.888 20.9306 101.591 22.5759C102.394 23.8725 103.201 25.1746 104.009 26.4767C105.911 32.0826 107.263 37.7649 106.405 43.7467C105.581 47.7891 103.861 51.0961 100.124 53.466C96.0187 56.0646 92.2817 59.2408 88.248 62.2699C91.287 64.5417 91.5838 65.4243 90.8859 68.6004C90.699 69.4394 90.5451 70.3111 90.5781 71.1664C90.6551 73.2639 90.8584 75.3559 90.9793 77.448C91.0287 78.3305 90.732 79.3275 91.0452 80.0902C92.3532 83.2555 91.3035 87.4232 95.0625 89.5588C95.1889 89.6296 95.1999 89.8857 95.2713 90.0491C96.8156 93.5031 98.2334 97.0171 99.9316 100.389C102.311 105.118 105.696 108.638 111.61 108.703C111.835 105.423 114.05 105.734 116.155 106.3C124.041 108.431 132.092 108.654 140.137 108.104C150.392 107.406 159.641 104.317 166.285 95.7967C167.033 94.8379 168.698 94.304 170.017 94.1242C173.342 93.6775 174.886 91.2913 173.616 88.382C173.32 87.7065 173.484 86.6496 173.814 85.9305C174.21 85.0588 175.001 84.3669 175.71 83.4897C175.078 83.0648 174.589 82.6835 174.05 82.3784C170.11 80.1283 170.055 79.0823 173.995 76.816C176.183 75.5575 175.501 74.5987 174.023 73.3947C170.989 70.9158 171.182 69.7499 174.77 68.1374C175.067 68.0066 175.309 67.7614 175.738 67.4509C174.094 65.0266 172.83 62.4333 170.896 60.4939C168.104 57.6936 167.807 57.4593 169.659 53.9672C165.087 51.3685 165.164 50.682 170.775 45.6644C167.632 42.7879 164.136 39.6281 159.998 39.8787C155.646 40.1402 152.376 39.0125 149.161 36.6263C145.545 31.3853 145.001 25.5287 145.66 19.4324L145.655 19.4379ZM167.687 189.289C168.005 189.246 168.324 189.202 168.637 189.159C168.33 188.865 168.027 188.57 167.72 188.276C165.444 184.893 164.977 181.21 166.164 177.391C166.582 176.056 167.824 174.967 168.203 173.627C169.434 169.268 172.556 167.062 176.661 165.983C182.624 164.419 188.432 165.226 194.104 167.41C194.219 167.454 194.34 167.503 194.456 167.547C194.423 167.383 194.384 167.22 194.351 167.051C193.153 160.181 192.037 153.295 190.741 146.447C187.828 131.105 184.173 116.003 175.787 102.481C174.82 100.923 174.067 99.2344 172.995 97.186C171.198 98.3518 168.879 99.3488 167.252 101.01C162.169 106.197 156.014 109.297 149.04 110.953C139.071 113.323 129.047 112.473 119.029 111.334C118.402 111.264 117.611 110.909 117.177 111.165C112.066 114.178 107.197 112.348 102.13 110.566C97.6729 118.798 94.2272 127.471 92.2927 136.956C98.0741 136.956 103.636 137.005 109.192 136.945C118.798 136.842 128.404 136.618 138.016 136.602C139.121 136.602 140.967 137.392 141.214 138.193C143.248 144.752 145.017 151.399 146.803 158.034C149.639 168.598 152.425 179.178 155.113 189.284H167.687V189.289ZM52.6586 197.543H153.338C152.409 194.47 151.458 191.556 150.656 188.603C146.584 173.67 142.555 158.726 138.5 143.788C138.027 142.05 137.725 140.574 135.065 140.59C106.054 140.797 77.0425 140.83 48.0314 140.911C45.8441 140.917 43.6624 140.911 41.1179 140.911C45.0088 160.017 48.8337 178.791 52.6586 197.543ZM107.834 19.3834C111.192 25.0711 114.506 30.5681 117.666 36.1523C118.32 37.3072 118.864 37.6941 120.166 37.4108C125.217 36.3212 130.289 35.3242 134.999 34.3708C135.493 27.8932 135.999 21.2847 136.521 14.4911C126.437 13.1455 116.88 15.9022 107.834 19.3834ZM182.805 169.372C182.167 169.372 181.524 169.317 180.887 169.383C174.562 170.015 172.803 171.78 172.078 178.007C171.979 178.829 171.605 179.979 170.984 180.322C168.802 181.532 169.533 183.346 170.456 184.397C171.435 185.509 173.259 186.462 174.677 186.407C175.556 186.375 176.507 184.419 177.15 183.182C177.535 182.441 177.095 181.221 177.551 180.589C178.194 179.69 179.42 178.481 180.216 178.595C181.052 178.715 181.799 180.186 182.338 181.194C182.58 181.646 182.014 182.469 182.173 183.024C182.541 184.31 182.937 185.672 183.706 186.729C184.063 187.225 185.877 187.437 186.058 187.159C186.734 186.119 187.3 184.833 187.366 183.613C187.471 181.728 187.712 179.799 189.883 179.832C191.933 179.859 192.169 181.804 192.054 183.542C191.9 185.89 193.499 187.312 195.34 187.464C196.489 187.557 198.583 186.075 198.841 184.98C199.319 182.921 199.248 180.464 198.561 178.453C196.423 172.161 191.323 169.366 182.805 169.372ZM91.9245 20.947C96.5793 19.2744 101.278 17.7054 105.883 15.9131C118.551 10.9881 131.339 7.71384 144.902 12.2792C145.413 12.4536 146.188 12.3337 146.66 12.0559C148.007 11.2659 149.265 10.318 150.546 9.44631C134.004 -0.245643 104.608 2.90873 91.9245 20.947ZM163.142 26.335C162.438 24.3792 161.779 21.7587 160.581 19.4161C159.053 16.4306 156.668 14.246 153.046 13.8592C151.343 13.6794 150.178 14.0607 150.101 16.0383C149.958 19.5523 149.496 23.0771 149.711 26.5638C149.842 28.7267 150.727 30.944 151.705 32.9271C152.859 35.2643 155.118 36.0052 157.707 35.7818C160.18 35.5693 161.361 33.8968 162.032 31.8484C162.526 30.3284 162.686 28.6994 163.147 26.3405L163.142 26.335ZM256.962 136.569V152.221H259.567C259.567 149.759 259.518 147.422 259.578 145.085C259.71 139.811 261.122 138.683 266.332 139.419C268.563 139.729 270.822 139.822 273.004 140.007C273.729 137.212 272.669 136.466 270.289 136.537C266.002 136.662 261.71 136.569 256.962 136.569ZM260.936 197.156L260.864 196.334H252.544V197.156H260.941H260.936ZM179.497 188.347C179.249 188.636 179.095 188.815 178.942 189.001C179.112 189.104 179.271 189.262 179.453 189.295C179.552 189.311 179.799 189.11 179.788 189.028C179.766 188.832 179.634 188.647 179.502 188.347H179.497Z" fill="#020202"/>
<path d="M44.7119 32.9596C45.4098 34.278 45.3603 35.5474 43.8655 36.1412C41.1452 37.2145 41.2496 34.3706 39.8208 32.9596C39.3372 35.0571 37.8534 36.9366 40.7166 38.304C40.9364 38.4076 41.0793 38.7126 41.2112 38.9469C42.2114 40.7502 41.5629 42.8422 39.623 44.1062C37.2544 45.6479 33.913 45.5716 32.5886 43.8228C31.1323 41.9106 31.9841 40.3362 33.1052 38.4294C34.4186 36.1957 35.177 33.5698 35.7761 31.0201C36.3091 28.7483 36.1607 26.3239 36.5454 24.0086C37.051 20.9522 38.6008 20.1677 41.398 21.606C44.9207 23.4147 48.3884 25.4032 48.7511 29.9632C48.9764 32.758 47.9707 33.5316 45.2284 32.8016C45.0801 32.6545 44.9317 32.5074 44.7833 32.3603C44.7613 32.5619 44.7393 32.758 44.7174 32.9596H44.7119ZM44.514 32.3875C44.7338 28.6993 43.7611 27.2665 40.3484 26.2477C41.7552 28.3179 42.9862 30.1375 44.514 32.3875Z" fill="#030303"/>
<path d="M56.819 31.9573C58.4896 35.9126 59.9624 39.9659 61.8969 43.7958C63.1718 46.3182 63.5236 48.0398 61.2814 49.6469C59.6107 50.8455 57.4125 51.6082 55.3516 51.9133C53.1369 52.2402 51.8784 49.4672 53.1754 47.3479C54.0712 45.8824 55.2088 44.564 56.5881 42.7062C55.7308 40.3963 54.324 36.9967 53.2084 33.5046C51.8015 29.1081 54.0327 26.5693 58.5171 27.7842C61.0561 28.4706 63.4466 30.0179 65.6009 31.5923C66.3098 32.1099 66.0515 33.9186 66.2384 35.1335C65.0898 34.9973 63.7764 35.1662 62.8311 34.6596C61.0451 33.6953 59.4733 32.3387 57.8137 31.1456C57.4784 31.4126 57.1487 31.685 56.8135 31.9519L56.819 31.9573Z" fill="#040404"/>
<path d="M91.9189 20.9415C104.603 2.9033 133.999 -0.251075 150.54 9.44088C149.265 10.3126 148.007 11.2605 146.655 12.0505C146.182 12.3283 145.407 12.4482 144.896 12.2738C131.333 7.70298 118.545 10.9772 105.878 15.9076C101.267 17.7 96.5737 19.269 91.9189 20.9415Z" fill="#C2C2C2"/>
<path d="M102.278 36.9042C102.295 39.078 102.41 41.2572 102.3 43.4255C102.135 46.6779 100.174 49.1731 97.2609 49.7396C94.2274 50.3335 92.3808 48.3886 91.1608 46.1113C87.8745 39.9605 87.9184 33.4502 89.8254 26.9344C90.4574 24.777 92.5237 24.1669 94.6395 24.0034C96.7004 23.84 98.5579 24.2922 99.3987 26.3569C100.283 28.5198 100.915 30.7807 101.657 32.998C101.624 33.0688 101.542 33.1506 101.558 33.205C101.597 33.3521 101.679 33.4829 101.745 33.6245C101.894 34.5017 102.048 35.3842 102.196 36.2614C102.157 36.3322 102.075 36.4139 102.092 36.4738C102.13 36.6209 102.212 36.7626 102.278 36.9042Z" fill="#C4C4C4"/>
<path d="M252.324 192.052C250.906 192.803 249.483 193.555 247.493 194.607C245.279 183.754 243.075 172.929 240.866 162.099C245.009 162.273 249.153 162.447 253.297 162.622C253.099 172.27 252.896 181.924 252.698 191.572C252.571 191.73 252.45 191.888 252.324 192.052Z" fill="#8E715A"/>
<path d="M163.136 26.3296C162.674 28.6885 162.515 30.3175 162.02 31.8375C161.35 33.8859 160.168 35.5584 157.695 35.7709C155.107 35.9943 152.848 35.2533 151.694 32.9162C150.716 30.9331 149.831 28.7158 149.699 26.5529C149.491 23.0662 149.952 19.5359 150.09 16.0274C150.172 14.0553 151.332 13.6685 153.035 13.8482C156.662 14.235 159.042 16.4197 160.57 19.4052C161.768 21.7478 162.427 24.3683 163.131 26.3241L163.136 26.3296Z" fill="#C3C3C3"/>
<path d="M266.695 185.672C266.442 188.336 266.189 190.995 265.931 193.675C262.626 193.076 260.998 191.287 261.045 188.309C261.062 187.41 261.106 186.505 261.139 185.607C261.177 185.394 261.216 185.182 261.254 184.975C261.601 178.704 261.936 172.428 262.293 166.157C262.359 165.002 262.502 163.858 262.612 162.709C264.271 162.687 265.931 162.665 267.591 162.643C267.343 170.096 267.102 177.554 266.854 185.007C266.799 185.231 266.744 185.454 266.689 185.677L266.695 185.672Z" fill="#8E715A"/>
<path d="M149.15 36.6317C147.584 37.013 145.875 37.9719 144.495 37.6232C142.957 37.231 142.039 35.7437 142.171 33.5972C142.402 29.8871 141.891 26.1334 141.967 22.407C142.011 20.3095 143.396 19.1873 145.644 19.4324C144.985 25.5287 145.529 31.3853 149.145 36.6263L149.15 36.6317Z" fill="#F5C4B8"/>
<path d="M259.364 162.638C258.847 171.872 258.347 181.106 257.776 190.335C257.748 190.777 257.138 191.18 256.798 191.599C256.435 191.196 255.748 190.787 255.759 190.395C256.006 181.161 256.325 171.932 256.633 162.698C257.545 162.676 258.452 162.654 259.364 162.632V162.638Z" fill="#8E715A"/>
<path d="M104.004 26.4712C105.339 28.0838 107.076 29.5166 107.922 31.3526C109.236 34.2073 110.027 37.3181 110.884 40.3581C111.527 42.6353 110.505 43.349 106.4 43.7413C107.257 37.7594 105.905 32.0772 104.004 26.4712Z" fill="#F5C4B8"/>
<path d="M260.925 197.151H252.533V196.328H260.854L260.925 197.151Z" fill="#8E715A"/>
<path d="M156.569 193.185C156.454 193.087 156.339 192.994 156.223 192.896C156.289 192.831 156.35 192.771 156.415 192.705C156.509 192.825 156.602 192.945 156.69 193.065L156.564 193.185H156.569Z" fill="#656565"/>
<path d="M102.279 36.9041C102.213 36.7624 102.13 36.6263 102.092 36.4737C102.076 36.4138 102.158 36.3321 102.196 36.2612C102.257 36.4029 102.334 36.5391 102.372 36.6862C102.389 36.7461 102.312 36.8278 102.279 36.9041Z" fill="#575757"/>
<path d="M100.377 167.263C101.449 167.427 102.169 167.503 102.878 167.65C108.241 168.75 110.082 173.594 106.691 177.93C103.328 182.234 98.6899 182.136 93.9582 181.145C90.3256 180.382 87.2756 176.999 86.9074 173.665C86.3523 168.62 88.4022 163.401 92.4194 161.908C94.6506 161.08 97.5083 161.733 100.047 162.022C100.525 162.077 101.08 163.553 101.157 164.408C101.229 165.231 100.723 166.097 100.377 167.263ZM98.5085 164.136C93.7219 162.796 91.8479 164.212 89.9189 168.848C88.2593 172.826 89.908 176.955 93.5515 178.132C95.8047 178.862 98.4151 179.031 100.789 178.758C103.834 178.41 105.911 175.648 105.636 173.092C105.307 170.025 102.658 170.319 100.624 169.949C97.5798 169.399 97.2171 169.023 97.9425 166.103C98.0909 165.503 98.2832 164.915 98.514 164.136H98.5085Z" fill="#050505"/>
<path d="M101.767 150.576C101.773 153.774 97.8325 159.233 95.4694 159.936C93.8647 160.415 92.1006 158.911 92.4798 157.244C93.2382 153.872 94.9638 151.023 97.838 149.04C98.5304 148.56 99.8603 148.364 100.558 148.707C101.273 149.056 101.569 150.233 101.767 150.576ZM95.6947 156.177C95.5738 156.231 95.4474 156.285 95.3265 156.345C95.4034 156.422 95.4804 156.503 95.5628 156.58C95.6177 156.454 95.6727 156.329 95.7277 156.204C95.931 156.029 96.1288 155.85 96.3322 155.675C96.9202 154.983 97.5137 154.297 98.1018 153.605C98.371 153.169 98.6458 152.728 98.9151 152.292C98.8931 152.074 98.8711 151.862 98.8492 151.644C98.5524 151.889 98.2556 152.129 97.9589 152.374C97.8654 152.521 97.772 152.668 97.6731 152.815C97.0906 153.66 96.5135 154.504 95.9365 155.348C95.8596 155.626 95.7826 155.899 95.7057 156.177H95.6947Z" fill="#050505"/>
<path d="M135.598 64.5471C135.642 63.7299 135.675 62.9181 135.73 62.101C136.137 55.7704 141.616 52.3818 147.705 54.6972C156.46 58.0259 161.505 69.2324 158.152 77.8947C155.278 85.3203 147.26 87.1835 140.924 81.8771C139.956 81.0654 139.094 80.1283 138.132 79.2022C137.983 79.5127 137.758 79.8123 137.687 80.1446C135.868 89.1011 126.338 90.4468 120.2 86.3118C111.599 80.5206 111.478 69.1016 115.144 62.4279C117.666 57.8352 127.223 57.0017 131.565 60.7662C132.917 61.9375 133.972 63.4575 135.159 64.8141C135.291 65.0102 135.423 65.2009 135.56 65.397C135.576 65.1137 135.587 64.8304 135.604 64.5471H135.598ZM119.799 80.2645C119.996 80.4443 120.194 80.6186 120.392 80.7984C120.326 80.4933 120.26 80.1828 120.2 79.8777C120.062 79.5236 119.92 79.1695 119.782 78.8099C119.189 76.2276 119.463 73.8359 121.909 72.3323C124.063 71.003 126.195 71.7929 128.031 73.144C130.614 75.0399 131.922 77.6332 131.768 80.8801C131.746 81.316 131.812 81.7573 131.85 82.4492C136.5 76.8486 132.862 64.5961 126.283 62.6893C122.524 61.5997 118.639 63.7081 117.628 67.4618C116.573 71.3789 116.946 75.1761 118.892 78.7772C119.194 79.273 119.496 79.7688 119.799 80.2645ZM142.567 77.7585C142.682 77.6114 142.803 77.4588 142.919 77.3117C142.677 75.454 142.127 73.5744 142.265 71.7439C142.528 68.2463 144.628 66.6173 147.81 67.9303C150.151 68.8946 151.97 71.1174 154.02 72.779C154.327 73.1876 154.635 73.5907 154.943 73.9993C154.976 73.6016 155.003 73.1985 155.036 72.8008C155.042 72.0762 155.086 71.3516 155.047 70.627C154.767 65.4678 149.914 59.1591 145.271 58.4672C143.743 58.2383 140.759 59.0174 140.588 59.8019C139.247 65.9254 138.429 72.1688 142.567 77.7585Z" fill="#020202"/>
<path d="M157.86 95.6497C157.272 99.4361 156.085 102.215 153.096 103.805C150.117 105.385 147.435 103.729 144.781 102.694C144.264 102.492 143.775 101.114 143.973 100.504C144.182 99.8665 145.177 99.3652 145.935 99.0601C146.336 98.8967 146.968 99.2672 147.49 99.4197C151.898 100.722 152.156 100.493 153.524 96.0474C153.821 95.0886 155.102 94.4348 155.932 93.6394C156.657 94.3967 157.382 95.1485 157.86 95.6497Z" fill="#040404"/>
<path d="M146.243 92.468C146.149 94.9196 142.616 97.5183 139.511 97.2622C137.499 97.0988 135.988 96.1236 135.944 93.9008C135.884 90.9861 139.362 87.8644 142.357 88.0279C144.534 88.1477 146.331 90.1962 146.243 92.468Z" fill="#030303"/>
</svg>
