<svg width="170" height="180" viewBox="0 0 170 180" fill="none" xmlns="http://www.w3.org/2000/svg">
<path d="M119.817 0.00298906C125.104 0.0179655 130.388 0.0119818 135.674 0.056911C144.837 0.137784 154.003 0.245614 163.165 0.356439C165.242 0.380401 166.2 1.19212 166.983 3.18098C167.781 5.21178 167.944 7.32944 168.178 9.4501C168.452 11.9242 168.782 14.3953 169.084 16.8664C169.096 16.9653 169.09 17.0671 169.093 17.1659C169.195 19.4364 169.315 21.7098 169.398 23.9802C169.515 27.1492 169.648 30.3182 169.703 33.4902C169.829 40.9514 169.956 48.4157 169.999 55.8769C170.017 58.8452 169.808 61.8166 169.712 64.7879C169.601 68.2085 169.512 71.6261 169.398 75.0467C169.364 76.0621 168.921 76.4185 167.707 76.4215C163.96 76.4305 160.211 76.3946 156.464 76.4305C148.79 76.5084 141.115 76.6162 133.441 76.7241C127.202 76.8139 120.966 76.9187 114.73 77.0206C108.75 77.1194 102.767 77.1913 96.7903 77.3441C95.715 77.371 94.6244 77.6586 93.5892 77.9731C93.3088 78.057 93.1794 78.68 93.0285 79.0724C92.2921 81.0043 91.7961 83.0591 90.8041 84.8562C88.8785 88.3487 86.4107 91.4429 83.1726 93.9828C80.1349 96.3641 76.903 98.2152 73.0673 98.967C71.7455 99.2246 70.393 99.4013 69.0498 99.4462C68.2333 99.4762 67.916 99.6948 68.0669 100.456C68.6153 103.208 69.1915 105.958 69.7245 108.717C70.2205 111.287 70.6672 113.868 71.1448 116.441C71.6223 119.014 72.143 121.578 72.5928 124.157C72.9687 126.314 73.2614 128.482 73.6095 130.642C73.9884 132.99 74.4136 135.333 74.7802 137.687C75.0421 139.373 75.2177 141.075 75.458 142.764C75.7446 144.789 76.0711 146.808 76.3607 148.829C76.4932 149.749 76.6072 150.671 76.6812 151.597C76.8999 154.293 77.1217 156.989 77.2943 159.687C77.4083 161.496 77.6701 161.715 79.5372 161.799C80.6709 161.85 81.8478 161.964 82.9108 162.323C85.4125 163.171 86.4384 165.139 86.5216 167.58C86.5709 169.054 86.6572 170.599 86.2844 171.998C85.6497 174.376 84.0291 176.131 81.8047 177.371C79.4047 178.71 76.8876 179.453 74.1117 179.828C71.1725 180.223 68.3935 179.92 65.6669 179.106C63.2884 178.393 61.1164 176.203 61.5724 173.022C61.6987 172.139 61.1903 171.138 60.8576 170.231C59.4835 166.481 58.1402 162.716 56.6429 159.01C55.1456 155.305 53.4758 151.663 51.8737 147.997C51.7813 147.787 51.618 147.61 51.4855 147.416C51.3068 147.613 51.0326 147.787 50.9617 148.018C49.868 151.564 48.7897 155.113 47.7483 158.672C47.6251 159.088 47.7175 159.567 47.7329 160.014C47.7545 160.754 47.545 161.658 47.9085 162.173C48.1581 162.524 49.2241 162.293 49.9173 162.386C53.8886 162.919 57.0003 166.424 57.0096 170.048C57.0157 172.3 56.3441 174.259 55.0378 176.018C54.0396 177.359 52.4652 177.973 50.9217 178.549C48.0041 179.639 44.9416 179.932 41.8761 179.714C37.8371 179.426 34.2047 178.09 30.905 175.649C29.2536 174.427 29.0965 172.813 28.6898 171.276C27.7964 167.912 27.1278 164.486 26.5085 161.062C26.1512 159.091 26.0772 157.072 25.8554 155.081C25.6675 153.385 25.4518 151.693 25.2331 150.001C25.2115 149.836 25.0821 149.683 25.002 149.524C24.8757 149.689 24.7124 149.839 24.6292 150.022C24.1886 151.001 23.859 152.25 22.6944 152.463C21.0245 152.768 19.7305 153.562 18.3688 154.455C17.3305 155.134 16.0304 155.131 14.8381 154.329C14.302 153.969 13.578 153.843 12.9187 153.697C10.608 153.182 8.96893 150.51 9.60976 148.155C10.0195 146.655 10.5371 145.193 11.8188 144.121C12.0591 143.92 12.1885 143.564 12.3056 143.258C13.5287 140.098 15.9472 138.331 19.2992 137.864C20.8397 137.648 22.3462 138.142 23.7419 138.888C24.8911 139.502 24.928 139.46 24.9311 138.232C24.9404 135.339 24.8942 132.442 24.9434 129.549C25.002 126.077 25.0236 122.603 25.2823 119.143C25.461 116.729 26.031 114.345 26.3915 111.94C26.6534 110.202 26.8659 108.459 27.0878 106.719C27.2048 105.799 27.3065 104.874 27.3866 103.951C27.402 103.783 27.2819 103.604 27.2264 103.43C27.0631 103.559 26.8813 103.673 26.7396 103.822C23.6587 107.093 22.0197 111.167 20.168 115.112C19.9986 115.474 20.1865 116.202 20.4792 116.531C21.8009 118.014 22.602 119.787 22.6882 121.641C22.7714 123.376 22.109 125.128 20.3775 126.128C18.7631 127.06 17.1395 126.841 15.6083 125.904C14.1295 124.996 14.1048 124.978 12.9063 126.008C10.9962 127.653 9.03979 127.383 7.48085 125.098C7.06185 124.481 6.68289 124.355 6.03898 124.343C2.48361 124.283 -0.0365695 121.776 0.000401467 118.296C0.0127251 117.127 -0.00267926 115.902 0.342383 114.806C0.989374 112.754 2.8256 110.987 5.52755 111.185C6.57198 111.26 6.91396 111.047 7.19432 109.864C8.51295 104.302 10.8914 99.1347 13.7998 94.1686C15.177 91.8173 16.4062 89.4001 18.15 87.2704C19.5241 85.5901 20.8212 83.8498 22.7745 82.7086C24.0099 81.9868 24.0038 81.6932 23.021 80.7138C22.7344 80.4292 22.3555 80.1896 22.1768 79.8511C21.8194 79.1652 21.2864 79.0424 20.584 79.1203C20.1804 79.1652 19.6597 79.2671 19.3762 79.0813C18.7785 78.686 18.4797 78.9645 18.0946 79.33C16.8468 80.5131 15.3557 80.7347 13.695 80.4082C12.7184 80.2166 11.7079 80.1866 10.722 80.0219C9.40642 79.8032 8.56225 78.8777 7.62565 78.054C6.56582 77.1224 6.26697 76.0441 6.50728 74.7322C6.52577 74.6274 6.23924 74.3458 6.11909 74.3578C2.77322 74.6903 0.299248 71.2637 1.14958 67.7233C1.6949 65.4498 2.50518 63.41 3.98094 61.5949C4.15039 61.3852 4.31984 61.0498 4.27054 60.8161C3.68517 58.1833 4.88672 56.1944 6.55966 54.2924C8.3435 52.2676 10.6511 51.1474 13.2391 50.737C15.3341 50.4045 17.3891 51.1204 19.2992 51.992C19.8908 52.2616 20.2759 52.7528 19.7521 53.5736C19.3393 54.2235 19.0774 54.3823 18.3472 54.0588C16.9392 53.4358 15.4912 53.0074 13.8799 53.0434C10.8914 53.1123 7.27751 55.9877 6.54117 58.8662C6.41177 59.3694 6.58431 59.3305 7.08649 59.2316C8.35583 58.98 9.65905 58.8153 10.9561 58.7853C12.2224 58.7554 13.6858 59.8367 13.8491 60.7173C14.225 62.7391 13.6119 64.1139 12.0683 64.8478C10.2845 65.6954 8.57765 65.4289 6.96634 64.4764C5.48442 63.5987 5.4721 63.5299 4.56015 64.9646C3.58658 66.4952 3.17374 68.1995 3.39248 69.9907C3.59274 71.6231 5.61382 72.4528 7.45928 71.7189C7.7797 71.5931 8.09087 71.4044 8.42361 71.3535C9.41874 71.2008 10.0226 72.0005 9.62824 72.9141C9.51117 73.1806 9.3602 73.4323 9.2308 73.6958C8.48214 75.2504 9.03363 76.9427 10.6419 77.5597C12.1916 78.1528 13.8522 78.4134 15.522 78.1917C15.9534 78.1348 16.3785 77.7125 16.7082 77.371C17.158 76.9068 17.6263 76.6791 18.3041 76.7151C19.3793 76.772 20.4576 76.736 21.536 76.7301C23.3937 76.7211 24.8017 75.3552 24.9434 73.5311C25.0605 72.0125 24.5214 70.6646 23.9083 69.3377C23.3999 68.2384 22.7683 67.1961 22.2322 66.1088C22.0443 65.7254 21.9118 65.2941 21.8687 64.8717C21.8225 64.4165 21.6777 63.7605 22.4479 63.7605C22.9193 63.7605 23.6556 63.8863 23.822 64.1888C25.4271 67.1152 27.593 69.8918 27.0724 73.5011C26.8444 75.0737 26.108 76.4934 24.851 77.5088C23.9976 78.1947 24.2071 78.7339 24.7309 79.3599C27.9997 83.2657 31.9464 86.1622 37.1315 87.2165C39.3683 87.6718 41.6235 87.9773 43.9003 87.7976C48.343 87.4442 52.6593 86.5276 56.4642 84.1643C59.0029 82.5858 61.0764 80.4472 62.0129 77.6136C62.7554 75.3702 62.8017 72.989 62.0129 70.6856C61.5939 69.4605 61.1749 68.2294 60.6296 67.0583C60.3554 66.4712 60.1644 65.9411 60.8669 65.7344C61.4984 65.5487 62.3457 65.36 62.7924 66.1268C63.1067 66.6599 63.2422 67.2919 63.4733 67.873C63.8646 68.8704 64.8998 69.2628 66.089 68.8794C67.2289 68.511 67.7619 67.6633 67.2998 66.609C66.9732 65.8662 66.3293 65.2611 65.8795 64.5632C65.6269 64.1709 65.2695 63.6706 65.3527 63.2992C65.4328 62.9308 65.9534 62.5085 66.3694 62.3827C68.7632 61.6578 69.4903 59.9026 67.9714 57.9736C67.0687 56.8294 65.898 55.8739 64.8104 54.8765C64.2435 54.3553 63.7906 54.3703 63.2761 55.1311C62.5151 56.2603 61.5231 57.2458 60.1151 57.6292C59.616 57.7669 59.0091 57.8508 58.5377 57.704C57.2437 57.2997 55.9066 55.3887 56.0514 54.3403C56.2455 52.9236 57.558 51.8063 59.2802 51.5667C59.77 51.4978 60.2507 51.369 60.7375 51.2732C61.1133 51.2013 61.4923 51.1384 61.8712 51.0725C61.6494 50.6621 61.5108 50.1709 61.1903 49.8564C58.9166 47.6219 54.4894 46.3939 51.5379 48.5654C51.3037 48.7362 50.9741 48.844 50.8385 49.0686C50.4411 49.7276 50.1206 50.4914 49.1563 49.7995C48.4754 49.3113 48.3984 48.0473 49.0793 47.4482C49.7386 46.8701 50.4626 46.2411 51.276 45.9715C54.6896 44.8513 58.0447 44.7105 61.1072 47.0109C61.4923 47.3014 62.0253 47.4242 62.3703 47.7447C63.2669 48.5744 64.3514 49.2544 64.4007 50.7071C64.453 52.3515 66.0459 52.8307 67.118 53.6454C68.9358 55.0323 70.3283 56.6976 71.0431 58.8363C71.5576 60.3788 70.7966 62.7122 69.3486 63.4939C68.5168 63.9432 68.8834 64.3206 69.1206 64.695C69.9062 65.9441 69.7923 67.3249 69.4595 68.5679C68.9851 70.3471 67.4107 71.1349 65.6361 71.2906C64.7888 71.3655 64.6533 71.6111 64.6595 72.333C64.6872 74.6304 64.8689 76.9457 63.9015 79.1562C63.6058 79.8332 64.8597 80.9204 65.9996 80.8965C67.5617 80.8605 69.1576 80.8426 70.6734 80.5221C73.7697 79.8661 76.7644 78.8837 79.4293 76.781C79.0874 76.757 78.8378 76.733 78.5852 76.7271C78.2771 76.7211 77.9628 76.6851 77.664 76.736C75.2886 77.1404 74.1209 76.2807 73.9145 73.9654C73.6095 70.5957 73.3045 67.226 72.9933 63.8563C72.6883 60.5855 72.3617 57.3176 72.0721 54.0468C71.8441 51.4529 71.6377 48.856 71.4559 46.2591C71.231 43.0152 71.0308 39.7683 70.8398 36.5244C70.7196 34.5026 70.6179 32.4808 70.5317 30.459C70.4146 27.7393 70.279 25.0196 70.2297 22.2998C70.1003 15.4377 70.011 8.57248 69.9186 1.7103C69.897 0.0539124 69.9186 0.0359382 71.61 0.0509146C81.0807 0.143768 90.5514 0.296531 100.025 0.326484C104.258 0.338465 108.492 0.116816 112.725 0C115.091 0 117.454 0 119.82 0L119.817 0.00298906ZM25.5103 148.611C25.4919 148.539 25.4703 148.47 25.4518 148.398C25.3748 148.461 25.2947 148.524 25.2176 148.587C25.193 148.68 25.1714 148.77 25.1468 148.862C25.2669 148.778 25.3902 148.695 25.5103 148.611ZM167.577 41.0473C167.466 36.7311 167.368 32.4119 167.245 28.0957C167.161 25.2262 167.06 22.3538 166.933 19.4873C166.875 18.2113 166.77 16.9353 166.619 15.6683C166.342 13.296 166.061 10.9208 165.692 8.5605C165.439 6.94006 165.072 5.33459 164.672 3.7411C164.533 3.19296 164.222 2.73469 163.409 2.72571C160.405 2.68677 157.401 2.45612 154.4 2.46511C130.816 2.537 107.231 2.6628 83.6502 2.73469C80.3906 2.74368 77.131 2.52502 73.8714 2.45912C72.1183 2.42318 72.371 2.25544 72.3895 3.84594C72.4757 11.8074 72.5373 19.7688 72.7099 27.7273C72.8023 31.9237 73.0734 36.1171 73.3137 40.3075C73.4678 43.0062 73.6988 45.702 73.9237 48.3977C74.1055 50.5453 74.3243 52.6929 74.5338 54.8376C74.8388 57.9586 75.15 61.0767 75.458 64.1978C75.7661 67.3189 76.1112 70.434 76.3577 73.558C76.4255 74.4327 76.7859 74.7052 77.5993 74.6304C78.7022 74.5285 79.8052 74.4087 80.9113 74.3338C81.7369 74.2799 82.692 74.5854 83.0124 73.4233C83.2435 72.5936 83.8196 71.7279 83.6964 70.9611C83.4746 69.5594 82.8461 68.2205 82.3932 66.8516C81.8078 65.0784 81.1978 63.2962 81.626 61.4002C81.9187 60.1123 82.6088 59.0789 83.9028 58.5187C86.3429 57.4644 90.0554 58.9171 90.5822 61.4451C90.6993 62.0083 90.8718 62.4845 91.9132 62.182C95.1851 61.2295 98.2352 63.6377 98.2599 66.9624C98.266 67.7412 98.2013 68.5949 98.494 69.2838C99.1348 70.7844 99.2766 72.2551 98.8606 73.8097C98.5649 74.9149 98.5772 74.9419 99.7695 74.9269C106.674 74.834 113.578 74.7292 120.479 74.6334C127.895 74.5315 135.314 74.4297 142.73 74.3338C150.558 74.232 158.384 74.1242 166.212 74.0493C166.958 74.0433 167.263 73.9325 167.269 73.0908C167.331 65.7284 167.454 58.369 167.553 51.0066C167.571 49.7096 167.568 48.4127 167.574 47.1157C167.67 45.4444 167.784 43.773 167.845 42.1016C167.858 41.7572 167.67 41.4037 167.574 41.0533L167.577 41.0473ZM27.476 143.099C27.4544 143.099 27.4359 143.099 27.4143 143.102C27.4143 144.699 27.3127 146.304 27.4359 147.892C27.6639 150.818 28.0151 153.739 28.3386 156.656C28.5327 158.402 28.6837 160.161 29.0072 161.883C29.5402 164.734 30.1656 167.568 30.8218 170.395C31.0591 171.417 31.1915 172.741 31.9001 173.328C33.4529 174.619 35.0735 175.883 37.1623 176.497C41.2938 177.713 45.4038 177.695 49.5014 176.629C51.8213 176.024 53.7962 174.819 54.3661 172.264C54.4616 171.836 54.4555 171.387 54.5541 170.959C55.0409 168.886 53.9441 166.654 52.0462 165.654C50.5119 164.845 48.9037 164.417 47.1722 164.489C46.4667 164.519 45.983 164.357 45.795 163.656C45.6194 163.009 45.336 162.365 45.2959 161.709C45.1265 158.798 45.7858 156.009 46.744 153.268C47.6035 150.812 48.4662 148.359 49.2734 145.888C49.6215 144.828 50.4626 144.576 51.4115 144.405C52.3081 144.244 52.7117 144.639 53.0568 145.445C53.6791 146.903 54.4462 148.308 55.2195 149.701C57.1328 153.146 58.3652 156.851 59.7454 160.502C60.682 162.982 61.6371 165.456 62.4751 167.969C63.2207 170.21 64.4993 172.342 64.0895 174.858C64.0402 175.167 64.3144 175.586 64.5485 175.868C65.596 177.132 67.118 177.147 68.6184 177.392C72.5034 178.024 76.1636 177.605 79.7097 175.88C84.2633 173.666 84.861 170.312 83.9521 166.289C83.7272 165.288 83.1203 164.603 82.0728 164.495C80.4676 164.327 78.8501 164.297 77.2419 164.168C76.5025 164.108 75.7353 164.045 75.0421 163.815C74.2318 163.545 73.9207 162.665 74.4845 162.347C75.304 161.883 75.1777 161.245 75.1376 160.601C75.0883 159.825 74.9158 159.055 74.848 158.28C74.6293 155.737 74.4444 153.188 74.2226 150.645C74.1425 149.722 74.0008 148.802 73.8714 147.886C73.5849 145.861 73.2829 143.839 72.9964 141.814C72.7561 140.125 72.5589 138.433 72.2909 136.749C71.9335 134.497 71.533 132.251 71.1448 130.001C70.7812 127.898 70.4023 125.796 70.0356 123.693C69.6844 121.686 69.3424 119.676 68.9881 117.67C68.6431 115.711 68.2888 113.755 67.9314 111.799C67.4692 109.271 67.078 106.728 66.4988 104.227C66.0582 102.316 66.1629 100.282 65.0939 98.4997C64.641 97.7449 65.0538 97.1459 65.9781 97.1009C66.85 97.059 67.728 97.0291 68.5938 97.1009C71.7517 97.3735 74.6324 96.5438 77.3651 95.0911C80.064 93.6534 82.2915 91.6705 84.3834 89.4959C86.6941 87.0907 88.6844 84.4908 89.9137 81.4207C90.4836 80.0009 90.9273 78.4913 91.1214 76.9846C91.3432 75.2444 91.5897 74.9419 93.3612 75.4001C94.6706 75.7356 95.3453 75.3732 96.1279 74.2619C96.7933 73.3154 96.704 72.312 96.7102 71.2906C96.7132 70.6406 96.4606 70.7485 95.9553 70.9402C95.3207 71.1798 94.5073 71.4733 93.9527 71.2726C93.238 71.0121 92.4616 70.3831 92.1689 69.7241C91.9224 69.167 92.4832 68.4511 93.2719 68.2295C93.8388 68.0707 94.4026 67.9119 94.9664 67.7412C95.4593 67.5915 96.1125 67.6454 96.1001 66.8546C96.0847 66.0489 95.1389 64.722 94.381 64.4973C92.8313 64.0391 91.4665 64.5183 90.459 65.8572C90.308 66.0579 90.1417 66.2735 89.9291 66.3904C89.6025 66.5731 89.1311 66.8756 88.9031 66.7648C88.5519 66.597 88.1699 66.1417 88.1329 65.7793C88.0775 65.2252 88.1576 64.5602 88.441 64.087C89.1188 62.9578 88.5981 61.9603 87.9203 61.2864C87.1593 60.5256 85.9639 60.3069 84.824 60.6514C84.5436 60.7353 84.1524 61.0228 84.1216 61.2564C84.0261 61.9873 83.9336 62.7721 84.1 63.4759C84.5714 65.4888 85.2122 67.4626 85.699 69.4725C86.0564 70.9521 86.1519 72.3959 85.3755 73.8815C84.1185 76.2868 82.0512 77.9282 79.8853 79.3389C75.5782 82.1395 70.7597 83.4724 65.5221 83.0081C64.8351 82.9482 63.9601 82.9572 63.5226 82.5648C62.6445 81.7771 62.1978 82.2384 61.6432 82.8194C59.0768 85.5242 55.9405 87.3363 52.3389 88.4206C51.7289 88.6033 51.1928 88.8759 52.0555 89.472C52.1787 89.5588 52.265 89.6936 52.3882 89.7805C54.2552 91.1403 54.2583 91.8472 53.2293 93.7732C52.3143 95.4865 50.5489 97.0201 51.9753 99.4432C52.7209 100.713 52.5453 102.465 53.0075 103.933C54.1659 107.605 55.3459 111.275 56.7415 114.863C57.2129 116.073 57.0681 116.891 56.4211 117.87C55.7279 118.922 55.0439 119.997 54.5448 121.141C53.7931 122.857 53.2293 124.652 52.5392 126.398C52.0493 127.635 50.6321 128.264 49.3874 126.721C47.8069 124.756 46.1093 122.878 44.4302 120.991C42.9945 119.38 41.8885 117.705 42.8035 115.45C42.9483 115.094 43.0253 114.71 43.1116 114.333C44.1991 109.678 45.2528 105.014 46.3804 100.369C46.9227 98.1373 46.6977 97.7629 44.3747 97.694C43.0253 97.6521 41.4448 96.8224 41.9131 94.7646C42.2335 93.3628 42.634 91.9551 43.2132 90.6401C43.5491 89.8763 43.2749 89.9302 42.7172 89.8973C41.2014 89.8134 39.6856 89.7325 38.176 89.5978C35.8838 89.3881 33.721 88.7052 31.629 87.7976C29.4631 86.8601 27.6084 85.4673 25.8123 83.9936C25.4795 83.721 25.2639 83.4305 24.8171 83.8768C23.2705 85.4223 21.4836 86.7882 20.1619 88.4955C17.4199 92.0419 15.14 95.8908 13.2606 99.9494C11.4675 103.819 9.92093 107.767 9.22156 111.984C9.04595 113.045 8.35583 113.551 7.22821 113.563C6.45799 113.572 5.68468 113.53 4.92061 113.581C4.54474 113.605 4.11034 113.695 3.82381 113.91C1.33136 115.782 1.67025 120.024 4.31675 121.791C5.37351 122.498 6.66749 121.854 6.76916 120.638C6.78457 120.44 6.763 120.233 6.81537 120.045C7.05568 119.182 7.82283 118.571 8.51604 118.658C9.36329 118.766 9.91169 119.428 9.82542 120.449C9.77613 121 9.49576 121.542 9.27086 122.067C8.95352 122.8 9.38177 124.319 10.0226 124.595C10.6419 124.864 11.6678 124.4 12.0498 123.546C12.3394 122.896 12.5027 122.18 12.6106 121.477C12.7461 120.572 13.1713 120.129 14.0648 120.153C14.9767 120.177 15.4111 120.641 15.3957 121.587C15.3895 121.947 15.2632 122.33 15.3557 122.657C15.6391 123.642 17.1025 124.472 18.2209 124.346C19.4071 124.214 20.2481 123.283 20.3282 122.058C20.4515 120.23 19.3947 118.916 18.2363 117.708C17.3398 116.774 17.1241 115.872 17.7187 114.737C19.3146 111.691 20.815 108.597 22.491 105.596C23.8436 103.169 25.7322 101.103 27.8487 99.2815C28.2616 98.9251 29.1489 99.0209 29.8082 99.0539C29.9468 99.0598 30.181 99.7218 30.1502 100.066C29.9931 101.965 29.7743 103.858 29.5617 105.751C29.3553 107.596 29.1612 109.441 28.9024 111.281C28.428 114.653 27.7132 118.008 27.4606 121.396C27.1494 125.55 27.1309 129.729 27.1278 133.898C27.1278 136.968 27.3527 140.035 27.479 143.105L27.476 143.099ZM50.8354 124.397C51.0449 124.061 51.2791 123.804 51.3838 123.504C52.2311 121.072 52.9458 118.589 54.6373 116.519C54.7944 116.328 54.705 115.866 54.6064 115.573C53.7191 112.901 52.7117 110.265 51.923 107.566C51.1373 104.874 50.5704 102.118 49.8834 99.3983C49.7971 99.0599 49.5722 98.7573 49.409 98.4398C49.2426 98.7244 49.0392 98.9969 48.916 99.2965C48.7897 99.614 48.7281 99.9554 48.6634 100.294C48.3892 101.744 48.1889 103.211 47.8438 104.643C46.9134 108.528 45.9429 112.404 44.9447 116.271C44.7444 117.047 44.7907 117.673 45.3421 118.299C46.9627 120.135 48.5463 122.001 50.1545 123.849C50.3147 124.031 50.5366 124.163 50.8323 124.4L50.8354 124.397ZM12.0067 148.626C12.0067 149.132 12.0036 149.282 12.0067 149.431C12.0437 150.74 12.1238 150.785 13.2637 150.102C14.2897 149.488 15.599 150.123 15.5097 151.289C15.4419 152.187 15.8887 152.412 16.5911 152.493C17.9251 152.645 18.8833 151.259 18.4674 149.809C18.1654 148.758 18.569 148 19.5642 147.748C20.3529 147.547 21.0831 148.149 21.2402 149.15C21.271 149.345 21.1971 149.566 21.2618 149.743C21.3419 149.962 21.5206 150.144 21.6561 150.342C21.8256 150.174 22.0782 150.036 22.1521 149.836C22.3986 149.165 22.5557 148.461 22.7899 147.784C23.2767 146.376 23.0425 144.648 24.7339 143.746C24.8942 143.663 24.851 142.728 24.6045 142.509C23.7635 141.767 22.8546 141.042 21.8471 140.541C20.128 139.685 16.8437 140.284 15.4881 142.33C15.1123 142.896 15.1677 142.992 15.7346 143.231C16.2306 143.441 16.7944 143.728 17.0686 144.145C17.5215 144.831 17.0902 146.206 16.4093 146.802C15.6114 147.499 14.7487 147.601 13.806 147.104C12.7092 146.529 12.6229 146.544 12.1885 147.691C12.0375 148.093 12.019 148.545 12.0036 148.626H12.0067ZM49.0608 90.0141C46.0877 90.1189 45.6071 90.4934 44.9201 92.9585C44.84 93.243 44.7229 93.5186 44.6305 93.8001C44.27 94.9354 44.5812 95.4146 45.8043 95.5823C46.5037 95.6782 47.2153 95.7021 47.9055 95.8309C49.2395 96.0795 49.5291 95.9538 50.1884 94.7347C50.4257 94.3004 50.7984 93.917 50.9463 93.4587C51.1281 92.8896 51.4362 92.0419 51.1682 91.7124C50.555 90.9576 49.6246 90.4454 49.0577 90.0111L49.0608 90.0141ZM9.73916 63.1375C9.77305 63.0746 9.80385 63.0117 9.83774 62.9518C10.0411 62.9518 10.2475 62.9308 10.4447 62.9548C11.2889 63.0656 11.3998 62.3407 11.6247 61.8675C11.6863 61.7387 11.1595 61.2355 10.8175 61.0618C9.66214 60.4777 8.64543 61.2205 7.59176 61.511C7.55787 61.52 7.56711 62.0891 7.69651 62.161C8.35275 62.5294 9.05519 62.82 9.74224 63.1375H9.73916ZM61.2643 53.93C61.215 53.8132 61.1657 53.6993 61.1164 53.5825C60.4509 53.7113 59.7485 53.7563 59.1385 54.0109C58.855 54.1277 58.7533 54.6578 58.5716 54.9993C58.9505 55.1161 59.465 55.4426 59.6869 55.3078C60.2784 54.9544 60.7467 54.4032 61.2674 53.93H61.2643Z" fill="black"/>
<path d="M33.3451 62.9759C33.2311 60.5108 34.4019 58.4889 35.4217 56.4462C35.9701 55.3469 38.4563 54.643 39.9537 54.9515C41.8361 55.3379 43.6538 55.7932 44.9355 57.3537C45.0002 57.4346 45.4931 57.3567 45.5578 57.2369C46.9905 54.5172 49.3813 54.9665 51.6796 55.6015C54.206 56.2994 55.4722 57.3208 56.0915 60.7803C56.4735 62.913 56.4797 64.9737 55.7033 66.9626C55.2997 67.9989 54.6897 69.1162 53.8363 69.7961C51.9415 71.3057 48.953 71.0092 47.1137 69.3888C46.8487 69.1551 46.6084 68.8915 46.3466 68.6519C45.9214 68.2625 45.6657 68.1188 45.1912 68.7657C43.888 70.533 41.9717 71.3028 39.7904 71.0032C37.1654 70.6438 35.1351 69.2899 34.2139 66.7799C33.7672 65.5668 33.6255 64.2489 33.3451 62.9789V62.9759ZM40.4836 68.631C41.7837 68.8227 42.7635 68.2565 43.4135 67.1183C43.5737 66.8368 43.6169 66.4893 43.7155 66.1718C43.4228 66.1928 43.127 66.2617 42.8436 66.2228C42.5108 66.1778 42.1257 66.1209 41.8762 65.9292C41.2415 65.438 40.5976 64.9318 40.0923 64.3237C39.0818 63.1077 38.6813 61.643 38.8291 60.1064C38.9401 58.9622 39.7904 58.2883 40.8502 57.8629C40.9765 57.812 41.0844 57.7192 41.2014 57.6473C41.0936 57.5424 41.0043 57.3957 40.8749 57.3358C39.1742 56.581 37.2548 57.4346 36.6324 59.1839C35.9762 61.023 35.5264 62.8531 36.0132 64.8359C36.5832 67.1543 38.5426 68.8676 40.4867 68.634L40.4836 68.631ZM49.3566 57.5574C48.1951 57.2789 47.7484 58.0307 47.4002 59.0611C46.8241 60.7654 46.4667 62.4158 46.7471 64.2758C47.0028 65.9682 47.8993 67.0884 49.1656 67.978C50.5674 68.9634 52.3821 68.4872 53.1461 67.1183C53.7346 66.061 53.7346 66.07 52.4807 65.9382C52.2003 65.9082 51.8799 65.8454 51.6611 65.6866C49.9019 64.4256 49.0362 62.7063 49.3166 60.6036C49.4151 59.8578 50.0098 59.1659 50.4195 58.474C50.552 58.2523 50.8231 58.1085 51.0326 57.9258C50.7215 57.803 50.4164 57.6563 50.096 57.5694C49.905 57.5185 49.6893 57.5604 49.3535 57.5604L49.3566 57.5574Z" fill="black"/>
<path d="M38.5088 46.1781C39.2267 46.1781 39.9753 46.0613 40.6531 46.2201C41.0845 46.3219 41.636 46.7982 41.713 47.1846C41.7746 47.4991 41.7808 48.2688 41.0229 48.3737C40.6316 48.4276 40.2311 48.6073 39.8583 48.5594C35.4772 48.0112 31.4443 49.3891 27.4052 50.692C26.8045 50.8867 26.2222 51.2132 25.7138 51.5876C24.9467 52.1507 24.3551 51.8991 23.8961 51.2791C23.4124 50.6231 23.7389 50.0241 24.3397 49.6317C25.911 48.6043 27.6671 48.0052 29.5002 47.55C32.4641 46.8101 35.4279 46.1392 38.5119 46.1811L38.5088 46.1781Z" fill="black"/>
<path d="M43.6293 79.2522C44.4734 79.5068 45.37 79.6536 46.1464 80.04C47.1662 80.5462 47.8902 81.283 47.7639 82.6069C47.6499 83.808 47.1199 84.5568 46.0601 85.1499C43.7463 86.4469 41.0752 85.09 40.0308 83.2868C39.4978 82.3703 39.6395 81.4777 40.4775 80.642C41.3155 79.8093 42.3322 79.3211 43.6293 79.2522ZM43.5954 81.8162C43.5861 81.7802 43.5738 81.7413 43.5646 81.7053C43.1178 81.8281 42.668 81.9509 42.2213 82.0737C42.4955 82.4092 42.7142 82.9574 43.0501 83.0352C43.6632 83.176 44.3471 83.0622 44.991 82.9873C45.1019 82.9753 45.2837 82.5889 45.2406 82.4212C45.0311 81.6035 44.3163 81.8581 43.7464 81.8192C43.6971 81.8162 43.6447 81.8192 43.5954 81.8192V81.8162Z" fill="black"/>
<path d="M52.8198 73.0577C53.2327 73.2823 54.0923 73.5759 54.7023 74.13C55.2014 74.5823 54.7208 76.2986 54.0984 76.9785C52.712 78.4941 50.5338 78.9793 48.7839 78.1586C47.61 77.6105 47.2465 75.9751 48.1122 75.0136C49.2244 73.7765 50.6755 73.2284 52.8198 73.0547V73.0577Z" fill="black"/>
<path d="M37.7542 40.1935C40.5178 40.4271 42.3201 41.2299 42.9147 43.1379C43.0133 43.4584 43.1859 43.8448 43.0811 44.1143C42.9178 44.5367 42.6067 45.1207 42.2554 45.1986C41.9165 45.2735 41.1494 44.8601 41.0785 44.5546C40.6965 42.8413 39.2916 42.8114 37.976 42.5838C37.9267 42.5748 37.8744 42.5838 37.822 42.5838C36.6697 42.4969 35.5729 41.7541 35.7578 41.0831C36.0258 40.1156 36.9008 40.1096 37.7511 40.1965L37.7542 40.1935Z" fill="black"/>
<path d="M43.4415 39.0732C44.0638 39.3877 44.6646 39.6034 45.1668 39.9569C46.3468 40.7895 46.9106 42.0386 47.3696 43.3295C47.6346 44.0754 47.2618 44.6984 46.6241 44.8781C46.2759 44.9769 45.6936 44.5037 45.3116 44.1832C45.0774 43.9855 45.059 43.5692 44.8803 43.2876C44.4027 42.5328 44.0792 41.6432 43.0502 41.3586C42.8376 41.2987 42.5819 41.0621 42.5295 40.8644C42.434 40.496 42.357 40.0527 42.4926 39.7232C42.5973 39.4656 43.0317 39.3368 43.4415 39.0762V39.0732Z" fill="black"/>
<path d="M167.574 47.1094C167.568 48.4064 167.568 49.7034 167.553 51.0003C167.454 58.3627 167.331 65.7221 167.269 73.0845C167.263 73.9262 166.958 74.034 166.213 74.043C158.384 74.1179 150.558 74.2257 142.73 74.3275C135.314 74.4234 127.895 74.5252 120.48 74.6271C113.575 74.7229 106.671 74.8307 99.7696 74.9206C98.5804 74.9356 98.565 74.9086 98.8608 73.8034C99.2767 72.2488 99.135 70.7781 98.4941 69.2775C98.2015 68.5886 98.2631 67.7349 98.26 66.9562C98.2384 63.6314 95.1852 61.2232 91.9133 62.1757C90.872 62.4782 90.6994 62.002 90.5824 61.4388C90.0555 58.9108 86.343 57.4581 83.903 58.5125C82.6059 59.0726 81.9158 60.109 81.6262 61.3939C81.1948 63.2929 81.8079 65.0721 82.3933 66.8453C82.8431 68.2142 83.4747 69.5531 83.6965 70.9548C83.8167 71.7216 83.2406 72.5873 83.0126 73.417C82.6921 74.5791 81.7371 74.2706 80.9114 74.3275C79.8053 74.3994 78.7024 74.5192 77.5994 74.6241C76.7861 74.6989 76.4256 74.4264 76.3578 73.5518C76.1113 70.4277 75.7663 67.3096 75.4582 64.1915C75.1501 61.0704 74.8389 57.9523 74.5339 54.8313C74.3244 52.6836 74.1026 50.539 73.9239 48.3914C73.699 45.6957 73.4679 43.0029 73.3139 40.3012C73.0736 36.1108 72.7993 31.9174 72.71 27.721C72.5375 19.7625 72.4759 11.8011 72.3896 3.83965C72.3711 2.25215 72.1216 2.41989 73.8715 2.45283C77.1311 2.51573 80.3907 2.73738 83.6503 2.72839C107.235 2.65651 130.819 2.53071 154.4 2.45882C157.404 2.44984 160.405 2.68047 163.409 2.71941C164.222 2.73139 164.533 3.18668 164.672 3.73481C165.073 5.3283 165.439 6.93377 165.692 8.55421C166.062 10.9145 166.339 13.2898 166.619 15.662C166.767 16.929 166.875 18.205 166.933 19.481C167.063 22.3505 167.165 25.2199 167.245 28.0894C167.368 32.4056 167.466 36.7248 167.577 41.041C167.577 43.0628 167.577 45.0816 167.577 47.1034L167.574 47.1094ZM122.833 48.2776C122.895 48.2746 122.957 48.2686 123.018 48.2656C122.873 46.5493 122.781 44.827 122.559 43.1197C122.451 42.287 122.236 41.3765 121.019 41.3825C119.583 41.3885 118.141 41.3166 116.708 41.4064C115.84 41.4604 114.903 41.8407 114.912 42.8322C114.937 45.0996 115.069 47.367 115.276 49.6255C115.476 51.809 115.855 53.9746 116.105 56.1522C116.345 58.2459 116.493 60.3486 116.736 62.4393C116.878 63.6494 116.773 63.8291 115.556 63.8411C114.888 63.8471 114.219 63.871 113.554 63.8351C112.716 63.7901 111.896 63.9459 111.844 64.8595C111.791 65.7371 112.716 65.9408 113.393 66.2283C113.523 66.2822 113.698 66.2373 113.852 66.2403C117.83 66.3391 121.81 66.5128 125.788 66.5188C129.254 66.5248 132.72 66.3871 136.183 66.2283C139.011 66.0995 141.83 65.8239 144.655 65.6532C148.349 65.4286 152.047 65.2159 155.747 65.0571C157.487 64.9823 159.24 64.9823 160.981 65.0661C162.096 65.1201 162.078 64.2335 162.183 63.7003C162.281 63.2031 161.745 62.7927 161.061 62.9425C160.867 62.9844 160.651 62.9575 160.448 62.9485C159.74 62.9095 158.905 63.0773 158.353 62.7687C157.447 62.2655 158.313 61.4448 158.325 60.7619C158.384 56.8052 158.492 52.8154 157.632 48.9455C156.822 45.3063 157.108 45.9173 153.744 45.8784C153.488 45.8784 153.196 45.8275 152.986 45.9293C152.379 46.2318 151.566 46.4714 151.289 46.9746C150.996 47.5018 151.215 48.3076 151.233 48.9875C151.329 52.6567 151.387 56.3259 151.547 59.9951C151.714 63.7872 150.672 63.2001 147.998 63.254C147.206 63.269 146.92 62.9545 146.901 62.1907C146.831 59.2703 146.606 56.3499 146.636 53.4295C146.667 50.56 146.371 47.7295 145.989 44.8959C145.718 42.8921 144.846 42.1013 143.14 42.2781C141.987 42.3979 140.832 42.4847 139.68 42.5716C138.694 42.6465 138.21 43.1557 138.293 44.1022C138.494 46.3456 138.759 48.5861 138.891 50.8356C139.054 53.6032 139.101 56.3768 139.224 59.1475C139.242 59.5788 139.449 60.0041 139.458 60.4324C139.483 61.5167 139.541 62.622 139.344 63.6733C139.31 63.8471 138.031 63.7422 137.347 63.865C135.517 64.1945 135.548 64.2155 135.511 62.4003C135.428 58.3327 135.36 54.2622 135.194 50.1976C135.071 47.1993 134.8 44.207 134.593 41.2147C134.495 39.792 134.402 38.3662 134.285 36.9465C134.128 35.0355 133.539 34.1339 132.147 33.9302C130.853 33.7385 129.534 33.6427 128.225 33.6157C126.712 33.5828 126.256 34.041 126.293 35.5477C126.327 36.9734 126.484 38.3932 126.586 39.8159C126.792 42.6614 127.026 45.504 127.193 48.3495C127.341 50.8685 127.396 53.3905 127.513 55.9096C127.596 57.6828 127.71 59.456 127.824 61.2262C127.837 61.4149 127.932 61.6006 127.982 61.7893C128.407 63.3628 127.819 64.1496 126.219 64.1496C125.757 64.1496 125.295 64.1346 124.833 64.1526C124.124 64.1825 123.85 63.877 123.801 63.1821C123.631 60.7829 123.366 58.3897 123.209 55.9904C123.043 53.4235 122.957 50.8505 122.833 48.2806V48.2776ZM93.2782 12.5289C92.434 12.6398 91.5282 12.6038 90.758 12.8974C89.159 13.5024 87.6432 14.3141 86.0688 14.9851C80.9977 17.1417 78.9458 21.1883 78.8872 26.2653C78.8472 29.7039 79.9779 32.9298 81.925 35.8322C83.3638 37.9798 85.1261 39.8159 87.5292 40.9841C89.6797 42.0294 91.8579 42.5985 94.3565 42.3499C96.51 42.1343 98.5742 41.9066 100.626 41.1309C106.095 39.0641 109.567 34.3675 109.659 28.7574C109.702 26.1395 109.351 23.5995 108.396 21.1613C107.626 19.1994 106.717 17.1057 104.853 16.0514C101.319 14.0535 97.5206 12.5679 93.2782 12.5319V12.5289ZM127.901 15.4703C125.609 16.1413 123.687 16.9949 122.005 18.2769C121.761 18.4626 121.706 19.3073 121.918 19.5349C122.223 19.8614 122.926 20.137 123.329 20.0171C124.112 19.7865 124.827 19.2983 125.532 18.858C127.495 17.6329 128 17.6329 129.728 19.1365C130.788 20.0591 131.913 20.4485 133.268 19.8135C133.669 19.6248 134.051 19.3762 134.473 19.2504C135.696 18.8879 136.79 18.1301 138.189 18.3009C139.692 18.4836 141.223 18.6753 142.724 18.5854C145.882 18.3967 149.03 18.0043 152.185 17.7407C152.885 17.6838 153.615 17.7407 154.302 17.8725C155.349 18.0732 156.024 17.8066 156.16 17.0069C156.28 16.282 155.765 15.7009 154.752 15.644C153.424 15.5692 152.065 15.4793 150.759 15.656C147.441 16.1023 144.129 16.4767 140.773 16.2191C139.825 16.1472 138.836 15.8088 137.939 15.9735C136.254 16.285 134.602 16.8152 132.979 17.3693C132.212 17.6329 131.734 17.7827 130.985 17.1417C130.095 16.3809 128.878 15.9765 127.908 15.4733L127.901 15.4703ZM153.954 24.8006C153.96 24.8365 153.966 24.8725 153.972 24.9084C154.382 24.9084 154.792 24.9024 155.204 24.9084C155.781 24.9174 156.397 24.9594 156.455 24.1806C156.505 23.5306 156.575 22.8477 155.559 22.7968C154.613 22.7488 153.673 22.5601 152.727 22.5392C151.033 22.5002 149.335 22.5452 147.638 22.5482C145.795 22.5541 143.91 22.1677 142.283 23.5156C141.846 23.8781 141.082 23.926 140.453 23.9979C138.953 24.1686 137.437 24.2195 135.94 24.4112C134.205 24.6329 132.461 25.2709 130.899 23.8781C130.622 23.6324 130.184 23.5546 129.824 23.3958C127.652 22.4403 125.628 22.9495 124.38 24.8755C124.133 25.2559 124.118 25.9508 124.3 26.3791C124.654 27.2118 125.283 27.1848 126.099 26.43C127.901 24.7647 128.086 24.7107 130.187 26.1155C131.241 26.8194 132.326 27.1309 133.576 27.0081C135.73 26.7985 137.88 26.5439 140.037 26.43C141.322 26.3641 142.453 26.1155 143.54 25.3907C144.474 24.7677 145.466 24.4052 146.772 24.7856C148.143 25.184 149.665 25.166 151.122 25.181C152.065 25.193 153.008 24.9384 153.954 24.8006Z" fill="white"/>
<path d="M50.8322 124.4C50.5364 124.163 50.3146 124.032 50.1544 123.849C48.5462 122.001 46.9626 120.135 45.342 118.299C44.7905 117.673 44.7443 117.05 44.9446 116.271C45.9428 112.404 46.9133 108.528 47.8437 104.643C48.1857 103.208 48.389 101.744 48.6632 100.294C48.7279 99.9585 48.7895 99.6141 48.9159 99.2966C49.036 98.9941 49.2394 98.7245 49.4088 98.4399C49.569 98.7604 49.797 99.063 49.8833 99.3984C50.5703 102.121 51.1372 104.874 51.9228 107.567C52.7115 110.265 53.719 112.901 54.6063 115.573C54.7049 115.869 54.7942 116.331 54.6371 116.519C52.9488 118.589 52.234 121.072 51.3837 123.504C51.2789 123.804 51.0448 124.062 50.8353 124.397L50.8322 124.4Z" fill="#14385D"/>
<path d="M49.0578 90.0139C49.6247 90.4482 50.5551 90.9604 51.1682 91.7152C51.4362 92.0447 51.1281 92.8924 50.9464 93.4615C50.7985 93.9168 50.4257 94.3002 50.1885 94.7375C49.5261 95.9566 49.2365 96.0823 47.9055 95.8337C47.2154 95.7049 46.5037 95.681 45.8043 95.5851C44.5812 95.4174 44.27 94.9352 44.6305 93.8029C44.7199 93.5214 44.84 93.2458 44.9201 92.9613C45.6072 90.4962 46.0878 90.1217 49.0609 90.0169L49.0578 90.0139Z" fill="#14385D"/>
<path d="M167.574 47.1098C167.574 45.088 167.574 43.0692 167.574 41.0474C167.67 41.3978 167.858 41.7513 167.845 42.0957C167.784 43.7671 167.67 45.4384 167.574 47.1098Z" fill="#CFCFCF"/>
<path d="M25.5076 148.614C25.3874 148.698 25.2642 148.782 25.144 148.865C25.1687 148.773 25.1903 148.683 25.2149 148.59C25.3135 148.602 25.4121 148.611 25.5107 148.614H25.5076Z" fill="#919191"/>
<path d="M25.5072 148.614C25.4086 148.614 25.31 148.605 25.2114 148.59C25.2884 148.527 25.3686 148.464 25.4456 148.401C25.4641 148.473 25.4856 148.542 25.5041 148.614H25.5072Z" fill="#828282"/>
<path d="M122.833 48.281C122.953 50.851 123.04 53.4239 123.209 55.9909C123.366 58.3901 123.631 60.7833 123.801 63.1825C123.85 63.8774 124.127 64.183 124.833 64.153C125.295 64.135 125.757 64.15 126.219 64.15C127.819 64.15 128.407 63.3633 127.981 61.7897C127.932 61.601 127.834 61.4183 127.824 61.2266C127.71 59.4564 127.596 57.6832 127.513 55.91C127.396 53.391 127.341 50.869 127.193 48.3499C127.026 45.5044 126.792 42.6619 126.586 39.8164C126.484 38.3936 126.327 36.9709 126.293 35.5481C126.256 34.0415 126.715 33.5832 128.225 33.6161C129.534 33.6461 130.853 33.7419 132.147 33.9306C133.536 34.1373 134.128 35.0389 134.285 36.9469C134.402 38.3697 134.495 39.7924 134.593 41.2152C134.8 44.2104 135.071 47.2027 135.194 50.198C135.36 54.2626 135.428 58.3332 135.511 62.4008C135.548 64.2159 135.517 64.1949 137.347 63.8655C138.031 63.7427 139.31 63.8475 139.344 63.6738C139.544 62.6224 139.486 61.5172 139.458 60.4329C139.449 60.0015 139.242 59.5792 139.224 59.1479C139.104 56.3773 139.054 53.6036 138.891 50.836C138.759 48.5865 138.49 46.3461 138.293 44.1026C138.21 43.1591 138.694 42.6469 139.68 42.572C140.835 42.4852 141.99 42.3953 143.14 42.2785C144.846 42.1018 145.718 42.8925 145.989 44.8964C146.371 47.7269 146.667 50.5574 146.636 53.4299C146.606 56.3503 146.831 59.2707 146.901 62.1911C146.92 62.9549 147.206 63.2694 147.998 63.2544C150.672 63.2005 151.714 63.7876 151.547 59.9956C151.387 56.3293 151.329 52.6571 151.233 48.9879C151.215 48.305 150.996 47.5023 151.289 46.9751C151.566 46.4719 152.379 46.2323 152.986 45.9297C153.193 45.8279 153.488 45.8758 153.744 45.8788C157.108 45.9178 156.822 45.3037 157.632 48.946C158.492 52.8129 158.384 56.8026 158.325 60.7624C158.316 61.4453 157.447 62.269 158.353 62.7692C158.908 63.0777 159.74 62.91 160.448 62.9489C160.651 62.9609 160.867 62.9878 161.061 62.9429C161.745 62.7931 162.278 63.2035 162.183 63.7007C162.078 64.2339 162.096 65.1205 160.981 65.0666C159.24 64.9827 157.49 64.9827 155.747 65.0576C152.046 65.2163 148.352 65.429 144.655 65.6536C141.83 65.8244 139.008 66.0999 136.183 66.2287C132.72 66.3875 129.254 66.5253 125.788 66.5193C121.81 66.5133 117.83 66.3426 113.852 66.2407C113.698 66.2377 113.523 66.2827 113.393 66.2287C112.713 65.9412 111.788 65.7375 111.844 64.8599C111.899 63.9463 112.716 63.7906 113.554 63.8355C114.219 63.8714 114.888 63.8475 115.556 63.8415C116.773 63.8295 116.875 63.6498 116.736 62.4397C116.493 60.346 116.345 58.2433 116.105 56.1526C115.855 53.975 115.479 51.8065 115.276 49.6259C115.069 47.3675 114.937 45.097 114.912 42.8326C114.903 41.8412 115.84 41.4608 116.708 41.4069C118.141 41.317 119.58 41.3889 121.019 41.3829C122.233 41.3769 122.451 42.2845 122.559 43.1202C122.781 44.8275 122.873 46.5498 123.018 48.266C122.957 48.269 122.895 48.275 122.833 48.278V48.281ZM129.876 51.5039C129.793 51.5129 129.707 51.5189 129.624 51.5279C129.741 54.1009 129.812 56.6768 129.996 59.2437C130.095 60.6096 130.366 61.9634 130.616 63.3143C130.668 63.6019 130.918 63.9853 131.173 64.0871C132.52 64.6322 133.364 64.0542 133.361 62.6434C133.361 57.3897 133.419 52.1389 132.772 46.9032C132.415 44.0187 132.353 41.0983 132.113 38.1989C132.061 37.5789 131.94 36.899 131.608 36.3988C131.435 36.1382 130.733 36.216 130.271 36.1292C130.073 36.0932 129.87 36.0543 129.688 35.9764C129.035 35.7009 128.739 35.9225 128.742 36.5875C128.742 38.133 128.638 39.6876 128.773 41.2211C129.075 44.6537 129.5 48.0773 129.876 51.5039ZM144.313 55.2181C144.36 55.2181 144.406 55.2121 144.449 55.2091C144.449 53.6665 144.532 52.118 144.427 50.5814C144.31 48.8801 144.048 47.1848 143.771 45.4984C143.722 45.1989 143.34 44.7825 143.044 44.7226C142.456 44.5998 141.821 44.6567 141.211 44.7107C141.048 44.7256 140.801 44.9862 140.777 45.1599C140.712 45.6003 140.724 46.0555 140.755 46.4988C140.952 49.3923 141.18 52.2857 141.359 55.1792C141.497 57.4436 141.565 59.714 141.685 61.9814C141.701 62.263 141.867 62.5326 141.929 62.8171C142.249 64.2968 143.414 63.3593 144.162 63.503C145.013 63.6678 144.76 62.871 144.739 62.4577C144.621 60.0435 144.458 57.6293 144.31 55.2151L144.313 55.2181ZM120.6 50.8779C120.646 50.8749 120.692 50.8719 120.738 50.8659C120.634 48.6405 120.535 46.415 120.406 44.1895C120.396 44.0217 120.159 43.7282 120.024 43.7252C119.259 43.7042 118.486 43.7132 117.728 43.8061C117.488 43.836 117.081 44.1715 117.094 44.3422C117.245 46.3012 117.439 48.2601 117.667 50.213C117.947 52.6032 118.28 54.9845 118.569 57.3717C118.794 59.2258 118.961 61.0858 119.195 62.9399C119.321 63.9313 119.863 64.2249 120.979 64.153C122.069 64.0811 121.53 63.2964 121.641 62.8111C121.706 62.5266 121.669 62.2121 121.641 61.9155C121.296 58.2343 120.948 54.5561 120.597 50.8749L120.6 50.8779ZM155.845 57.833C155.922 57.827 155.999 57.818 156.076 57.812C155.793 54.9335 155.448 52.0611 155.266 49.1766C155.211 48.281 154.829 48.293 154.157 48.2571C153.217 48.2062 153.35 48.8022 153.39 49.3234C153.439 49.9524 153.621 50.5724 153.649 51.1984C153.781 54.3525 153.895 57.5095 153.978 60.6665C153.991 61.0858 153.747 61.5082 153.698 61.9365C153.593 62.862 154.209 62.9279 154.961 62.9729C155.774 63.0208 155.876 62.6673 155.858 62.0114C155.818 60.6216 155.845 59.2288 155.845 57.836V57.833Z" fill="black"/>
<path d="M93.2811 12.5321C97.5235 12.568 101.322 14.0507 104.856 16.0515C106.72 17.1058 107.629 19.1965 108.399 21.1614C109.354 23.5996 109.705 26.1396 109.662 28.7575C109.57 34.3676 106.098 39.0642 100.629 41.131C98.5772 41.9067 96.513 42.1374 94.3594 42.35C91.8608 42.5986 89.6826 42.0295 87.5321 40.9842C85.129 39.816 83.3698 37.9799 81.928 35.8323C79.9808 32.9299 78.8501 29.704 78.8902 26.2654C78.9487 21.1884 81.0006 17.1418 86.0718 14.9852C87.6461 14.3142 89.1619 13.5025 90.7609 12.8975C91.5342 12.6039 92.4369 12.6429 93.2811 12.5291V12.5321ZM87.8957 16.8482C86.8389 16.8183 83.909 18.7023 83.1603 19.7567C80.8959 22.9466 80.8989 26.4451 81.7893 30.0065C82.4332 32.5824 83.6564 34.9068 85.6559 36.7788C86.0471 37.1443 86.2474 37.5306 86.6048 36.5871C87.4736 34.2838 88.5119 32.0283 89.6518 29.8358C90.0985 28.9791 90.2895 28.2483 89.8582 27.4336C89.356 26.49 89.5963 25.6604 90.3111 25.0403C90.9211 24.5132 90.7917 24.0788 90.5114 23.5217C90.3851 23.2671 90.3327 22.9766 90.2372 22.707C89.6272 20.9787 89.0295 19.2475 88.3948 17.5282C88.29 17.2436 88.022 17.016 87.8957 16.8452V16.8482ZM94.1191 40.3013C95.1974 40.1455 96.1063 40.0676 96.9905 39.8789C100.66 39.0912 103.855 37.6265 105.827 34.2538C106.316 33.4151 106.227 33.2624 105.34 32.9539C102.829 32.0792 100.367 31.0728 97.884 30.1293C97.083 29.8238 96.3281 29.6261 95.4532 30.1263C94.8801 30.4558 94.0945 30.6116 93.4228 30.5636C91.8885 30.4498 91.8023 30.3929 91.183 31.7617C90.3296 33.6458 89.5224 35.5478 88.7337 37.4558C88.29 38.5281 88.6166 39.226 89.8089 39.5105C91.2724 39.861 92.7728 40.0646 94.116 40.3043L94.1191 40.3013ZM107.558 28.2303C107.376 25.5046 106.856 23.1413 105.722 20.9368C105.321 20.161 104.835 19.4182 104.32 18.7053C103.975 18.2261 103.531 18.1722 103.029 18.6185C100.977 20.4366 98.9223 22.2457 97.3325 24.4832C97.1754 24.7049 97.0337 25.0194 97.0614 25.271C97.3109 27.4755 97.3233 27.4755 99.4583 28.5029C99.9975 28.7635 100.515 29.078 101.076 29.2787C102.659 29.8448 104.265 30.357 105.857 30.9081C106.788 31.2286 107.244 31.0519 107.235 29.9765C107.228 29.3116 107.478 28.6466 107.564 28.2303H107.558ZM93.5368 23.7224C94.2947 23.5277 95.1173 23.5637 95.4039 23.2012C96.9628 21.2333 98.608 19.3763 100.685 17.9026C100.971 17.6989 101.242 17.4383 101.418 17.1448C101.495 17.016 101.369 16.6146 101.23 16.5517C98.0134 15.0601 94.5967 14.7605 91.0998 15.0421C90.5175 15.087 90.1632 15.2667 90.4251 16.0036C91.2354 18.271 91.944 20.5714 92.7512 22.8418C92.8806 23.2102 93.3088 23.4768 93.5399 23.7224H93.5368ZM94.1006 25.8161C92.8128 25.8101 92.0241 26.2864 92.0981 27.0681C92.1782 27.9098 92.7389 28.1464 93.5553 28.2393C94.4919 28.3471 95.0188 27.8319 95.1574 26.7297C95.2467 26.0108 94.7723 25.7712 94.1006 25.8191V25.8161Z" fill="black"/>
<path d="M127.901 15.4737C128.871 15.9769 130.088 16.3813 130.979 17.1421C131.728 17.7831 132.205 17.6333 132.972 17.3697C134.596 16.8156 136.247 16.2824 137.932 15.9739C138.829 15.8092 139.818 16.1476 140.767 16.2195C144.122 16.4771 147.434 16.1027 150.752 15.6564C152.062 15.4797 153.417 15.5725 154.745 15.6444C155.759 15.7013 156.273 16.2824 156.153 17.0073C156.017 17.81 155.346 18.0766 154.295 17.8729C153.605 17.7411 152.875 17.6842 152.179 17.7411C149.024 18.0047 145.878 18.3941 142.717 18.5858C141.217 18.6756 139.686 18.484 138.182 18.3012C136.783 18.1305 135.69 18.8883 134.466 19.2507C134.044 19.3765 133.665 19.6252 133.262 19.8139C131.909 20.4489 130.785 20.0565 129.722 19.1369C127.993 17.6363 127.488 17.6333 125.526 18.8584C124.82 19.2987 124.105 19.7869 123.323 20.0175C122.919 20.1373 122.217 19.8618 121.912 19.5353C121.699 19.3077 121.755 18.463 121.998 18.2773C123.68 16.9953 125.603 16.1416 127.895 15.4707L127.901 15.4737Z" fill="black"/>
<path d="M153.954 24.8037C153.011 24.9385 152.065 25.1931 151.122 25.1841C149.665 25.1691 148.143 25.1841 146.772 24.7887C145.463 24.4083 144.47 24.7708 143.54 25.3938C142.453 26.1186 141.322 26.3672 140.037 26.4331C137.877 26.547 135.727 26.8016 133.576 27.0112C132.326 27.134 131.241 26.8225 130.187 26.1186C128.086 24.7138 127.901 24.7648 126.099 26.4331C125.283 27.188 124.654 27.2119 124.3 26.3822C124.118 25.9539 124.133 25.259 124.38 24.8786C125.628 22.9526 127.652 22.4464 129.824 23.3989C130.184 23.5577 130.622 23.6326 130.899 23.8812C132.461 25.274 134.205 24.636 135.939 24.4143C137.437 24.2226 138.953 24.1717 140.453 24.001C141.082 23.9291 141.846 23.8812 142.283 23.5187C143.91 22.1709 145.795 22.5573 147.638 22.5513C149.335 22.5453 151.03 22.5033 152.727 22.5423C153.673 22.5632 154.613 22.7519 155.559 22.7999C156.575 22.8538 156.508 23.5337 156.455 24.1837C156.397 24.9655 155.781 24.9205 155.204 24.9115C154.795 24.9055 154.385 24.9115 153.972 24.9115C153.966 24.8756 153.96 24.8397 153.954 24.8037Z" fill="black"/>
<path d="M129.879 51.5038C129.503 48.0772 129.081 44.6536 128.776 41.221C128.641 39.6875 128.748 38.1329 128.745 36.5874C128.745 35.9224 129.041 35.7007 129.691 35.9763C129.873 36.0542 130.076 36.0931 130.273 36.1291C130.736 36.2159 131.438 36.1381 131.611 36.3986C131.943 36.8989 132.063 37.5818 132.116 38.1988C132.356 41.0982 132.421 44.0186 132.775 46.9031C133.422 52.1388 133.36 57.3896 133.364 62.6433C133.364 64.0541 132.522 64.6321 131.176 64.087C130.917 63.9822 130.671 63.6018 130.618 63.3142C130.369 61.9633 130.098 60.6095 129.999 59.2436C129.814 56.6767 129.747 54.1007 129.626 51.5278C129.71 51.5188 129.796 51.5128 129.879 51.5038Z" fill="#67A045"/>
<path d="M144.316 55.2179C144.464 57.632 144.631 60.0462 144.745 62.4604C144.763 62.8738 145.019 63.6705 144.168 63.5058C143.42 63.362 142.255 64.2995 141.935 62.8199C141.873 62.5353 141.707 62.2657 141.691 61.9842C141.571 59.7168 141.503 57.4463 141.365 55.1819C141.189 52.2855 140.958 49.395 140.761 46.5016C140.73 46.0553 140.718 45.6 140.783 45.1627C140.807 44.989 141.051 44.7284 141.217 44.7134C141.827 44.6595 142.462 44.6026 143.05 44.7254C143.346 44.7853 143.728 45.2016 143.777 45.5012C144.051 47.1875 144.313 48.8828 144.433 50.5841C144.541 52.1207 144.455 53.6693 144.455 55.2119C144.409 55.2119 144.363 55.2179 144.319 55.2209L144.316 55.2179Z" fill="#EC974C"/>
<path d="M120.603 50.8779C120.951 54.5591 121.302 58.2373 121.647 61.9185C121.675 62.215 121.712 62.5295 121.647 62.814C121.536 63.2993 122.072 64.084 120.985 64.1559C119.87 64.2308 119.327 63.9343 119.201 62.9428C118.964 61.0918 118.797 59.2287 118.576 57.3746C118.286 54.9874 117.953 52.6031 117.673 50.2159C117.445 48.263 117.251 46.3041 117.1 44.3452C117.088 44.1744 117.491 43.8389 117.735 43.809C118.492 43.7161 119.266 43.7072 120.03 43.7281C120.168 43.7311 120.403 44.0247 120.412 44.1924C120.541 46.4179 120.64 48.6434 120.745 50.8689C120.698 50.8719 120.652 50.8749 120.606 50.8808L120.603 50.8779Z" fill="#DB162A"/>
<path d="M155.848 57.8327C155.848 59.2255 155.82 60.6153 155.86 62.0081C155.879 62.6641 155.777 63.0175 154.964 62.9696C154.215 62.9247 153.599 62.8558 153.701 61.9332C153.75 61.5049 153.993 61.0856 153.981 60.6632C153.898 57.5062 153.784 54.3492 153.651 51.1951C153.624 50.5691 153.445 49.9491 153.393 49.3201C153.353 48.7989 153.217 48.2029 154.16 48.2538C154.831 48.2897 155.213 48.2777 155.269 49.1733C155.451 52.0578 155.796 54.9302 156.079 57.8087C156.002 57.8147 155.925 57.8237 155.848 57.8297V57.8327Z" fill="#FFF100"/>
<path d="M87.8958 16.8455C88.0252 17.0162 88.2902 17.2438 88.3949 17.5284C89.0296 19.2477 89.6304 20.9789 90.2373 22.7072C90.3328 22.9768 90.3821 23.2673 90.5115 23.5219C90.7919 24.0791 90.9213 24.5134 90.3112 25.0405C89.5934 25.6606 89.3562 26.4903 89.8583 27.4338C90.2928 28.2485 90.0987 28.9793 89.6519 29.836C88.512 32.0255 87.4737 34.281 86.6049 36.5873C86.2506 37.5309 86.0473 37.1445 85.656 36.779C83.6565 34.907 82.4334 32.5827 81.7894 30.0067C80.8991 26.4453 80.896 22.9438 83.1605 19.7569C83.9091 18.7025 86.8391 16.8185 87.8958 16.8485V16.8455Z" fill="#FFF100"/>
<path d="M94.1191 40.2986C92.7759 40.056 91.2755 39.8553 89.812 39.5048C88.6197 39.2173 88.2931 38.5224 88.7368 37.4501C89.5286 35.5421 90.3358 33.6401 91.1861 31.7561C91.8054 30.3872 91.8917 30.4441 93.4259 30.5579C94.0945 30.6059 94.8832 30.4501 95.4563 30.1206C96.3312 29.6204 97.083 29.8181 97.8871 30.1236C100.37 31.0701 102.832 32.0736 105.343 32.9482C106.227 33.2567 106.32 33.4094 105.83 34.2481C103.858 37.6208 100.663 39.0885 96.9936 39.8733C96.1094 40.062 95.2005 40.1398 94.1222 40.2956L94.1191 40.2986Z" fill="#226995"/>
<path d="M107.555 28.2276C107.472 28.6439 107.222 29.3119 107.225 29.9738C107.235 31.0491 106.776 31.2258 105.848 30.9054C104.259 30.3542 102.653 29.842 101.067 29.2759C100.506 29.0752 99.9884 28.7607 99.4493 28.5001C97.3142 27.4698 97.3019 27.4728 97.0523 25.2682C97.0246 25.0166 97.1663 24.7021 97.3234 24.4805C98.9132 22.243 100.971 20.4339 103.02 18.6157C103.522 18.1724 103.966 18.2233 104.311 18.7026C104.822 19.4155 105.312 20.1553 105.713 20.9341C106.847 23.1386 107.37 25.5049 107.549 28.2276H107.555Z" fill="#EC974C"/>
<path d="M93.5338 23.7167C93.3058 23.4711 92.8775 23.2045 92.7451 22.8361C91.9379 20.5687 91.2292 18.2653 90.419 15.9979C90.154 15.258 90.5114 15.0813 91.0937 15.0364C94.5936 14.7578 98.0073 15.0544 101.224 16.546C101.362 16.6119 101.489 17.0133 101.412 17.1391C101.236 17.4326 100.965 17.6932 100.678 17.8969C98.6019 19.3706 96.9536 21.2276 95.3977 23.1955C95.1112 23.558 94.2917 23.522 93.5307 23.7167H93.5338Z" fill="#67A045"/>
<path d="M94.0977 25.8102C94.7724 25.7653 95.2438 26.0019 95.1545 26.7208C95.0189 27.823 94.489 28.3382 93.5524 28.2304C92.7359 28.1375 92.1752 27.9009 92.0951 27.0592C92.0212 26.2775 92.8099 25.8012 94.0946 25.8072L94.0977 25.8102Z" fill="white"/>
</svg>
