<svg width="190" height="140" viewBox="0 0 190 140" fill="none" xmlns="http://www.w3.org/2000/svg">
<path d="M151.744 113.538C151.681 114.364 151.681 115.316 152.474 116.11C152.823 116.459 152.759 116.872 152.41 117.221C151.903 117.729 151.681 117.158 151.395 116.904C150.443 115.983 150.317 114.808 150.475 113.602C150.665 112.3 150.221 111.697 148.889 112.046C148.35 112.205 147.969 112.269 147.937 111.57C147.906 110.967 148.286 110.808 148.826 110.713C150.792 110.491 151.744 111.316 151.744 113.538Z" fill="#040000"/>
<path d="M161.228 110.396C161.228 110.713 161.26 111.062 160.784 111.062C159.452 110.999 159.864 111.824 160.276 112.3C161.64 113.856 160.086 114.904 159.737 116.174C159.674 116.396 159.388 116.586 159.103 116.396C158.754 116.174 158.5 115.729 158.722 115.475C159.769 114.269 159.23 113.189 158.754 111.919C158.31 110.745 159.388 110.015 160.308 109.538C160.879 109.253 161.196 109.824 161.228 110.396Z" fill="#040000"/>
<path d="M155.994 116.65C154.852 115.634 154.535 114.491 154.598 113.221C154.63 112.269 154.662 111.443 153.393 111.348C152.981 111.316 152.663 111.03 152.727 110.649C152.79 110.3 153.139 110.11 153.583 110.11C154.947 110.046 155.931 110.84 155.836 112.205C155.709 113.634 156.502 114.967 155.994 116.65Z" fill="#040000"/>
<path d="M156.946 137.413C155.043 137.413 153.139 137.381 151.268 137.413C150.475 137.444 150.253 137.19 150.126 136.365C149.714 133.476 149.143 130.619 149.206 127.666C149.238 126.872 149.396 126.364 150.285 126.714C154.408 128.206 158.532 127.825 162.656 126.809C163.734 126.555 163.798 126.841 163.798 127.698C163.766 130.555 163.766 133.381 163.798 136.238C163.798 137.127 163.544 137.444 162.624 137.413C160.721 137.349 158.818 137.413 156.946 137.413Z" fill="#727373"/>
<path d="M156.724 125.348C154.979 125.412 153.298 125.094 151.585 124.809C150.95 124.713 150.443 124.428 150.379 123.761C150.284 123.031 150.982 123.19 151.363 122.999C153.234 121.983 155.265 121.888 157.326 121.793C158.881 121.697 160.308 121.761 161.799 122.332C162.56 122.618 163.227 123.094 163.29 123.729C163.353 124.396 162.402 124.555 161.863 124.713C160.181 125.19 158.468 125.412 156.724 125.348Z" fill="#3F3328"/>
<path d="M5.15941 139.603C5.06425 137.413 5.06426 137.412 7.15788 137.412C13.8511 137.412 20.5443 137.412 27.2376 137.412C28.2526 137.412 28.6333 137.444 28.2844 136.079C26.4762 128.872 24.795 121.602 23.2089 114.332C22.289 110.078 21.6546 105.76 20.9567 101.474C20.7981 100.553 21.2422 99.9185 22.1938 99.6963C22.5428 100.046 22.9869 99.9503 23.3675 99.9503C31.8372 99.9503 40.2751 99.9503 48.7447 99.9503C49.1888 99.9503 49.6963 100.109 50.0453 99.601C50.2673 96.5533 51.3776 93.7595 52.5196 90.9657C53.3126 89.0291 54.0739 87.0925 55.1207 85.2829C55.3745 84.8701 55.5331 84.5209 55.2159 84.013C52.3927 79.2191 52.7733 74.2982 54.8035 69.3773C55.4379 67.7899 55.5331 66.1708 55.3745 64.3929C53.9153 64.9644 52.8685 66.012 51.5679 66.7105C47.3807 68.9963 44.9698 66.8057 44.7161 62.8373C44.3037 56.456 44.8112 50.0747 46.8731 43.9474C47.4124 42.2966 48.3323 40.8679 49.7598 39.7567C51.1873 38.6456 52.805 38.4868 54.3277 38.8361C57.9122 39.6298 61.4016 40.7409 64.4468 42.9315C64.7323 43.122 64.8592 43.1855 65.2399 43.0267C70.125 41.1536 75.2004 40.4234 80.4344 40.6457C81.4178 40.6774 82.4329 40.8362 83.3528 41.0901C84.4631 41.3759 85.2244 40.9949 86.0491 40.5822C88.9358 39.09 91.8542 37.6614 94.9629 36.582C97.8812 35.5661 100.704 37.0264 102.291 39.09C105.304 42.995 106.414 47.6936 107.651 52.2971C108.191 54.3607 108.571 56.4878 108.92 58.6148C109.428 61.6626 107.588 63.25 104.511 62.615C103.02 62.2976 101.656 61.6944 100.07 61.2499C101.053 65.2818 100.926 69.1551 99.8797 72.9965C99.6576 73.822 99.7845 74.1712 100.609 74.2982C105.558 75.0284 109.174 77.6317 111.934 81.8224C113.837 84.7431 116.121 87.3782 118.722 89.8228C122.085 92.9975 120.721 96.1405 117.517 98.6486C116.597 99.3788 115.391 100.014 114.249 100.204C112.759 100.458 112.727 101.188 113.044 102.3C114.154 105.982 114.694 109.792 115.265 113.602C116.089 118.999 116.248 124.428 116.184 129.857C116.153 132.428 116.692 132.619 119.262 132.238C122.561 131.761 125.891 131.603 129.19 132.492C131.474 133.127 133.187 134.587 134.551 136.46C134.932 137 135.281 137.381 136.042 137.381C139.944 137.349 143.846 137.349 147.906 137.349C146.923 134.365 146.923 131.38 146.732 128.428C146.637 126.999 146.732 125.412 146.986 123.92C147.208 122.65 148.065 121.666 149.238 121.158C153.33 119.412 157.613 118.523 161.959 119.951C164.623 120.808 165.924 121.443 165.607 124.809C165.511 125.856 165.607 126.618 167.097 126.015C168.208 125.539 170.428 126.587 171.158 127.539C172.268 128.999 172.205 131.412 171.158 133.222C170.333 134.65 169.064 135.571 167.383 135.793C167.034 135.825 166.717 136.047 166.368 136.079C165.733 136.143 165.955 136.587 165.924 136.905C165.86 137.381 166.241 137.349 166.558 137.349C167.446 137.349 168.366 137.349 169.255 137.349C175.472 137.349 181.721 137.349 187.938 137.349C190.064 137.349 190.064 137.349 189.969 139.54C172.205 139.54 154.472 139.54 136.708 139.571C136.106 139.571 135.439 139.349 134.9 139.825C134.583 139.825 134.297 139.825 133.98 139.825C133.473 139.349 132.87 139.571 132.331 139.571C99.2135 139.571 66.1281 139.571 33.0109 139.571C32.4399 139.571 31.8372 139.349 31.3613 139.825C30.7269 139.825 30.1242 139.825 29.4898 139.825C29.0139 139.349 28.3795 139.571 27.8403 139.571C20.2905 139.603 12.7091 139.603 5.15941 139.603ZM72.2503 99.6963C72.7896 99.6963 73.2971 99.6963 73.8364 99.6963C75.6445 100.141 77.4209 100.141 79.229 99.6963C80.6882 99.4423 81.164 100.458 81.4178 101.538C82.1157 104.649 83.1308 107.665 84.019 110.713C85.9857 117.411 88.0159 124.078 89.9826 130.745C90.2046 131.507 90.3632 132.047 91.3466 132.015C98.4839 131.857 105.653 132.079 112.79 132.333C113.837 132.365 114.091 132.047 114.091 131.031C114.059 125.761 113.742 120.491 113.171 115.221C112.79 111.665 112.124 108.173 111.363 104.712C110.316 99.7915 108.793 94.9976 106.763 90.3942C105.431 87.3782 103.877 84.4574 101.846 81.8541C101.244 81.0922 100.673 80.7747 100.324 82.1398C100.165 82.8065 99.8797 83.6955 99.3721 84.013C96.2634 85.9178 97.5323 87.9179 98.8646 90.2355C101.244 94.5214 102.576 99.2201 103.94 103.919C104.416 105.601 104.701 107.347 104.892 109.062C104.955 109.76 104.765 110.681 103.686 110.744C102.671 110.776 102.513 109.919 102.417 109.252C101.466 102.077 98.928 95.4421 95.5656 89.0926C95.1532 88.3306 94.836 88.0767 94.0429 88.5529C92.3934 89.5053 90.6805 90.3307 88.7137 90.5212C88.4917 90.553 87.6669 90.553 87.9207 91.3467C88.46 92.9658 88.2379 94.6484 88.4917 96.2675C89.1895 100.299 88.7772 104.395 89.3799 108.427C89.475 109.157 89.3164 109.824 88.5234 110.237C88.0793 110.49 87.889 110.3 87.5718 110.078C86.8422 109.538 86.6201 108.84 86.9373 108.014C87.1594 107.411 87.3814 106.871 86.8421 106.332C86.8739 102.935 86.7787 99.5375 86.1443 96.204C86.4298 95.0294 85.6367 93.9817 85.8588 92.8388C85.3513 92.5213 85.0658 93.188 84.6217 92.9658C84.1141 92.0769 83.2894 91.6959 82.4646 92.2038C81.5447 92.7436 82.3377 93.569 82.4329 94.2674C80.593 95.3469 78.7532 95.4738 76.8816 94.3627C76.5327 94.1722 76.1203 94.1087 75.7396 93.95C75.4542 92.2038 75.1687 92.0451 73.5191 92.6801C72.3137 91.2832 70.6008 91.5689 69.0781 91.4419C65.1764 91.1244 61.5602 89.9815 58.5466 87.5369C57.2461 86.4893 57.024 86.902 56.4847 87.9814C54.6766 91.6959 53.0588 95.4421 52.6147 99.601C52.9319 100.109 53.4395 99.9503 53.9153 99.9503C59.6252 99.9503 65.335 99.9503 71.0766 99.9503C71.4573 99.9503 71.9014 100.046 72.2503 99.6963ZM116.882 134.492C114.979 134.079 113.076 134.079 111.173 134.492C104.448 134.523 97.7226 134.777 90.9977 134.174C91.0928 134.555 91.1563 134.809 91.2197 135.063C91.6321 137.381 91.6638 137.412 93.9161 137.412C106.034 137.412 118.183 137.412 130.301 137.412C130.84 137.412 131.411 137.412 132.236 137.412C129.444 134.396 126.082 133.984 122.656 134.333C120.721 134.523 118.817 134.46 116.882 134.492ZM88.4282 79.6318C89.7605 79.1556 90.8708 79.4413 91.759 80.616C92.552 79.4095 93.3133 78.2984 94.5188 77.7587C95.5656 77.2825 96.0731 76.457 96.4855 75.5046C98.6108 70.6155 98.706 65.5993 97.5323 60.4879C97.4054 59.8847 97.0565 59.3768 96.4855 58.9641C93.6623 56.9322 90.9977 54.7099 88.5234 52.2653C88.111 51.8526 87.3814 51.3446 88.111 50.5827C88.7454 49.916 89.5385 49.8525 90.1729 50.4874C92.7106 53.0272 95.629 55.0909 98.4522 57.2497C100.419 58.7418 102.639 59.5673 104.923 60.234C105.78 60.488 106.7 60.4245 106.478 58.9641C106.224 57.091 105.938 55.1861 105.494 53.3447C104.511 49.281 103.401 45.2173 101.244 41.6299C99.499 38.7408 97.9129 38.1376 94.6456 39.2488C91.0928 40.4552 87.9207 42.4235 84.5899 44.0109C83.5749 44.4871 82.6866 44.7729 82.1474 43.503C81.9253 42.995 81.5447 43.1537 81.2275 43.1537C76.1838 43.0267 71.1718 43.0267 66.4136 45.0903C65.5571 45.4713 64.8592 45.3761 64.0662 45.0586C61.0843 43.7887 58.2294 42.2648 55.0255 41.4711C52.012 40.7092 50.5528 41.4076 49.4426 44.3919C48.3323 47.4079 47.8565 50.5192 47.5076 53.694C47.1269 56.837 46.6828 59.98 47.2855 63.123C47.6345 64.9009 48.4275 65.4088 50.1087 64.6786C51.6313 64.0437 52.9319 63.0278 54.1056 61.8214C56.9923 58.8371 59.8789 55.8528 62.7339 52.8685C63.4317 52.1383 64.3199 52.0431 64.9226 52.6145C65.4936 53.1542 65.113 54.0114 64.5103 54.6146C62.4801 56.7417 60.4816 58.8688 58.4197 60.9959C57.9122 61.5356 57.7536 62.0436 57.6902 62.7738C57.5633 64.2659 58.3563 65.6628 57.9756 67.1232C57.4364 69.2503 56.7702 71.3139 56.231 73.441C54.8035 79.3143 56.6751 84.0447 62.3215 86.9972C67.3335 89.6005 72.5675 89.5688 77.9601 88.4576C77.1354 85.6638 77.8333 84.2987 80.4027 83.4097C81.9253 82.87 83.4162 83.0605 84.6851 83.8542C85.6685 84.4574 85.7954 84.2669 85.9857 83.2828C86.176 82.2668 86.747 81.4096 87.4766 80.6477C87.6352 80.2032 87.9841 79.854 88.4282 79.6318ZM23.4944 102.236C23.5896 102.427 23.7482 102.585 23.7799 102.776C24.2557 107.76 25.4294 112.618 26.4128 117.475C27.6499 123.729 29.3312 129.888 30.7904 136.111C31.0124 137.095 31.4565 137.444 32.5668 137.444C51.0286 137.381 69.5222 137.412 87.9841 137.412C88.4282 137.412 88.9041 137.571 89.3482 137.254C87.7621 131.92 86.2395 126.587 84.5899 121.316C82.7818 115.443 80.8785 109.57 79.5145 103.538C79.3242 102.617 78.9435 102.014 77.7698 102.173C76.5644 102.331 75.359 102.173 74.1219 102.141C73.6778 101.728 73.1385 101.887 72.631 101.887C56.7702 101.887 40.9412 101.887 25.0805 101.887C24.5412 101.887 23.9068 101.633 23.4944 102.236ZM156.947 137.412C158.85 137.412 160.753 137.381 162.625 137.444C163.513 137.476 163.798 137.159 163.798 136.27C163.735 133.412 163.767 130.587 163.798 127.729C163.798 126.872 163.735 126.587 162.656 126.841C158.533 127.825 154.409 128.237 150.285 126.745C149.397 126.428 149.238 126.904 149.207 127.698C149.143 130.65 149.714 133.508 150.126 136.397C150.253 137.222 150.475 137.476 151.268 137.444C153.14 137.381 155.043 137.412 156.947 137.412ZM100.229 76.711C103.337 79.6318 105.59 82.7748 107.366 86.2353C109.206 89.791 110.665 93.5055 111.839 97.347C112.092 98.2042 112.441 98.4581 113.33 98.1089C114.82 97.5057 116.248 96.8707 117.358 95.6326C118.532 94.3309 118.627 92.9023 117.326 91.6959C113.964 88.5529 111.299 84.8384 108.603 81.1557C106.668 78.5206 103.94 77.0602 100.229 76.711ZM90.3315 85.7908C90.3315 84.8701 90.2364 84.2669 90.5219 83.6002C90.8708 82.8383 90.4267 82.1081 89.6019 81.9176C88.7454 81.7271 88.2062 82.2033 88.0793 83.0605C87.9524 83.7272 87.8572 84.3622 87.7621 85.0289C87.4449 87.1242 86.4298 87.6322 84.4948 86.6797C83.6383 86.267 82.8135 85.7591 81.8936 85.4416C81.3226 85.2511 80.5613 85.0924 80.2441 85.8543C79.9903 86.4893 80.0221 87.2512 80.7517 87.6639C82.6232 88.7434 84.6534 89.8228 86.8104 89.4101C89.1578 88.9656 91.6321 88.6799 93.5671 86.9655C95.5656 85.1876 97.8495 83.6955 98.706 80.9334C99.0232 79.9175 98.8963 78.9651 98.0081 78.4889C97.0882 77.9809 96.2317 78.6476 95.7876 79.4413C94.5188 81.8859 92.4568 83.6637 90.3315 85.7908ZM156.725 125.348C158.469 125.412 160.182 125.221 161.832 124.713C162.371 124.555 163.323 124.396 163.259 123.729C163.196 123.094 162.53 122.618 161.768 122.332C160.309 121.761 158.882 121.729 157.295 121.793C155.202 121.888 153.203 121.983 151.332 122.999C150.951 123.19 150.253 123.031 150.349 123.761C150.444 124.428 150.951 124.713 151.554 124.809C153.299 125.063 154.98 125.412 156.725 125.348ZM165.987 131.031C165.987 131.603 165.955 132.206 165.987 132.777C166.019 133.222 166.209 133.571 166.749 133.539C167.764 133.476 169.794 131.571 169.762 130.523C169.73 129.507 169.35 128.587 168.081 128.491C166.273 128.364 165.987 128.714 165.987 131.031ZM83.2894 90.9339C80.9103 90.2672 78.6898 90.6165 76.4693 91.2197C78.3408 93.2515 79.9586 93.188 83.2894 90.9339Z" fill="#040000"/>
<path d="M0.305664 0.961369C0.527714 0.739135 0.749776 0.516902 0.971826 0.326416C11.8523 0.326416 22.7327 0.326416 33.6449 0.326416C34.2794 0.453407 35.0724 0.358164 35.231 1.27885C35.231 16.9622 35.231 32.6455 35.231 48.2971C35.231 48.9321 34.8821 49.2178 34.2794 49.2495C25.3973 49.2178 16.5153 49.2178 7.63333 49.186C7.37956 49.186 7.09405 49.1861 6.96717 49.4718C5.34937 49.4718 3.73158 49.5035 2.1455 49.5035C1.28903 49.5035 0.496004 49.313 0.337397 48.2654C0.305676 32.5185 0.305664 16.7399 0.305664 0.961369ZM33.0105 2.86623L32.947 2.89799C32.7884 2.48527 32.4395 2.58051 32.154 2.58051C22.3838 2.58051 12.6453 2.61226 2.87511 2.64401C2.39929 2.8345 2.5579 3.27896 2.5579 3.59644C2.5579 10.8666 2.5579 18.1369 2.5579 25.3753C2.5579 25.6928 2.39929 26.1373 2.87511 26.3277C5.73004 25.8515 8.61669 26.2007 11.4716 26.042C13.026 25.9468 13.3115 26.6452 13.3115 27.9786C13.3432 30.6454 13.5018 33.3122 13.597 35.979C13.6287 36.5505 13.6604 37.1219 14.3583 37.1219C16.547 37.0902 18.7676 37.3124 20.9563 36.9949C21.9714 36.8362 22.1618 36.4235 22.1618 35.4711C22.2252 31.6931 22.3838 27.9151 22.5107 24.1371C23.1134 21.5973 22.6376 19.0258 22.7644 16.486C23.1768 15.978 23.7478 16.232 24.2236 16.2002C27.1103 16.1685 29.9969 16.1685 32.8836 16.1685C33.4229 15.851 33.2325 15.3431 33.2325 14.8986C33.2325 11.2794 33.2325 7.66013 33.2325 4.04089C33.296 3.62817 33.3912 3.21545 33.0105 2.86623Z" fill="#040000"/>
<path d="M31.3926 139.889C31.9001 139.413 32.5028 139.635 33.0421 139.635C66.1593 139.635 99.2448 139.635 132.362 139.635C132.901 139.635 133.536 139.413 134.011 139.889C133.631 139.921 133.282 139.952 132.901 139.952C99.4351 139.952 65.9372 139.952 32.4711 139.952C32.1222 139.921 31.7415 139.889 31.3926 139.889Z" fill="#5D5550"/>
<path d="M134.932 139.889C135.471 139.413 136.137 139.635 136.74 139.635C154.504 139.603 172.236 139.603 190 139.603C189.81 140.238 189.302 139.921 188.953 139.921C171.094 139.952 153.267 139.921 135.407 139.921C135.249 139.921 135.09 139.889 134.932 139.889Z" fill="#5D5550"/>
<path d="M0.30552 0.961304C0.30552 16.7399 0.30552 32.5185 0.30552 48.297C-0.170302 47.9478 0.0517519 47.4081 0.0517519 46.9636C0.0517519 32.074 0.0517519 17.1844 0.0517519 2.29471C0.0517519 1.85024 -0.138581 1.31053 0.30552 0.961304Z" fill="#99918C"/>
<path d="M35.1992 48.2971C35.1992 32.6137 35.1992 16.9304 35.1992 1.27881C35.7702 1.59629 35.4847 2.13599 35.4847 2.54871C35.5164 17.3749 35.5164 32.201 35.4847 47.0272C35.4847 47.4399 35.7702 47.9796 35.1992 48.2971Z" fill="#1D1C19"/>
<path d="M33.6448 0.294556C22.7643 0.294556 11.8839 0.294556 0.97168 0.294556C1.35234 -0.149911 1.85986 0.0405786 2.30397 0.0405786C12.2962 0.0405786 22.3202 0.0405786 32.3125 0.0405786C32.7566 0.0405786 33.2641 -0.149911 33.6448 0.294556Z" fill="#AEA8A3"/>
<path d="M50.076 99.6013C49.7588 100.109 49.2196 99.9506 48.7755 99.9506C40.3058 99.9506 31.8679 99.9506 23.3983 99.9506C22.9859 99.9506 22.5418 100.046 22.2246 99.6966C30.5039 99.6648 38.7832 99.6648 47.0625 99.6331C48.0459 99.6331 49.061 99.6331 50.076 99.6013Z" fill="#211F1C"/>
<path d="M6.9668 49.4718C7.09368 49.186 7.37919 49.186 7.63296 49.186C16.515 49.2178 25.397 49.2178 34.279 49.2495C34.0252 49.5988 33.6128 49.5035 33.2639 49.5035C24.477 49.5035 15.7219 49.5035 6.9668 49.4718Z" fill="#B4AEAA"/>
<path d="M5.15918 139.603C12.7089 139.603 20.2903 139.603 27.84 139.635C28.3793 139.635 29.0137 139.413 29.4895 139.889C21.6226 139.921 13.7557 139.921 5.88879 139.921C5.63502 139.921 5.22262 140.079 5.15918 139.603Z" fill="#5D5550"/>
<path d="M86.8414 106.3C87.349 106.839 87.1586 107.379 86.9366 107.982C86.6194 108.808 86.8414 109.506 87.571 110.046C87.8882 110.268 88.0468 110.459 88.5227 110.205C89.3157 109.792 89.4743 109.125 89.3791 108.395C88.8081 104.363 89.1888 100.268 88.4909 96.2356C88.2054 94.6165 88.4275 92.9021 87.92 91.3148C87.6662 90.5211 88.4909 90.5211 88.713 90.4893C90.6797 90.2988 92.361 89.4734 94.0422 88.521C94.8352 88.0765 95.1524 88.3305 95.5648 89.0607C98.9273 95.4102 101.465 102.045 102.417 109.22C102.512 109.887 102.67 110.744 103.686 110.713C104.764 110.649 104.954 109.76 104.891 109.03C104.701 107.284 104.415 105.538 103.939 103.887C102.607 99.1882 101.275 94.4895 98.8639 90.2036C97.5633 87.8543 96.2627 85.8859 99.3714 83.981C99.8789 83.6636 100.164 82.7746 100.323 82.1079C100.672 80.7745 101.243 81.0603 101.846 81.8222C103.876 84.4255 105.43 87.3463 106.763 90.3623C108.793 94.9657 110.315 99.7596 111.362 104.681C112.092 108.141 112.758 111.633 113.17 115.189C113.741 120.459 114.058 125.697 114.09 130.999C114.09 132.015 113.836 132.333 112.79 132.301C105.652 132.047 98.4832 131.825 91.3459 131.983C90.3625 132.015 90.2039 131.476 89.9818 130.714C88.0151 124.015 85.9849 117.38 84.0182 110.681C83.13 107.633 82.1149 104.617 81.4171 101.506C81.1633 100.426 80.6875 99.4104 79.2283 99.6644C77.547 99.6326 75.8341 99.6009 74.1528 99.5691C74.6604 97.6643 74.8824 95.6959 75.7706 93.8863C76.1513 94.0133 76.5637 94.0768 76.9126 94.299C78.7842 95.4102 80.624 95.2832 82.4639 94.2038C84.1451 97.1881 84.9699 100.458 85.9215 103.696C86.1118 104.617 86.0167 105.633 86.8414 106.3Z" fill="#C0BFBF"/>
<path d="M52.6143 99.6011C53.0584 95.4421 54.6762 91.6959 56.4843 87.9814C57.0235 86.902 57.2456 86.4893 58.5462 87.537C61.5597 89.9498 65.2077 91.0927 69.0777 91.4419C70.6003 91.5689 72.3133 91.2514 73.5187 92.6801C72.8525 94.9659 71.9326 97.1883 71.9326 99.6328C65.4932 99.6011 59.0537 99.6011 52.6143 99.6011Z" fill="#C0BFBF"/>
<path d="M100.228 76.7114C103.907 77.0606 106.667 78.521 108.57 81.1561C111.267 84.8388 113.931 88.5533 117.294 91.6963C118.563 92.871 118.467 94.3314 117.325 95.633C116.215 96.8712 114.788 97.5061 113.297 98.1093C112.44 98.4585 112.091 98.2046 111.806 97.3474C110.632 93.5059 109.173 89.7915 107.333 86.2357C105.588 82.7752 103.368 79.6322 100.228 76.7114Z" fill="#C0BFBF"/>
<path d="M90.3318 85.7911C92.4571 83.6641 94.4873 81.8862 95.7879 79.4416C96.2002 78.6162 97.0567 77.9812 98.0084 78.4892C98.8966 78.9654 99.0235 79.9178 98.7062 80.9338C97.8498 83.6958 95.5658 85.1879 93.5674 86.9658C91.6323 88.7119 89.1264 88.9659 86.8107 89.4104C84.6536 89.8231 82.6235 88.7754 80.7519 87.6643C80.054 87.2515 80.0223 86.4896 80.2443 85.8546C80.5616 85.0927 81.3229 85.2514 81.8939 85.4419C82.7821 85.7594 83.6386 86.2674 84.495 86.6801C86.4618 87.6325 87.4451 87.1246 87.7623 85.0292C87.8575 84.3625 87.9527 83.7276 88.0796 83.0609C88.2382 82.2037 88.7774 81.7274 89.6022 81.9179C90.4269 82.1084 90.871 82.8386 90.5221 83.6006C90.2366 84.2673 90.3635 84.8705 90.3318 85.7911Z" fill="white"/>
<path d="M86.8414 106.3C86.0166 105.633 86.1435 104.617 85.8897 103.728C84.9381 100.49 84.1133 97.1885 82.4321 94.2359C82.3369 93.5375 81.5122 92.7121 82.4638 92.1723C83.3203 91.6644 84.145 92.0453 84.6209 92.9343C85.1284 94.0137 85.636 95.0931 86.1435 96.1408C86.7779 99.506 86.8414 102.903 86.8414 106.3Z" fill="white"/>
<path d="M87.4442 80.6479C86.2071 80.7114 85.2871 81.6956 84.0817 81.8543C83.2252 81.9813 82.5908 81.6639 82.4005 80.8384C82.2101 80.0447 82.686 79.4733 83.4156 79.3463C84.6527 79.1558 85.6044 78.5526 86.3974 77.6319C87.0318 76.9017 87.7931 76.3302 88.6813 76.9652C89.5061 77.5684 88.8399 78.3621 88.5227 79.0288C88.4593 79.1875 88.4593 79.4098 88.4275 79.6003C87.9834 79.8542 87.6345 80.2035 87.4442 80.6479Z" fill="#040000"/>
<path d="M71.9326 99.6012C71.9326 97.1566 72.8525 94.9343 73.5187 92.6485C75.1999 92.0453 75.4854 92.204 75.7392 93.9184C74.851 95.6963 74.6289 97.6963 74.1214 99.6012C74.0262 99.6329 73.9311 99.6647 73.8359 99.6964C73.2966 99.6964 72.7891 99.6964 72.2498 99.6964C72.1547 99.6647 72.0595 99.6329 71.9326 99.6012Z" fill="white"/>
<path d="M74.1533 102.141C69.6806 102.173 65.1761 102.205 60.7034 102.205C48.3003 102.236 35.8972 102.236 23.4941 102.236C23.9382 101.633 24.5727 101.887 25.1119 101.887C40.9727 101.887 56.8017 101.887 72.6624 101.887C73.1382 101.887 73.7092 101.697 74.1533 102.141Z" fill="#37322E"/>
<path d="M83.2889 90.9339C79.9581 93.188 78.3403 93.2515 76.4688 91.2197C78.6893 90.6482 80.9098 90.2672 83.2889 90.9339Z" fill="white"/>
<path d="M71.9326 99.6013C72.0278 99.6331 72.1229 99.6648 72.2181 99.6966C71.8692 100.046 71.4568 99.9506 71.0444 99.9506C65.3345 99.9506 59.6247 99.9506 53.8831 99.9506C53.439 99.9506 52.9315 100.109 52.5825 99.6013C59.0537 99.6013 65.4932 99.6013 71.9326 99.6013Z" fill="#1E1E1E"/>
<path d="M86.112 96.1726C85.6044 95.0932 85.0969 94.0138 84.5894 92.9661C85.0335 93.1883 85.319 92.5216 85.8265 92.8391C85.6362 93.9185 86.3975 94.9979 86.112 96.1726Z" fill="#C0C0C0"/>
<path d="M116.881 134.492C114.978 134.492 113.075 134.492 111.171 134.492C113.106 134.079 115.01 134.079 116.881 134.492Z" fill="#10100F"/>
<path d="M73.8369 99.6966C73.9321 99.6648 74.0273 99.6331 74.1224 99.6013C75.8037 99.6331 77.5166 99.6648 79.1978 99.6966C77.4214 100.141 75.6133 100.141 73.8369 99.6966Z" fill="#1E1E1E"/>
<path d="M22.6989 24.2038C22.5684 28.0586 22.4053 31.9135 22.34 35.7683C22.34 36.7077 22.1442 37.1612 21.1 37.3232C18.8484 37.6471 16.5642 37.4204 14.3126 37.4528C13.5947 37.4528 13.5295 36.8697 13.5295 36.2866C13.4316 33.5655 13.2684 30.8445 13.2358 28.1234C13.2358 26.7629 12.9095 26.0502 11.3432 26.1474C8.40632 26.3093 5.43684 25.953 2.5 26.4389C2.5 18.4701 2.5 10.5012 2.5 2.53241C12.8116 2.53241 23.1232 2.53241 33.4347 2.53241L33.5 2.5C33.4673 7.03511 33.4347 11.5702 33.4021 16.073C30.4326 16.073 27.4631 16.0729 24.4937 16.1053C24.0042 16.1053 23.4168 15.8462 22.9926 16.3969C22.3074 18.9884 22.7642 21.6123 22.6989 24.2038ZM5.30633 13.4167C5.40422 13.8378 5.5021 14.1941 5.6 14.5504C6.38315 17.3687 8.66737 18.2757 11.2126 18.8264C12.1263 19.0208 13.0074 18.8912 13.4316 18.1138C13.921 17.2067 13.2684 16.5913 12.42 16.1377C10.1358 14.9068 9.71157 13.3195 10.9842 11.1167C11.2126 10.6956 11.4737 10.2745 11.8 9.91816C12.5831 9.10832 12.1263 8.55763 11.4084 8.10412C10.5926 7.58582 9.74421 7.52102 8.83053 7.90975C6.3179 8.97874 6.02422 11.3111 5.30633 13.4167Z" fill="#3F3681"/>
<path d="M32.9469 2.89774C22.923 2.89774 12.899 2.89774 2.875 2.89774C2.875 2.8025 2.875 2.70726 2.875 2.64376C12.6452 2.61201 22.3837 2.61201 32.1539 2.58026C32.4394 2.58026 32.82 2.51677 32.9469 2.89774Z" fill="#6E6878"/>
<path d="M2.87463 2.61218C2.87463 2.70743 2.87463 2.80266 2.87463 2.86616C2.87463 10.6761 2.87463 18.486 2.87463 26.2959C2.36709 26.1054 2.55742 25.6927 2.55742 25.3435C2.55742 18.0733 2.55742 10.8031 2.55742 3.56461C2.58914 3.24714 2.39881 2.83442 2.87463 2.61218Z" fill="#736F81"/>
<path d="M32.915 16.2002C32.9468 11.7555 32.9785 7.31087 33.0102 2.89795C33.3909 3.21543 33.2957 3.6599 33.2957 4.07262C33.2957 7.69185 33.2957 11.3111 33.2957 14.9303C33.2957 15.3748 33.4543 15.8827 32.915 16.2002Z" fill="#363236"/>
<path d="M22.5739 24.1369C22.6374 21.5971 22.1933 19.0255 22.8277 16.4857C22.7008 19.0573 23.1766 21.6288 22.5739 24.1369Z" fill="#383439"/>
<path d="M56.3255 126.618C53.0582 126.618 51.1549 125.412 50.5522 122.459C49.7909 118.808 52.5506 116.364 55.9448 116.491C56.833 116.523 57.8164 117.031 57.6578 118.269C57.5309 119.158 58.0702 119.697 58.6729 120.078C60.1003 120.999 61.7181 121.697 60.8934 123.952C60.1955 125.761 58.8315 126.618 56.3255 126.618ZM56.4841 125.348C57.9433 125.666 59.2438 124.84 59.7831 123.539C60.3858 122.047 58.6729 121.761 57.7847 121.094C57.1185 120.586 56.1352 120.078 56.4841 118.967C56.8013 117.919 56.1986 117.824 55.5007 117.761C54.2636 117.634 52.4872 118.777 52.0431 119.888C50.8377 122.967 52.7092 125.348 56.4841 125.348Z" fill="#040000"/>
<path d="M53.8821 114.173C53.8821 112.427 55.4364 110.745 56.8639 110.745C57.5935 110.745 57.7204 111.03 57.7204 111.665C57.7204 113.03 56.1977 115.094 54.802 115.412C53.66 115.602 53.9138 114.681 53.8821 114.173Z" fill="#040000"/>
<path d="M77.7375 60.8688C78.0547 59.5989 78.1182 58.583 78.372 57.5988C79.2602 53.9796 82.7812 52.7097 85.9217 54.8368C87.2222 55.7257 88.6814 56.4559 89.4427 58.0115C89.6648 58.456 90.0137 58.3608 90.4895 58.1703C91.124 57.9163 91.8853 58.075 92.139 58.8052C92.3928 59.5672 92.0756 60.3609 91.2826 60.5831C90.6799 60.7418 90.7116 60.7736 90.8067 61.4085C91.0288 63.5991 91.1557 65.8215 90.0137 67.9168C88.4276 70.8376 85.4458 70.9011 82.9081 70.0756C81.2269 69.5042 80.1483 68.1073 79.1333 66.3612C78.6257 68.012 78.4988 69.4724 77.5472 70.6789C75.1681 73.6949 71.3615 72.7742 68.5066 70.6471C66.6033 69.2502 65.3979 67.3136 65.0172 64.996C64.8586 64.0436 64.4779 64.1071 63.8118 64.0753C63.1139 64.0436 62.2892 64.3928 61.7816 63.6309C61.5596 63.3134 61.3692 62.6467 61.7816 61.9483C62.0988 61.4403 61.7499 61.4403 62.5112 61.5355C63.0188 61.599 63.5898 61.472 64.0973 61.5673C64.7952 61.6943 65.1124 61.1863 65.2075 60.7418C65.6199 58.0115 67.428 56.5194 69.934 56.2019C72.6938 55.8527 75.0412 57.0274 76.6907 59.3767C76.9762 59.8529 77.2617 60.2339 77.7375 60.8688ZM69.712 68.4883C68.9824 65.4087 70.3147 63.6309 72.6938 64.1388C74.1847 64.4563 74.8826 65.7262 75.3901 67.0279C75.5805 67.5041 75.6439 67.9168 76.3101 67.8851C76.3418 67.6311 76.2783 67.3136 76.3735 67.1231C77.0079 65.9167 76.3418 64.8373 76.1515 63.6944C75.7073 61.345 74.1213 62.9007 73.2013 62.9324C71.5518 62.9959 69.8706 63.2817 68.2211 63.7579C67.777 63.8849 67.3329 63.8848 67.4915 64.4563C67.9356 65.8215 68.1259 67.3453 69.712 68.4883ZM86.683 58.456C85.7948 57.5353 84.9066 57.0591 83.9549 56.6781C82.3054 55.9797 81.2903 56.5512 80.7828 58.2973C80.529 59.1227 80.4567 59.6904 81.2497 59.4999C82.8675 59.1189 84.9066 59.3132 86.683 58.456ZM73.6137 60.1069C72.6938 58.6148 71.3298 58.6782 69.9975 58.7417C68.9824 58.7735 68.3162 59.4084 67.9356 60.3291C67.6501 60.9641 67.7453 61.472 68.5383 61.2181C70.1561 60.7418 71.8691 60.8688 73.6137 60.1069ZM88.3959 64.7738C88.9986 63.5674 88.3642 62.4562 88.269 61.345C88.2373 60.9641 87.5035 60.6466 87.2497 60.8688C86.5519 61.0304 85.7948 61.0276 84.8748 61.472C86.6195 62.0435 87.8884 62.9959 88.3959 64.7738ZM83.4474 61.6943C87.7497 60.8438 81.4807 62.1387 80.5925 61.9483C80.9731 63.3451 80.7828 64.869 82.0516 66.0754C82.0834 64.4246 81.8613 62.8689 83.4474 61.6943Z" fill="#040000"/>
<path d="M79.8953 77.1239C78.5313 77.1556 77.3576 76.1714 77.3258 75.0285C77.2941 73.7586 78.4361 72.7109 79.8636 72.7109C81.1641 72.7109 82.4013 73.6316 82.4013 74.6158C82.4013 75.6635 80.9738 77.0921 79.8953 77.1239Z" fill="#040000"/>
<path d="M5.5 13.3532C6.19214 11.2002 6.47528 8.78221 8.89776 7.7554C9.81012 7.35793 10.6281 7.42416 11.3832 7.95413C12.0438 8.41785 12.5157 8.98093 11.7607 9.80901C11.4461 10.1402 11.1944 10.604 10.9742 11.0346C9.74719 13.2869 10.1562 14.9099 12.3584 16.1686C13.2079 16.6655 13.8056 17.2617 13.3337 18.1891C12.9247 18.9841 12.0753 19.1166 11.1944 18.9178C8.70899 18.3547 6.53819 17.4273 5.78314 14.5456C5.65729 14.1813 5.59438 13.7838 5.5 13.3532Z" fill="#F2F1F1"/>
</svg>
