<svg width="370" height="275" viewBox="0 0 370 275" fill="none" xmlns="http://www.w3.org/2000/svg">
<path d="M295.501 223.022C295.378 224.644 295.378 226.514 296.922 228.073C297.602 228.759 297.478 229.57 296.799 230.256C295.81 231.254 295.378 230.131 294.822 229.632C292.969 227.824 292.722 225.517 293.03 223.147C293.401 220.59 292.536 219.405 289.942 220.091C288.892 220.403 288.15 220.528 288.089 219.156C288.027 217.971 288.768 217.659 289.818 217.472C293.648 217.035 295.501 218.657 295.501 223.022Z" fill="#040000"/>
<path d="M313.97 216.848C313.97 217.472 314.032 218.158 313.105 218.158C310.511 218.033 311.314 219.654 312.117 220.59C314.773 223.646 311.746 225.704 311.067 228.198C310.943 228.635 310.387 229.009 309.831 228.635C309.152 228.198 308.658 227.325 309.09 226.826C311.129 224.456 310.079 222.336 309.152 219.842C308.287 217.534 310.387 216.1 312.179 215.164C313.291 214.603 313.908 215.726 313.97 216.848Z" fill="#040000"/>
<path d="M303.778 229.134C301.554 227.138 300.936 224.893 301.06 222.399C301.122 220.528 301.183 218.906 298.712 218.719C297.909 218.657 297.292 218.096 297.415 217.347C297.539 216.661 298.218 216.287 299.083 216.287C301.739 216.163 303.654 217.722 303.469 220.403C303.222 223.209 304.766 225.829 303.778 229.134Z" fill="#040000"/>
<path d="M305.631 269.918C301.925 269.918 298.218 269.855 294.574 269.918C293.029 269.98 292.597 269.481 292.35 267.86C291.547 262.185 290.435 256.572 290.558 250.773C290.62 249.214 290.929 248.216 292.659 248.902C300.689 251.833 308.72 251.084 316.75 249.089C318.851 248.59 318.974 249.151 318.974 250.835C318.912 256.448 318.912 261.998 318.974 267.61C318.974 269.356 318.48 269.98 316.688 269.918C312.982 269.793 309.276 269.918 305.631 269.918Z" fill="#727373"/>
<path d="M305.2 246.22C301.802 246.345 298.528 245.721 295.193 245.16C293.957 244.973 292.969 244.412 292.845 243.102C292.66 241.668 294.019 241.98 294.76 241.606C298.405 239.61 302.358 239.423 306.374 239.236C309.401 239.049 312.18 239.174 315.084 240.296C316.566 240.857 317.863 241.793 317.987 243.04C318.111 244.35 316.257 244.661 315.207 244.973C311.933 245.909 308.598 246.345 305.2 246.22Z" fill="#3F3328"/>
<path d="M10.0467 274.22C9.86139 269.917 9.86142 269.917 13.9385 269.917C26.9726 269.917 40.0068 269.917 53.041 269.917C55.0177 269.917 55.759 269.979 55.0795 267.298C51.5584 253.142 48.2844 238.861 45.1958 224.58C43.4043 216.224 42.1689 207.743 40.8099 199.324C40.501 197.516 41.3658 196.268 43.219 195.832C43.8985 196.518 44.7634 196.331 45.5046 196.331C61.9981 196.331 78.4298 196.331 94.9233 196.331C95.7882 196.331 96.7765 196.642 97.456 195.645C97.8884 189.658 100.051 184.17 102.274 178.682C103.819 174.878 105.301 171.074 107.34 167.52C107.834 166.709 108.143 166.023 107.525 165.025C102.027 155.609 102.769 145.943 106.722 136.277C107.958 133.158 108.143 129.978 107.834 126.486C104.992 127.608 102.954 129.666 100.421 131.038C92.2671 135.528 87.5723 131.225 87.0781 123.43C86.275 110.895 87.2634 98.3608 91.2787 86.3251C92.3288 83.0823 94.1203 80.276 96.9001 78.0933C99.6799 75.9107 102.83 75.5989 105.795 76.2849C112.776 77.8439 119.571 80.0266 125.501 84.3295C126.057 84.7037 126.304 84.8284 127.045 84.5166C136.559 80.8372 146.442 79.4029 156.635 79.8395C158.55 79.9018 160.527 80.2136 162.318 80.7125C164.48 81.2738 165.963 80.5255 167.569 79.7148C173.19 76.7838 178.873 73.9775 184.927 71.8572C190.61 69.8616 196.108 72.7303 199.197 76.7838C205.065 84.4542 207.227 93.6837 209.636 102.726C210.687 106.78 211.428 110.958 212.107 115.136C213.096 121.123 209.513 124.241 203.521 122.994C200.618 122.37 197.961 121.185 194.873 120.312C196.788 128.232 196.541 135.84 194.502 143.386C194.07 145.007 194.317 145.693 195.923 145.943C205.559 147.377 212.602 152.491 217.976 160.722C221.682 166.46 226.13 171.636 231.195 176.437C237.743 182.673 235.087 188.847 228.848 193.774C227.057 195.208 224.709 196.455 222.485 196.83C219.582 197.328 219.52 198.763 220.138 200.945C222.3 208.179 223.35 215.663 224.462 223.146C226.068 233.748 226.377 244.411 226.253 255.075C226.192 260.126 227.242 260.501 232.246 259.752C238.67 258.817 245.156 258.505 251.581 260.251C256.028 261.498 259.364 264.367 262.02 268.046C262.762 269.106 263.441 269.855 264.924 269.855C272.522 269.792 280.12 269.792 288.027 269.792C286.112 263.93 286.112 258.068 285.741 252.269C285.556 249.463 285.741 246.345 286.235 243.414C286.668 240.919 288.336 238.986 290.621 237.988C298.59 234.558 306.93 232.812 315.392 235.618C320.581 237.302 323.114 238.549 322.496 245.16C322.311 247.218 322.496 248.714 325.4 247.529C327.562 246.594 331.886 248.652 333.307 250.523C335.469 253.391 335.345 258.131 333.307 261.685C331.701 264.492 329.23 266.3 325.956 266.737C325.276 266.799 324.658 267.236 323.979 267.298C322.743 267.423 323.176 268.296 323.114 268.919C322.991 269.855 323.732 269.792 324.35 269.792C326.079 269.792 327.871 269.792 329.6 269.792C341.708 269.792 353.877 269.792 365.985 269.792C370.124 269.792 370.124 269.792 369.938 274.095C335.345 274.095 300.814 274.095 266.221 274.158C265.047 274.158 263.75 273.721 262.7 274.657C262.082 274.657 261.526 274.657 260.908 274.657C259.92 273.721 258.746 274.158 257.696 274.158C193.205 274.158 128.775 274.158 64.2838 274.158C63.1718 274.158 61.9981 273.721 61.0715 274.657C59.8361 274.657 58.6624 274.657 57.4269 274.657C56.5003 273.721 55.2648 274.158 54.2147 274.158C39.5126 274.22 24.7488 274.22 10.0467 274.22ZM140.697 195.832C141.748 195.832 142.736 195.832 143.786 195.832C147.307 196.705 150.766 196.705 154.288 195.832C157.129 195.333 158.056 197.328 158.55 199.449C159.909 205.56 161.886 211.484 163.615 217.471C167.445 230.629 171.399 243.725 175.229 256.821C175.661 258.318 175.97 259.378 177.885 259.316C191.784 259.004 205.745 259.44 219.644 259.939C221.682 260.002 222.176 259.378 222.176 257.383C222.115 247.031 221.497 236.678 220.385 226.326C219.644 219.342 218.347 212.482 216.864 205.685C214.825 196.019 211.86 186.602 207.907 177.56C205.312 171.635 202.285 165.898 198.332 160.785C197.158 159.288 196.046 158.664 195.367 161.346C195.058 162.655 194.502 164.402 193.514 165.025C187.46 168.767 189.931 172.696 192.525 177.248C197.158 185.667 199.753 194.896 202.409 204.126C203.336 207.431 203.892 210.861 204.262 214.228C204.386 215.6 204.015 217.409 201.915 217.534C199.938 217.596 199.629 215.912 199.444 214.603C197.591 200.509 192.649 187.475 186.101 175.003C185.298 173.506 184.68 173.007 183.136 173.943C179.923 175.814 176.588 177.435 172.758 177.809C172.325 177.872 170.719 177.872 171.213 179.431C172.264 182.611 171.831 185.916 172.325 189.097C173.684 197.017 172.881 205.061 174.055 212.981C174.24 214.415 173.931 215.725 172.387 216.536C171.522 217.035 171.152 216.66 170.534 216.224C169.113 215.164 168.681 213.792 169.298 212.17C169.731 210.986 170.163 209.925 169.113 208.865C169.175 202.193 168.99 195.52 167.754 188.972C168.31 186.665 166.766 184.607 167.198 182.362C166.21 181.738 165.654 183.048 164.789 182.611C163.801 180.865 162.195 180.117 160.588 181.114C158.797 182.175 160.341 183.796 160.527 185.168C156.944 187.288 153.361 187.538 149.716 185.355C149.037 184.981 148.234 184.856 147.492 184.544C146.936 181.114 146.381 180.803 143.168 182.05C140.821 179.306 137.485 179.867 134.52 179.618C126.922 178.994 119.88 176.749 114.011 171.947C111.479 169.889 111.046 170.7 109.996 172.82C106.475 180.117 103.325 187.475 102.46 195.645C103.077 196.642 104.066 196.331 104.992 196.331C116.112 196.331 127.231 196.331 138.412 196.331C139.153 196.331 140.018 196.518 140.697 195.832ZM227.613 264.18C223.906 263.369 220.2 263.369 216.493 264.18C203.397 264.242 190.301 264.741 177.205 263.556C177.391 264.305 177.514 264.803 177.638 265.302C178.441 269.855 178.503 269.917 182.889 269.917C206.486 269.917 230.145 269.917 253.743 269.917C254.793 269.917 255.905 269.917 257.511 269.917C252.075 263.993 245.527 263.182 238.855 263.868C235.087 264.242 231.381 264.117 227.613 264.18ZM172.202 156.419C174.796 155.484 176.958 156.045 178.688 158.353C180.232 155.983 181.715 153.8 184.062 152.74C186.101 151.805 187.089 150.183 187.892 148.312C192.031 138.709 192.216 128.856 189.931 118.815C189.684 117.63 189.004 116.633 187.892 115.822C182.394 111.831 177.205 107.466 172.387 102.664C171.584 101.853 170.163 100.855 171.584 99.3586C172.82 98.049 174.364 97.9243 175.599 99.1715C180.541 104.16 186.224 108.214 191.722 112.455C195.552 115.386 199.876 117.007 204.324 118.316C205.992 118.815 207.783 118.691 207.351 115.822C206.857 112.143 206.301 108.401 205.436 104.784C203.521 96.8018 201.359 88.8195 197.158 81.7727C193.761 76.0978 190.672 74.9129 184.309 77.0956C177.391 79.4653 171.213 83.3317 164.727 86.4498C162.75 87.3852 161.021 87.9464 159.971 85.452C159.538 84.4542 158.797 84.766 158.179 84.766C148.357 84.5166 138.597 84.5166 129.331 88.5701C127.663 89.3184 126.304 89.1313 124.76 88.5077C118.953 86.0133 113.394 83.0199 107.154 81.4609C101.286 79.9642 98.4444 81.3362 96.2824 87.1981C94.1203 93.1225 93.1937 99.2339 92.5142 105.47C91.7729 111.644 90.9081 117.818 92.0818 123.991C92.7613 127.484 94.3056 128.481 97.5796 127.047C100.545 125.8 103.077 123.804 105.363 121.435C110.984 115.573 116.606 109.711 122.165 103.849C123.524 102.414 125.254 102.227 126.428 103.35C127.54 104.41 126.798 106.094 125.625 107.278C121.671 111.457 117.779 115.635 113.764 119.813C112.776 120.873 112.467 121.871 112.343 123.305C112.096 126.236 113.641 128.98 112.899 131.849C111.849 136.027 110.552 140.081 109.502 144.259C106.722 155.796 110.367 165.088 121.362 170.887C131.123 176.001 141.315 175.938 151.817 173.756C150.21 168.268 151.57 165.586 156.573 163.84C159.538 162.78 162.442 163.154 164.913 164.713C166.828 165.898 167.075 165.524 167.445 163.591C167.816 161.595 168.928 159.912 170.349 158.415C170.657 157.542 171.337 156.856 172.202 156.419ZM45.7518 200.821C45.9371 201.195 46.2459 201.507 46.3077 201.881C47.2343 211.672 49.5199 221.213 51.4349 230.754C53.844 243.039 57.118 255.138 59.9596 267.36C60.392 269.294 61.2568 269.979 63.4189 269.979C99.371 269.855 135.385 269.917 171.337 269.917C172.202 269.917 173.128 270.229 173.993 269.605C170.905 259.129 167.939 248.652 164.727 238.3C161.206 226.763 157.5 215.226 154.843 203.377C154.473 201.569 153.732 200.384 151.446 200.696C149.099 201.008 146.751 200.696 144.342 200.634C143.477 199.823 142.427 200.135 141.439 200.135C110.552 200.135 79.7271 200.135 48.8404 200.135C47.7903 200.135 46.5548 199.636 45.7518 200.821ZM305.632 269.917C309.339 269.917 313.045 269.855 316.69 269.979C318.419 270.042 318.975 269.418 318.975 267.672C318.852 262.06 318.914 256.509 318.975 250.897C318.975 249.213 318.852 248.652 316.751 249.151C308.721 251.084 300.69 251.895 292.66 248.964C290.93 248.34 290.621 249.275 290.56 250.835C290.436 256.634 291.548 262.247 292.351 267.922C292.598 269.543 293.03 270.042 294.575 269.979C298.219 269.855 301.926 269.917 305.632 269.917ZM195.181 150.682C201.235 156.419 205.621 162.593 209.08 169.391C212.663 176.375 215.505 183.671 217.791 191.217C218.285 192.901 218.964 193.4 220.694 192.714C223.597 191.529 226.377 190.282 228.539 187.849C230.825 185.293 231.01 182.486 228.477 180.117C221.929 173.943 216.74 166.647 211.49 159.413C207.721 154.237 202.409 151.368 195.181 150.682ZM175.908 168.517C175.908 166.709 175.723 165.524 176.279 164.215C176.958 162.718 176.094 161.283 174.487 160.909C172.82 160.535 171.769 161.471 171.522 163.154C171.275 164.464 171.09 165.711 170.905 167.021C170.287 171.137 168.31 172.134 164.542 170.264C162.874 169.453 161.268 168.455 159.477 167.831C158.365 167.457 156.882 167.145 156.264 168.642C155.77 169.889 155.832 171.386 157.253 172.197C160.897 174.317 164.851 176.437 169.051 175.627C173.623 174.754 178.441 174.192 182.209 170.825C186.101 167.333 190.548 164.402 192.216 158.976C192.834 156.981 192.587 155.11 190.857 154.174C189.066 153.177 187.398 154.486 186.533 156.045C184.062 160.847 180.047 164.339 175.908 168.517ZM305.2 246.22C308.597 246.345 311.933 245.97 315.145 244.973C316.196 244.661 318.049 244.349 317.925 243.039C317.802 241.792 316.504 240.857 315.022 240.295C312.18 239.173 309.4 239.111 306.312 239.235C302.235 239.422 298.343 239.609 294.698 241.605C293.957 241.979 292.598 241.667 292.783 243.102C292.969 244.411 293.957 244.973 295.131 245.16C298.528 245.659 301.802 246.345 305.2 246.22ZM323.238 257.383C323.238 258.505 323.176 259.69 323.238 260.812C323.299 261.685 323.67 262.371 324.72 262.309C326.697 262.184 330.651 258.443 330.589 256.385C330.527 254.389 329.786 252.581 327.315 252.394C323.794 252.144 323.238 252.83 323.238 257.383ZM162.195 178.62C157.562 177.31 153.237 177.996 148.913 179.181C152.558 183.172 155.708 183.048 162.195 178.62Z" fill="#040000"/>
<path d="M0.595703 1.88834C1.02812 1.45181 1.46055 1.01528 1.89297 0.641113C23.0812 0.641113 44.2695 0.641113 65.5195 0.641113C66.755 0.890559 68.2993 0.703475 68.6082 2.51196C68.6082 33.3185 68.6082 64.1251 68.6082 94.8693C68.6082 96.1165 67.9287 96.6777 66.755 96.7401C49.4584 96.6777 32.1619 96.6777 14.8654 96.6154C14.3712 96.6154 13.8152 96.6154 13.5681 97.1767C10.4177 97.1767 7.26722 97.239 4.17855 97.239C2.51067 97.239 0.966366 96.8648 0.657499 94.8069C0.595726 63.8756 0.595703 32.882 0.595703 1.88834ZM64.284 5.63003L64.1605 5.69241C63.8516 4.88171 63.1721 5.0688 62.6162 5.0688C43.59 5.0688 24.6256 5.13117 5.59937 5.19353C4.67277 5.5677 4.98163 6.44076 4.98163 7.06437C4.98163 21.3451 4.98163 35.6259 4.98163 49.8443C4.98163 50.4679 4.67277 51.341 5.59937 51.7151C11.159 50.7797 16.7803 51.4657 22.3399 51.1539C25.3668 50.9668 25.9228 52.3388 25.9228 54.9579C25.9845 60.1963 26.2934 65.4347 26.4788 70.673C26.5405 71.7955 26.6023 72.918 27.9613 72.918C32.2236 72.8557 36.5478 73.2922 40.8102 72.6686C42.7869 72.3568 43.1576 71.5461 43.1576 69.6752C43.2811 62.2542 43.59 54.8332 43.837 47.4122C45.0107 42.4233 44.0841 37.372 44.3312 32.3831C45.1343 31.3853 46.2462 31.8842 47.1728 31.8218C52.7942 31.7595 58.4156 31.7595 64.0369 31.7595C65.0871 31.1359 64.7164 30.1381 64.7164 29.265C64.7164 22.1558 64.7164 15.0466 64.7164 7.93741C64.84 7.12671 65.0253 6.316 64.284 5.63003Z" fill="#040000"/>
<path d="M61.1328 274.782C62.1212 273.846 63.2949 274.283 64.345 274.283C128.836 274.283 193.266 274.283 257.757 274.283C258.808 274.283 260.043 273.846 260.97 274.782C260.228 274.844 259.549 274.907 258.808 274.907C193.637 274.907 128.404 274.907 63.2331 274.907C62.5536 274.844 61.8123 274.782 61.1328 274.782Z" fill="#5D5550"/>
<path d="M262.762 274.782C263.812 273.846 265.109 274.283 266.283 274.283C300.876 274.221 335.407 274.221 370 274.221C369.63 275.468 368.641 274.844 367.962 274.844C333.183 274.907 298.467 274.844 263.688 274.844C263.379 274.844 263.071 274.782 262.762 274.782Z" fill="#5D5550"/>
<path d="M0.594959 1.88818C0.594959 32.8818 0.594959 63.8755 0.594959 94.8691C-0.331641 94.1831 0.10078 93.123 0.10078 92.2499C0.10078 63.0024 0.10078 33.7549 0.10078 4.50737C0.10078 3.63431 -0.269868 2.57416 0.594959 1.88818Z" fill="#99918C"/>
<path d="M68.5459 94.869C68.5459 64.0625 68.5459 33.2559 68.5459 2.51172C69.6578 3.13533 69.1019 4.19548 69.1019 5.00618C69.1636 34.129 69.1636 63.2518 69.1019 92.3746C69.1019 93.1853 69.6578 94.2454 68.5459 94.869Z" fill="#1D1C19"/>
<path d="M65.5191 0.578592C44.3309 0.578592 23.1426 0.578592 1.89258 0.578592C2.63386 -0.294468 3.6222 0.0797079 4.48703 0.0797079C23.9456 0.0797079 43.466 0.0797079 62.9246 0.0797079C63.7895 0.0797079 64.7779 -0.294468 65.5191 0.578592Z" fill="#AEA8A3"/>
<path d="M97.5163 195.646C96.8986 196.643 95.8484 196.332 94.9836 196.332C78.4901 196.332 62.0584 196.332 45.5649 196.332C44.7618 196.332 43.897 196.519 43.2793 195.833C59.4021 195.77 75.525 195.77 91.6478 195.708C93.5628 195.708 95.5396 195.708 97.5163 195.646Z" fill="#211F1C"/>
<path d="M13.5674 97.1765C13.8145 96.6152 14.3705 96.6152 14.8646 96.6152C32.1612 96.6776 49.4577 96.6776 66.7543 96.74C66.2601 97.4259 65.457 97.2388 64.7775 97.2388C47.6663 97.2388 30.6168 97.2389 13.5674 97.1765Z" fill="#B4AEAA"/>
<path d="M10.0469 274.221C24.7489 274.221 39.5128 274.221 54.2148 274.283C55.265 274.283 56.5004 273.846 57.427 274.782C42.1073 274.844 26.7875 274.844 11.4677 274.844C10.9735 274.844 10.1704 275.156 10.0469 274.221Z" fill="#5D5550"/>
<path d="M169.114 208.803C170.102 209.863 169.731 210.923 169.299 212.108C168.681 213.73 169.114 215.101 170.534 216.162C171.152 216.598 171.461 216.972 172.388 216.473C173.932 215.663 174.241 214.353 174.056 212.919C172.944 204.999 173.685 196.954 172.326 189.034C171.77 185.854 172.202 182.486 171.214 179.368C170.72 177.809 172.326 177.809 172.758 177.747C176.588 177.373 179.862 175.751 183.136 173.881C184.681 173.008 185.298 173.506 186.101 174.941C192.649 187.413 197.591 200.447 199.444 214.54C199.63 215.85 199.939 217.534 201.915 217.471C204.016 217.346 204.386 215.6 204.263 214.166C203.892 210.736 203.336 207.306 202.409 204.063C199.815 194.834 197.221 185.605 192.526 177.186C189.993 172.571 187.46 168.705 193.514 164.963C194.502 164.339 195.058 162.593 195.367 161.284C196.047 158.664 197.159 159.226 198.332 160.722C202.286 165.836 205.313 171.573 207.907 177.498C211.861 186.54 214.826 195.956 216.864 205.623C218.285 212.42 219.582 219.28 220.386 226.264C221.497 236.616 222.115 246.906 222.177 257.32C222.177 259.316 221.683 259.939 219.644 259.877C205.745 259.378 191.784 258.942 177.885 259.253C175.97 259.316 175.662 258.256 175.229 256.759C171.399 243.601 167.446 230.567 163.616 217.409C161.886 211.422 159.909 205.498 158.55 199.386C158.056 197.266 157.13 195.271 154.288 195.769C151.014 195.707 147.678 195.645 144.404 195.582C145.393 191.841 145.825 187.974 147.555 184.42C148.296 184.669 149.099 184.794 149.779 185.23C153.423 187.413 157.006 187.164 160.589 185.043C163.863 190.905 165.469 197.328 167.322 203.689C167.693 205.498 167.508 207.493 169.114 208.803Z" fill="#C0BFBF"/>
<path d="M102.459 195.645C103.324 187.476 106.474 180.117 109.995 172.821C111.045 170.701 111.478 169.89 114.011 171.948C119.879 176.687 126.983 178.932 134.519 179.618C137.484 179.868 140.82 179.244 143.168 182.05C141.87 186.54 140.079 190.906 140.079 195.708C127.539 195.645 114.999 195.645 102.459 195.645Z" fill="#C0BFBF"/>
<path d="M195.18 150.683C202.345 151.369 207.72 154.238 211.426 159.414C216.677 166.648 221.866 173.944 228.414 180.118C230.885 182.425 230.699 185.294 228.476 187.851C226.313 190.283 223.534 191.53 220.63 192.715C218.962 193.401 218.283 192.902 217.727 191.218C215.441 183.672 212.6 176.376 209.017 169.392C205.619 162.594 201.295 156.42 195.18 150.683Z" fill="#C0BFBF"/>
<path d="M175.909 168.518C180.048 164.34 184.002 160.848 186.534 156.046C187.337 154.424 189.005 153.177 190.859 154.175C192.588 155.11 192.835 156.981 192.218 158.977C190.55 164.402 186.102 167.333 182.21 170.826C178.442 174.255 173.562 174.754 169.053 175.627C164.852 176.438 160.898 174.38 157.254 172.197C155.895 171.387 155.833 169.89 156.265 168.643C156.883 167.146 158.366 167.458 159.478 167.832C161.207 168.456 162.875 169.454 164.543 170.264C168.373 172.135 170.288 171.137 170.906 167.021C171.091 165.712 171.276 164.465 171.523 163.155C171.832 161.471 172.882 160.536 174.489 160.91C176.095 161.284 176.96 162.719 176.28 164.215C175.724 165.525 175.971 166.71 175.909 168.518Z" fill="white"/>
<path d="M169.112 208.804C167.506 207.494 167.753 205.499 167.259 203.752C165.406 197.392 163.8 190.906 160.526 185.106C160.34 183.734 158.734 182.113 160.587 181.053C162.255 180.055 163.861 180.803 164.788 182.55C165.776 184.67 166.765 186.79 167.753 188.848C168.988 195.458 169.112 202.131 169.112 208.804Z" fill="white"/>
<path d="M170.286 158.415C167.877 158.54 166.085 160.473 163.738 160.785C162.07 161.034 160.834 160.411 160.464 158.789C160.093 157.23 161.02 156.108 162.441 155.858C164.85 155.484 166.703 154.299 168.247 152.491C169.483 151.057 170.965 149.934 172.695 151.181C174.301 152.366 173.004 153.925 172.386 155.235C172.263 155.547 172.262 155.983 172.201 156.357C171.336 156.856 170.656 157.542 170.286 158.415Z" fill="#040000"/>
<path d="M140.079 195.645C140.079 190.843 141.871 186.478 143.168 181.988C146.442 180.803 146.998 181.115 147.492 184.483C145.762 187.975 145.33 191.904 144.341 195.645C144.156 195.708 143.971 195.77 143.786 195.832C142.735 195.832 141.747 195.832 140.697 195.832C140.512 195.77 140.326 195.708 140.079 195.645Z" fill="white"/>
<path d="M144.404 200.634C135.694 200.696 126.922 200.759 118.212 200.759C94.0587 200.821 69.9053 200.821 45.752 200.821C46.6168 199.636 47.8522 200.135 48.9024 200.135C79.7891 200.135 110.614 200.135 141.501 200.135C142.427 200.135 143.539 199.761 144.404 200.634Z" fill="#37322E"/>
<path d="M162.194 178.621C155.708 183.048 152.558 183.173 148.913 179.182C153.237 178.059 157.561 177.311 162.194 178.621Z" fill="white"/>
<path d="M140.08 195.646C140.266 195.708 140.451 195.77 140.636 195.833C139.957 196.519 139.154 196.332 138.351 196.332C127.231 196.332 116.112 196.332 104.931 196.332C104.066 196.332 103.078 196.643 102.398 195.646C115 195.646 127.54 195.646 140.08 195.646Z" fill="#1E1E1E"/>
<path d="M167.693 188.91C166.704 186.79 165.716 184.67 164.728 182.612C165.592 183.049 166.148 181.739 167.137 182.363C166.766 184.483 168.249 186.603 167.693 188.91Z" fill="#C0C0C0"/>
<path d="M227.611 264.18C223.905 264.18 220.199 264.18 216.492 264.18C220.26 263.37 223.967 263.37 227.611 264.18Z" fill="#10100F"/>
<path d="M143.787 195.833C143.972 195.77 144.158 195.708 144.343 195.646C147.617 195.708 150.953 195.77 154.227 195.833C150.768 196.706 147.246 196.706 143.787 195.833Z" fill="#1E1E1E"/>
<path d="M44.2029 47.543C43.9488 55.115 43.631 62.6871 43.504 70.2591C43.504 72.1044 43.1226 72.9952 41.0892 73.3133C36.7045 73.9496 32.2563 73.5042 27.8717 73.5679C26.4737 73.5679 26.3466 72.4225 26.3466 71.2772C26.156 65.9322 25.8382 60.5873 25.7747 55.2423C25.7747 52.5698 25.1392 51.17 22.0891 51.3608C16.37 51.679 10.5873 50.9791 4.86816 51.9335C4.86816 36.2805 4.86816 20.6274 4.86816 4.9743C24.9486 4.9743 45.029 4.9743 65.1095 4.9743L65.2365 4.91064C65.173 13.8189 65.1094 22.7272 65.0459 31.5718C59.2632 31.5718 53.4806 31.5718 47.6979 31.6354C46.7448 31.6354 45.601 31.1264 44.7749 32.2081C43.4404 37.2985 44.33 42.4526 44.2029 47.543ZM10.3331 26.3541C10.5238 27.1813 10.7144 27.8812 10.905 28.5812C12.4301 34.117 16.8783 35.8987 21.8349 36.9804C23.6141 37.3622 25.3299 37.1076 26.156 35.5805C27.1091 33.7989 25.8382 32.5899 24.1861 31.6991C19.7379 29.2811 18.9118 26.1632 21.39 21.8364C21.8349 21.0092 22.3432 20.182 22.9787 19.482C24.5038 17.8913 23.6142 16.8096 22.2162 15.9187C20.6275 14.9007 18.9753 14.7734 17.196 15.5369C12.303 17.6367 11.7311 22.2181 10.3331 26.3541Z" fill="#3F3681"/>
<path d="M64.1598 5.69196C44.6394 5.69196 25.119 5.69196 5.59863 5.69196C5.59863 5.50487 5.59863 5.3178 5.59863 5.19307C24.6248 5.13071 43.5892 5.1307 62.6154 5.06834C63.1714 5.06834 63.9127 4.94362 64.1598 5.69196Z" fill="#6E6878"/>
<path d="M5.59792 5.13135C5.59792 5.31843 5.59792 5.50551 5.59792 5.63023C5.59792 20.9711 5.59792 36.3121 5.59792 51.653C4.60955 51.2788 4.98019 50.4681 4.98019 49.7822C4.98019 35.5014 4.98019 21.2206 4.98019 7.00219C5.04196 6.37858 4.67132 5.56788 5.59792 5.13135Z" fill="#736F81"/>
<path d="M64.0977 31.8218C64.1594 23.0912 64.2212 14.3606 64.283 5.69238C65.0243 6.316 64.8389 7.18907 64.8389 7.99976C64.8389 15.109 64.8389 22.2181 64.8389 29.3273C64.8389 30.2004 65.1478 31.1982 64.0977 31.8218Z" fill="#363236"/>
<path d="M43.9594 47.4119C44.083 42.423 43.2181 37.3717 44.4536 32.3828C44.2065 37.4341 45.1331 42.4853 43.9594 47.4119Z" fill="#383439"/>
<path d="M109.686 248.715C103.323 248.715 99.617 246.345 98.4433 240.545C96.9608 233.374 102.335 228.572 108.945 228.821C110.674 228.884 112.589 229.881 112.281 232.314C112.033 234.06 113.084 235.12 114.257 235.868C117.037 237.677 120.188 239.049 118.581 243.476C117.222 247.031 114.566 248.715 109.686 248.715ZM109.995 246.22C112.837 246.844 115.369 245.222 116.419 242.666C117.593 239.735 114.257 239.173 112.528 237.864C111.23 236.866 109.315 235.868 109.995 233.685C110.613 231.628 109.439 231.44 108.08 231.316C105.671 231.066 102.212 233.311 101.347 235.494C98.9993 241.543 102.644 246.22 109.995 246.22Z" fill="#040000"/>
<path d="M104.929 224.269C104.929 220.839 107.956 217.534 110.736 217.534C112.156 217.534 112.404 218.095 112.404 219.343C112.404 222.024 109.438 226.078 106.72 226.701C104.497 227.075 104.991 225.267 104.929 224.269Z" fill="#040000"/>
<path d="M151.384 119.564C152.002 117.07 152.125 115.074 152.62 113.141C154.349 106.032 161.206 103.537 167.322 107.715C169.854 109.462 172.696 110.896 174.179 113.952C174.611 114.825 175.29 114.638 176.217 114.263C177.453 113.765 178.935 114.076 179.429 115.511C179.923 117.007 179.306 118.566 177.761 119.003C176.588 119.315 176.649 119.377 176.835 120.624C177.267 124.927 177.514 129.293 175.29 133.408C172.202 139.146 166.395 139.27 161.453 137.649C158.179 136.526 156.079 133.783 154.102 130.353C153.114 133.595 152.867 136.464 151.014 138.834C146.381 144.758 138.968 142.95 133.408 138.771C129.702 136.028 127.354 132.224 126.613 127.671C126.304 125.8 125.563 125.925 124.266 125.863C122.907 125.8 121.301 126.486 120.312 124.99C119.88 124.366 119.509 123.056 120.312 121.684C120.93 120.687 120.25 120.687 121.733 120.874C122.721 120.998 123.833 120.749 124.822 120.936C126.181 121.186 126.798 120.188 126.984 119.315C127.787 113.952 131.308 111.021 136.188 110.397C141.562 109.711 146.133 112.018 149.346 116.633C149.902 117.569 150.458 118.317 151.384 119.564ZM135.755 134.531C134.335 128.482 136.929 124.99 141.562 125.987C144.466 126.611 145.825 129.105 146.813 131.662C147.184 132.598 147.307 133.408 148.604 133.346C148.666 132.847 148.543 132.224 148.728 131.849C149.963 129.48 148.666 127.359 148.296 125.114C147.431 120.5 144.342 123.555 142.551 123.618C139.338 123.742 136.064 124.304 132.852 125.239C131.987 125.489 131.122 125.488 131.431 126.611C132.296 129.293 132.667 132.286 135.755 134.531ZM168.804 114.825C167.075 113.016 165.345 112.081 163.492 111.332C160.28 109.96 158.303 111.083 157.314 114.513C156.82 116.134 156.679 117.249 158.224 116.875C161.374 116.127 165.345 116.508 168.804 114.825ZM143.354 118.068C141.562 115.137 138.906 115.261 136.311 115.386C134.335 115.448 133.037 116.696 132.296 118.504C131.74 119.751 131.926 120.749 133.47 120.25C136.62 119.315 139.956 119.564 143.354 118.068ZM172.14 127.235C173.314 124.865 172.078 122.682 171.893 120.5C171.831 119.751 170.402 119.128 169.908 119.564C168.549 119.881 167.075 119.876 165.283 120.749C168.681 121.872 171.152 123.742 172.14 127.235ZM162.503 121.186C170.882 119.515 158.673 122.059 156.944 121.684C157.685 124.428 157.314 127.422 159.785 129.791C159.847 126.549 159.415 123.493 162.503 121.186Z" fill="#040000"/>
<path d="M155.585 151.493C152.929 151.556 150.643 149.623 150.581 147.378C150.52 144.883 152.743 142.825 155.523 142.825C158.056 142.825 160.465 144.634 160.465 146.567C160.465 148.625 157.685 151.431 155.585 151.493Z" fill="#040000"/>
<path d="M10.71 26.2295C12.0578 22.0004 12.6092 17.2508 17.3266 15.2339C19.1034 14.4531 20.6963 14.5832 22.1667 15.6242C23.4532 16.5351 24.3722 17.6412 22.9018 19.2677C22.2892 19.9184 21.799 20.8292 21.3702 21.6751C18.9808 26.0993 19.7773 29.2874 24.0659 31.7598C25.72 32.7358 26.8841 33.9069 25.9651 35.7287C25.1686 37.2902 23.5145 37.5504 21.799 37.16C16.959 36.054 12.7317 34.2322 11.2613 28.5718C11.0163 27.8561 10.8938 27.0753 10.71 26.2295Z" fill="#F2F1F1"/>
</svg>
