<svg width="120" height="190" viewBox="0 0 120 190" fill="none" xmlns="http://www.w3.org/2000/svg">
<path d="M67.1338 4.26189C68.4674 4.26462 69.801 4.26303 71.1346 4.26019C72.1828 4.25844 73.231 4.25902 74.2792 4.26025C74.7703 4.26056 75.2613 4.2602 75.7524 4.25907C78.4185 4.25425 81.0633 4.32931 83.722 4.53961C84.0823 4.56789 84.0823 4.56789 84.4499 4.59673C89.5175 5.03448 94.5889 6.4751 98.0133 10.5271C103.901 17.846 104.16 27.2316 104.212 36.1906C104.217 37.0436 104.224 37.8966 104.23 38.7496C104.242 40.3591 104.252 41.9686 104.262 43.5781C104.274 45.4129 104.287 47.2477 104.3 49.0825C104.327 52.8515 104.352 56.6205 104.376 60.3894C104.604 60.4703 104.831 60.5512 105.066 60.6346C105.367 60.7423 105.668 60.85 105.969 60.9577C106.119 61.0109 106.269 61.064 106.423 61.1187C110.444 62.5614 113.779 65.6236 115.699 69.4738C117.175 72.6209 118.13 76.0345 116.954 79.4755C116.78 79.8789 116.594 80.2769 116.395 80.6684C116.289 80.8763 116.184 81.0842 116.075 81.2984C115.33 82.649 114.455 83.6856 113.331 84.7242C111.926 86.1139 111.011 87.0833 110.842 89.108C110.822 89.3313 110.803 89.5546 110.782 89.7846C110.617 93.2429 110.85 96.7048 111.009 100.159C111.221 104.818 111.302 109.442 111.019 114.099C111.003 114.36 111.003 114.36 110.987 114.626C110.392 124.463 110.392 124.463 106.997 127.6C103.63 130.306 99.7274 130.654 95.6068 131.101C91.2933 131.57 86.9928 132.101 82.6977 132.719C70.9027 134.412 59.0398 135.287 47.1279 135.526C46.4623 135.54 45.797 135.559 45.1315 135.579C41.0294 135.677 37.7342 134.64 34.1026 132.761C32.6794 132.033 31.2254 131.39 29.7602 130.754C25.229 128.777 21.2994 127.058 19.126 122.285C18.0174 119.333 17.7832 116.261 17.8357 113.133C17.845 112.569 17.8494 112.006 17.8527 111.442C17.862 110.041 17.879 108.639 17.8962 107.238C17.9476 102.966 17.9882 98.7196 17.5795 94.4629C17.5518 94.1699 17.524 93.8769 17.4955 93.575C17.0182 89.1285 15.7294 86.5268 12.7043 83.2927C9.76896 80.0509 7.1803 77.0132 7.23624 72.445C7.39894 69.5815 9.2051 67.3218 11.201 65.3921C14.8878 62.3032 20.3308 59.6737 25.1943 59.6737C24.9357 58.0311 24.666 56.3907 24.3875 54.7514C24.3024 54.2483 24.2187 53.7449 24.1369 53.2412C23.3446 48.4184 21.8613 43.8203 20.4003 39.1724C19.2176 35.4054 18.1133 31.679 17.8888 27.7045C17.8764 27.5345 17.8639 27.3644 17.8511 27.1892C17.6699 22.5402 18.9584 17.676 21.895 14.0908C27.5955 7.94406 38.6059 6.37728 46.4332 5.23367C46.6809 5.19667 46.9287 5.15967 47.184 5.12155C48.1007 4.99638 49.0183 4.89363 49.9386 4.80125C50.1463 4.78011 50.354 4.75897 50.568 4.73719C56.0797 4.20509 61.6029 4.25049 67.1338 4.26189ZM58.6838 6.33522C58.4415 6.34271 58.4415 6.34271 58.1943 6.35036C50.921 6.58414 43.7784 7.41588 36.7416 9.33419C36.375 9.43349 36.375 9.43349 36.001 9.53479C29.8399 11.1993 29.8399 11.1993 24.4873 14.5829C24.3309 14.7176 24.1744 14.8523 24.0132 14.9911C21.0835 17.7318 20.1488 21.7432 19.949 25.6394C19.8878 27.5591 19.9912 29.4056 20.3706 31.2888C20.4111 31.491 20.4516 31.6933 20.4933 31.9017C21.0175 34.3828 21.7908 36.7874 22.5544 39.2014C23.9673 43.6806 25.3089 48.1225 26.1369 52.755C26.1917 53.0541 26.2465 53.3531 26.303 53.6612C26.6548 55.5833 26.9919 57.5079 27.3152 59.4351C27.5546 59.473 27.794 59.5108 28.0406 59.5498C31.3212 60.0991 34.3889 61.0573 36.7784 63.5422C37.1686 64.0234 36.3438 63.6656 36.8595 63.6102C36.9236 63.7499 37.8125 64.2473 37.8785 64.3912C38.1508 64.9132 38.4531 65.3286 38.8184 65.7872C39.6269 66.8559 40.1849 68.0025 40.7478 69.2168C40.9041 69.5353 41.0609 69.8535 41.2192 70.1711C41.3537 70.0004 41.4883 69.8297 41.627 69.6538C45.6484 64.5736 45.6484 64.5736 47.8177 62.7752C47.9428 62.6707 48.068 62.5661 48.1969 62.4585C48.6232 62.1041 49.0522 61.7533 49.482 61.4034C49.6181 61.2907 49.7542 61.1781 49.8945 61.062C50.8078 60.3287 51.6769 59.8567 52.7665 59.4351C52.7665 59.2777 52.7665 59.1202 52.7665 58.958C52.4299 58.6311 52.4299 58.6311 52.0006 58.3019C50.7465 57.243 50.1684 56.3057 49.9386 54.6636C49.6965 54.718 49.4544 54.7725 49.2049 54.8286C46.5074 55.4077 44.2388 55.7101 41.7273 54.2899C40.1704 53.242 39.4851 51.6901 39.0982 49.8921C38.3766 43.9918 41.3346 39.2797 44.5184 34.6232C44.3629 34.5445 44.2073 34.4658 44.0471 34.3847C43.3893 34.6111 42.7552 34.8548 42.113 35.1209C41.8199 35.2399 41.8199 35.2399 41.5209 35.3613C40.8844 35.6204 40.2491 35.8822 39.6137 36.1442C39.1805 36.3212 38.7473 36.4982 38.314 36.675C35.8898 37.667 33.4712 38.671 31.0777 39.7371C29.4501 40.4613 27.9476 41.1155 26.1369 40.8262C25.4224 40.3017 25.2375 40.0032 24.9586 39.1562C24.764 37.5474 25.0365 36.2289 25.9013 34.8618C28.8383 31.124 35.359 30.721 39.6668 30.0096C40.0994 29.9375 40.0994 29.9375 40.5407 29.8638C40.8018 29.8212 41.0629 29.7785 41.3319 29.7346C41.9091 29.6743 41.9091 29.6743 42.1618 29.3746C42.2315 28.9804 42.2998 28.5859 42.3616 28.1904C43.141 23.3141 45.0381 19.4894 49.0605 16.5335C50.3907 15.6158 51.807 14.8483 53.2378 14.1057C53.469 13.9852 53.7002 13.8646 53.9384 13.7404C56.1037 12.6815 58.3837 12.0381 60.7642 11.72C61.6637 11.5987 62.3276 11.4747 63.0914 10.9744C64.1001 10.3737 64.5693 10.3781 65.7278 10.5271C66.0491 10.755 66.0491 10.755 66.3768 10.9874C67.2405 11.5451 68.0088 11.7025 68.9976 11.8691C74.0011 12.862 79.3693 15.4018 83.1667 18.8772C83.3529 19.0464 83.5391 19.2155 83.731 19.3898C86.1718 21.7256 87.5116 24.5585 87.8799 27.9431C87.8953 28.5543 87.9001 29.1658 87.8946 29.7772C87.8925 30.0832 87.8904 30.3892 87.8882 30.7044C87.8841 31.109 87.8841 31.109 87.8799 31.5218C87.8799 32.6327 87.9942 32.7019 88.7249 33.4565C89.7537 34.5782 90.5459 35.7616 91.3264 37.0686C91.5248 37.3977 91.5248 37.3977 91.7272 37.7334C93.8967 41.3803 95.8482 45.3784 94.9129 49.7393C94.4173 51.3093 93.6243 52.4067 92.2101 53.2322C89.92 54.4036 87.4784 54.0029 85.0519 53.4707C85.0714 53.6774 85.2676 53.2578 85.2876 53.4707C85.1773 54.9784 83.8691 56.6571 82.931 57.7651C83.1807 57.898 83.1807 57.898 83.4355 58.0335C84.2317 58.5621 84.8338 59.1999 85.4644 59.9123C85.5883 60.0516 85.7122 60.1909 85.8399 60.3345C86.0906 60.6179 86.3406 60.9022 86.5896 61.1872C86.8887 61.5271 87.1945 61.861 87.5015 62.1937C90.2724 65.3475 91.9873 69.4726 93.0644 73.5111C93.144 73.8064 93.2236 74.1016 93.3056 74.4058C94.2348 78.4105 94.2239 82.8481 92.2515 86.5293C89.8627 90.3245 85.7561 92.4161 81.5281 93.4182C80.3529 93.6363 79.1743 93.728 77.9821 93.7901C77.9165 93.9758 77.8509 94.1616 77.7833 94.353C77.3874 95.2684 76.732 95.735 75.8612 96.1758C74.1469 96.2896 74.1469 96.2896 73.436 95.8164C72.7104 95.4114 72.3196 95.3819 71.4997 95.407C71.2497 95.4117 70.9998 95.4165 70.7423 95.4214C70.4776 95.4293 70.2129 95.4371 69.9402 95.4452C67.6246 95.4832 65.3907 95.3845 63.0951 95.0873C62.3116 94.9967 61.5662 94.9629 60.779 94.9829C60.6988 95.2634 60.6988 95.2634 60.6169 95.5496C60.3076 96.1758 60.3076 96.1758 59.8363 96.489C58.6401 96.7665 57.4273 96.9358 56.2701 96.4358C55.2642 95.7732 54.9879 95.2097 54.6518 94.0286C53.9551 93.8961 53.2581 93.7674 52.5603 93.641C52.2628 93.5838 52.2628 93.5838 51.9592 93.5254C51.6744 93.4747 51.6744 93.4747 51.3839 93.4229C51.2086 93.3904 51.0334 93.3579 50.8528 93.3244C50.7067 93.3206 50.5605 93.3168 50.4099 93.3129C49.2502 94.4869 49.6477 97.029 49.644 98.5765C49.6451 101.756 49.7305 104.693 51.5882 107.389C51.6787 107.527 51.7693 107.664 51.8625 107.806C53.8356 110.453 57.131 111.92 59.9632 113.38C63.2357 115.071 66.2831 116.981 69.2189 119.219C71.0073 120.569 72.7509 121.601 75.0373 121.559C76.9681 121.25 78.3339 119.819 79.4541 118.295C80.9894 115.889 81.7948 113.359 81.5171 110.49C81.1308 109.359 80.6171 108.762 79.6318 108.105C78.1698 107.492 76.6406 107.847 75.2417 108.425C74.4092 108.658 73.8971 108.735 73.0333 108.582C72.3876 107.967 71.9286 107.24 71.4426 106.494C71.1538 106.076 70.8638 105.658 70.5727 105.242C70.4308 105.037 70.2889 104.833 70.1427 104.622C68.731 102.642 67.1969 101.046 65.0254 99.9203C64.5495 99.5159 64.5495 99.5159 64.4786 98.7536C64.502 98.5328 64.5254 98.3119 64.5495 98.0844C65.7617 97.978 66.3068 98.2144 67.2596 98.9642C67.471 99.1275 67.6825 99.2908 67.9003 99.459C68.1166 99.6353 68.3329 99.8115 68.5557 99.993C68.7918 100.181 69.0278 100.368 69.271 100.562C69.9892 101.203 70.5662 101.887 71.1333 102.662C71.2333 102.796 71.3334 102.93 71.4365 103.069C72.3119 104.249 73.1545 105.453 73.9759 106.673C74.3432 106.592 74.3432 106.592 74.7179 106.508C79.0763 105.58 79.0763 105.58 81.1194 106.658C82.2426 107.484 82.8384 108.409 83.1667 109.775C83.2266 110.799 83.2052 111.821 83.1441 112.845C83.0798 114.225 83.204 114.922 84.1093 115.978C84.9516 116.404 85.8192 116.186 86.7016 115.978C90.0109 114.694 93.3519 111.837 94.8024 108.567C95.0616 107.334 95.0987 106.357 94.6551 105.167C94.1235 104.316 94.1235 104.316 93.3001 103.81C91.7797 103.732 90.3871 104.289 88.9873 104.826C88.3029 105.017 88.0587 105.017 87.4086 104.765C87.1048 104.413 87.1048 104.413 86.8424 103.955C86.7431 103.782 86.6438 103.61 86.5415 103.432C85.8652 102.18 85.2226 100.911 84.5848 99.6384C83.9108 98.3129 83.2619 97.1645 82.1504 96.1609C82.0191 96.0084 81.8879 95.8558 81.7527 95.6987C81.8116 95.1619 81.8116 95.1619 81.9884 94.7444C82.8341 94.7444 83.3787 94.761 84.0366 95.3242C85.2048 96.674 86.0012 98.1236 86.7899 99.7246C86.9154 99.9737 87.0409 100.223 87.1701 100.48C87.4878 101.111 87.8027 101.744 88.1155 102.379C88.1933 102.536 88.2711 102.694 88.3512 102.856C89.0069 102.735 89.6066 102.59 90.2365 102.364C91.8143 101.904 93.6059 101.84 95.097 102.543C96.1744 103.605 96.5586 104.555 96.6472 106.051C96.69 109.62 95.7467 111.291 93.2688 113.878C90.8536 116.174 87.986 117.877 84.6515 118.16C83.7809 118.103 83.3584 117.724 82.6954 117.171C82.5398 117.171 82.3843 117.171 82.224 117.171C82.1438 117.338 82.0636 117.505 81.981 117.677C80.7201 120.176 79.0729 122.119 76.3767 123.043C75.6329 123.176 74.9077 123.185 74.1527 123.195C73.855 123.201 73.5573 123.207 73.2505 123.213C71.3032 123.048 70.0063 122.18 68.4821 121.003C65.1127 118.481 61.6347 116.377 57.904 114.447C53.9604 112.397 50.1352 109.941 48.4685 105.598C48.0109 104.082 48.0221 102.6 48.0303 101.031C48.0306 100.79 48.031 100.548 48.0313 100.299C48.0326 99.5311 48.0356 98.763 48.0386 97.995C48.0398 97.4728 48.0408 96.9506 48.0418 96.4284C48.0444 95.1513 48.0483 93.8743 48.0533 92.5972C47.8003 92.4705 47.5472 92.3438 47.2865 92.2132C46.948 92.043 46.6096 91.8728 46.2711 91.7025C46.1051 91.6195 45.9391 91.5365 45.7681 91.4509C44.7009 90.9132 43.6627 90.3424 42.6331 89.7343C42.758 92.1058 42.9852 94.4431 43.3014 96.7957C43.3767 97.356 43.4506 97.9165 43.5241 98.4771C43.629 99.2763 43.7344 100.075 43.8401 100.874C45.2732 111.729 46.3094 122.44 46.6394 133.394C49.2223 133.419 51.7905 133.344 54.3701 133.218C54.5652 133.209 54.7602 133.2 54.9612 133.19C55.997 133.141 57.0328 133.09 58.0685 133.038C58.9055 132.997 59.7426 132.957 60.5798 132.919C66.0275 132.671 71.4024 132.248 76.8038 131.485C77.0904 131.445 77.3769 131.405 77.6721 131.364C79.3226 131.133 80.9718 130.894 82.6207 130.652C87.1981 129.981 91.7701 129.348 96.3795 128.948C99.8496 128.634 103.9 128.03 106.373 125.297C109.898 120.477 109.132 112.891 109.133 107.24C109.134 106.994 109.134 106.748 109.134 106.495C109.134 103.618 109.075 100.75 108.941 97.8764C108.849 95.9022 108.795 93.9324 108.78 91.956C108.775 91.72 108.775 91.72 108.77 91.4792C108.717 89.0552 108.76 86.4541 110.492 84.5825C110.747 84.347 111.006 84.1159 111.269 83.8892C113.569 81.7282 115.23 79.4105 115.54 76.1653C115.347 72.0967 113.169 68.6655 110.312 65.9512C106.925 62.9841 103.457 61.8238 99.0162 62.0136C97.1167 62.1776 95.185 62.7702 93.5357 63.7295C93.3802 63.9657 93.2246 64.2019 93.0644 64.4452C92.4605 64.5049 92.4605 64.5049 91.8861 64.4452C91.6504 64.2066 91.6504 64.2066 91.5621 63.5357C91.6504 62.7752 91.6504 62.7752 92.1485 62.2897C94.6071 60.5955 97.781 60.1215 100.694 60.1406C100.987 60.1421 101.281 60.1436 101.583 60.1451C101.805 60.147 102.027 60.1489 102.255 60.1509C102.241 56.0732 102.222 51.9956 102.2 47.918C102.189 46.0241 102.18 44.1303 102.174 42.2364C102.168 40.583 102.16 38.9296 102.149 37.2763C102.144 36.4033 102.139 35.5302 102.138 34.6572C102.122 26.5338 101.587 18.1583 96.128 11.72C95.9609 11.5213 95.7938 11.3226 95.6217 11.1179C93.774 9.08531 91.5815 8.19765 88.9993 7.48523C88.8284 7.43779 88.6576 7.39035 88.4816 7.34148C85.2053 6.50457 81.8727 6.39363 78.5142 6.36411C78.095 6.35901 77.6758 6.35377 77.2565 6.34839C76.3807 6.33764 75.505 6.32837 74.6292 6.32025C73.5329 6.31 72.4367 6.29639 71.3404 6.28174C67.1196 6.22641 62.9035 6.2046 58.6838 6.33522ZM52.2952 32.9532C52.3582 33.6243 52.422 34.2953 52.4867 34.9662C52.507 35.1786 52.5273 35.3909 52.5482 35.6098C52.6658 36.8072 52.7985 38.0006 52.9552 39.1935C54.3097 49.5479 54.3097 49.5479 51.8671 53.0607C51.5697 53.4979 51.342 53.9462 51.1169 54.425C51.2187 54.525 51.3204 54.6249 51.4253 54.7279C51.8247 55.1416 52.1819 55.5745 52.5456 56.0205C55.3171 59.2105 59.6118 61.8144 63.8278 62.2384C64.3038 62.2633 64.7801 62.2832 65.2565 62.298C65.6078 62.3165 65.6078 62.3165 65.9662 62.3353C71.9947 62.5191 77.3053 60.3442 81.6745 56.1994C82.3038 55.5335 82.8048 54.8226 83.3204 54.0662C83.638 53.7093 84.021 53.1129 84.8163 52.8743C85.0205 52.8743 84.8416 53.4707 85.0519 53.4707C84.8186 53.2862 84.8186 53.2862 84.5806 53.098C84.3473 52.9061 84.114 52.7141 83.8736 52.5164C83.6517 52.3425 83.6517 52.3425 83.4253 52.1651C81.0848 50.2413 79.7846 47.4115 79.3961 44.4049C79.1925 40.3063 79.7352 36.0504 81.2814 32.2375C78.9924 32.2262 76.7034 32.2178 74.4144 32.2128C73.3505 32.2103 72.2867 32.207 71.2228 32.2015C64.8973 32.1695 58.5905 32.2554 52.2952 32.9532ZM80.7953 59.4351C75.441 63.5888 68.8236 64.7241 62.2104 63.8413C59.5742 63.3397 57.5547 62.2404 55.3164 60.7967C54.6684 60.3658 54.6684 60.3658 53.9448 60.1509C53.8877 60.296 53.8306 60.4412 53.7718 60.5907C53.4084 61.2175 53.1057 61.3702 52.4719 61.7016C50.736 62.7084 49.29 64.0408 47.8177 65.3995C47.6981 65.5094 47.5785 65.6193 47.4553 65.7326C43.4574 69.4557 40.3168 74.5142 40.0427 80.0999C40.0363 82.909 41.1133 85.3821 43.0161 87.4231C46.7224 90.9025 51.4443 91.8058 56.3014 92.3586C56.336 92.5447 56.3707 92.7307 56.4064 92.9224C56.622 93.96 56.8322 94.3868 57.7154 94.9829C58.2086 94.9625 58.2086 94.9625 58.658 94.7444C59.1421 94.0093 59.1824 93.8933 59.1441 93.0743C59.1151 92.4 59.1469 92.0667 59.365 91.4043C59.8473 91.2359 60.3208 91.1634 60.8231 91.0763C60.9641 91.0271 61.1051 90.9779 61.2503 90.9272C61.328 90.691 61.4058 90.4548 61.4859 90.2114C61.0193 90.054 60.5527 89.8965 60.072 89.7343C59.8069 88.601 59.8069 88.601 60.072 88.0642C60.3636 87.9019 60.3636 87.9019 60.6611 87.7362C61.2715 87.4061 61.2715 87.4061 61.4859 86.8714C61.5267 86.3808 61.5267 86.3808 61.2355 85.9767C60.5568 85.5334 60.1653 85.5715 59.365 85.6785C58.8852 85.9025 58.4336 86.1488 57.9805 86.424C57.2977 86.7087 56.7992 86.7063 56.0658 86.6328C52.5859 85.0589 50.6173 81.945 48.7603 78.7598C48.6048 78.5236 48.4492 78.2874 48.289 78.0441C48.3773 77.4029 48.3773 77.4029 48.5246 76.8512C49.0604 76.7794 49.0604 76.7794 49.7029 76.8512C50.154 77.3479 50.154 77.3479 50.5572 77.9993C51.0141 78.7245 51.4299 79.3712 52.0595 79.9527C52.0969 79.722 52.1343 79.4914 52.1728 79.2537C52.9268 74.8737 52.9268 74.8737 54.4677 73.5335C55.7883 72.6132 56.7912 72.2063 58.4224 72.3182C59.814 72.7783 60.5162 73.7132 61.2503 74.9426C61.4887 75.4958 61.7065 76.0458 61.8983 76.6173C62.4112 77.4398 63.1781 77.6964 64.0876 77.9277C64.6428 78.0384 65.1971 78.1274 65.7573 78.2081C65.961 78.2376 66.1647 78.2671 66.3746 78.2975C67.8804 78.4979 69.3793 78.6105 70.8976 78.6405C71.1923 78.6514 71.1923 78.6514 71.4929 78.6626C72.4836 78.6631 72.9026 78.6242 73.7062 77.9909C74.1652 77.3891 74.5987 76.7884 75.0069 76.1504C76.7115 73.673 76.7115 73.673 78.1414 73.3834C79.2454 73.3245 79.9346 73.4181 80.9132 73.9584C82.3896 75.5049 82.6004 77.6968 82.815 79.7365C82.8677 80.4578 82.8677 80.4578 83.4023 80.907C83.6189 80.6191 83.8347 80.3307 84.0504 80.0421C84.1804 79.8693 84.3104 79.6965 84.4444 79.5184C84.7603 79.0767 85.0235 78.6369 85.2876 78.1633C85.7589 77.5669 85.7589 77.5669 86.5248 77.4774C86.8456 77.5217 86.8456 77.5217 87.1729 77.5669C86.8272 80.4562 84.8145 82.666 82.6954 84.4856C81.1496 85.5852 79.9119 86.2837 77.9821 86.1556C77.4906 85.9847 77.0166 85.7856 76.5369 85.5834C75.9396 85.3886 75.5044 85.4746 74.9186 85.6785C74.6612 86.6164 74.7117 86.9824 75.1542 87.8257C75.1837 88.4818 75.1837 88.4818 75.1542 89.0185C74.8966 89.0825 74.639 89.1465 74.3736 89.2124C73.4226 89.5067 73.4226 89.5067 72.7976 90.2114C72.7976 90.4476 72.7976 90.6838 72.7976 90.9272C73.342 91.2421 73.8864 91.557 74.4472 91.8815C74.3705 92.3552 74.2938 92.8289 74.2171 93.3027C74.1655 93.8658 74.1655 93.8658 74.6829 94.5058C75.3612 94.198 75.8825 93.9203 76.3325 93.3129C76.4204 92.8374 76.4998 92.3602 76.5682 91.8815C76.7653 91.8925 76.9625 91.9036 77.1656 91.915C81.3835 92.0474 85.6177 90.5438 88.8639 87.7707C90.983 85.6897 91.8924 83.1432 91.9551 80.1935C92.0057 73.1192 89.2642 67.0097 84.5806 61.8209C84.2251 61.465 83.8671 61.1117 83.5054 60.7622C82.7882 60.0629 82.4242 59.4943 82.224 58.4808C81.7246 58.4808 81.154 59.1458 80.7953 59.4351ZM16.9462 64.2066C16.568 64.3981 16.568 64.3981 16.1821 64.5934C13.4671 66.082 10.4019 68.5347 9.40505 71.6025C9.05052 74.3668 9.72032 76.2724 11.3106 78.4914C12.147 79.5609 13.0397 80.5478 14.0004 81.5034C17.6305 85.1207 19.0343 88.371 19.4597 93.4265C19.5149 94.0159 19.5833 94.6041 19.6613 95.1909C20.011 97.9207 20.0414 100.625 20.0226 103.372C20.0214 103.568 20.0202 103.764 20.0189 103.966C20.0064 105.81 19.9882 107.654 19.9645 109.499C19.9517 110.517 19.9438 111.536 19.9387 112.555C19.9358 112.936 19.9312 113.317 19.9245 113.699C19.8656 117.1 19.9745 121.219 22.3664 123.851C22.5587 124.078 22.5587 124.078 22.7548 124.309C24.5531 126.167 27.1298 127.298 29.4362 128.384C29.5139 128.384 29.5917 128.384 29.6718 128.384C29.6849 123.557 29.6627 118.73 29.6163 113.903C29.6057 112.798 29.5964 111.693 29.5902 110.589C29.584 109.497 29.5744 108.405 29.5627 107.313C29.5588 106.905 29.5561 106.498 29.5546 106.09C29.5319 100.521 28.4416 95.9945 25.9408 91.0367C23.7704 86.6863 21.5977 81.4419 23.077 76.5343C23.9532 74.2551 25.0684 72.9989 27.109 71.7665C27.2776 71.6612 27.4462 71.5559 27.6199 71.4473C28.694 70.7837 29.4901 70.3758 30.7765 70.3947C31.0622 70.3979 31.0622 70.3979 31.3537 70.4012C31.4986 70.404 31.4078 70.3984 31.5571 70.4012C31.5571 70.7949 31.7928 71.1969 31.7928 71.6025C31.616 71.6692 31.4392 71.736 31.257 71.8047C28.6227 72.8493 25.9909 74.2697 24.7524 76.9854C23.2787 81.631 26.0387 86.5542 27.8633 90.6791C29.528 94.4513 30.9974 97.9721 31.2142 102.152C31.2241 102.339 31.2339 102.525 31.2441 102.717C31.3453 104.779 31.3679 106.841 31.3828 108.906C31.3879 109.606 31.3942 110.305 31.4009 111.005C31.4171 112.74 31.4313 114.475 31.4454 116.21C31.4575 117.685 31.4704 119.159 31.4845 120.634C31.4907 121.318 31.4956 122.001 31.5005 122.685C31.5197 124.914 31.5769 127.118 31.7928 129.338C32.0047 129.433 32.0047 129.433 32.221 129.531C32.8052 129.794 33.389 130.058 33.9726 130.322C34.1882 130.42 34.4039 130.517 34.626 130.617C35.7961 131.15 36.9457 131.702 38.0819 132.305C39.7733 133.168 41.1621 133.415 43.0538 133.403C43.3285 133.402 43.6031 133.4 43.8861 133.399C44.0947 133.397 44.3034 133.395 44.5184 133.394C44.662 123.647 43.7734 114.279 42.5093 104.622C42.24 102.549 41.9922 100.474 41.7524 98.3969C41.6352 97.388 41.5146 96.3796 41.3938 95.3712C41.2969 94.559 41.2021 93.7467 41.1125 92.9337C40.6882 88.4882 40.6882 88.4882 38.9906 84.4353C37.7214 82.1131 38.0856 79.1018 38.6269 76.6126C38.7903 76.1127 38.9618 75.6153 39.1424 75.1215C39.9273 72.887 39.4397 71.055 38.4962 68.9428C36.8186 65.592 34.2996 63.3762 30.8483 62.0194C26.1144 60.6287 21.2039 62.0327 16.9462 64.2066ZM55.2511 75.6275C54.1766 77.2858 54.1326 78.7552 54.1216 80.6982C54.1167 80.9144 54.1118 81.1306 54.1068 81.3534C54.1056 81.561 54.1044 81.7685 54.1031 81.9824C54.1009 82.171 54.0987 82.3595 54.0965 82.5538C54.2013 83.1781 54.3949 83.391 54.8875 83.7699C55.043 83.7699 55.1985 83.7699 55.3588 83.7699C55.3588 82.7464 55.3588 81.7229 55.3588 80.6684C56.2881 80.5082 57.1997 80.4011 58.1425 80.3702C58.319 80.364 58.4955 80.3579 58.6773 80.3515C58.8265 80.3774 58.9757 80.4032 59.1293 80.4298C59.6262 81.1843 59.6804 81.505 59.7479 82.3832C59.7656 82.5981 59.7832 82.8131 59.8013 83.0346C59.8129 83.1985 59.8244 83.3624 59.8363 83.5313C59.9785 83.5719 60.1207 83.6125 60.2671 83.6543C61.3668 83.9919 62.1717 84.2491 62.8999 85.2013C63.1898 85.7883 63.1669 86.1871 63.165 86.8415C63.1659 87.1506 63.1659 87.1506 63.1669 87.4659C63.1356 88.0642 63.1356 88.0642 63.0012 88.6029C62.9677 88.7401 62.9343 88.8772 62.8999 89.0185C62.9777 89.0973 63.0554 89.176 63.1356 89.2571C63.3141 90.4605 63.262 91.3729 62.5464 92.3735C62.352 92.6048 62.1576 92.8361 61.9573 93.0743C64.091 93.4565 66.1686 93.5976 68.3348 93.5962C68.5674 93.5964 68.7999 93.5965 69.0395 93.5967C70.16 93.5882 71.2249 93.548 72.3263 93.3129C72.3263 93.1555 72.3263 92.998 72.3263 92.8358C72.1319 92.6734 71.9375 92.511 71.7372 92.3437C71.0302 91.5028 70.9869 91.0944 71.0467 90.025C71.2026 89.2102 71.5645 88.6882 72.0906 88.0642C72.324 87.9068 72.5573 87.7493 72.7976 87.5871C72.8998 87.0473 72.8998 87.0473 72.9007 86.4389C72.9626 85.6482 73.025 85.2178 73.3868 84.5005C73.99 83.9967 74.3286 83.8832 75.0659 83.6804C75.8474 83.4774 75.8474 83.4774 76.339 82.878C76.4894 82.3645 76.4894 82.3645 76.5682 81.6227C77.8818 81.2261 78.7614 81.1011 80.1031 81.3841C80.3364 82.447 80.3364 82.447 80.5744 83.5313C80.8077 83.3738 81.041 83.2164 81.2814 83.0542C81.3146 82.4355 81.3048 81.8921 81.2519 81.2797C81.239 81.1085 81.226 80.9373 81.2127 80.7608C81.0576 78.9823 80.8254 76.814 79.6318 75.4197C79.0927 75.0998 79.0927 75.0998 78.4535 75.1811C77.4244 75.8239 76.9299 76.5105 76.3325 77.5669C75.565 78.9162 74.8518 79.8255 73.3131 80.2658C70.7096 80.7377 67.8674 80.4764 65.2565 80.1912C65.2565 80.5062 65.2565 80.8211 65.2565 81.1455C65.7231 81.3817 66.1897 81.6179 66.6705 81.8613C66.5927 82.2549 66.5149 82.6486 66.4348 83.0542C66.2501 83.0738 66.0654 83.0935 65.8751 83.1138C65.2217 83.2279 65.2217 83.2279 64.9472 83.7848C64.8937 83.9373 64.8403 84.0899 64.7852 84.247C64.3963 84.247 64.0075 84.247 63.6069 84.247C63.5291 83.8534 63.4513 83.4597 63.3712 83.0542C62.6713 82.9361 62.6713 82.9361 61.9573 82.8156C62.0014 82.1297 62.0014 82.1297 62.1929 81.3841C62.5807 81.213 62.9739 81.0541 63.3712 80.907C63.6919 80.3049 63.6919 80.3049 63.8425 79.7141C63.6861 79.6763 63.5296 79.6384 63.3685 79.5995C62.0448 79.2454 61.1317 78.9734 60.3076 77.8055C59.992 77.0766 59.7042 76.3456 59.4377 75.5968C59.1051 74.8912 58.8476 74.6157 58.1867 74.2268C56.9219 73.991 56.017 74.6318 55.2511 75.6275Z" fill="black"/>
<path d="M98.7196 135.541C99.294 136.033 99.294 136.033 99.6622 136.734C99.6811 137.805 99.5434 138.261 98.8668 139.09C98.2482 139.597 98.2482 139.597 97.5413 139.835C97.1074 140.41 97.1074 140.41 96.7017 141.103C96.5605 141.333 96.4192 141.563 96.2737 141.801C95.9658 142.332 95.6884 142.862 95.4203 143.414C95.6472 143.38 95.8741 143.347 96.1079 143.312C98.2798 143.005 100.411 142.854 102.604 142.861C103.095 142.862 103.586 142.856 104.077 142.85C107.46 142.835 111.311 143.157 113.893 145.614C119.158 151.487 120.198 163.931 119.971 171.524C119.812 174.379 119.161 177.172 118.294 179.886C118.24 180.055 118.186 180.223 118.131 180.397C117.589 181.971 116.778 183.651 115.451 184.687C114.888 184.835 114.888 184.835 114.214 184.896C112.952 185.054 111.774 185.319 110.548 185.66C107.099 186.609 103.633 187.043 100.09 187.425C98.8512 187.56 97.6136 187.708 96.3758 187.857C72.3892 190.726 72.3892 190.726 66.6698 187.789C62.4201 183.662 62.5864 175.076 62.4666 169.629C62.4124 166.849 62.3867 164.069 62.3737 161.289C62.3706 160.698 62.3663 160.107 62.361 159.516C62.3539 158.675 62.3516 157.834 62.3506 156.993C62.3477 156.742 62.3448 156.491 62.3418 156.232C62.3476 154.221 62.6533 152.292 63.7977 150.601C63.9061 150.434 64.0146 150.268 64.1263 150.096C68.1601 145.523 78.2942 145.438 83.873 144.845C83.873 143.977 83.6345 143.663 83.1807 142.937C82.7774 142.288 82.4635 141.757 82.2234 141.028C81.9609 141.003 81.6984 140.979 81.428 140.954C81.1461 140.899 80.8642 140.845 80.5737 140.789C80.0257 139.957 80.0236 139.62 80.1024 138.642C80.3869 137.845 80.555 137.701 81.2807 137.211C82.1183 137.103 82.5329 137.1 83.2396 137.584C83.6373 138.165 83.6373 138.165 83.7156 138.93C83.9032 140.009 84.2967 140.65 84.904 141.535C85.0925 141.819 85.2809 142.103 85.4692 142.387C85.6424 142.647 85.8155 142.907 85.9939 143.175C86.2326 143.571 86.4696 143.968 86.7009 144.368C86.9039 144.346 86.9039 144.346 87.1111 144.324C87.7304 144.259 88.3497 144.194 88.9691 144.13C89.1821 144.107 89.395 144.084 89.6144 144.061C90.6908 143.949 91.7443 143.862 92.8281 143.891C92.9196 143.582 92.9196 143.582 93.0131 143.267C93.3056 142.442 93.6677 141.75 94.1095 140.998C94.3204 140.636 94.3204 140.636 94.5357 140.266C94.949 139.597 94.949 139.597 95.3421 139.099C95.7032 138.574 95.7749 138.198 95.8622 137.569C96.0207 136.77 96.107 136.519 96.6575 135.884C97.4393 135.47 97.851 135.372 98.7196 135.541ZM94.242 145.8C94.0883 146.352 94.0883 146.352 93.9916 146.992C93.7929 148.163 93.7929 148.163 93.535 148.424C93.1462 148.424 92.7574 148.424 92.3567 148.424C92.279 147.637 92.2012 146.849 92.1211 146.038C91.6006 146.072 91.0802 146.107 90.5598 146.143C90.27 146.162 89.9802 146.181 89.6816 146.201C88.9125 146.269 88.1668 146.375 87.4079 146.515C87.4079 147.145 87.4079 147.775 87.4079 148.424C87.019 148.424 86.6302 148.424 86.2296 148.424C85.9185 147.873 85.6074 147.322 85.2869 146.754C77.0703 147.689 77.0703 147.689 69.0706 149.706C68.8775 149.77 68.6844 149.834 68.4854 149.9C67.0894 150.403 65.7786 151.049 65.0325 152.41C64.3541 154.266 64.451 156.184 64.4632 158.133C64.4634 158.523 64.4632 158.913 64.4629 159.304C64.4629 160.122 64.4653 160.939 64.4696 161.757C64.4749 162.788 64.4751 163.819 64.4736 164.85C63.9258 176.028 63.9258 176.028 67.9061 185.955C71.6697 188.29 78.4259 187.392 82.5962 187.131C82.766 187.121 82.9359 187.11 83.1109 187.1C86.9521 186.863 90.7777 186.492 94.6033 186.075C95.3458 185.994 96.0885 185.916 96.8315 185.841C101.544 185.365 106.063 184.659 110.652 183.452C111.784 183.172 112.926 182.955 114.072 182.74C114.774 182.532 115.009 182.419 115.394 181.805C115.501 181.511 115.607 181.218 115.717 180.915C115.777 180.757 115.838 180.598 115.9 180.435C116.08 179.948 116.239 179.458 116.394 178.962C116.49 178.672 116.585 178.382 116.684 178.084C119.447 169.017 117.657 156.838 113.33 148.424C113.003 148.469 113.003 148.469 112.67 148.514C110.887 148.75 109.108 148.95 107.317 149.098C102.91 149.466 98.6248 149.979 94.3023 150.928C92.1862 151.39 90.0961 151.718 87.9381 151.928C85.6979 152.149 83.6633 152.485 81.5164 153.195C81.1593 153.305 80.8021 153.415 80.4449 153.524C76.5869 154.725 76.5869 154.725 73.7396 157.49C73.1725 159.674 73.5178 162.085 73.7249 164.304C73.8648 165.869 73.9908 167.428 74.0448 168.998C74.1212 171.188 74.433 173.291 74.8112 175.447C75.2289 177.867 75.6327 180.342 75.1535 182.779C74.6869 182.7 74.2203 182.621 73.7396 182.54C73.7219 182.365 73.7042 182.191 73.6859 182.01C73.6016 181.183 73.5161 180.356 73.4303 179.528C73.3987 179.224 73.3672 178.92 73.3347 178.606C73.1419 176.785 72.915 174.973 72.6497 173.161C72.3223 170.893 72.2061 168.639 72.1397 166.35C72.1155 165.581 72.064 164.828 71.9703 164.065C71.8174 162.779 71.8021 161.498 71.7954 160.204C71.7905 159.966 71.7857 159.728 71.7807 159.482C71.7715 157.727 71.9656 156.303 73.2241 154.985C77.173 151.3 83.8495 150.516 88.9544 149.9C91.1735 149.627 93.3552 149.293 95.5381 148.797C98.9912 148.021 102.517 147.74 106.032 147.398C106.388 147.363 106.388 147.363 106.751 147.326C107.2 147.282 107.648 147.239 108.097 147.198C109.198 147.089 110.17 146.927 111.21 146.515C110.505 145.917 109.903 145.643 109.015 145.412C108.802 145.355 108.589 145.297 108.37 145.239C104.539 144.386 97.7702 144.014 94.242 145.8Z" fill="black"/>
<path d="M65.2544 35.5776C66.1475 36.5664 66.665 37.6781 67.1397 38.9176C67.1974 38.7592 67.2552 38.6009 67.3146 38.4377C67.9345 36.9554 68.5288 36.1523 70.0118 35.5244C71.8125 35.0206 73.5133 35.1391 75.1761 36.0081C76.6594 36.9536 77.417 38.3109 78.039 39.9167C78.5427 42.509 78.3059 45.1829 76.857 47.4383C75.923 48.5868 74.9909 49.4475 73.5026 49.6535C71.4703 49.7168 69.9555 49.21 68.3769 47.9388C67.6905 47.0701 67.3012 46.1515 66.9041 45.1206C66.7583 45.384 66.7583 45.384 66.6095 45.6527C65.6091 47.3641 64.7623 48.5719 62.8086 49.0851C61.0731 49.3545 59.5251 49.0629 58.0696 48.0543C56.6408 46.8518 55.7216 45.5463 55.3567 43.6891C55.1011 40.6347 55.8145 37.7718 57.7133 35.339C59.8246 33.4823 63.2244 33.7976 65.2544 35.5776ZM59.3629 36.7704C57.7211 38.8635 57.223 40.7899 57.4777 43.4506C57.8427 44.8327 58.3843 45.7667 59.5986 46.5521C59.6764 46.3946 59.4007 46.1178 59.4809 45.9556C59.408 45.7489 59.363 45.6527 59.363 45.4784C58.9631 44.1924 59.1901 43.1723 59.687 41.9147C60.0699 41.3034 60.1879 41.3033 60.6592 41.0648C61.7344 40.9741 62.2083 40.9628 63.1924 41.4227C63.9966 42.1628 64.3732 42.9219 64.7831 43.9277C64.8609 43.9277 64.9387 44.7394 65.0189 44.7394C65.5259 42.7503 65.3646 39.8449 64.5475 37.9633C63.7379 36.9243 62.7619 36.3422 61.4839 36.0547C60.4215 36.0547 60.1824 36.1186 59.3629 36.7704ZM69.9677 37.7247C68.7664 39.8355 68.34 42.3496 68.9311 44.7394C69.1939 45.375 69.3786 46.0749 70.3212 46.4327C70.33 46.2399 70.0856 45.8363 70.0413 45.5977C69.9944 45.3448 70.0253 45.2193 70.0413 44.9566C70.055 44.7047 70.0686 44.4528 70.0827 44.1933C70.2389 43.2312 70.4992 42.2695 71.2639 41.6612C72.3014 41.3695 73.5026 41.4227 74.1506 42.3621C74.9189 43.2479 75.1254 44.2274 75.3878 45.3592C76.1877 44.5494 76.3215 43.4943 76.3406 42.3844C76.2381 40.8205 75.926 39.3916 74.7453 38.3044C73.4332 37.3783 71.3769 36.6649 69.9677 37.7247Z" fill="black"/>
<path d="M85.2868 32.4761C86.9072 33.6151 88.0211 35.1233 89.0721 36.7854C89.2131 37.0044 89.3542 37.2235 89.4995 37.4492C94.0951 44.6719 94.0951 44.6719 93.4318 48.593C92.9814 50.1321 92.2878 51.1821 90.8985 52.0095C88.8062 52.6345 86.9893 52.3047 85.0511 51.3236C83.0173 50.0918 82.0517 47.8964 81.3091 45.7012C80.365 41.7509 81.1711 37.0583 82.6881 33.354C83.3254 32.2991 84.1894 32.2969 85.2868 32.4761Z" fill="#C2B7A2"/>
<path d="M49.0243 33.1772C49.2825 33.1793 49.5407 33.1815 49.8067 33.1837C50.1047 33.1878 50.1047 33.1878 50.4088 33.1921C50.573 34.2059 50.7364 35.2199 50.8993 36.234C50.9546 36.578 51.0101 36.9221 51.0659 37.2661C51.5165 40.0487 51.8675 42.7432 51.8816 45.5682C51.8865 45.8096 51.8914 46.051 51.8964 46.2998C51.9071 48.4255 51.6826 50.9102 50.1731 52.5167C48.3729 53.4743 46.223 54.1283 44.2098 53.5549C42.6837 52.9462 41.6938 52.0337 40.9511 50.5531C39.9913 47.45 40.9832 44.0789 42.4009 41.3037C43.3988 39.43 44.529 37.6367 45.6854 35.8602C46.0365 35.3065 46.3576 34.7594 46.6704 34.1846C47.335 33.0435 47.7797 33.1638 49.0243 33.1772Z" fill="#C2B7A2"/>
<path d="M61.7207 13.3904C61.954 13.8628 61.954 13.8628 62.192 14.3447C62.052 14.4692 61.912 14.5938 61.7677 14.7221C61.1181 15.3061 60.4758 15.8975 59.8354 16.4919C59.6261 16.6847 59.4168 16.8775 59.2012 17.0762C55.3354 20.7961 52.8848 25.5432 50.954 30.5157C50.6447 31.2836 50.6447 31.2836 50.409 31.5222C48.2884 31.9472 46.2026 32.0646 44.0462 31.9993C43.8243 27.6853 44.5168 23.9148 47.3749 20.5477C50.869 16.7765 56.4094 13.2483 61.7207 13.3904Z" fill="#216893"/>
<path d="M64.0773 15.2988C65.5383 18.9515 66.0046 22.1845 65.9933 26.1053C65.992 26.6366 65.9933 27.1679 65.9948 27.6992C65.9947 28.0365 65.9944 28.3739 65.9939 28.7113C65.9936 29.0162 65.9934 29.3211 65.9931 29.6353C65.9626 30.3291 65.9626 30.3291 65.7269 30.5677C65.0917 30.6031 64.4618 30.6238 63.826 30.6348C63.6313 30.6392 63.4366 30.6436 63.2359 30.6481C62.6081 30.6622 61.9803 30.6747 61.3525 30.687C58.484 30.7448 55.6277 30.8353 52.7656 31.0448C53.5877 25.2189 58.6971 18.9877 63.2056 15.5532C63.606 15.2988 63.606 15.2988 64.0773 15.2988Z" fill="#659E44"/>
<path d="M111.682 71.8415C111.918 72.0801 111.918 72.0801 111.947 72.7958C111.918 73.5115 111.918 73.5115 111.682 73.7501C111.277 73.7966 110.871 73.8418 110.464 73.8799C107.852 74.1338 105.637 74.7786 103.67 76.613C103.514 76.613 103.869 76.5768 103.709 76.5768C103.613 76.783 103.114 76.8174 103.004 77.0296C102.727 77.5685 102.411 78.0409 102.064 78.5365C97.0245 86.1961 98.5274 97.0012 99.316 105.672C99.4378 107.013 99.5534 108.354 99.6683 109.695C99.6987 110.049 99.6987 110.049 99.7297 110.411C99.7707 110.89 99.8117 111.369 99.8527 111.847C99.9136 112.558 99.9747 113.268 100.036 113.978C100.253 116.493 100.469 119.008 100.665 121.525C100.684 121.759 100.703 121.992 100.722 122.233C101.018 126.119 101.018 126.119 100.606 126.953C100.135 126.963 99.6636 126.962 99.1923 126.953C98.6359 126.389 98.7336 125.128 98.6474 124.373C98.6172 124.11 98.5869 123.846 98.5558 123.575C98.1628 119.955 97.9204 116.321 97.6582 112.69C97.4804 110.249 97.2937 107.818 96.9891 105.389C96.5597 101.94 96.5169 98.5011 96.497 95.0281C96.4941 94.7726 96.4913 94.5172 96.4883 94.254C96.4235 87.4486 97.1103 80.1562 101.946 74.9877C104.336 72.7027 108.359 70.8777 111.682 71.8415Z" fill="black"/>
<path d="M65.7266 14.583C69.5398 15.3498 72.9763 19.4165 75.0591 22.5054C76.506 24.7504 77.9809 27.6133 77.9809 30.329C74.5591 30.329 71.1373 30.329 67.6118 30.329C67.5382 26.2732 67.5382 26.2732 67.5204 25.0198C67.4557 21.7464 67.0205 18.6954 65.9079 15.5988C65.7266 15.0602 65.7266 15.0602 65.7266 14.583Z" fill="#FCEE00"/>
<path d="M68.5547 13.8672C71.5735 13.7311 74.3906 15.4636 77.009 16.8195C77.2553 16.9457 77.5016 17.0718 77.7554 17.2018C81.7227 19.3031 84.3872 22.0487 85.9484 26.3169C86.3596 27.6977 86.2714 29.1423 86.2292 30.5675C81.7941 30.6115 81.7941 30.6115 79.6307 30.3289C79.5818 30.0976 79.5329 29.8664 79.4825 29.6281C78.4109 24.81 76.3853 21.2896 73.0322 17.6844C72.8998 17.5349 72.7673 17.3855 72.6309 17.2315C71.5945 16.1059 70.3948 15.3111 69.1153 14.4878C68.9303 14.3617 68.7453 14.2357 68.5547 14.1057C68.5547 14.027 68.5547 13.9483 68.5547 13.8672Z" fill="#D81529"/>
<path d="M11.127 0C12.1165 0.419318 12.4347 1.25682 12.9386 2.17701C13.1719 2.53129 13.1719 2.53129 13.41 2.89273C13.9485 2.63023 14.4232 2.36482 14.9123 2.01298C15.5309 1.69985 15.5309 1.69985 16.2821 1.69985C16.9449 1.93843 16.9449 1.93843 17.2339 2.46777C17.4434 3.23027 17.39 3.67476 17.2247 4.44348C17.1568 4.77193 17.1568 4.77193 17.0875 5.10702C16.9449 5.75564 16.9449 5.75564 16.7377 6.35954C16.6413 7.00111 16.6413 7.00111 17.1934 7.54496C17.4127 7.74179 17.6321 7.93861 17.858 8.1414C19.0159 9.18627 19.0159 9.18627 19.2803 9.9708C19.3015 10.5272 19.3015 10.5272 18.9627 11.0789C17.948 11.7553 16.9092 11.555 15.7666 11.3622C15.5333 11.3031 15.5333 11.3031 15.2952 11.2429C15.2551 11.3868 15.215 11.5307 15.1737 11.679C14.5603 13.727 14.5603 13.727 13.6456 14.3444C13.1596 14.3444 13.1596 14.3444 12.703 14.1058C12.004 13.341 11.8584 12.6798 11.7161 11.6604C11.6788 11.4033 11.6414 11.1462 11.6029 10.8813C11.5771 10.6857 11.5513 10.4901 11.5247 10.2886C10.3256 9.96859 9.44952 9.77463 8.22543 10.05C7.56264 9.82635 7.56264 9.82635 7.04713 9.57286C7.04713 9.25794 7.04713 8.94302 7.04713 8.61856C6.81383 8.53983 6.58053 8.4611 6.34015 8.37998C6.19286 7.81336 6.19286 7.81336 6.10449 7.1871C6.26003 7.02964 6.41556 6.87218 6.57581 6.70995C6.98409 6.74685 6.98409 6.74685 7.40062 6.7845C8.81 6.83958 9.76921 5.89256 10.8177 5.03992C10.7183 4.20169 10.6056 3.43862 10.3316 2.63925C10.0922 1.87984 10.0396 1.29915 10.1107 0.506974C10.582 0.029822 10.582 0.029822 11.127 0ZM13.41 6.70995C13.4877 7.33979 13.5655 7.96963 13.6456 8.61856C13.8012 8.61856 13.9567 8.61856 14.1169 8.61856C14.1947 8.22491 14.2725 7.83126 14.3526 7.42568C14.0415 7.18949 13.7305 6.9533 13.41 6.70995ZM11.289 7.1871C11.0557 7.54139 11.0557 7.54139 10.8177 7.90283C11.051 7.90283 11.2843 7.90283 11.5247 7.90283C11.4469 7.66664 11.3691 7.43045 11.289 7.1871Z" fill="black"/>
<path d="M2.3345 15.7756C3.3159 15.7977 3.68451 15.9565 4.42599 16.6256C4.59124 16.8175 4.7565 17.0094 4.92676 17.2071C5.76584 16.9221 5.76584 16.9221 6.4291 16.3572C7.02892 15.82 7.68652 15.8497 8.46166 15.7756C9.00106 16.5947 8.99043 16.9012 8.97717 17.8632C8.97413 18.1178 8.9711 18.3725 8.96797 18.6348C8.93982 19.2137 8.88046 19.742 8.77097 20.3086C8.67988 21.1938 8.88382 21.3041 9.4043 21.9786C9.44849 22.8733 9.44849 22.8733 9.4043 23.6486C8.6099 24.0061 8.17783 24.1258 7.28336 24.1258C7.26028 24.2697 7.23719 24.4136 7.2134 24.5619C7.04671 25.4639 6.90522 26.1364 6.38491 26.8992C5.8694 27.2273 5.8694 27.2273 5.26552 27.2571C4.42839 26.866 4.31872 26.4195 3.98412 25.5572C3.7356 24.8453 3.50014 24.1306 3.27714 23.4101C2.92719 23.5282 2.92719 23.5282 2.57016 23.6486C2.24156 23.6645 1.91227 23.669 1.58334 23.6636C1.28685 23.6586 0.990355 23.6537 0.684881 23.6486C-0.0345252 22.1338 -0.0345252 22.1338 0.0220871 21.4269C0.213561 21.0243 0.213561 21.0243 0.684881 20.5472C1.07752 20.537 1.47053 20.5375 1.86318 20.5472C2.09649 20.4684 2.32979 20.3897 2.57016 20.3086C2.51913 20.1158 2.46809 19.9229 2.41551 19.7243C2.34989 19.4693 2.28428 19.2144 2.21667 18.9517C2.15106 18.6998 2.08544 18.4479 2.01783 18.1884C1.87579 17.5062 1.79608 16.9454 1.86318 16.2528C2.01872 16.0953 2.17425 15.9379 2.3345 15.7756ZM4.92676 20.5472C5.00453 20.9408 5.0823 21.3345 5.16242 21.74C5.47349 21.6613 5.78457 21.5826 6.10506 21.5015C5.71622 21.1865 5.32738 20.8716 4.92676 20.5472Z" fill="black"/>
<path d="M74.9158 49.8922C75.387 49.8821 75.8585 49.8825 76.3298 49.8922C76.5654 50.1308 76.5654 50.1308 76.5802 50.8614C76.5753 51.0927 76.5704 51.324 76.5654 51.5623C76.7746 51.5632 76.7746 51.5632 76.988 51.5641C78.0587 51.6172 78.5551 51.6873 79.3933 52.4122C79.9809 53.4345 80.1003 53.9591 80.1003 55.1409C79.7373 56.1467 79.2584 56.8368 78.4507 57.5267C77.3445 57.9 76.4457 57.9076 75.3577 57.467C74.6895 57.0553 74.0965 56.6087 73.5018 56.0952C73.3876 56.1758 73.2734 56.2563 73.1557 56.3394C71.3647 57.5458 69.6213 58.0774 67.452 57.6376C66.0634 57.2899 64.8725 56.9021 63.8398 55.8566C63.7956 55.1558 63.7956 55.1558 63.8398 54.4252C63.9953 54.2677 64.1509 54.1102 64.3111 53.948C65.3769 54.008 66.0465 54.5375 66.9034 55.1409C68.3899 55.6425 69.7819 55.5518 71.2042 54.8874C73.2565 53.7201 74.0462 52.0463 74.9158 49.8922Z" fill="black"/>
<path d="M42.3972 31.5221C42.5138 32.2307 42.5138 32.2307 42.6328 32.9535C41.1077 33.7596 39.5795 34.4451 37.9638 35.0411C36.1927 35.7074 34.4517 36.4225 32.7204 37.1883C28.2546 39.1565 28.2546 39.1565 26.8436 39.1565C26.6253 38.0755 26.492 37.2815 26.932 36.2489C30.2833 32.6137 37.6689 31.4396 42.3972 31.5221Z" fill="#575757"/>
<path d="M68.5561 84.9623C69.3064 85.3896 69.623 85.7269 70.0584 86.4683C70.3096 87.5619 70.1252 88.443 69.6607 89.4505C69.2157 90.0345 69.0163 90.2401 68.3204 90.4496C67.1891 90.5604 66.661 90.5639 65.6398 90.047C64.9693 89.449 64.7277 89.1825 64.5499 88.3024C64.5352 87.2613 64.6705 86.5704 65.2421 85.693C66.1972 84.726 67.2669 84.8143 68.5561 84.9623Z" fill="#D91528"/>
<path d="M58.0984 80.1171C58.2764 80.1082 58.4545 80.0993 58.6379 80.0901C59.1294 80.1917 59.1294 80.1917 59.5446 80.5952C59.8922 81.2512 59.9094 81.6593 59.8806 82.3985C59.8742 82.6113 59.8679 82.8241 59.8613 83.0434C59.8531 83.2045 59.8449 83.3657 59.8364 83.5317C59.3925 83.7855 58.945 84.0328 58.4961 84.2773C58.2473 84.4157 57.9985 84.5541 57.7422 84.6967C57.0085 84.9632 57.0085 84.9632 56.3558 84.7824C56.1824 84.6846 56.0089 84.5868 55.8302 84.486C55.6747 84.4073 55.5191 84.3286 55.3589 84.2475C55.1296 83.5705 55.0786 82.917 55.0643 82.2047C55.0582 82.0223 55.0522 81.8399 55.0459 81.652C55.1427 81.0182 55.3378 80.8203 55.8302 80.4302C56.5708 80.1877 57.3244 80.1553 58.0984 80.1171Z" fill="#216793"/>
<path d="M69.5849 50.1606C70.1133 50.7778 70.1709 51.2306 70.2035 52.0394C70.0166 52.6583 69.8462 52.9082 69.3345 53.2919C68.3181 53.6256 67.4529 53.5787 66.4476 53.2322C65.8922 52.687 65.8752 52.5529 65.8438 51.8008C65.8832 51.1789 65.9215 50.9064 66.2709 50.3842C67.2908 49.7341 68.4962 49.6385 69.5849 50.1606Z" fill="black"/>
<path d="M70.6622 81.5782C70.9244 81.5739 70.9244 81.5739 71.192 81.5694C71.649 81.5681 72.106 81.5939 72.5622 81.623C73.0335 82.1001 73.0335 82.1001 73.0777 82.7115C73.0335 83.293 73.0335 83.293 72.7979 83.5316C72.1323 83.5618 71.4751 83.5758 70.8095 83.5763C70.6234 83.5792 70.4373 83.5822 70.2456 83.5852C69.7606 83.5864 69.2758 83.5607 68.7916 83.5316C68.6361 83.3741 68.4806 83.2167 68.3203 83.0544C68.5228 81.3737 69.1639 81.5795 70.6622 81.5782Z" fill="black"/>
<path d="M77.7455 53.4706C78.2168 54.1864 78.2168 54.1864 78.1579 54.7977C77.9812 55.3793 77.9812 55.3793 77.5098 55.8564C76.7013 55.9891 76.378 55.8847 75.6687 55.4538C75.1532 54.9021 75.1532 54.9021 75.0796 54.246C75.1039 54.0689 75.1282 53.8917 75.1532 53.7092C76.0325 53.4998 76.8424 53.3894 77.7455 53.4706Z" fill="#EAC3B5"/>
<path d="M64.7842 58.2422C65.2555 58.4808 65.2555 58.4808 65.2555 58.4808L64.7842 58.2422Z" fill="black"/>
</svg>
