<svg width="240" height="380" viewBox="0 0 240 380" fill="none" xmlns="http://www.w3.org/2000/svg">
<path d="M134.267 8.52378C136.934 8.52923 139.601 8.52607 142.268 8.52037C144.365 8.51688 146.461 8.51804 148.557 8.5205C149.539 8.52112 150.522 8.5204 151.504 8.51813C156.836 8.50851 162.126 8.65862 167.443 9.07922C168.164 9.13577 168.164 9.13577 168.899 9.19347C179.034 10.069 189.177 12.9502 196.025 21.0541C207.801 35.6919 208.318 54.4631 208.423 72.3812C208.433 74.0872 208.446 75.7932 208.459 77.4992C208.482 80.7181 208.503 83.9371 208.524 87.1561C208.547 90.8257 208.573 94.4953 208.599 98.1649C208.652 105.703 208.703 113.241 208.751 120.779C209.206 120.941 209.662 121.102 210.131 121.269C210.733 121.484 211.336 121.7 211.938 121.915C212.237 122.022 212.537 122.128 212.846 122.237C220.887 125.123 227.558 131.247 231.397 138.948C234.349 145.242 236.258 152.069 233.908 158.951C233.559 159.758 233.186 160.554 232.788 161.337C232.578 161.752 232.367 162.168 232.15 162.597C230.66 165.298 228.908 167.371 226.661 169.448C223.85 172.228 222.021 174.166 221.683 178.216C221.643 178.662 221.604 179.109 221.563 179.569C221.232 186.486 221.7 193.409 222.017 200.319C222.441 209.637 222.603 218.883 222.036 228.197C222.005 228.72 222.005 228.72 221.974 229.252C220.783 248.925 220.783 248.925 213.993 255.199C207.26 260.611 199.454 261.309 191.213 262.202C182.586 263.139 173.985 264.202 165.394 265.437C141.804 268.824 118.079 270.573 94.2548 271.051C92.9235 271.079 91.5929 271.117 90.262 271.158C82.0578 271.354 75.4675 269.279 68.2042 265.521C65.3578 264.066 62.4498 262.78 59.5194 261.509C50.457 257.555 42.5978 254.115 38.2511 244.57C36.0338 238.665 35.5655 232.522 35.6704 226.265C35.689 225.138 35.6978 224.011 35.7045 222.884C35.7231 220.081 35.7569 217.279 35.7913 214.476C35.8942 205.932 35.9754 197.439 35.158 188.926C35.1026 188.34 35.0471 187.754 34.9899 187.15C34.0355 178.257 31.4579 173.053 25.4076 166.585C19.5369 160.102 14.3596 154.026 14.4715 144.89C14.7969 139.163 18.4092 134.643 22.4011 130.784C29.7746 124.606 40.6606 119.347 50.3876 119.347C49.8705 116.062 49.3311 112.781 48.7741 109.503C48.6039 108.497 48.4364 107.49 48.2728 106.482C46.6881 96.8366 43.7215 87.6404 40.7997 78.3447C38.4341 70.8108 36.2257 63.3578 35.7766 55.409C35.7517 55.0689 35.7268 54.7287 35.7012 54.3783C35.3388 45.0804 37.9158 35.352 43.7891 28.1816C55.19 15.8881 77.2109 12.7545 92.8653 10.4673C93.3609 10.3933 93.8564 10.3193 94.367 10.2431C96.2003 9.99277 98.0356 9.78726 99.8762 9.6025C100.292 9.56022 100.707 9.51795 101.135 9.47439C112.158 8.41018 123.205 8.50098 134.267 8.52378ZM117.367 12.6704C116.882 12.6854 116.882 12.6854 116.387 12.7007C101.841 13.1683 87.5558 14.8318 73.4822 18.6684C72.7491 18.867 72.7491 18.867 72.0011 19.0696C59.6788 22.3986 59.6788 22.3986 48.9736 29.1657C48.6607 29.4351 48.3478 29.7045 48.0254 29.9821C42.1661 35.4636 40.2966 43.4864 39.897 51.2787C39.7747 55.1181 39.9814 58.8111 40.7402 62.5775C40.8212 62.982 40.9022 63.3866 40.9856 63.8034C42.034 68.7655 43.5806 73.5748 45.1078 78.4028C47.9336 87.3611 50.6168 96.2448 52.2728 105.51C52.3824 106.108 52.492 106.706 52.6049 107.322C53.3086 111.167 53.9828 115.016 54.6294 118.87C55.1082 118.946 55.587 119.021 56.0802 119.099C62.6413 120.198 68.7768 122.114 73.5559 127.084C74.3362 128.047 72.6866 127.331 73.718 127.22C73.8462 127.5 75.6239 128.494 75.756 128.782C76.3006 129.826 76.9052 130.657 77.6357 131.574C79.2527 133.712 80.3687 136.005 81.4947 138.433C81.8072 139.07 82.1208 139.707 82.4373 140.342C82.7065 140.001 82.9756 139.659 83.2529 139.307C91.2958 129.147 91.2958 129.147 95.6343 125.55C95.8846 125.341 96.1349 125.132 96.3928 124.917C97.2454 124.208 98.1033 123.506 98.963 122.807C99.2352 122.581 99.5074 122.356 99.7879 122.124C101.615 120.657 103.353 119.713 105.532 118.87C105.532 118.555 105.532 118.24 105.532 117.916C104.859 117.262 104.859 117.262 104 116.604C101.492 114.486 100.336 112.611 99.8762 109.327C99.3919 109.436 98.9077 109.545 98.4088 109.657C93.0138 110.815 88.4766 111.42 83.4536 108.58C80.3398 106.484 78.9693 103.38 78.1954 99.7841C76.7523 87.9835 82.6681 78.5594 89.0358 69.2464C88.7247 69.0889 88.4137 68.9315 88.0932 68.7692C86.7776 69.2221 85.5094 69.7096 84.225 70.2417C83.6388 70.4797 83.6388 70.4797 83.0408 70.7226C81.7679 71.2408 80.4971 71.7644 79.2265 72.2882C78.3601 72.6423 77.4936 72.9963 76.6271 73.3499C71.7787 75.3338 66.9413 77.342 62.1543 79.4742C58.8991 80.9224 55.8941 82.2308 52.2728 81.6523C50.8437 80.6034 50.474 80.0063 49.9162 78.3123C49.5269 75.0946 50.072 72.4578 51.8015 69.7236C57.6757 62.248 70.717 61.4419 79.3326 60.0192C80.1978 59.8749 80.1978 59.8749 81.0804 59.7276C81.6026 59.6423 82.1248 59.557 82.6627 59.4691C83.8173 59.3486 83.8173 59.3486 84.3226 58.7491C84.4619 57.9607 84.5987 57.1717 84.7222 56.3807C86.2809 46.6282 90.0752 38.9787 98.12 33.067C100.78 31.2316 103.613 29.6966 106.475 28.2114C106.937 27.9703 107.399 27.7292 107.876 27.4808C112.206 25.3629 116.766 24.0763 121.527 23.4399C123.326 23.1974 124.654 22.9494 126.182 21.9488C128.199 20.7474 129.138 20.7563 131.455 21.0541C132.097 21.5099 132.097 21.5099 132.753 21.9749C134.48 23.0902 136.017 23.405 137.994 23.7381C148.001 25.7241 158.737 30.8037 166.332 37.7544C166.705 38.0927 167.077 38.431 167.461 38.7796C172.343 43.4511 175.022 49.117 175.759 55.8862C175.79 57.1085 175.799 58.3316 175.788 59.5543C175.784 60.1663 175.78 60.7783 175.775 61.4088C175.767 62.218 175.767 62.218 175.759 63.0434C175.759 65.2654 175.987 65.4037 177.449 66.9128C179.506 69.1562 181.091 71.5231 182.652 74.1372C183.049 74.7953 183.049 74.7953 183.453 75.4667C187.792 82.7605 191.695 90.7567 189.825 99.4784C188.834 102.618 187.247 104.813 184.419 106.464C179.839 108.807 174.956 108.006 170.103 106.941C170.142 107.355 170.534 106.515 170.574 106.941C170.354 109.957 167.737 113.314 165.861 115.53C166.36 115.796 166.36 115.796 166.87 116.067C168.462 117.124 169.666 118.4 170.928 119.824C171.175 120.103 171.423 120.382 171.679 120.669C172.18 121.236 172.68 121.804 173.178 122.374C173.776 123.054 174.388 123.722 175.002 124.387C180.544 130.695 183.974 138.945 186.128 147.022C186.287 147.613 186.446 148.203 186.61 148.811C188.469 156.821 188.447 165.696 184.502 173.058C179.724 180.649 171.511 184.832 163.055 186.836C160.705 187.272 158.348 187.456 155.963 187.58C155.832 187.951 155.701 188.323 155.566 188.706C154.774 190.536 153.463 191.47 151.721 192.351C148.293 192.579 148.293 192.579 146.871 191.633C145.42 190.823 144.638 190.764 142.998 190.814C142.498 190.823 141.999 190.833 141.483 190.843C140.954 190.858 140.425 190.874 139.879 190.89C135.248 190.966 130.78 190.769 126.189 190.174C124.622 189.993 123.131 189.926 121.557 189.966C121.396 190.527 121.396 190.527 121.233 191.099C120.614 192.351 120.614 192.351 119.672 192.978C117.279 193.533 114.854 193.871 112.539 192.871C110.527 191.546 109.975 190.419 109.303 188.057C107.909 187.792 106.515 187.535 105.12 187.282C104.524 187.167 104.524 187.167 103.917 187.051C103.348 186.949 103.348 186.949 102.767 186.846C102.416 186.781 102.066 186.716 101.705 186.649C101.412 186.641 101.12 186.633 100.819 186.626C98.4995 188.974 99.2944 194.058 99.287 197.153C99.2891 203.511 99.4599 209.385 103.175 214.778C103.356 215.053 103.538 215.329 103.724 215.613C107.67 220.906 114.261 223.84 119.925 226.76C126.47 230.143 132.565 233.962 138.437 238.438C142.013 241.139 145.501 243.201 150.074 243.118C153.935 242.5 156.667 239.637 158.907 236.59C161.978 231.779 163.588 226.717 163.033 220.98C162.261 218.717 161.233 217.523 159.262 216.209C156.339 214.984 153.28 215.694 150.482 216.85C148.817 217.317 147.793 217.471 146.066 217.163C144.774 215.935 143.856 214.481 142.884 212.988C142.307 212.152 141.727 211.317 141.144 210.483C140.86 210.074 140.577 209.665 140.284 209.244C137.461 205.284 134.393 202.091 130.05 199.84C129.098 199.032 129.098 199.032 128.956 197.507C129.003 197.065 129.05 196.624 129.098 196.169C131.522 195.956 132.613 196.429 134.518 197.928C134.941 198.255 135.364 198.581 135.8 198.918C136.232 199.27 136.665 199.623 137.11 199.986C137.583 200.361 138.055 200.736 138.541 201.123C139.977 202.406 141.131 203.774 142.266 205.324C142.466 205.592 142.666 205.861 142.872 206.137C144.623 208.499 146.308 210.906 147.951 213.346C148.685 213.183 148.685 213.183 149.435 213.016C158.152 211.16 158.152 211.16 162.238 213.316C164.484 214.968 165.676 216.817 166.332 219.549C166.452 221.598 166.409 223.641 166.287 225.689C166.158 228.449 166.407 229.843 168.218 231.955C169.902 232.808 171.637 232.371 173.402 231.955C180.021 229.387 186.703 223.675 189.604 217.133C190.122 214.667 190.196 212.714 189.309 210.334C188.246 208.631 188.246 208.631 186.599 207.62C183.558 207.463 180.773 208.577 177.974 209.652C176.605 210.033 176.116 210.033 174.816 209.529C174.209 208.827 174.209 208.827 173.684 207.909C173.485 207.564 173.287 207.219 173.082 206.864C171.729 204.36 170.444 201.822 169.168 199.277C167.82 196.625 166.523 194.329 164.3 192.322C164.037 192.017 163.775 191.711 163.504 191.397C163.622 190.324 163.622 190.324 163.976 189.489C165.667 189.489 166.756 189.522 168.072 190.648C170.409 193.348 172.001 196.247 173.579 199.449C173.83 199.947 174.081 200.445 174.339 200.959C174.975 202.222 175.604 203.489 176.23 204.757C176.386 205.072 176.541 205.387 176.701 205.712C178.013 205.47 179.212 205.179 180.472 204.728C183.627 203.808 187.211 203.68 190.193 205.085C192.348 207.21 193.116 209.109 193.293 212.101C193.379 219.24 191.492 222.582 186.536 227.756C181.706 232.348 175.971 235.753 169.302 236.32C167.561 236.206 166.716 235.448 165.39 234.341C165.079 234.341 164.768 234.341 164.447 234.341C164.287 234.675 164.126 235.01 163.961 235.355C161.439 240.352 158.145 244.238 152.752 246.085C151.265 246.351 149.814 246.37 148.304 246.389C147.709 246.401 147.113 246.413 146.5 246.426C142.605 246.096 140.011 244.361 136.963 242.005C130.224 236.961 123.268 232.753 115.807 228.893C107.92 224.794 100.269 219.881 96.9359 211.195C96.0208 208.164 96.0432 205.2 96.0596 202.062C96.0602 201.579 96.0609 201.096 96.0616 200.598C96.0642 199.062 96.0701 197.526 96.0761 195.99C96.0785 194.945 96.0807 193.901 96.0826 192.857C96.0878 190.302 96.0956 187.748 96.1056 185.194C95.5995 184.941 95.0934 184.687 94.572 184.426C93.895 184.086 93.2181 183.745 92.5412 183.405C92.2092 183.239 91.8772 183.073 91.5351 182.902C89.4008 181.826 87.3244 180.685 85.2652 179.468C85.5151 184.211 85.9695 188.886 86.6018 193.591C86.7524 194.712 86.9002 195.833 87.0472 196.954C87.257 198.552 87.4677 200.151 87.6791 201.749C90.5454 223.459 92.6178 244.879 93.2777 266.787C98.4435 266.838 103.58 266.688 108.739 266.437C109.129 266.418 109.519 266.399 109.921 266.38C111.993 266.281 114.065 266.179 116.136 266.076C117.81 265.993 119.484 265.914 121.159 265.838C132.054 265.341 142.804 264.496 153.607 262.97C154.18 262.89 154.753 262.81 155.343 262.728C158.644 262.265 161.943 261.788 165.24 261.303C174.395 259.961 183.539 258.695 192.758 257.896C199.698 257.267 207.799 256.06 212.744 250.594C219.795 240.955 218.263 225.781 218.266 214.479C218.266 213.988 218.267 213.496 218.267 212.989C218.267 207.235 218.149 201.5 217.881 195.752C217.697 191.804 217.588 187.865 217.559 183.912C217.549 183.44 217.549 183.44 217.538 182.958C217.434 178.11 217.52 172.908 220.983 169.165C221.493 168.694 222.012 168.232 222.537 167.778C227.137 163.456 230.459 158.821 231.08 152.33C230.693 144.193 226.338 137.331 220.622 131.902C213.849 125.968 206.914 123.648 198.031 124.027C194.232 124.355 190.369 125.54 187.07 127.459C186.759 127.931 186.448 128.404 186.128 128.89C184.92 129.01 184.92 129.01 183.771 128.89C183.3 128.413 183.3 128.413 183.123 127.071C183.3 125.55 183.3 125.55 184.296 124.579C189.213 121.191 195.561 120.243 201.387 120.281C201.974 120.284 202.561 120.287 203.165 120.29C203.609 120.294 204.052 120.298 204.509 120.302C204.48 112.146 204.444 103.991 204.398 95.8359C204.377 92.0482 204.358 88.2604 204.346 84.4726C204.335 81.1659 204.319 77.8592 204.298 74.5525C204.287 72.8064 204.278 71.0604 204.275 69.3143C204.243 53.0675 203.173 36.3165 192.255 23.4399C191.921 23.0425 191.587 22.6452 191.242 22.2358C187.547 18.1706 183.162 16.3953 177.997 14.9705C177.656 14.8756 177.314 14.7807 176.962 14.6829C170.41 13.0091 163.744 12.7873 157.027 12.7282C156.189 12.718 155.35 12.7075 154.512 12.6968C152.76 12.6753 151.009 12.6567 149.257 12.6405C147.065 12.62 144.872 12.5928 142.68 12.5635C134.238 12.4528 125.806 12.4092 117.367 12.6704ZM104.589 65.9063C104.715 67.2485 104.843 68.5905 104.972 69.9323C105.013 70.3571 105.054 70.7818 105.095 71.2194C105.331 73.6143 105.596 76.0011 105.909 78.3868C108.618 99.0957 108.618 99.0957 103.733 106.121C103.138 106.996 102.683 107.892 102.233 108.85C102.436 109.05 102.64 109.25 102.85 109.456C103.648 110.283 104.363 111.149 105.09 112.041C110.633 118.421 119.223 123.629 127.655 124.477C128.607 124.527 129.559 124.566 130.512 124.596C131.215 124.633 131.215 124.633 131.931 124.67C143.988 125.038 154.61 120.688 163.348 112.399C164.607 111.067 165.609 109.645 166.64 108.132C167.275 107.418 168.041 106.226 169.632 105.749C170.04 105.749 169.682 106.941 170.103 106.941C169.636 106.572 169.636 106.572 169.16 106.196C168.694 105.812 168.227 105.428 167.746 105.033C167.302 104.685 167.302 104.685 166.85 104.33C162.169 100.482 159.568 94.8229 158.791 88.8096C158.384 80.6125 159.469 72.1007 162.562 64.4749C157.984 64.4524 153.406 64.4356 148.828 64.4254C146.7 64.4206 144.572 64.414 142.445 64.4029C129.794 64.3389 117.18 64.5108 104.589 65.9063ZM161.59 118.87C150.881 127.177 137.646 129.448 124.42 127.683C119.147 126.679 115.108 124.481 110.632 121.593C109.336 120.731 109.336 120.731 107.889 120.302C107.774 120.592 107.66 120.882 107.542 121.181C106.816 122.435 106.21 122.74 104.943 123.403C101.471 125.417 98.5789 128.081 95.6343 130.799C95.3951 131.019 95.156 131.239 94.9096 131.465C86.9138 138.911 80.6326 149.028 80.0844 160.2C80.0716 165.818 82.2255 170.764 86.0311 174.846C93.4438 181.805 102.888 183.611 112.602 184.717C112.671 185.089 112.74 185.461 112.812 185.845C113.243 187.92 113.663 188.773 115.43 189.966C116.416 189.925 116.416 189.925 117.315 189.489C118.283 188.018 118.364 187.786 118.287 186.148C118.229 184.8 118.293 184.133 118.729 182.808C119.694 182.472 120.641 182.327 121.645 182.152C121.927 182.054 122.209 181.955 122.5 181.854C122.655 181.382 122.811 180.909 122.971 180.423C122.038 180.108 121.104 179.793 120.143 179.468C119.613 177.202 119.613 177.202 120.143 176.128C120.726 175.804 120.726 175.804 121.321 175.472C122.542 174.812 122.542 174.812 122.971 173.743C123.052 172.761 123.052 172.761 122.47 171.953C121.113 171.067 120.33 171.143 118.729 171.357C117.769 171.805 116.866 172.297 115.96 172.848C114.594 173.417 113.597 173.412 112.13 173.265C105.171 170.118 101.234 163.89 97.5196 157.519C97.2085 157.047 96.8974 156.575 96.5769 156.088C96.7537 154.806 96.7537 154.806 97.0482 153.702C98.1198 153.559 98.1198 153.559 99.4048 153.702C100.307 154.696 100.307 154.696 101.113 155.998C102.027 157.449 102.859 158.742 104.118 159.905C104.193 159.444 104.268 158.983 104.344 158.507C105.853 149.747 105.853 149.747 108.934 147.067C111.576 145.226 113.581 144.412 116.844 144.636C119.627 145.556 121.031 147.426 122.5 149.885C122.976 150.991 123.412 152.091 123.796 153.234C124.821 154.879 126.355 155.393 128.174 155.855C129.285 156.077 130.393 156.255 131.514 156.416C131.921 156.475 132.328 156.534 132.748 156.595C135.76 156.996 138.757 157.221 141.794 157.281C142.383 157.303 142.383 157.303 142.985 157.325C144.966 157.326 145.804 157.248 147.411 155.982C148.329 154.778 149.196 153.577 150.013 152.301C153.422 147.346 153.422 147.346 156.282 146.767C158.49 146.649 159.868 146.836 161.825 147.917C164.778 151.01 165.2 155.393 165.629 159.473C165.734 160.915 165.734 160.915 166.804 161.814C167.237 161.238 167.668 160.661 168.1 160.084C168.36 159.738 168.62 159.393 168.888 159.037C169.519 158.153 170.046 157.274 170.574 156.327C171.517 155.134 171.517 155.134 173.049 154.955C173.69 155.043 173.69 155.043 174.345 155.134C173.653 160.912 169.628 165.332 165.39 168.971C162.298 171.17 159.823 172.567 155.963 172.311C154.98 171.969 154.032 171.571 153.073 171.167C151.878 170.777 151.008 170.949 149.836 171.357C149.321 173.233 149.422 173.965 150.307 175.651C150.366 176.963 150.366 176.963 150.307 178.037C149.792 178.165 149.277 178.293 148.746 178.425C146.844 179.013 146.844 179.013 145.594 180.423C145.594 180.895 145.594 181.367 145.594 181.854C146.683 182.484 147.772 183.114 148.893 183.763C148.74 184.71 148.587 185.658 148.433 186.605C148.33 187.731 148.33 187.731 149.365 189.011C150.721 188.396 151.764 187.84 152.664 186.626C152.84 185.675 152.999 184.72 153.135 183.763C153.53 183.785 153.924 183.807 154.33 183.83C162.766 184.095 171.234 181.087 177.727 175.541C181.965 171.379 183.784 166.286 183.909 160.387C184.01 146.238 178.527 134.019 169.16 123.642C168.449 122.93 167.733 122.223 167.01 121.524C165.575 120.126 164.847 118.988 164.447 116.962C163.448 116.962 162.307 118.291 161.59 118.87ZM33.8914 128.413C33.1349 128.796 33.1349 128.796 32.3633 129.187C26.9332 132.164 20.8028 137.069 18.8091 143.205C18.1001 148.734 19.4397 152.545 22.6202 156.983C24.293 159.122 26.0785 161.095 27.9999 163.007C35.2599 170.241 38.0677 176.742 38.9185 186.853C39.0288 188.032 39.1655 189.208 39.3217 190.382C40.021 195.841 40.0818 201.249 40.0443 206.744C40.0418 207.136 40.0393 207.528 40.0368 207.931C40.0119 211.62 39.9753 215.308 39.9281 218.997C39.9025 221.034 39.8867 223.072 39.8764 225.109C39.8706 225.872 39.8613 226.635 39.848 227.397C39.7301 234.199 39.948 242.438 44.7317 247.701C45.1163 248.155 45.1163 248.155 45.5087 248.618C49.1051 252.333 54.2585 254.595 58.8713 256.767C59.0269 256.767 59.1824 256.767 59.3426 256.767C59.3687 247.113 59.3244 237.459 59.2315 227.806C59.2104 225.596 59.1918 223.387 59.1794 221.177C59.167 218.993 59.1479 216.81 59.1243 214.626C59.1166 213.81 59.1111 212.995 59.1081 212.179C59.0629 201.041 56.8822 191.989 51.8807 182.073C47.5397 173.372 43.1944 162.884 46.153 153.068C47.9053 148.51 50.1357 145.998 54.217 143.533C54.5542 143.322 54.8914 143.112 55.2388 142.895C57.387 141.567 58.9791 140.752 61.552 140.789C62.1234 140.796 62.1234 140.796 62.7063 140.802C62.9961 140.808 62.8147 140.797 63.1133 140.802C63.1133 141.59 63.5845 142.394 63.5845 143.205C63.2309 143.338 62.8773 143.472 62.513 143.609C57.2444 145.698 51.9808 148.539 49.5038 153.971C46.5564 163.262 52.0765 173.108 55.7256 181.358C59.055 188.902 61.9937 195.944 62.4274 204.304C62.4471 204.677 62.4669 205.05 62.4872 205.434C62.6895 209.558 62.7349 213.683 62.7646 217.812C62.7747 219.211 62.7874 220.61 62.8007 222.01C62.8332 225.479 62.8616 228.949 62.8898 232.419C62.914 235.369 62.9399 238.319 62.968 241.268C62.9803 242.636 62.9902 244.003 63 245.37C63.0384 249.827 63.1528 254.236 63.5845 258.675C64.0085 258.866 64.0085 258.866 64.441 259.061C65.6094 259.587 66.7769 260.115 67.9442 260.644C68.3755 260.839 68.8067 261.034 69.2511 261.235C71.5913 262.3 73.8904 263.404 76.1629 264.61C79.5457 266.337 82.3232 266.83 86.1066 266.806C86.6559 266.803 87.2052 266.8 87.7711 266.797C88.1884 266.794 88.6058 266.791 89.0358 266.787C89.3229 247.294 87.5458 228.558 85.0176 209.244C84.4791 205.097 83.9833 200.947 83.5037 196.793C83.2694 194.776 83.0281 192.759 82.7867 190.742C82.5928 189.118 82.4032 187.493 82.2241 185.867C81.3753 176.976 81.3753 176.976 77.9802 168.87C75.4418 164.226 76.1702 158.203 77.2528 153.225C77.5796 152.225 77.9225 151.23 78.2838 150.243C79.8536 145.774 78.8784 142.11 76.9914 137.885C73.6362 131.184 68.5982 126.752 61.6956 124.039C52.2278 121.257 42.4068 124.065 33.8914 128.413ZM110.501 151.255C108.352 154.571 108.264 157.51 108.242 161.396C108.232 161.829 108.223 162.261 108.213 162.707C108.21 163.122 108.208 163.537 108.205 163.965C108.201 164.342 108.196 164.719 108.192 165.107C108.402 166.356 108.789 166.782 109.774 167.54C110.085 167.54 110.396 167.54 110.717 167.54C110.717 165.493 110.717 163.446 110.717 161.337C112.575 161.016 114.398 160.802 116.284 160.74C116.637 160.728 116.99 160.716 117.354 160.703C117.652 160.755 117.95 160.806 118.258 160.859C119.251 162.368 119.36 163.01 119.495 164.766C119.53 165.196 119.565 165.626 119.602 166.069C119.625 166.397 119.648 166.725 119.672 167.062C119.956 167.144 120.24 167.225 120.533 167.308C122.732 167.984 124.342 168.498 125.799 170.402C126.379 171.576 126.333 172.374 126.329 173.683C126.331 174.301 126.331 174.301 126.333 174.932C126.27 176.128 126.27 176.128 126.001 177.206C125.934 177.48 125.868 177.754 125.799 178.037C125.954 178.194 126.11 178.352 126.27 178.514C126.627 180.921 126.523 182.746 125.092 184.747C124.703 185.209 124.314 185.672 123.913 186.148C128.181 186.913 132.336 187.195 136.669 187.192C137.134 187.193 137.599 187.193 138.078 187.193C140.319 187.176 142.449 187.096 144.652 186.626C144.652 186.311 144.652 185.996 144.652 185.671C144.263 185.347 143.874 185.022 143.473 184.687C142.059 183.005 141.973 182.189 142.092 180.05C142.404 178.42 143.128 177.376 144.18 176.128C144.647 175.813 145.113 175.498 145.594 175.174C145.799 174.094 145.799 174.094 145.8 172.878C145.924 171.296 146.049 170.435 146.773 169.001C147.979 167.993 148.656 167.766 150.131 167.361C151.694 166.955 151.694 166.955 152.677 165.756C152.978 164.729 152.978 164.729 153.135 163.245C155.763 162.452 157.522 162.202 160.205 162.768C160.672 164.894 160.672 164.894 161.148 167.062C161.614 166.747 162.081 166.433 162.562 166.108C162.628 164.871 162.608 163.784 162.503 162.559C162.477 162.217 162.451 161.874 162.424 161.521C162.114 157.964 161.65 153.628 159.262 150.839C158.184 150.199 158.184 150.199 156.906 150.362C154.848 151.648 153.859 153.021 152.664 155.134C151.129 157.832 149.702 159.651 146.625 160.531C141.418 161.475 135.734 160.953 130.512 160.382C130.512 161.012 130.512 161.642 130.512 162.291C131.445 162.763 132.378 163.236 133.34 163.722C133.184 164.51 133.029 165.297 132.869 166.108C132.499 166.147 132.13 166.187 131.749 166.227C130.442 166.456 130.442 166.456 129.893 167.569C129.786 167.874 129.679 168.18 129.569 168.494C128.792 168.494 128.014 168.494 127.213 168.494C127.057 167.707 126.902 166.919 126.741 166.108C125.342 165.872 125.342 165.872 123.913 165.631C124.002 164.259 124.002 164.259 124.385 162.768C125.16 162.426 125.947 162.108 126.741 161.814C127.383 160.61 127.383 160.61 127.684 159.428C127.371 159.352 127.058 159.277 126.736 159.199C124.089 158.491 122.262 157.947 120.614 155.611C119.983 154.153 119.407 152.691 118.874 151.193C118.209 149.782 117.694 149.231 116.372 148.454C113.843 147.982 112.033 149.263 110.501 151.255Z" fill="black"/>
<path d="M197.439 271.082C198.588 272.066 198.588 272.066 199.324 273.467C199.362 275.61 199.087 276.521 197.734 278.179C196.496 279.193 196.496 279.193 195.082 279.67C194.215 280.819 194.215 280.819 193.403 282.205C193.121 282.666 192.838 283.127 192.547 283.601C191.932 284.663 191.377 285.724 190.841 286.828C191.294 286.76 191.748 286.693 192.216 286.624C196.56 286.01 200.822 285.709 205.207 285.723C206.19 285.724 207.171 285.713 208.153 285.701C214.919 285.669 222.623 286.314 227.786 291.228C238.317 302.973 240.396 327.861 239.942 343.049C239.624 348.758 238.321 354.345 236.588 359.772C236.48 360.109 236.373 360.447 236.262 360.794C235.178 363.941 233.557 367.303 230.903 369.375C229.776 369.669 229.776 369.669 228.428 369.792C225.904 370.109 223.547 370.638 221.095 371.319C214.198 373.218 207.266 374.086 200.181 374.851C197.702 375.12 195.227 375.417 192.752 375.714C144.778 381.451 144.778 381.451 133.34 375.578C124.84 367.324 125.173 350.152 124.933 339.258C124.825 333.699 124.773 328.138 124.747 322.578C124.741 321.396 124.733 320.214 124.722 319.032C124.708 317.35 124.703 315.668 124.701 313.986C124.695 313.484 124.69 312.981 124.684 312.463C124.695 308.442 125.307 304.585 127.595 301.202C127.812 300.868 128.029 300.535 128.253 300.192C136.32 291.046 156.588 290.877 167.746 289.691C167.746 287.955 167.269 287.326 166.361 285.873C165.555 284.576 164.927 283.515 164.447 282.056C163.922 282.007 163.397 281.958 162.856 281.907C162.292 281.799 161.728 281.69 161.147 281.579C160.051 279.915 160.047 279.24 160.205 277.285C160.774 275.69 161.11 275.401 162.561 274.422C164.237 274.205 165.066 274.2 166.479 275.167C167.275 276.33 167.275 276.33 167.431 277.861C167.806 280.018 168.593 281.3 169.808 283.07C170.185 283.638 170.562 284.206 170.938 284.774C171.285 285.294 171.631 285.814 171.988 286.35C172.465 287.142 172.939 287.936 173.402 288.736C173.808 288.693 173.808 288.693 174.222 288.649C175.461 288.517 176.699 288.388 177.938 288.259C178.364 288.214 178.79 288.168 179.229 288.121C181.382 287.898 183.489 287.724 185.656 287.782C185.839 287.164 185.839 287.164 186.026 286.533C186.611 284.884 187.335 283.501 188.219 281.996C188.641 281.271 188.641 281.271 189.071 280.531C189.898 279.193 189.898 279.193 190.684 278.198C191.406 277.147 191.55 276.396 191.724 275.137C192.041 273.54 192.214 273.037 193.315 271.768C194.878 270.94 195.702 270.745 197.439 271.082ZM188.484 291.599C188.177 292.705 188.177 292.705 187.983 293.985C187.586 296.326 187.586 296.326 187.07 296.848C186.292 296.848 185.515 296.848 184.713 296.848C184.558 295.273 184.402 293.699 184.242 292.076C183.201 292.144 182.16 292.214 181.12 292.285C180.54 292.324 179.96 292.363 179.363 292.402C177.825 292.538 176.334 292.749 174.816 293.031C174.816 294.29 174.816 295.55 174.816 296.848C174.038 296.848 173.26 296.848 172.459 296.848C171.837 295.746 171.215 294.643 170.574 293.508C154.141 295.378 154.141 295.378 138.141 299.412C137.755 299.54 137.369 299.668 136.971 299.8C134.179 300.806 131.557 302.098 130.065 304.82C128.708 308.532 128.902 312.369 128.926 316.266C128.927 317.046 128.926 317.827 128.926 318.607C128.926 320.243 128.931 321.878 128.939 323.514C128.95 325.576 128.95 327.638 128.947 329.701C127.852 352.056 127.852 352.056 135.812 371.91C143.339 376.579 156.852 374.783 165.192 374.262C165.532 374.241 165.872 374.221 166.222 374.199C173.904 373.726 181.555 372.985 189.207 372.15C190.692 371.988 192.177 371.832 193.663 371.682C203.087 370.729 212.126 369.318 221.304 366.904C223.568 366.344 225.853 365.909 228.143 365.48C229.547 365.063 230.017 364.838 230.789 363.61C231.001 363.022 231.214 362.435 231.433 361.83C231.554 361.513 231.675 361.197 231.8 360.87C232.161 359.896 232.479 358.916 232.788 357.923C232.979 357.344 233.171 356.764 233.368 356.167C238.893 338.033 235.314 313.676 226.661 296.848C226.007 296.937 226.007 296.937 225.34 297.028C221.775 297.499 218.216 297.9 214.633 298.195C205.82 298.932 197.249 299.958 188.604 301.856C184.372 302.779 180.192 303.436 175.876 303.856C171.396 304.298 167.327 304.969 163.033 306.391C162.319 306.611 161.604 306.83 160.89 307.049C153.174 309.451 153.174 309.451 147.479 314.98C146.345 319.348 147.036 324.17 147.45 328.608C147.73 331.738 147.981 334.856 148.09 337.997C148.242 342.376 148.866 346.581 149.622 350.894C150.458 355.734 151.265 360.684 150.307 365.558C149.374 365.4 148.441 365.243 147.479 365.08C147.444 364.731 147.408 364.381 147.372 364.021C147.203 362.366 147.032 360.711 146.861 359.056C146.797 358.448 146.734 357.84 146.669 357.213C146.284 353.569 145.83 349.947 145.299 346.322C144.645 341.786 144.412 337.279 144.279 332.699C144.231 331.161 144.128 329.656 143.941 328.129C143.635 325.557 143.604 322.996 143.591 320.407C143.581 319.931 143.571 319.455 143.561 318.964C143.543 315.453 143.931 312.605 146.448 309.969C154.346 302.599 167.699 301.031 177.909 299.8C182.347 299.253 186.71 298.587 191.076 297.593C197.982 296.042 205.034 295.481 212.065 294.796C212.776 294.725 212.776 294.725 213.502 294.653C214.399 294.564 215.297 294.478 216.194 294.396C218.396 294.178 220.34 293.855 222.419 293.031C221.009 291.834 219.806 291.287 218.03 290.824C217.604 290.709 217.178 290.595 216.739 290.477C209.077 288.772 195.54 288.027 188.484 291.599Z" fill="black"/>
<path d="M130.51 71.1556C132.296 73.1333 133.331 75.3567 134.28 77.8357C134.396 77.519 134.511 77.2022 134.63 76.8758C135.87 73.9113 137.059 72.305 140.025 71.0494C143.626 70.0417 147.028 70.2786 150.353 72.0167C153.32 73.9077 154.835 76.6222 156.079 79.8338C157.086 85.0184 156.613 90.3663 153.715 94.8771C151.847 97.174 149.983 98.8954 147.006 99.3075C142.942 99.434 139.912 98.4205 136.755 95.878C135.382 94.1407 134.603 92.3035 133.809 90.2417C133.517 90.7685 133.517 90.7685 133.22 91.3059C131.219 94.7286 129.526 97.1443 125.618 98.1706C122.147 98.7095 119.051 98.1262 116.14 96.1091C113.283 93.704 111.444 91.093 110.714 87.3788C110.203 81.27 111.63 75.5442 115.428 70.6785C119.65 66.9651 126.45 67.5957 130.51 71.1556ZM118.727 73.5414C115.443 77.7275 114.447 81.5803 114.956 86.9016C115.686 89.6659 116.77 91.5338 119.198 93.1046C119.354 92.7896 118.802 92.2361 118.963 91.9116C118.817 91.4983 118.727 91.3059 118.727 90.9573C117.927 88.3853 118.381 86.3452 119.375 83.8299C120.141 82.6072 120.377 82.6071 121.319 82.13C123.47 81.9486 124.418 81.9262 126.386 82.8458C127.994 84.3261 128.747 85.8444 129.567 87.8559C129.723 87.8559 129.878 89.4793 130.039 89.4793C131.053 85.5011 130.73 79.6903 129.096 75.9271C127.477 73.8491 125.525 72.6849 122.969 72.1099C120.844 72.1099 120.366 72.2377 118.727 73.5414ZM139.936 75.45C137.534 79.6714 136.681 84.6996 137.863 89.4793C138.389 90.7504 138.758 92.1502 140.643 92.8659C140.661 92.4803 140.172 91.6731 140.084 91.1959C139.99 90.69 140.052 90.439 140.084 89.9136C140.111 89.4099 140.138 88.9061 140.166 88.3871C140.479 86.4628 140.999 84.5394 142.529 83.3229C144.604 82.7394 147.006 82.8458 148.302 84.7246C149.839 86.4963 150.252 88.4553 150.777 90.7188C152.376 89.0993 152.644 86.9892 152.682 84.7693C152.477 81.6415 151.853 78.7836 149.492 76.6093C146.867 74.757 142.755 73.3303 139.936 75.45Z" fill="black"/>
<path d="M170.574 64.9522C173.814 67.2301 176.042 70.2466 178.144 73.5707C178.426 74.0088 178.708 74.4469 178.999 74.8983C188.19 89.3437 188.19 89.3437 186.864 97.186C185.963 100.264 184.576 102.364 181.797 104.019C177.612 105.269 173.979 104.609 170.102 102.647C166.035 100.184 164.103 95.7928 162.618 91.4024C160.73 83.5017 162.342 74.1166 165.376 66.708C166.651 64.5981 168.379 64.5938 170.574 64.9522Z" fill="#C2B7A2"/>
<path d="M98.0485 66.3538C98.565 66.3581 99.0814 66.3624 99.6135 66.3669C100.209 66.3752 100.209 66.3752 100.818 66.3837C101.146 68.4114 101.473 70.4393 101.798 72.4674C101.909 73.1556 102.02 73.8437 102.132 74.5317C103.033 80.0968 103.735 85.4858 103.763 91.1359C103.773 91.6187 103.783 92.1015 103.793 92.599C103.814 96.8506 103.365 101.82 100.346 105.033C96.7457 106.948 92.446 108.256 88.4196 107.109C85.3673 105.892 83.3877 104.067 81.9021 101.106C79.9826 94.8995 81.9664 88.1573 84.8019 82.6068C86.7976 78.8595 89.0579 75.2728 91.3709 71.7199C92.0729 70.6124 92.7152 69.5182 93.3409 68.3687C94.67 66.0866 95.5595 66.327 98.0485 66.3538Z" fill="#C2B7A2"/>
<path d="M123.44 26.7803C123.907 27.725 123.907 27.725 124.383 28.6889C124.103 28.938 123.823 29.1871 123.534 29.4438C122.235 30.6117 120.951 31.7946 119.67 32.9832C119.251 33.3689 118.833 33.7546 118.401 34.1519C110.67 41.5917 105.769 51.0859 101.907 61.0308C101.288 62.5666 101.288 62.5666 100.817 63.0438C96.5758 63.8938 92.4042 64.1286 88.0915 63.9981C87.6476 55.37 89.0326 47.8291 94.7488 41.0948C101.737 33.5524 112.818 26.496 123.44 26.7803Z" fill="#216893"/>
<path d="M128.156 30.5977C131.078 37.9029 132.01 44.3691 131.988 52.2107C131.985 53.2732 131.988 54.3357 131.991 55.3983C131.99 56.0731 131.99 56.7478 131.989 57.4225C131.988 58.0324 131.988 58.6422 131.987 59.2705C131.926 60.6582 131.926 60.6582 131.455 61.1353C130.184 61.2062 128.925 61.2476 127.653 61.2695C127.264 61.2783 126.874 61.2871 126.473 61.2962C125.217 61.3243 123.962 61.3493 122.706 61.3739C116.969 61.4896 111.256 61.6705 105.532 62.0896C107.176 50.4378 117.395 37.9753 126.412 31.1065C127.213 30.5977 127.213 30.5977 128.156 30.5977Z" fill="#659E44"/>
<path d="M223.365 143.682C223.836 144.159 223.836 144.159 223.895 145.591C223.836 147.022 223.836 147.022 223.365 147.499C222.553 147.592 221.742 147.683 220.929 147.759C215.703 148.267 211.274 149.556 207.34 153.225C207.029 153.225 207.738 153.153 207.418 153.153C207.226 153.565 206.227 153.634 206.009 154.058C205.453 155.136 204.823 156.081 204.129 157.072C194.049 172.391 197.055 194.001 198.632 211.344C198.876 214.025 199.107 216.707 199.337 219.389C199.397 220.098 199.397 220.098 199.459 220.821C199.541 221.778 199.623 222.736 199.705 223.694C199.827 225.114 199.949 226.534 200.072 227.955C200.506 232.985 200.937 238.015 201.33 243.049C201.368 243.516 201.406 243.983 201.445 244.465C202.036 252.237 202.036 252.237 201.213 253.904C200.27 253.924 199.327 253.923 198.385 253.904C197.272 252.777 197.467 250.255 197.295 248.745C197.234 248.218 197.174 247.691 197.112 247.149C196.326 239.909 195.841 232.642 195.316 225.379C194.961 220.496 194.587 215.635 193.978 210.778C193.119 203.878 193.034 197.001 192.994 190.055C192.988 189.544 192.983 189.033 192.977 188.507C192.847 174.896 194.221 160.311 203.891 149.974C208.672 145.404 216.719 141.754 223.365 143.682Z" fill="black"/>
<path d="M131.454 29.166C139.081 30.6996 145.954 38.833 150.119 45.0108C153.013 49.5008 155.963 55.2266 155.963 60.658C149.119 60.658 142.276 60.658 135.225 60.658C135.077 52.5464 135.077 52.5464 135.042 50.0395C134.912 43.4928 134.042 37.3907 131.817 31.1976C131.454 30.1203 131.454 30.1203 131.454 29.166Z" fill="#FCEE00"/>
<path d="M137.109 27.7343C143.147 27.4622 148.781 30.9273 154.018 33.6391C154.511 33.8914 155.003 34.1437 155.511 34.4036C163.445 38.6062 168.774 44.0973 171.897 52.6338C172.719 55.3954 172.543 58.2845 172.458 61.1349C163.588 61.223 163.588 61.223 159.261 60.6578C159.164 60.1952 159.066 59.7327 158.965 59.2561C156.822 49.62 152.771 42.5791 146.064 35.3687C145.8 35.0698 145.535 34.7709 145.262 34.4629C143.189 32.2118 140.79 30.6223 138.231 28.9757C137.861 28.7235 137.491 28.4713 137.109 28.2115C137.109 28.054 137.109 27.8966 137.109 27.7343Z" fill="#D81529"/>
<path d="M22.254 0C24.2329 0.838634 24.8693 2.51364 25.8773 4.35401C26.3439 5.06257 26.3439 5.06257 26.8199 5.78546C27.897 5.26046 28.8463 4.72963 29.8246 4.02596C31.0618 3.3997 31.0618 3.3997 32.5641 3.3997C33.8897 3.87685 33.8897 3.87685 34.4678 4.93553C34.8867 6.46053 34.78 7.34951 34.4494 8.88694C34.3136 9.54385 34.3136 9.54385 34.1751 10.214C33.8897 11.5113 33.8897 11.5113 33.4755 12.7191C33.2826 14.0022 33.2826 14.0022 34.3868 15.0899C34.8255 15.4836 35.2641 15.8772 35.7161 16.2828C38.0318 18.3725 38.0318 18.3725 38.5606 19.9416C38.6029 21.0543 38.6029 21.0543 37.9254 22.1577C35.896 23.5107 33.8184 23.1099 31.5331 22.7243C31.0665 22.6062 31.0665 22.6062 30.5905 22.4858C30.5103 22.7736 30.4301 23.0615 30.3474 23.358C29.1206 27.454 29.1206 27.454 27.2912 28.6887C26.3191 28.6887 26.3191 28.6887 25.4059 28.2116C24.008 26.682 23.7169 25.3596 23.4323 23.3208C23.3576 22.8066 23.2828 22.2924 23.2058 21.7626C23.1542 21.3714 23.1025 20.9802 23.0493 20.5771C20.6512 19.9371 18.899 19.5492 16.4509 20.1C15.1253 19.6527 15.1253 19.6527 14.0943 19.1457C14.0943 18.5159 14.0943 17.886 14.0943 17.2371C13.6277 17.0796 13.1611 16.9222 12.6803 16.7599C12.3857 15.6267 12.3857 15.6267 12.209 14.3742C12.5201 14.0593 12.8311 13.7443 13.1516 13.4199C13.9682 13.4937 13.9682 13.4937 14.8012 13.569C17.62 13.6791 19.5384 11.7851 21.6354 10.0798C21.4367 8.40337 21.2112 6.87722 20.6633 5.27849C20.1845 3.75968 20.0792 2.59829 20.2214 1.01395C21.1641 0.0596439 21.1641 0.0596439 22.254 0ZM26.8199 13.4199C26.9754 14.6796 27.131 15.9392 27.2912 17.2371C27.6023 17.2371 27.9134 17.2371 28.2339 17.2371C28.3894 16.4498 28.5449 15.6625 28.7052 14.8513C28.083 14.379 27.4609 13.9066 26.8199 13.4199ZM22.578 14.3742C22.1114 15.0828 22.1114 15.0828 21.6354 15.8056C22.102 15.8056 22.5686 15.8056 23.0493 15.8056C22.8938 15.3333 22.7383 14.8609 22.578 14.3742Z" fill="black"/>
<path d="M4.669 31.5518C6.63179 31.5959 7.36902 31.9135 8.85197 33.2516C9.18248 33.6354 9.51299 34.0192 9.85352 34.4147C11.5317 33.8446 11.5317 33.8446 12.8582 32.7148C14.0578 31.6405 15.373 31.6998 16.9233 31.5518C18.0021 33.19 17.9809 33.8029 17.9543 35.7268C17.9483 36.2361 17.9422 36.7454 17.9359 37.2701C17.8796 38.4279 17.7609 39.4846 17.5419 40.6176C17.3598 42.3881 17.7676 42.6088 18.8086 43.9577C18.897 45.747 18.897 45.747 18.8086 47.2977C17.2198 48.0126 16.3557 48.2521 14.5667 48.2521C14.5205 48.5399 14.4744 48.8278 14.4268 49.1243C14.0934 50.9283 13.8104 52.2732 12.7698 53.7989C11.7388 54.455 11.7388 54.455 10.531 54.5147C8.85678 53.7324 8.63743 52.8394 7.96824 51.115C7.47119 49.6912 7.00027 48.2616 6.55428 46.8206C5.85437 47.0568 5.85437 47.0568 5.14032 47.2977C4.48311 47.3296 3.82454 47.3385 3.16667 47.3276C2.57369 47.3177 1.98071 47.3079 1.36976 47.2977C-0.0690504 44.268 -0.0690504 44.268 0.0441743 42.8543C0.427122 42.0491 0.427122 42.0491 1.36976 41.0948C2.15504 41.0744 2.94106 41.0754 3.72636 41.0948C4.19297 40.9373 4.65957 40.7799 5.14032 40.6176C5.03825 40.232 4.93618 39.8463 4.83102 39.449C4.69978 38.9391 4.56855 38.4292 4.43334 37.9038C4.30211 37.4001 4.17087 36.8963 4.03567 36.3773C3.75158 35.0129 3.59217 33.8913 3.72636 32.5061C4.03743 32.1911 4.3485 31.8762 4.669 31.5518ZM9.85352 41.0948C10.0091 41.8821 10.1646 42.6694 10.3248 43.4805C10.947 43.3231 11.5691 43.1656 12.2101 43.0034C11.4324 42.3735 10.6548 41.7437 9.85352 41.0948Z" fill="black"/>
<path d="M149.832 99.7844C150.774 99.7641 151.717 99.765 152.66 99.7844C153.131 100.262 153.131 100.262 153.16 101.723C153.151 102.185 153.141 102.648 153.131 103.125C153.549 103.126 153.549 103.126 153.976 103.128C156.117 103.234 157.11 103.375 158.787 104.824C159.962 106.869 160.201 107.918 160.201 110.282C159.475 112.293 158.517 113.674 156.901 115.053C154.689 115.8 152.891 115.815 150.715 114.934C149.379 114.111 148.193 113.217 147.004 112.19C146.775 112.352 146.547 112.513 146.311 112.679C142.729 115.092 139.243 116.155 134.904 115.275C132.127 114.58 129.745 113.804 127.68 111.713C127.591 110.312 127.591 110.312 127.68 108.85C127.991 108.535 128.302 108.22 128.622 107.896C130.754 108.016 132.093 109.075 133.807 110.282C136.78 111.285 139.564 111.104 142.408 109.775C146.513 107.44 148.092 104.093 149.832 99.7844Z" fill="black"/>
<path d="M84.7933 63.0432C85.0266 64.4603 85.0266 64.4603 85.2647 65.9061C82.2143 67.5183 79.158 68.8893 75.9266 70.0812C72.3844 71.4138 68.9025 72.844 65.4398 74.3755C56.5082 78.312 56.5082 78.312 53.6862 78.312C53.2496 76.1499 52.9829 74.5621 53.863 72.4968C60.5656 65.2265 75.3369 62.8781 84.7933 63.0432Z" fill="#575757"/>
<path d="M137.112 169.925C138.613 170.78 139.246 171.454 140.117 172.937C140.619 175.124 140.25 176.886 139.321 178.902C138.431 180.07 138.033 180.481 136.641 180.9C134.378 181.121 133.322 181.128 131.28 180.094C129.939 178.898 129.455 178.365 129.1 176.605C129.07 174.523 129.341 173.141 130.484 171.386C132.394 169.453 134.534 169.629 137.112 169.925Z" fill="#D91528"/>
<path d="M116.197 160.233C116.553 160.215 116.909 160.198 117.276 160.179C118.259 160.382 118.259 160.382 119.089 161.189C119.784 162.501 119.819 163.318 119.761 164.796C119.748 165.222 119.736 165.647 119.723 166.086C119.706 166.408 119.69 166.73 119.673 167.062C118.785 167.57 117.89 168.065 116.992 168.554C116.495 168.83 115.997 169.107 115.484 169.392C114.017 169.925 114.017 169.925 112.712 169.564C112.365 169.368 112.018 169.173 111.66 168.971C111.349 168.814 111.038 168.656 110.718 168.494C110.259 167.14 110.157 165.833 110.129 164.408C110.116 164.044 110.104 163.679 110.092 163.303C110.285 162.035 110.676 161.64 111.66 160.86C113.142 160.374 114.649 160.31 116.197 160.233Z" fill="#216793"/>
<path d="M139.171 100.321C140.227 101.556 140.343 102.461 140.408 104.079C140.034 105.317 139.693 105.816 138.67 106.584C136.637 107.251 134.907 107.157 132.896 106.464C131.785 105.374 131.751 105.106 131.688 103.602C131.767 102.358 131.844 101.813 132.543 100.768C134.583 99.4683 136.993 99.277 139.171 100.321Z" fill="black"/>
<path d="M141.324 163.155C141.849 163.147 141.849 163.147 142.384 163.138C143.298 163.135 144.212 163.187 145.124 163.245C146.067 164.199 146.067 164.199 146.155 165.422C146.067 166.585 146.067 166.585 145.596 167.062C144.265 167.123 142.95 167.151 141.619 167.152C141.247 167.157 140.875 167.163 140.491 167.169C139.521 167.172 138.552 167.12 137.583 167.062C137.272 166.747 136.961 166.432 136.641 166.108C137.046 162.746 138.328 163.158 141.324 163.155Z" fill="black"/>
<path d="M155.491 106.942C156.434 108.373 156.434 108.373 156.316 109.596C155.962 110.759 155.962 110.759 155.02 111.713C153.403 111.979 152.756 111.77 151.337 110.908C150.306 109.805 150.306 109.805 150.159 108.493C150.208 108.138 150.256 107.784 150.306 107.419C152.065 107 153.685 106.779 155.491 106.942Z" fill="#EAC3B5"/>
<path d="M129.568 116.484C130.511 116.962 130.511 116.962 130.511 116.962L129.568 116.484Z" fill="black"/>
</svg>
