<svg width="320" height="348" viewBox="0 0 320 348" fill="none" xmlns="http://www.w3.org/2000/svg">
<path d="M225.538 0.00577885C235.49 0.0347332 245.435 0.0231649 255.387 0.110028C272.634 0.266382 289.888 0.474853 307.135 0.689115C311.044 0.735442 312.847 2.30476 314.32 6.1499C315.822 10.0761 316.13 14.1703 316.57 18.2702C317.087 23.0535 317.707 27.8309 318.275 32.6084C318.299 32.7995 318.287 32.9964 318.293 33.1875C318.484 37.577 318.71 41.9722 318.867 46.3617C319.087 52.4885 319.337 58.6152 319.441 64.7477C319.679 79.1728 319.917 93.6037 319.998 108.029C320.033 113.767 319.638 119.512 319.458 125.257C319.25 131.87 319.082 138.477 318.867 145.09C318.803 147.053 317.968 147.742 315.683 147.748C308.631 147.766 301.573 147.696 294.521 147.766C280.075 147.916 265.629 148.125 251.183 148.333C239.439 148.507 227.701 148.71 215.963 148.906C204.707 149.098 193.444 149.237 182.193 149.532C180.169 149.584 178.116 150.14 176.168 150.748C175.64 150.91 175.397 152.115 175.112 152.873C173.726 156.608 172.793 160.581 170.925 164.055C167.301 170.808 162.655 176.79 156.56 181.7C150.842 186.304 144.759 189.883 137.538 191.336C135.05 191.834 132.505 192.176 129.976 192.263C128.439 192.321 127.842 192.743 128.126 194.214C129.158 199.536 130.243 204.852 131.246 210.185C132.18 215.154 133.021 220.146 133.92 225.12C134.818 230.094 135.799 235.051 136.645 240.037C137.353 244.207 137.904 248.399 138.559 252.575C139.272 257.115 140.073 261.643 140.763 266.195C141.256 269.455 141.586 272.744 142.039 276.01C142.578 279.925 143.193 283.828 143.738 287.737C143.987 289.515 144.202 291.298 144.341 293.088C144.753 298.299 145.17 303.511 145.495 308.729C145.71 312.226 146.203 312.649 149.717 312.811C151.851 312.91 154.067 313.13 156.067 313.825C160.776 315.464 162.708 319.268 162.864 323.988C162.957 326.837 163.119 329.825 162.418 332.529C161.223 337.127 158.172 340.521 153.985 342.918C149.468 345.507 144.73 346.943 139.504 347.667C133.972 348.431 128.741 347.846 123.608 346.271C119.131 344.893 115.043 340.66 115.901 334.51C116.139 332.801 115.182 330.867 114.555 329.113C111.969 321.862 109.44 314.583 106.622 307.42C103.803 300.257 100.66 293.215 97.6446 286.127C97.4706 285.722 97.1632 285.38 96.9138 285.004C96.5775 285.386 96.0613 285.722 95.928 286.168C93.8692 293.024 91.8394 299.886 89.8792 306.766C89.6473 307.571 89.8212 308.497 89.8502 309.36C89.8908 310.79 89.4965 312.539 90.1808 313.535C90.6505 314.213 92.6571 313.767 93.962 313.946C101.437 314.977 107.295 321.752 107.312 328.759C107.324 333.114 106.059 336.901 103.601 340.301C101.722 342.895 98.758 344.082 95.8526 345.194C90.3606 347.302 84.596 347.869 78.8256 347.446C71.2227 346.891 64.3852 344.308 58.1741 339.588C55.0657 337.226 54.7699 334.104 54.0044 331.134C52.3226 324.63 51.0641 318.006 49.8984 311.387C49.2257 307.576 49.0865 303.673 48.669 299.822C48.3152 296.545 47.9093 293.273 47.4975 290.001C47.4569 289.683 47.2133 289.387 47.0626 289.08C46.8248 289.399 46.5174 289.688 46.3608 290.042C45.5315 291.935 44.911 294.35 42.7188 294.761C39.5756 295.352 37.1399 296.886 34.5765 298.612C32.6222 299.927 30.1748 299.921 27.9305 298.369C26.9214 297.674 25.5585 297.431 24.3175 297.147C19.9679 296.151 16.8827 290.985 18.089 286.434C18.8603 283.533 19.8346 280.707 22.2471 278.634C22.6995 278.246 22.943 277.556 23.1634 276.966C25.4657 270.856 30.0182 267.44 36.3279 266.536C39.2276 266.119 42.0635 267.075 44.6906 268.517C46.8538 269.704 46.9234 269.623 46.9292 267.249C46.9466 261.655 46.8596 256.055 46.9524 250.461C47.0626 243.749 47.1032 237.032 47.5903 230.343C47.9267 225.676 48.9995 221.067 49.6781 216.416C50.171 213.058 50.5712 209.687 50.9887 206.323C51.2091 204.545 51.4005 202.756 51.5513 200.972C51.5803 200.648 51.3541 200.3 51.2497 199.965C50.9423 200.214 50.6002 200.434 50.3334 200.723C44.534 207.047 41.4488 214.922 37.9634 222.549C37.6444 223.25 37.9982 224.657 38.5491 225.294C41.037 228.16 42.5449 231.589 42.7072 235.173C42.8638 238.526 41.617 241.914 38.3577 243.848C35.3189 245.649 32.2626 245.226 29.3803 243.413C26.5966 241.659 26.5502 241.624 24.2943 243.616C20.6987 246.795 17.0161 246.274 14.0816 241.856C13.2929 240.663 12.5796 240.42 11.3675 240.396C4.67503 240.281 -0.0688366 235.434 0.000755702 228.705C0.0239531 226.446 -0.00504331 224.078 0.644485 221.958C1.86235 217.992 5.31877 214.575 10.4048 214.957C12.3708 215.102 13.0145 214.691 13.5423 212.403C16.0244 201.65 20.5015 191.66 25.9761 182.059C28.5684 177.513 30.8823 172.84 34.1648 168.723C36.7513 165.474 39.1928 162.11 42.8696 159.903C45.1952 158.508 45.1836 157.94 43.3336 156.047C42.7942 155.496 42.0809 155.033 41.7445 154.379C41.0718 153.053 40.0685 152.815 38.7463 152.966C37.9866 153.053 37.0065 153.25 36.4729 152.891C35.3479 152.126 34.7853 152.665 34.0604 153.371C31.7117 155.659 28.9048 156.087 25.7789 155.456C23.9405 155.085 22.0383 155.027 20.1825 154.709C17.7062 154.286 16.1172 152.497 14.3542 150.904C12.3592 149.103 11.7966 147.019 12.249 144.482C12.2838 144.28 11.7445 143.735 11.5183 143.758C5.22018 144.401 0.563291 137.776 2.16391 130.932C3.1904 126.536 4.71563 122.593 7.49353 119.083C7.81249 118.678 8.13146 118.03 8.03867 117.578C6.93679 112.488 9.19854 108.643 12.3476 104.965C15.7054 101.051 20.0491 98.8849 24.9206 98.0916C28.8642 97.4488 32.7323 98.8328 36.3279 100.518C37.4414 101.039 38.1663 101.989 37.1805 103.576C36.4033 104.832 35.9104 105.139 34.5359 104.514C31.8856 103.309 29.1599 102.481 26.1269 102.551C20.5015 102.684 13.6988 108.243 12.3128 113.808C12.0692 114.781 12.394 114.706 13.3393 114.514C15.7286 114.028 18.1817 113.71 20.6233 113.652C23.0068 113.594 25.7615 115.684 26.0689 117.387C26.7764 121.296 25.6223 123.954 22.7168 125.372C19.359 127.011 16.1462 126.496 13.1131 124.654C10.3236 122.958 10.3004 122.824 8.58381 125.598C6.75121 128.557 5.97409 131.852 6.38585 135.315C6.76281 138.471 10.5672 140.075 14.041 138.657C14.6441 138.413 15.2299 138.049 15.8562 137.95C17.7294 137.655 18.8661 139.201 18.1238 140.967C17.9034 141.483 17.6192 141.969 17.3756 142.479C15.9664 145.484 17.0045 148.756 20.0317 149.949C22.9488 151.095 26.0747 151.599 29.2179 151.171C30.0298 151.061 30.8302 150.244 31.4507 149.584C32.2974 148.686 33.1789 148.246 34.4548 148.316C36.4787 148.426 38.5085 148.356 40.5383 148.345C44.0353 148.327 46.6856 145.687 46.9524 142.16C47.1727 139.224 46.1579 136.618 45.0038 134.053C44.0469 131.928 42.858 129.912 41.8489 127.81C41.4952 127.069 41.2458 126.235 41.1646 125.419C41.0776 124.538 40.805 123.27 42.2549 123.27C43.1422 123.27 44.5282 123.514 44.8414 124.098C47.8629 129.756 51.9398 135.124 50.9597 142.102C50.5306 145.142 49.1445 147.887 46.7784 149.85C45.172 151.176 45.5663 152.219 46.5522 153.429C52.7053 160.98 60.1343 166.58 69.8946 168.619C74.105 169.499 78.3501 170.089 82.6358 169.742C90.9985 169.059 99.1234 167.287 106.286 162.718C111.064 159.666 114.967 155.531 116.73 150.053C118.128 145.716 118.215 141.112 116.73 136.659C115.942 134.29 115.153 131.91 114.126 129.646C113.61 128.511 113.251 127.486 114.573 127.086C115.762 126.727 117.357 126.363 118.198 127.845C118.789 128.876 119.044 130.098 119.479 131.221C120.216 133.15 122.164 133.908 124.403 133.167C126.549 132.455 127.552 130.816 126.682 128.777C126.067 127.341 124.855 126.172 124.008 124.822C123.533 124.064 122.86 123.097 123.017 122.378C123.168 121.666 124.148 120.85 124.931 120.606C129.437 119.205 130.805 115.812 127.946 112.082C126.247 109.87 124.043 108.023 121.996 106.095C120.929 105.087 120.076 105.116 119.108 106.587C117.676 108.77 115.808 110.675 113.158 111.416C112.218 111.683 111.076 111.845 110.189 111.561C107.753 110.779 105.236 107.085 105.509 105.058C105.874 102.319 108.344 100.159 111.586 99.6956C112.508 99.5625 113.413 99.3135 114.329 99.1282C115.037 98.9892 115.75 98.8675 116.463 98.7401C116.046 97.9468 115.785 96.9971 115.182 96.389C110.902 92.0691 102.568 89.6948 97.0124 93.8932C96.5717 94.2233 95.9512 94.4317 95.696 94.866C94.9479 96.14 94.3447 97.6167 92.5295 96.279C91.2479 95.3351 91.1029 92.8914 92.3846 91.7332C93.6256 90.6156 94.9885 89.3995 96.5195 88.8783C102.945 86.7125 109.261 86.4403 115.025 90.8877C115.75 91.4494 116.753 91.6869 117.403 92.3065C119.091 93.9106 121.132 95.2251 121.225 98.0337C121.323 101.213 124.322 102.139 126.34 103.715C129.761 106.396 132.383 109.615 133.728 113.75C134.697 116.732 133.264 121.243 130.539 122.755C128.973 123.624 129.663 124.353 130.109 125.077C131.588 127.492 131.374 130.161 130.747 132.565C129.854 136.004 126.891 137.527 123.55 137.829C121.955 137.973 121.7 138.448 121.712 139.844C121.764 144.285 122.106 148.762 120.285 153.035C119.729 154.344 122.089 156.446 124.235 156.4C127.175 156.33 130.179 156.296 133.032 155.676C138.861 154.408 144.498 152.508 149.514 148.443C148.87 148.397 148.401 148.351 147.925 148.339C147.345 148.327 146.754 148.258 146.191 148.356C141.72 149.138 139.522 147.476 139.133 143C138.559 136.485 137.985 129.97 137.399 123.456C136.825 117.132 136.21 110.814 135.665 104.49C135.236 99.4756 134.847 94.4549 134.505 89.4342C134.082 83.1627 133.705 76.8854 133.345 70.6139C133.119 66.705 132.928 62.7962 132.766 58.8874C132.545 53.6293 132.29 48.3711 132.197 43.113C131.954 29.8461 131.785 16.5735 131.611 3.30658C131.571 0.104231 131.611 0.0694806 134.795 0.0984349C152.623 0.277952 170.45 0.573294 188.283 0.631203C196.251 0.654366 204.219 0.225844 212.188 0C216.642 0 221.09 0 225.544 0L225.538 0.00577885ZM48.0195 287.314C47.9847 287.175 47.9441 287.042 47.9093 286.903C47.7643 287.025 47.6135 287.146 47.4685 287.268C47.4221 287.447 47.3815 287.621 47.3351 287.801C47.5613 287.638 47.7933 287.476 48.0195 287.314ZM315.44 79.3581C315.231 71.0135 315.045 62.663 314.813 54.3184C314.657 48.7707 314.465 43.2173 314.227 37.6754C314.117 35.2085 313.92 32.7416 313.636 30.292C313.114 25.7057 312.586 21.1135 311.89 16.5503C311.415 13.4174 310.725 10.3135 309.971 7.23279C309.71 6.17306 309.124 5.28707 307.593 5.2697C301.939 5.19442 296.284 4.7485 290.636 4.76588C246.242 4.90486 201.847 5.14809 157.459 5.28707C151.323 5.30444 145.188 4.8817 139.052 4.7543C135.752 4.68481 136.228 4.36052 136.263 7.43548C136.425 22.8276 136.541 38.2198 136.866 53.6061C137.04 61.7191 137.55 69.8263 138.002 77.9278C138.292 83.1453 138.727 88.3571 139.151 93.5689C139.493 97.7209 139.905 101.873 140.299 106.019C140.873 112.053 141.459 118.082 142.039 124.116C142.619 130.15 143.268 136.172 143.732 142.212C143.86 143.903 144.538 144.43 146.069 144.285C148.145 144.088 150.222 143.857 152.304 143.712C153.858 143.608 155.656 144.198 156.259 141.952C156.694 140.348 157.778 138.674 157.546 137.192C157.129 134.481 155.946 131.893 155.093 129.246C153.991 125.818 152.843 122.373 153.649 118.707C154.2 116.217 155.499 114.219 157.935 113.136C162.528 111.098 169.516 113.906 170.508 118.794C170.728 119.883 171.053 120.803 173.013 120.218C179.172 118.377 184.913 123.033 184.96 129.461C184.971 130.966 184.85 132.617 185.4 133.949C186.607 136.85 186.874 139.693 186.091 142.699C185.534 144.835 185.557 144.888 187.801 144.859C200.798 144.679 213.794 144.476 226.785 144.291C240.744 144.094 254.709 143.897 268.668 143.712C283.404 143.515 298.134 143.307 312.87 143.162C314.274 143.15 314.848 142.936 314.86 141.309C314.976 127.075 315.208 112.847 315.393 98.6128C315.428 96.1053 315.422 93.5979 315.434 91.0904C315.614 87.8591 315.828 84.6278 315.944 81.3965C315.967 80.7305 315.614 80.0472 315.434 79.3697L315.44 79.3581ZM51.7194 276.659C51.6788 276.659 51.6441 276.659 51.6035 276.665C51.6035 279.751 51.4121 282.855 51.6441 285.924C52.0732 291.582 52.7343 297.228 53.3433 302.868C53.7086 306.244 53.9928 309.644 54.6017 312.973C55.605 318.486 56.7823 323.965 58.0175 329.431C58.4641 331.406 58.7135 333.965 60.0473 335.1C62.9702 337.596 66.0207 340.04 69.9526 341.227C77.7296 343.578 85.4659 343.543 93.1791 341.482C97.546 340.312 101.263 337.984 102.336 333.045C102.516 332.216 102.504 331.348 102.69 330.52C103.606 326.513 101.542 322.198 97.9693 320.264C95.0813 318.701 92.054 317.873 88.7947 318.012C87.4667 318.069 86.5562 317.757 86.2024 316.402C85.8719 315.151 85.3383 313.906 85.2629 312.638C84.944 307.009 86.185 301.618 87.9886 296.319C89.6067 291.57 91.2305 286.828 92.7499 282.05C93.4052 280 94.9885 279.514 96.7747 279.184C98.4623 278.871 99.222 279.635 99.8715 281.193C101.043 284.013 102.487 286.729 103.943 289.422C107.544 296.081 109.864 303.245 112.462 310.304C114.225 315.099 116.023 319.882 117.6 324.741C119.004 329.072 121.41 333.195 120.639 338.06C120.546 338.656 121.062 339.467 121.503 340.011C123.475 342.455 126.34 342.484 129.164 342.959C136.477 344.18 143.367 343.37 150.042 340.034C158.613 335.755 159.738 329.269 158.028 321.492C157.604 319.558 156.462 318.232 154.49 318.023C151.468 317.699 148.424 317.641 145.396 317.392C144.005 317.276 142.561 317.154 141.256 316.709C139.731 316.187 139.145 314.485 140.206 313.871C141.749 312.973 141.511 311.74 141.436 310.495C141.343 308.995 141.018 307.507 140.89 306.007C140.479 301.091 140.131 296.163 139.713 291.246C139.562 289.462 139.296 287.685 139.052 285.913C138.513 281.998 137.944 278.089 137.405 274.175C136.953 270.909 136.581 267.637 136.077 264.382C135.404 260.027 134.65 255.684 133.92 251.335C133.235 247.27 132.522 243.205 131.832 239.14C131.171 235.26 130.527 231.374 129.86 227.494C129.21 223.707 128.544 219.926 127.871 216.144C127.001 211.257 126.264 206.34 125.174 201.505C124.345 197.81 124.542 193.878 122.53 190.433C121.677 188.974 122.454 187.815 124.194 187.728C125.835 187.647 127.488 187.59 129.118 187.728C135.062 188.255 140.484 186.651 145.628 183.843C150.709 181.063 154.902 177.23 158.839 173.025C163.189 168.375 166.935 163.349 169.249 157.413C170.322 154.668 171.157 151.75 171.523 148.837C171.94 145.472 172.404 144.888 175.739 145.774C178.203 146.422 179.474 145.721 180.947 143.573C182.199 141.743 182.031 139.803 182.043 137.829C182.048 136.572 181.573 136.78 180.622 137.151C179.427 137.614 177.896 138.182 176.852 137.794C175.507 137.29 174.045 136.074 173.494 134.8C173.03 133.723 174.086 132.339 175.571 131.91C176.638 131.603 177.699 131.296 178.76 130.966C179.688 130.677 180.918 130.781 180.894 129.252C180.865 127.694 179.085 125.129 177.658 124.695C174.741 123.809 172.172 124.735 170.276 127.324C169.992 127.712 169.678 128.129 169.278 128.355C168.664 128.708 167.776 129.293 167.347 129.079C166.686 128.754 165.967 127.874 165.897 127.173C165.793 126.102 165.944 124.816 166.477 123.901C167.753 121.718 166.773 119.79 165.497 118.487C164.065 117.016 161.814 116.593 159.669 117.259C159.141 117.422 158.404 117.977 158.346 118.429C158.167 119.842 157.993 121.359 158.306 122.72C159.193 126.612 160.399 130.428 161.316 134.313C161.988 137.174 162.168 139.965 160.707 142.838C158.341 147.488 154.449 150.661 150.372 153.389C142.265 158.803 133.195 161.38 123.336 160.482C122.042 160.367 120.395 160.384 119.572 159.625C117.919 158.102 117.078 158.994 116.034 160.118C111.203 165.347 105.3 168.85 98.5203 170.947C97.372 171.3 96.3629 171.827 97.9867 172.979C98.2187 173.147 98.3811 173.408 98.6131 173.576C102.127 176.205 102.133 177.571 100.196 181.295C98.4739 184.607 95.1508 187.572 97.8359 192.257C99.2394 194.712 98.9088 198.1 99.7787 200.937C101.959 208.037 104.18 215.131 106.808 222.068C107.695 224.408 107.422 225.989 106.204 227.882C104.9 229.915 103.612 231.994 102.673 234.206C101.258 237.524 100.196 240.993 98.8972 244.369C97.9751 246.761 95.3074 247.977 92.9645 244.994C89.9894 241.196 86.794 237.565 83.6333 233.916C80.9308 230.801 78.8489 227.564 80.5713 223.203C80.8438 222.514 80.9888 221.773 81.1512 221.043C83.1984 212.044 85.1817 203.028 87.3043 194.046C88.325 189.732 87.9016 189.008 83.5289 188.875C80.9888 188.794 78.0137 187.19 78.8952 183.212C79.4984 180.501 80.2523 177.78 81.3426 175.238C81.9747 173.761 81.4586 173.865 80.4089 173.801C77.5556 173.639 74.7023 173.483 71.8606 173.222C67.5459 172.817 63.4748 171.497 59.537 169.742C55.46 167.929 51.9688 165.237 48.5878 162.388C47.9615 161.861 47.5555 161.299 46.7146 162.162C43.8033 165.15 40.4397 167.79 37.9518 171.091C32.7903 177.948 28.4988 185.389 24.9612 193.236C21.586 200.717 18.6747 208.35 17.3582 216.503C17.0277 218.553 15.7286 219.532 13.606 219.555C12.1562 219.572 10.7006 219.491 9.26233 219.59C8.55481 219.636 7.7371 219.81 7.19776 220.227C2.50608 223.846 3.14401 232.046 8.12566 235.463C10.1148 236.829 12.5506 235.584 12.7419 233.233C12.7709 232.851 12.7303 232.451 12.8289 232.087C13.2813 230.419 14.7253 229.237 16.0302 229.405C17.625 229.614 18.6573 230.894 18.4949 232.868C18.4021 233.934 17.8744 234.982 17.451 235.995C16.8537 237.414 17.6598 240.35 18.8661 240.883C20.0317 241.404 21.9629 240.506 22.6821 238.856C23.2272 237.599 23.5346 236.215 23.7375 234.855C23.9927 233.106 24.793 232.249 26.4748 232.295C28.1914 232.341 29.0092 233.239 28.9802 235.069C28.9686 235.764 28.7308 236.505 28.9048 237.136C29.4383 239.041 32.193 240.645 34.2982 240.402C36.5309 240.147 38.1141 238.346 38.2649 235.978C38.4969 232.446 36.5077 229.903 34.3272 227.57C32.6396 225.763 32.2336 224.02 33.3529 221.825C36.3569 215.936 39.1812 209.954 42.3361 204.151C44.882 199.461 48.437 195.465 52.4212 191.944C53.1983 191.255 54.8685 191.44 56.1096 191.504C56.3705 191.516 56.8113 192.795 56.7533 193.461C56.4575 197.133 56.0458 200.793 55.6456 204.452C55.2571 208.02 54.8917 211.587 54.4045 215.142C53.5114 221.663 52.166 228.149 51.6905 234.698C51.1047 242.73 51.0699 250.808 51.0641 258.869C51.0641 264.805 51.4875 270.735 51.7252 276.67L51.7194 276.659ZM95.6902 240.501C96.0845 239.852 96.5253 239.354 96.7225 238.775C98.3173 234.073 99.6628 229.272 102.847 225.271C103.142 224.9 102.974 224.008 102.789 223.441C101.118 218.275 99.222 213.179 97.7374 207.962C96.2585 202.756 95.1914 197.428 93.8982 192.17C93.7358 191.516 93.3125 190.931 93.0051 190.317C92.6919 190.867 92.3092 191.394 92.0772 191.973C91.8394 192.587 91.7234 193.247 91.6016 193.902C91.0855 196.704 90.7085 199.542 90.059 202.31C88.3076 209.821 86.4808 217.314 84.6018 224.79C84.2248 226.29 84.3118 227.5 85.3499 228.71C88.4004 232.26 91.3813 235.868 94.4085 239.441C94.7101 239.794 95.1277 240.049 95.6844 240.506L95.6902 240.501ZM22.6009 287.343C22.6009 288.322 22.5951 288.611 22.6009 288.901C22.6705 291.431 22.8212 291.518 24.967 290.198C26.8982 289.011 29.3629 290.238 29.1947 292.491C29.0671 294.228 29.908 294.663 31.2303 294.819C33.7414 295.114 35.545 292.433 34.7621 289.63C34.1938 287.598 34.9535 286.133 36.8267 285.646C38.3113 285.258 39.6858 286.422 39.9815 288.356C40.0395 288.733 39.9003 289.161 40.0221 289.503C40.1729 289.926 40.5093 290.279 40.7645 290.661C41.0834 290.337 41.559 290.071 41.6982 289.683C42.1621 288.385 42.4579 287.025 42.8986 285.716C43.8149 282.994 43.3742 279.653 46.558 277.91C46.8596 277.748 46.7784 275.941 46.3144 275.518C44.7312 274.082 43.0204 272.681 41.124 271.713C37.888 270.057 31.7059 271.215 29.1541 275.171C28.4466 276.265 28.551 276.45 29.6181 276.914C30.5518 277.319 31.6131 277.875 32.1292 278.68C32.9817 280.006 32.1698 282.664 30.8881 283.816C29.3861 285.166 27.7623 285.363 25.9877 284.401C23.9231 283.289 23.7607 283.318 22.943 285.536C22.6589 286.312 22.6241 287.187 22.5951 287.343H22.6009ZM92.3498 174.027C86.7534 174.23 85.8487 174.954 84.5554 179.72C84.4046 180.27 84.1843 180.803 84.0103 181.347C83.3317 183.542 83.9175 184.468 86.2198 184.793C87.5363 184.978 88.8759 185.024 90.175 185.273C92.6861 185.754 93.2313 185.511 94.4723 183.154C94.9189 182.314 95.6206 181.573 95.899 180.687C96.2411 179.587 96.8211 177.948 96.3165 177.311C95.1624 175.851 93.411 174.861 92.344 174.021L92.3498 174.027ZM18.3325 122.066C18.3963 121.944 18.4543 121.823 18.5181 121.707C18.9009 121.707 19.2894 121.666 19.6606 121.713C21.2496 121.927 21.4584 120.525 21.8817 119.61C21.9977 119.361 21.006 118.389 20.3623 118.053C18.1875 116.923 16.2738 118.36 14.2904 118.921C14.2266 118.939 14.244 120.039 14.4876 120.178C15.7228 120.89 17.0451 121.452 18.3383 122.066H18.3325ZM115.321 104.265C115.228 104.039 115.135 103.819 115.043 103.593C113.79 103.842 112.468 103.929 111.319 104.421C110.786 104.647 110.595 105.672 110.252 106.332C110.966 106.558 111.934 107.189 112.352 106.928C113.465 106.245 114.347 105.18 115.327 104.265H115.321Z" fill="black"/>
<path d="M62.7665 121.753C62.5519 116.987 64.7557 113.079 66.6752 109.129C67.7075 107.004 72.3876 105.643 75.2061 106.239C78.7495 106.987 82.1711 107.867 84.5837 110.884C84.7055 111.04 85.6334 110.89 85.7551 110.658C88.4518 105.4 92.9522 106.268 97.2785 107.496C102.034 108.845 104.417 110.82 105.583 117.509C106.302 121.632 106.314 125.616 104.852 129.461C104.093 131.465 102.944 133.625 101.338 134.939C97.7714 137.858 92.146 137.284 88.6838 134.152C88.1851 133.7 87.7327 133.19 87.2398 132.727C86.4395 131.974 85.9581 131.696 85.065 132.947C82.6119 136.364 79.0047 137.852 74.8987 137.273C69.9577 136.578 66.1359 133.96 64.4019 129.108C63.561 126.762 63.2942 124.214 62.7665 121.759V121.753ZM76.2036 132.686C78.6509 133.057 80.4951 131.963 81.7188 129.762C82.0203 129.218 82.1015 128.546 82.2871 127.932C81.7362 127.973 81.1795 128.106 80.6459 128.031C80.0196 127.944 79.2947 127.834 78.8249 127.463C77.6302 126.513 76.4182 125.535 75.4671 124.359C73.5649 122.008 72.811 119.176 73.0893 116.206C73.2981 113.993 74.8987 112.691 76.8937 111.868C77.1315 111.77 77.3345 111.59 77.5548 111.451C77.3519 111.249 77.1837 110.965 76.9401 110.849C73.7389 109.39 70.1259 111.04 68.9544 114.422C67.7191 117.978 66.8724 121.516 67.7887 125.349C68.8616 129.832 72.55 133.144 76.2094 132.692L76.2036 132.686ZM92.9058 111.278C90.7194 110.739 89.8785 112.193 89.2232 114.185C88.1387 117.48 87.466 120.67 87.9937 124.266C88.475 127.538 90.1627 129.704 92.5462 131.424C95.1849 133.329 98.6007 132.408 100.039 129.762C101.147 127.718 101.147 127.735 98.7863 127.48C98.2586 127.423 97.6554 127.301 97.2437 126.994C93.9322 124.556 92.3026 121.232 92.8304 117.167C93.0159 115.725 94.1352 114.387 94.9065 113.05C95.1559 112.621 95.6662 112.343 96.0606 111.99C95.4749 111.752 94.9007 111.469 94.2976 111.301C93.938 111.202 93.5321 111.283 92.8999 111.283L92.9058 111.278Z" fill="black"/>
<path d="M72.4869 89.2778C73.8381 89.2778 75.2474 89.052 76.5232 89.3589C77.3351 89.5558 78.3732 90.4765 78.5182 91.2236C78.6342 91.8316 78.6458 93.3198 77.2192 93.5225C76.4826 93.6268 75.7287 93.9742 75.027 93.8816C66.7803 92.8218 59.1889 95.4857 51.586 98.0047C50.4551 98.3811 49.359 99.0123 48.4021 99.7362C46.9581 100.825 45.8446 100.338 44.9805 99.1397C44.07 97.8715 44.6847 96.7133 45.8156 95.9547C48.7733 93.9684 52.0789 92.8102 55.5295 91.93C61.1085 90.4997 66.6875 89.2026 72.4927 89.2836L72.4869 89.2778Z" fill="black"/>
<path d="M82.1254 153.221C83.7144 153.713 85.402 153.997 86.8634 154.744C88.783 155.722 90.1459 157.147 89.9081 159.706C89.6935 162.029 88.696 163.476 86.701 164.623C82.3457 167.13 77.3177 164.507 75.3517 161.021C74.3484 159.249 74.6152 157.523 76.1926 155.908C77.77 154.298 79.6838 153.354 82.1254 153.221ZM82.0616 158.178C82.0442 158.108 82.021 158.033 82.0036 157.963C81.1627 158.201 80.3159 158.438 79.475 158.676C79.9912 159.324 80.4029 160.384 81.0351 160.535C82.1891 160.807 83.4766 160.587 84.6887 160.442C84.8974 160.419 85.2396 159.672 85.1584 159.347C84.7641 157.767 83.4186 158.259 82.3457 158.183C82.2529 158.178 82.1543 158.183 82.0616 158.183V158.178Z" fill="black"/>
<path d="M99.4252 141.245C100.202 141.679 101.82 142.247 102.969 143.318C103.908 144.193 103.003 147.511 101.832 148.825C99.2222 151.755 95.1221 152.694 91.828 151.107C89.6185 150.047 88.9341 146.885 90.5638 145.026C92.6573 142.635 95.3888 141.575 99.4252 141.239V141.245Z" fill="black"/>
<path d="M71.0661 77.7077C76.2681 78.1594 79.6607 79.7113 80.78 83.4001C80.9656 84.0197 81.2903 84.7667 81.0932 85.2879C80.7858 86.1044 80.2001 87.2337 79.5389 87.3842C78.901 87.529 77.457 86.7298 77.3236 86.1392C76.6045 82.8268 73.9599 82.7689 71.4836 82.3288C71.3908 82.3114 71.2922 82.3288 71.1937 82.3288C69.0247 82.1609 66.9601 80.7247 67.3081 79.4276C67.8126 77.5571 69.4596 77.5455 71.0603 77.7135L71.0661 77.7077Z" fill="black"/>
<path d="M81.7715 75.542C82.943 76.15 84.0738 76.567 85.0191 77.2503C87.2403 78.8602 88.3016 81.275 89.1657 83.7708C89.6644 85.2128 88.9627 86.4173 87.7622 86.7647C87.1069 86.9558 86.0108 86.0408 85.2917 85.4212C84.851 85.039 84.8162 84.2341 84.4798 83.6898C83.5809 82.2305 82.972 80.5106 81.035 79.9604C80.6348 79.8446 80.1535 79.3871 80.0549 79.0049C79.8751 78.2927 79.7301 77.4356 79.9853 76.7986C80.1825 76.3006 81.0002 76.0516 81.7715 75.5478V75.542Z" fill="black"/>
<path d="M315.434 91.0787C315.422 93.5862 315.422 96.0936 315.393 98.6011C315.208 112.835 314.976 127.063 314.86 141.297C314.848 142.924 314.274 143.133 312.871 143.15C298.135 143.295 283.404 143.503 268.668 143.7C254.709 143.886 240.744 144.083 226.785 144.279C213.789 144.465 200.792 144.673 187.802 144.847C185.563 144.876 185.534 144.824 186.091 142.687C186.874 139.682 186.607 136.838 185.401 133.937C184.85 132.605 184.966 130.955 184.96 129.449C184.92 123.021 179.172 118.365 173.013 120.207C171.053 120.792 170.728 119.871 170.508 118.782C169.516 113.895 162.528 111.086 157.935 113.125C155.494 114.207 154.194 116.211 153.649 118.695C152.837 122.367 153.992 125.807 155.093 129.235C155.94 131.881 157.129 134.47 157.547 137.18C157.773 138.662 156.688 140.336 156.259 141.94C155.656 144.187 153.858 143.59 152.304 143.7C150.222 143.839 148.146 144.071 146.07 144.274C144.539 144.418 143.86 143.891 143.732 142.201C143.269 136.161 142.619 130.132 142.039 124.104C141.459 118.07 140.873 112.042 140.299 106.008C139.905 101.856 139.487 97.7093 139.151 93.5572C138.728 88.3454 138.293 83.1394 138.003 77.9161C137.55 69.8146 137.034 61.7074 136.866 53.5944C136.541 38.2081 136.425 22.8159 136.263 7.42381C136.228 4.35465 135.758 4.67893 139.052 4.74263C145.188 4.86424 151.324 5.29276 157.46 5.27538C201.854 5.1364 246.248 4.89319 290.636 4.75421C296.29 4.73684 301.939 5.18273 307.593 5.25801C309.124 5.28118 309.71 6.1614 309.971 7.22113C310.725 10.3019 311.415 13.4058 311.891 16.5386C312.587 21.1018 313.109 25.694 313.636 30.2804C313.915 32.7299 314.118 35.1968 314.228 37.6637C314.471 43.2114 314.663 48.759 314.814 54.3067C315.046 62.6513 315.231 71.0018 315.44 79.3464C315.44 83.2553 315.44 87.1583 315.44 91.0671L315.434 91.0787ZM231.216 93.3372C231.332 93.3314 231.448 93.3198 231.564 93.314C231.291 89.9958 231.117 86.6661 230.7 83.3653C230.497 81.7554 230.091 79.995 227.8 80.0066C225.097 80.0182 222.383 79.8792 219.687 80.0529C218.051 80.1572 216.288 80.8926 216.306 82.8093C216.352 87.193 216.601 91.5768 216.99 95.9431C217.367 100.165 218.08 104.351 218.55 108.561C219.002 112.609 219.281 116.674 219.739 120.716C220.006 123.056 219.808 123.403 217.518 123.427C216.259 123.438 215.001 123.484 213.748 123.415C212.171 123.328 210.628 123.629 210.529 125.395C210.431 127.092 212.171 127.486 213.447 128.042C213.69 128.146 214.021 128.059 214.311 128.065C221.798 128.256 229.29 128.592 236.777 128.604C243.302 128.615 249.826 128.349 256.344 128.042C261.668 127.793 266.975 127.26 272.293 126.93C279.246 126.496 286.205 126.085 293.17 125.778C296.447 125.633 299.747 125.633 303.023 125.795C305.123 125.899 305.088 124.185 305.285 123.154C305.471 122.193 304.462 121.4 303.174 121.689C302.809 121.77 302.403 121.718 302.02 121.701C300.686 121.626 299.115 121.95 298.077 121.353C296.372 120.381 298.001 118.794 298.024 117.474C298.135 109.824 298.338 102.11 296.72 94.6285C295.194 87.5926 295.734 88.774 289.401 88.6987C288.919 88.6987 288.368 88.6002 287.974 88.7971C286.832 89.382 285.301 89.8453 284.779 90.8181C284.228 91.8373 284.639 93.3951 284.674 94.7096C284.854 101.803 284.964 108.897 285.266 115.991C285.579 123.322 283.619 122.187 278.585 122.292C277.095 122.32 276.555 121.712 276.52 120.236C276.387 114.59 275.964 108.944 276.022 103.297C276.08 97.7498 275.523 92.2774 274.804 86.7993C274.293 82.9252 272.652 81.3964 269.439 81.7381C267.27 81.9697 265.096 82.1376 262.927 82.3055C261.071 82.4503 260.16 83.4348 260.317 85.2647C260.694 89.6021 261.193 93.9336 261.442 98.2826C261.749 103.633 261.836 108.996 262.068 114.352C262.103 115.186 262.492 116.008 262.509 116.837C262.556 118.933 262.666 121.07 262.295 123.102C262.231 123.438 259.824 123.235 258.537 123.473C255.092 124.11 255.15 124.15 255.08 120.641C254.924 112.777 254.796 104.907 254.483 97.0491C254.251 91.2525 253.741 85.4674 253.352 79.6823C253.166 76.9316 252.992 74.1752 252.772 71.4303C252.476 67.7357 251.369 65.9927 248.747 65.5989C246.312 65.2283 243.829 65.043 241.365 64.9908C238.517 64.9271 237.659 65.8132 237.728 68.726C237.792 71.4824 238.088 74.2273 238.279 76.978C238.668 82.4793 239.109 87.9748 239.422 93.4762C239.7 98.3463 239.805 103.222 240.025 108.092C240.182 111.521 240.396 114.949 240.611 118.371C240.634 118.736 240.814 119.095 240.907 119.46C241.707 122.502 240.601 124.023 237.589 124.023C236.719 124.023 235.849 123.994 234.98 124.029C233.646 124.087 233.13 123.496 233.037 122.153C232.718 117.514 232.219 112.887 231.923 108.249C231.61 103.286 231.448 98.3115 231.216 93.3429V93.3372ZM175.583 24.2231C173.994 24.4374 172.288 24.3679 170.839 24.9354C167.829 26.1052 164.976 27.6745 162.012 28.9716C152.466 33.1411 148.604 40.9645 148.494 50.7801C148.418 57.428 150.547 63.6648 154.212 69.2761C156.92 73.4282 160.237 76.978 164.761 79.2364C168.809 81.2574 172.909 82.3577 177.612 81.877C181.666 81.4601 185.552 81.02 189.414 79.5201C199.708 75.5244 206.244 66.4444 206.418 55.5981C206.499 50.5368 205.838 45.6262 204.04 40.9124C202.59 37.1194 200.879 33.0716 197.371 31.0332C190.719 27.1707 183.568 24.2984 175.583 24.2289V24.2231ZM240.756 29.9098C236.441 31.2069 232.822 32.8573 229.656 35.3358C229.198 35.6948 229.093 37.3279 229.493 37.768C230.068 38.3992 231.39 38.9319 232.149 38.7003C233.623 38.2544 234.968 37.3105 236.296 36.4592C239.99 34.0908 240.941 34.0908 244.195 36.9978C246.19 38.7814 248.307 39.5342 250.858 38.3065C251.612 37.9417 252.331 37.461 253.126 37.2178C255.428 36.5171 257.487 35.0521 260.12 35.3821C262.95 35.7354 265.832 36.106 268.656 35.9323C274.601 35.5674 280.528 34.8088 286.466 34.2992C287.783 34.1892 289.157 34.2992 290.45 34.554C292.422 34.942 293.692 34.4266 293.947 32.8805C294.174 31.4791 293.205 30.3556 291.297 30.2456C288.798 30.1008 286.24 29.9271 283.781 30.2688C277.535 31.1316 271.301 31.8555 264.985 31.3575C263.199 31.2185 261.338 30.5641 259.65 30.8826C256.478 31.4849 253.369 32.5099 250.313 33.5812C248.869 34.0908 247.97 34.3803 246.561 33.1411C244.885 31.6702 242.594 30.8884 240.767 29.9156L240.756 29.9098ZM289.795 47.9483C289.807 48.0178 289.818 48.0873 289.83 48.1568C290.601 48.1568 291.373 48.1452 292.15 48.1568C293.234 48.1742 294.394 48.2552 294.504 46.7496C294.597 45.493 294.73 44.1727 292.817 44.0742C291.036 43.9816 289.267 43.6168 287.487 43.5762C284.297 43.5009 281.102 43.5878 277.906 43.5936C274.438 43.6052 270.889 42.8581 267.827 45.464C267.004 46.1647 265.565 46.2574 264.382 46.3964C261.558 46.7264 258.705 46.8249 255.886 47.1955C252.621 47.624 249.339 48.8575 246.399 46.1647C245.877 45.6899 245.053 45.5393 244.375 45.2324C240.286 43.3851 236.476 44.3696 234.127 48.0931C233.663 48.8285 233.634 50.172 233.976 51.0001C234.643 52.61 235.826 52.5578 237.363 51.0986C240.756 47.8788 241.104 47.7746 245.059 50.4905C247.042 51.8514 249.084 52.4536 251.438 52.2162C255.492 51.8108 259.54 51.3186 263.599 51.0986C266.018 50.9712 268.146 50.4905 270.193 49.0891C271.95 47.8846 273.818 47.1839 276.277 47.9194C278.858 48.6896 281.722 48.6548 284.466 48.6838C286.24 48.7069 288.015 48.2147 289.795 47.9483Z" fill="white"/>
<path d="M95.6845 240.506C95.1278 240.049 94.7102 239.794 94.4087 239.441C91.3814 235.868 88.4005 232.26 85.3501 228.71C84.312 227.5 84.225 226.296 84.6019 224.79C86.4809 217.314 88.3077 209.821 90.0591 202.31C90.7029 199.536 91.0856 196.704 91.6018 193.901C91.7236 193.253 91.8396 192.587 92.0773 191.973C92.3035 191.388 92.6863 190.867 93.0052 190.317C93.3068 190.937 93.7359 191.521 93.8983 192.17C95.1916 197.434 96.2587 202.756 97.7375 207.962C99.2221 213.179 101.119 218.275 102.789 223.441C102.974 224.014 103.143 224.906 102.847 225.271C99.6687 229.272 98.3232 234.073 96.7226 238.775C96.5254 239.354 96.0847 239.852 95.6903 240.501L95.6845 240.506Z" fill="#14385D"/>
<path d="M92.3447 174.027C93.4118 174.867 95.1632 175.857 96.3173 177.317C96.8218 177.954 96.2419 179.592 95.8997 180.693C95.6214 181.573 94.9197 182.314 94.4731 183.16C93.2262 185.516 92.6811 185.76 90.1758 185.279C88.8767 185.03 87.5371 184.984 86.2206 184.798C83.9183 184.474 83.3325 183.542 84.011 181.353C84.1792 180.808 84.4054 180.276 84.5562 179.726C85.8494 174.96 86.7542 174.236 92.3505 174.033L92.3447 174.027Z" fill="#14385D"/>
<path d="M315.434 91.0786C315.434 87.1698 315.434 83.2667 315.434 79.3579C315.613 80.0354 315.967 80.7188 315.944 81.3847C315.828 84.616 315.613 87.8473 315.434 91.0786Z" fill="#CFCFCF"/>
<path d="M48.0144 287.32C47.7882 287.482 47.5563 287.644 47.3301 287.806C47.3765 287.627 47.4171 287.453 47.4635 287.273C47.649 287.297 47.8346 287.314 48.0202 287.32H48.0144Z" fill="#919191"/>
<path d="M48.0138 287.32C47.8282 287.32 47.6426 287.302 47.457 287.274C47.602 287.152 47.7528 287.03 47.8978 286.909C47.9326 287.048 47.9732 287.181 48.008 287.32H48.0138Z" fill="#828282"/>
<path d="M231.215 93.3431C231.441 98.3116 231.604 103.286 231.923 108.249C232.218 112.887 232.717 117.514 233.036 122.153C233.129 123.496 233.651 124.087 234.979 124.029C235.849 123.994 236.719 124.023 237.589 124.023C240.601 124.023 241.706 122.502 240.906 119.46C240.813 119.095 240.628 118.742 240.61 118.371C240.396 114.949 240.181 111.521 240.024 108.092C239.804 103.222 239.7 98.3464 239.421 93.4763C239.108 87.9749 238.667 82.4794 238.279 76.9781C238.087 74.2274 237.792 71.4767 237.728 68.7261C237.658 65.8133 238.522 64.9273 241.364 64.991C243.829 65.0489 246.311 65.2342 248.747 65.599C251.362 65.9986 252.476 67.7416 252.771 71.4304C252.992 74.1811 253.166 76.9318 253.351 79.6824C253.74 85.4733 254.25 91.2584 254.482 97.0492C254.795 104.907 254.923 112.777 255.08 120.641C255.149 124.151 255.091 124.11 258.536 123.473C259.823 123.236 262.23 123.438 262.294 123.102C262.671 121.07 262.561 118.933 262.509 116.837C262.491 116.003 262.103 115.186 262.068 114.352C261.842 108.996 261.749 103.633 261.441 98.2827C261.192 93.9337 260.688 89.6022 260.316 85.2648C260.16 83.4407 261.07 82.4504 262.926 82.3057C265.101 82.1377 267.276 81.964 269.439 81.7382C272.652 81.3965 274.293 82.9253 274.803 86.7994C275.522 92.2718 276.079 97.7441 276.021 103.298C275.963 108.944 276.386 114.59 276.52 120.236C276.555 121.713 277.094 122.321 278.584 122.292C283.618 122.187 285.578 123.322 285.265 115.991C284.964 108.903 284.854 101.804 284.674 94.7097C284.639 93.3894 284.227 91.8374 284.778 90.8183C285.3 89.8454 286.831 89.3821 287.974 88.7972C288.362 88.6004 288.919 88.693 289.4 88.6988C295.733 88.7741 295.194 87.587 296.719 94.6287C298.337 102.105 298.134 109.818 298.024 117.474C298.006 118.794 296.371 120.386 298.076 121.354C299.12 121.95 300.686 121.626 302.02 121.701C302.402 121.724 302.808 121.776 303.174 121.689C304.461 121.4 305.464 122.193 305.285 123.154C305.087 124.185 305.122 125.899 303.023 125.795C299.746 125.633 296.452 125.633 293.17 125.778C286.205 126.085 279.251 126.496 272.292 126.93C266.974 127.26 261.662 127.793 256.344 128.042C249.825 128.349 243.301 128.615 236.777 128.604C229.29 128.592 221.797 128.262 214.31 128.065C214.02 128.059 213.69 128.146 213.446 128.042C212.164 127.486 210.425 127.092 210.529 125.396C210.633 123.629 212.17 123.328 213.748 123.415C215 123.485 216.259 123.438 217.517 123.427C219.808 123.403 219.999 123.056 219.738 120.717C219.28 116.669 219.002 112.604 218.549 108.561C218.08 104.352 217.372 100.159 216.989 95.9432C216.601 91.5769 216.351 87.1874 216.305 82.8095C216.288 80.8927 218.051 80.1573 219.686 80.053C222.383 79.8793 225.091 80.0183 227.799 80.0067C230.084 79.9951 230.496 81.7497 230.699 83.3654C231.117 86.6662 231.291 89.9959 231.563 93.3141C231.447 93.3199 231.331 93.3315 231.215 93.3373V93.3431ZM244.473 99.574C244.316 99.5914 244.154 99.603 243.997 99.6204C244.217 104.595 244.351 109.575 244.699 114.538C244.884 117.178 245.395 119.796 245.864 122.407C245.963 122.963 246.433 123.705 246.914 123.902C249.448 124.955 251.037 123.838 251.032 121.11C251.032 110.953 251.142 100.802 249.924 90.6793C249.251 85.1027 249.135 79.4566 248.683 73.851C248.584 72.6523 248.358 71.3378 247.732 70.3707C247.407 69.8669 246.085 70.0174 245.215 69.8495C244.844 69.78 244.461 69.7047 244.119 69.5542C242.889 69.0214 242.333 69.4499 242.338 70.7355C242.338 73.7236 242.141 76.729 242.396 79.694C242.965 86.3303 243.765 92.9493 244.473 99.574ZM271.648 106.755C271.735 106.755 271.822 106.743 271.904 106.737C271.904 103.755 272.06 100.761 271.863 97.7904C271.643 94.5012 271.15 91.2236 270.628 87.9634C270.535 87.3843 269.816 86.5793 269.259 86.4635C268.151 86.2261 266.957 86.3361 265.808 86.4404C265.501 86.4693 265.037 86.9731 264.991 87.309C264.869 88.1602 264.892 89.0405 264.95 89.8975C265.321 95.4915 265.75 101.085 266.087 106.679C266.348 111.057 266.475 115.447 266.702 119.831C266.731 120.375 267.044 120.896 267.16 121.446C267.763 124.307 269.955 122.494 271.364 122.772C272.965 123.091 272.489 121.55 272.449 120.751C272.228 116.084 271.921 111.416 271.643 106.749L271.648 106.755ZM227.011 98.3638C227.098 98.358 227.185 98.3522 227.272 98.3406C227.074 94.038 226.889 89.7354 226.645 85.4327C226.628 85.1085 226.181 84.541 225.926 84.5352C224.488 84.4946 223.032 84.512 221.606 84.6915C221.153 84.7494 220.388 85.398 220.411 85.7281C220.695 89.5153 221.061 93.3025 221.49 97.0782C222.017 101.699 222.644 106.303 223.189 110.918C223.612 114.503 223.925 118.099 224.366 121.684C224.604 123.6 225.625 124.168 227.724 124.029C229.777 123.89 228.762 122.373 228.971 121.435C229.093 120.884 229.023 120.276 228.971 119.703C228.321 112.586 227.666 105.475 227.005 98.358L227.011 98.3638ZM293.355 111.81C293.5 111.799 293.645 111.781 293.79 111.77C293.257 106.205 292.607 100.651 292.265 95.0746C292.161 93.3431 291.442 93.3663 290.177 93.2968C288.409 93.1983 288.658 94.3507 288.733 95.3583C288.826 96.5744 289.168 97.7731 289.22 98.9834C289.47 105.081 289.684 111.185 289.841 117.288C289.864 118.099 289.406 118.916 289.313 119.744C289.116 121.533 290.276 121.66 291.691 121.747C293.222 121.84 293.413 121.157 293.379 119.888C293.303 117.201 293.355 114.509 293.355 111.816V111.81Z" fill="black"/>
<path d="M175.588 24.2289C183.574 24.2984 190.724 27.1649 197.376 31.0332C200.885 33.0716 202.595 37.1136 204.045 40.9124C205.843 45.6262 206.504 50.5369 206.423 55.5981C206.249 66.4444 199.713 75.5245 189.419 79.5202C185.557 81.02 181.671 81.4659 177.618 81.8771C172.914 82.3577 168.814 81.2574 164.766 79.2364C160.243 76.978 156.931 73.4282 154.217 69.2761C150.552 63.6648 148.424 57.428 148.499 50.7801C148.609 40.9646 152.472 33.1411 162.017 28.9717C164.981 27.6745 167.834 26.1052 170.844 24.9354C172.3 24.3679 173.999 24.4432 175.588 24.2231V24.2289ZM165.451 32.5736C163.461 32.5157 157.946 36.1581 156.537 38.1965C152.274 44.3638 152.28 51.1275 153.956 58.0129C155.168 62.993 157.471 67.4868 161.234 71.1061C161.971 71.8125 162.348 72.5596 163.021 70.7354C164.656 66.2822 166.61 61.9217 168.756 57.6828C169.597 56.0266 169.957 54.6136 169.145 53.0385C168.199 51.2144 168.652 49.6103 169.997 48.4116C171.145 47.3924 170.902 46.5528 170.374 45.4756C170.136 44.9834 170.038 44.4217 169.858 43.9005C168.71 40.5592 167.585 37.2121 166.39 33.8881C166.193 33.338 165.688 32.8979 165.451 32.5678V32.5736ZM177.165 77.9161C179.195 77.615 180.906 77.4644 182.57 77.0996C189.477 75.5766 195.491 72.7449 199.203 66.2243C200.125 64.6029 199.957 64.3076 198.287 63.7111C193.56 62.0202 188.926 60.0744 184.252 58.2503C182.744 57.6596 181.323 57.2774 179.676 58.2445C178.598 58.8815 177.119 59.1826 175.855 59.09C172.966 58.8699 172.804 58.7599 171.638 61.4063C170.032 65.0488 168.513 68.726 167.028 72.4148C166.193 74.4879 166.808 75.8372 169.052 76.3873C171.807 77.0649 174.631 77.4586 177.159 77.9219L177.165 77.9161ZM202.462 54.5789C202.12 49.3092 201.14 44.7402 199.006 40.4781C198.252 38.9783 197.335 37.5421 196.367 36.1639C195.717 35.2374 194.882 35.1332 193.937 35.996C190.075 39.5111 186.206 43.0087 183.214 47.3345C182.918 47.763 182.651 48.3711 182.704 48.8575C183.173 53.1196 183.197 53.1196 187.216 55.1059C188.23 55.6097 189.205 56.2177 190.26 56.6057C193.241 57.7002 196.263 58.6904 199.261 59.7559C201.012 60.3756 201.871 60.0339 201.853 57.955C201.842 56.6694 202.311 55.3838 202.474 54.5789H202.462ZM176.069 45.8636C177.496 45.4872 179.044 45.5567 179.584 44.856C182.518 41.0514 185.615 37.4611 189.524 34.612C190.063 34.2182 190.573 33.7144 190.904 33.1469C191.049 32.8979 190.811 32.1219 190.55 32.0003C184.496 29.1164 178.064 28.5374 171.482 29.0817C170.386 29.1686 169.719 29.516 170.212 30.9406C171.737 35.3242 173.071 39.7716 174.59 44.1611C174.834 44.8734 175.64 45.3888 176.075 45.8636H176.069ZM177.13 49.9115C174.706 49.8999 173.222 50.8206 173.361 52.332C173.512 53.9593 174.567 54.4168 176.104 54.5963C177.867 54.8047 178.859 53.8087 179.12 51.6777C179.288 50.2879 178.395 49.8246 177.13 49.9172V49.9115Z" fill="black"/>
<path d="M240.755 29.9155C242.582 30.8883 244.872 31.6701 246.548 33.141C247.958 34.3802 248.856 34.0907 250.3 33.5811C253.357 32.5098 256.465 31.479 259.637 30.8825C261.325 30.564 263.187 31.2184 264.973 31.3574C271.288 31.8554 277.523 31.1315 283.769 30.2687C286.233 29.927 288.785 30.1065 291.285 30.2455C293.193 30.3556 294.161 31.479 293.935 32.8804C293.68 34.4323 292.415 34.9477 290.438 34.5539C289.139 34.2991 287.764 34.1891 286.454 34.2991C280.515 34.8087 274.594 35.5616 268.644 35.9322C265.82 36.1059 262.937 35.7353 260.107 35.382C257.474 35.052 255.416 36.517 253.113 37.2177C252.319 37.461 251.605 37.9416 250.846 38.3064C248.3 39.5341 246.183 38.7755 244.182 36.9977C240.929 34.0965 239.978 34.0907 236.283 36.4591C234.955 37.3104 233.61 38.2543 232.137 38.7002C231.377 38.9318 230.055 38.3991 229.481 37.7679C229.081 37.3278 229.185 35.6947 229.643 35.3357C232.81 32.8572 236.428 31.2068 240.743 29.9097L240.755 29.9155Z" fill="black"/>
<path d="M289.796 47.9541C288.021 48.2147 286.241 48.7069 284.466 48.6896C281.723 48.6606 278.858 48.6896 276.277 47.9252C273.813 47.1897 271.945 47.8904 270.194 49.0949C268.147 50.4963 266.018 50.977 263.6 51.1044C259.535 51.3244 255.487 51.8166 251.439 52.222C249.084 52.4594 247.043 51.8572 245.059 50.4963C241.104 47.7804 240.756 47.8789 237.364 51.1044C235.827 52.5637 234.644 52.61 233.977 51.0059C233.635 50.1778 233.664 48.8343 234.128 48.0989C236.476 44.3754 240.286 43.3967 244.375 45.2382C245.054 45.5451 245.877 45.6899 246.399 46.1705C249.339 48.8633 252.622 47.6298 255.887 47.2013C258.705 46.8307 261.559 46.7323 264.383 46.4022C265.566 46.2632 267.004 46.1705 267.828 45.4698C270.89 42.864 274.439 43.611 277.907 43.5994C281.102 43.5878 284.292 43.5067 287.487 43.582C289.268 43.6226 291.037 43.9874 292.817 44.08C294.731 44.1843 294.603 45.4988 294.505 46.7554C294.395 48.2668 293.235 48.18 292.15 48.1626C291.379 48.151 290.608 48.1626 289.83 48.1626C289.819 48.0931 289.807 48.0236 289.796 47.9541Z" fill="black"/>
<path d="M244.479 99.5742C243.771 92.9494 242.977 86.3304 242.402 79.6941C242.147 76.7292 242.35 73.7237 242.345 70.7356C242.345 69.4501 242.901 69.0215 244.125 69.5543C244.467 69.7048 244.85 69.7801 245.221 69.8496C246.091 70.0176 247.413 69.867 247.738 70.3708C248.364 71.3379 248.59 72.6582 248.689 73.8511C249.141 79.4567 249.263 85.1028 249.93 90.6794C251.148 100.802 251.032 110.953 251.038 121.11C251.038 123.838 249.455 124.956 246.92 123.902C246.433 123.699 245.969 122.963 245.87 122.408C245.401 119.796 244.89 117.178 244.705 114.538C244.357 109.575 244.229 104.595 244.003 99.6205C244.16 99.6031 244.322 99.5915 244.479 99.5742Z" fill="#67A045"/>
<path d="M271.654 106.755C271.932 111.422 272.245 116.09 272.46 120.757C272.495 121.556 272.976 123.097 271.375 122.778C269.966 122.5 267.774 124.313 267.171 121.452C267.055 120.902 266.742 120.381 266.713 119.836C266.487 115.453 266.359 111.063 266.098 106.685C265.767 101.086 265.332 95.4973 264.961 89.9033C264.903 89.0405 264.88 88.1603 265.002 87.3148C265.048 86.9789 265.506 86.4751 265.82 86.4462C266.968 86.3419 268.163 86.2319 269.27 86.4693C269.827 86.5851 270.546 87.3901 270.639 87.9692C271.155 91.2294 271.648 94.5071 271.874 97.7963C272.077 100.767 271.915 103.761 271.915 106.743C271.828 106.743 271.741 106.755 271.66 106.761L271.654 106.755Z" fill="#EC974C"/>
<path d="M227.016 98.3639C227.672 105.481 228.333 112.592 228.982 119.709C229.034 120.282 229.104 120.89 228.982 121.441C228.773 122.379 229.783 123.896 227.735 124.035C225.636 124.18 224.615 123.606 224.378 121.69C223.931 118.111 223.618 114.509 223.2 110.924C222.655 106.309 222.029 101.699 221.501 97.0841C221.072 93.3085 220.707 89.5212 220.422 85.734C220.399 85.4039 221.159 84.7553 221.617 84.6974C223.044 84.5179 224.499 84.5006 225.938 84.5411C226.199 84.5469 226.639 85.1144 226.657 85.4387C226.9 89.7413 227.086 94.0439 227.283 98.3465C227.196 98.3523 227.109 98.3581 227.022 98.3697L227.016 98.3639Z" fill="#DB162A"/>
<path d="M293.361 111.81C293.361 114.503 293.309 117.19 293.384 119.883C293.419 121.151 293.227 121.834 291.696 121.742C290.287 121.655 289.127 121.522 289.319 119.738C289.411 118.91 289.87 118.099 289.846 117.283C289.69 111.179 289.475 105.075 289.226 98.9777C289.174 97.7674 288.837 96.5687 288.739 95.3526C288.663 94.345 288.408 93.1926 290.183 93.2911C291.447 93.3605 292.166 93.3374 292.271 95.0689C292.613 100.645 293.262 106.199 293.796 111.764C293.651 111.775 293.506 111.793 293.361 111.804V111.81Z" fill="#FFF100"/>
<path d="M165.451 32.5679C165.695 32.898 166.194 33.3381 166.391 33.8882C167.585 37.2121 168.716 40.5593 169.859 43.9006C170.039 44.4218 170.131 44.9835 170.375 45.4757C170.903 46.5528 171.146 47.3925 169.998 48.4117C168.647 49.6104 168.2 51.2145 169.145 53.0386C169.963 54.6137 169.598 56.0267 168.757 57.6829C166.611 61.916 164.657 66.2765 163.021 70.7355C162.354 72.5596 161.972 71.8126 161.235 71.1061C157.471 67.4868 155.169 62.9931 153.957 58.013C152.281 51.1276 152.275 44.3581 156.538 38.1966C157.947 36.1582 163.462 32.5158 165.451 32.5737V32.5679Z" fill="#FFF100"/>
<path d="M177.166 77.9105C174.637 77.4415 171.813 77.0534 169.058 76.3759C166.814 75.82 166.199 74.4765 167.034 72.4034C168.525 68.7146 170.044 65.0374 171.645 61.3949C172.81 58.7485 172.973 58.8585 175.861 59.0786C177.119 59.1712 178.604 58.8701 179.683 58.2331C181.33 57.266 182.745 57.6483 184.258 58.2389C188.933 60.0688 193.566 62.0088 198.293 63.6997C199.957 64.2962 200.131 64.5915 199.209 66.2129C195.498 72.7335 189.484 75.571 182.577 77.0882C180.912 77.453 179.201 77.6036 177.172 77.9047L177.166 77.9105Z" fill="#226995"/>
<path d="M202.456 54.5734C202.3 55.3783 201.83 56.6697 201.836 57.9494C201.853 60.0284 200.989 60.37 199.243 59.7504C196.251 58.6849 193.229 57.6946 190.243 56.6002C189.187 56.2122 188.213 55.6041 187.198 55.1003C183.179 53.1083 183.156 53.1141 182.686 48.852C182.634 48.3655 182.901 47.7575 183.197 47.329C186.189 43.0032 190.063 39.5055 193.92 35.9905C194.865 35.1334 195.7 35.2319 196.35 36.1584C197.312 37.5366 198.234 38.967 198.988 40.4726C201.122 44.7347 202.108 49.3095 202.445 54.5734H202.456Z" fill="#EC974C"/>
<path d="M176.064 45.8524C175.635 45.3775 174.828 44.8622 174.579 44.1499C173.06 39.7662 171.726 35.313 170.201 30.9293C169.702 29.499 170.375 29.1573 171.471 29.0704C178.059 28.5319 184.484 29.1052 190.539 31.989C190.8 32.1164 191.038 32.8924 190.893 33.1356C190.562 33.7031 190.052 34.207 189.512 34.6007C185.604 37.4498 182.501 41.0402 179.572 44.8448C179.033 45.5455 177.49 45.476 176.058 45.8524H176.064Z" fill="#67A045"/>
<path d="M177.124 49.8999C178.394 49.813 179.282 50.2705 179.113 51.6603C178.858 53.7913 177.861 54.7874 176.098 54.5789C174.561 54.3994 173.505 53.9419 173.355 52.3147C173.216 50.8032 174.7 49.8825 177.118 49.8941L177.124 49.8999Z" fill="white"/>
</svg>
