<svg width="163" height="61" viewBox="0 0 163 61" fill="none" xmlns="http://www.w3.org/2000/svg">
<g filter="url(#filter0_d_420_352)">
<path d="M158.979 54.0045L158.28 4.18799C158.269 3.34505 157.565 2.67739 156.722 2.71016L142.455 3.26509H92.8182L47.9091 4.13178L4.54944 2.7015C3.70209 2.67355 2.99998 3.35288 2.99998 4.20069V55.0704C2.99998 55.6746 3.36246 56.2198 3.91956 56.4536L4.92235 56.8744C5.11951 56.9571 5.33209 56.9968 5.54582 56.9906L57.1803 55.5083L109.756 56.0677L157.496 55.5254C158.326 55.516 158.991 54.8344 158.979 54.0045Z" fill="#14385D"/>
</g>
<path d="M161.5 2.82324C135.867 2.82324 131.983 3.00778 106.363 3.00778C80.7301 3.00778 79.1722 3.25975 53.5388 3.25975C27.9055 3.25975 27.1333 2.82324 1.5 2.82324" stroke="black" stroke-width="3" stroke-miterlimit="10" stroke-linecap="round" stroke-linejoin="round"/>
<path d="M159 56.4016C132.998 56.4016 132.998 56.3071 107.009 56.3071C81.0069 56.3071 81.0069 55.9922 55.0046 55.9922C29.0023 55.9922 29.0023 57.0001 3 57.0001" stroke="black" stroke-width="3" stroke-miterlimit="10" stroke-linecap="round" stroke-linejoin="round"/>
<path d="M2.16924 56.7203C1.93476 56.466 2.71363 2.23999 2.71363 2.23999C2.71363 2.23999 3.10465 56.2086 2.97286 56.7203C2.84108 57.232 2.35682 56.9238 2.16924 56.7203Z" stroke="black" stroke-width="3" stroke-miterlimit="10" stroke-linecap="round" stroke-linejoin="round"/>
<path d="M158.95 56.4803C159.217 56.226 158.33 2 158.33 2C158.33 2 157.885 55.9686 158.035 56.4803C158.185 56.992 158.736 56.6838 158.95 56.4803Z" stroke="black" stroke-width="3" stroke-miterlimit="10" stroke-linecap="round" stroke-linejoin="round"/>
<path d="M52.2805 33.18C52.6671 33.18 53.0138 33.2467 53.3205 33.38C53.6405 33.5133 53.8271 33.7933 53.8805 34.22C53.9071 34.4333 53.8738 34.6267 53.7805 34.8C53.7005 34.9733 53.5871 35.12 53.4405 35.24C53.2938 35.36 53.1205 35.4533 52.9205 35.52C52.7338 35.5867 52.5538 35.6267 52.3805 35.64C52.2338 35.64 51.9738 35.64 51.6005 35.64C51.2405 35.64 50.8338 35.64 50.3805 35.64C49.9405 35.64 49.4871 35.64 49.0205 35.64C48.5538 35.64 48.1605 35.64 47.8405 35.64H47.6805C47.3738 35.6267 47.0538 35.6133 46.7205 35.6C46.4005 35.5867 46.0871 35.5333 45.7805 35.44C45.5671 35.3733 45.3671 35.2533 45.1805 35.08C44.9938 34.9067 44.8471 34.7067 44.7405 34.48C44.6738 34.3333 44.6271 34.16 44.6005 33.96C44.5738 33.7467 44.5538 33.5467 44.5405 33.36C44.5271 33.16 44.5205 32.9867 44.5205 32.84C44.5338 32.6933 44.5405 32.6133 44.5405 32.6V24.1C44.5405 24.06 44.5338 23.9533 44.5205 23.78C44.5071 23.6067 44.5005 23.4067 44.5005 23.18C44.5138 22.9533 44.5338 22.72 44.5605 22.48C44.6005 22.24 44.6738 22.04 44.7805 21.88C44.8605 21.7467 45.0005 21.64 45.2005 21.56C45.4138 21.48 45.6271 21.42 45.8405 21.38C46.0671 21.34 46.2671 21.32 46.4405 21.32C46.6271 21.3067 46.7405 21.3 46.7805 21.3H51.4605C51.4738 21.3 51.5738 21.3 51.7605 21.3C51.9605 21.3 52.1738 21.3267 52.4005 21.38C52.6271 21.42 52.8471 21.4933 53.0605 21.6C53.2738 21.7067 53.4138 21.8667 53.4805 22.08C53.5071 22.16 53.5205 22.26 53.5205 22.38C53.5338 22.4867 53.5405 22.6067 53.5405 22.74C53.5405 22.86 53.5271 22.9733 53.5005 23.08C53.4871 23.1867 53.4671 23.2667 53.4405 23.32C53.3471 23.4933 53.1805 23.6133 52.9405 23.68C52.6738 23.7467 52.2938 23.78 51.8005 23.78C51.7205 23.78 51.6271 23.78 51.5205 23.78C51.4271 23.78 51.2738 23.78 51.0605 23.78C50.8605 23.7667 50.5738 23.76 50.2005 23.76C49.8405 23.76 49.3538 23.76 48.7405 23.76C48.5538 23.76 48.3605 23.7667 48.1605 23.78C47.9738 23.7933 47.8338 23.82 47.7405 23.86C47.6471 23.9 47.5738 23.98 47.5205 24.1C47.4805 24.2067 47.4471 24.3333 47.4205 24.48C47.4071 24.6133 47.4005 24.7467 47.4005 24.88C47.4005 25.0133 47.4071 25.12 47.4205 25.2V25.22L47.5005 32.14C47.5005 32.4067 47.5605 32.6267 47.6805 32.8C47.8005 32.96 48.0138 33.04 48.3205 33.04C48.3605 33.04 48.5005 33.0533 48.7405 33.08C48.9938 33.0933 49.3071 33.1067 49.6805 33.12C50.0671 33.1333 50.4871 33.1467 50.9405 33.16C51.3938 33.1733 51.8405 33.18 52.2805 33.18ZM59.1805 26.86C59.4205 26.9133 59.6271 27.02 59.8005 27.18C59.9871 27.34 60.0805 27.5667 60.0805 27.86C60.0805 27.9667 60.0738 28.0667 60.0605 28.16C60.0605 28.24 60.0471 28.3333 60.0205 28.44C59.9805 28.6667 59.8938 28.86 59.7605 29.02C59.6405 29.18 59.4538 29.26 59.2005 29.26L57.5605 29.28C57.5471 29.6267 57.5405 30.0133 57.5405 30.44C57.5405 30.8667 57.5405 31.3067 57.5405 31.76C57.5405 32.2133 57.5405 32.6733 57.5405 33.14C57.5538 33.5933 57.5605 34.0267 57.5605 34.44C57.5605 34.6133 57.5538 34.8267 57.5405 35.08C57.5271 35.3333 57.4805 35.58 57.4005 35.82C57.3205 36.0467 57.2005 36.2467 57.0405 36.42C56.8805 36.5933 56.6538 36.6867 56.3605 36.7C56.0405 36.7267 55.7871 36.6733 55.6005 36.54C55.4138 36.4067 55.2738 36.2333 55.1805 36.02C55.0871 35.82 55.0271 35.6 55.0005 35.36C54.9738 35.1067 54.9605 34.8733 54.9605 34.66V22.38C54.9605 22.3667 54.9605 22.3067 54.9605 22.2C54.9605 22.08 54.9738 21.9467 55.0005 21.8C55.0271 21.64 55.0671 21.48 55.1205 21.32C55.1871 21.1467 55.2738 21.0067 55.3805 20.9C55.4738 20.8067 55.6071 20.74 55.7805 20.7C55.9671 20.6467 56.1338 20.62 56.2805 20.62C56.5738 20.62 56.8205 20.72 57.0205 20.92C57.2071 21.1067 57.3138 21.3067 57.3405 21.52C57.3805 21.72 57.4138 21.9333 57.4405 22.16C57.5071 22.8933 57.5471 23.6467 57.5605 24.42C57.5871 25.1933 57.6005 25.96 57.6005 26.72L59.1805 26.86ZM70.242 33.46C70.282 33.5267 70.3154 33.6 70.342 33.68C70.382 33.7467 70.4154 33.8267 70.442 33.92C70.482 34.0667 70.5087 34.2267 70.522 34.4C70.5354 34.5733 70.4954 34.7533 70.402 34.94C70.1887 35.3533 69.8954 35.5733 69.522 35.6H69.502C69.262 35.6 69.0487 35.52 68.862 35.36C68.6887 35.2 68.502 35.0067 68.302 34.78C68.102 34.5667 67.922 34.3533 67.762 34.14C67.602 33.9267 67.4554 33.7333 67.322 33.56C67.3087 33.5333 67.2887 33.5067 67.262 33.48C67.2487 33.44 67.2287 33.3933 67.202 33.34C66.8687 32.8333 66.622 32.48 66.462 32.28C66.302 32.08 66.2087 31.9733 66.182 31.96C66.1554 31.9867 66.0887 32.06 65.982 32.18C65.8887 32.2867 65.8287 32.3533 65.802 32.38C65.7754 32.42 65.7487 32.46 65.722 32.5C65.6954 32.5267 65.6687 32.5533 65.642 32.58C65.522 32.7133 65.422 32.8533 65.342 33C65.2754 33.1333 65.1887 33.2733 65.082 33.42C64.9754 33.5667 64.862 33.7067 64.742 33.84C64.6354 33.9733 64.522 34.1067 64.402 34.24C64.3487 34.2933 64.2954 34.36 64.242 34.44C64.042 34.6667 63.8287 34.8867 63.602 35.1C63.3887 35.3133 63.1354 35.4733 62.842 35.58C62.722 35.6333 62.5887 35.66 62.442 35.66C62.1354 35.66 61.862 35.54 61.622 35.3C61.3954 35.0733 61.282 34.7933 61.282 34.46C61.2954 34.22 61.3554 33.9933 61.462 33.78C61.582 33.5667 61.6954 33.3667 61.802 33.18L61.842 33.1C61.882 33.0333 61.922 32.9733 61.962 32.92C62.002 32.8667 62.042 32.8133 62.082 32.76C62.1087 32.72 62.1287 32.6867 62.142 32.66C62.1687 32.62 62.1954 32.5867 62.222 32.56C62.382 32.32 62.522 32.1267 62.642 31.98C62.6687 31.9533 62.682 31.9333 62.682 31.92C62.6954 31.8933 62.7154 31.8667 62.742 31.84C62.7687 31.7867 62.7954 31.7533 62.822 31.74L62.862 31.68C62.9154 31.6133 62.962 31.5533 63.002 31.5C63.042 31.4333 63.082 31.3667 63.122 31.3C63.2154 31.1533 63.2954 31.02 63.362 30.9C63.442 30.7667 63.5154 30.64 63.582 30.52C63.662 30.3733 63.742 30.2333 63.822 30.1C63.902 29.9533 63.9954 29.8133 64.102 29.68C64.1687 29.5733 64.2354 29.4667 64.302 29.36C64.382 29.2533 64.4554 29.1467 64.522 29.04L64.602 28.92C64.6954 28.7733 64.762 28.6467 64.802 28.54C64.8554 28.42 64.8887 28.2867 64.902 28.14C64.9287 27.9267 64.942 27.72 64.942 27.52C64.942 27.3067 64.942 27.08 64.942 26.84V23.54C64.942 23.4067 64.942 23.28 64.942 23.16C64.942 23.04 64.9487 22.9133 64.962 22.78C64.962 22.6333 64.9754 22.4867 65.002 22.34C65.0287 22.1933 65.062 22.06 65.102 21.94C65.1687 21.7667 65.2554 21.5933 65.362 21.42C65.4287 21.3133 65.522 21.2333 65.642 21.18C65.7754 21.1267 65.9154 21.0867 66.062 21.06L66.102 21.04C66.2087 21.0133 66.302 21.0067 66.382 21.02C66.4754 21.02 66.5754 21.04 66.682 21.08C66.8154 21.1333 66.9154 21.1933 66.982 21.26C67.0487 21.3133 67.102 21.3867 67.142 21.48C67.182 21.5733 67.222 21.6733 67.262 21.78C67.382 22.0333 67.462 22.36 67.502 22.76C67.5554 23.32 67.5887 23.9133 67.602 24.54C67.6154 25.1533 67.622 25.74 67.622 26.3C67.6354 26.6467 67.642 26.9933 67.642 27.34C67.642 27.6733 67.6554 28.0067 67.682 28.34C67.6954 28.6333 67.7687 28.9067 67.902 29.16C68.0487 29.4133 68.1954 29.6667 68.342 29.92C68.4887 30.2133 68.642 30.5067 68.802 30.8C68.962 31.08 69.1287 31.36 69.302 31.64C69.3687 31.7733 69.4354 31.9067 69.502 32.04C69.582 32.16 69.662 32.2867 69.742 32.42C69.7687 32.4867 69.7954 32.5467 69.822 32.6C69.862 32.6533 69.8954 32.7067 69.922 32.76C69.9487 32.8267 69.982 32.9 70.022 32.98C70.062 33.0467 70.0954 33.1133 70.122 33.18L70.182 33.34L70.242 33.46ZM75.282 35.14C75.2554 35.3 75.2354 35.46 75.222 35.62C75.2087 35.7667 75.1754 35.92 75.122 36.08C75.0954 36.1333 75.0754 36.18 75.062 36.22C75.0487 36.26 75.0287 36.3067 75.002 36.36C74.9087 36.5467 74.7887 36.6933 74.642 36.8C74.3354 36.9867 73.9954 37.0333 73.622 36.94C73.4087 36.9 73.2354 36.82 73.102 36.7C72.982 36.5933 72.8887 36.4533 72.822 36.28C72.7687 36.12 72.722 35.96 72.682 35.8C72.6554 35.64 72.642 35.5 72.642 35.38C72.642 35.26 72.642 35.1933 72.642 35.18V22.82C72.642 22.66 72.642 22.4867 72.642 22.3C72.642 22.1133 72.6554 21.9267 72.682 21.74C72.7087 21.5533 72.7487 21.38 72.802 21.22C72.8554 21.06 72.9287 20.9333 73.022 20.84C73.1687 20.6933 73.322 20.6067 73.482 20.58C73.642 20.54 73.8154 20.52 74.002 20.52C74.2287 20.52 74.4354 20.5867 74.622 20.72C74.822 20.84 74.962 21.0133 75.042 21.24C75.162 21.52 75.2287 21.8133 75.242 22.12C75.2554 22.4267 75.2687 22.7333 75.282 23.04V23.14C75.3087 24.1667 75.3154 25.22 75.302 26.3C75.2887 27.38 75.282 28.4 75.282 29.36V34.42C75.282 34.54 75.282 34.66 75.282 34.78C75.2954 34.9 75.2954 35.02 75.282 35.14ZM88.8364 25.44C89.5564 25.4667 90.1631 25.64 90.6564 25.96C91.1497 26.28 91.5497 26.6933 91.8564 27.2C92.1631 27.7067 92.3764 28.28 92.4964 28.92C92.6164 29.56 92.6631 30.2067 92.6364 30.86C92.6231 31.5133 92.5297 32.1533 92.3564 32.78C92.1964 33.4067 91.9831 33.96 91.7164 34.44C91.4231 34.96 91.0097 35.36 90.4764 35.64C89.9564 35.9067 89.3964 36.06 88.7964 36.1C88.1964 36.14 87.6031 36.06 87.0164 35.86C86.4431 35.66 85.9564 35.3467 85.5564 34.92C85.2097 34.5467 84.9631 34.16 84.8164 33.76C84.6697 33.3467 84.5631 32.8933 84.4964 32.4C84.4297 31.9067 84.3764 31.4333 84.3364 30.98C84.2964 30.5133 84.2897 30.0533 84.3164 29.6C84.3431 29.1467 84.4164 28.7 84.5364 28.26C84.6697 27.82 84.8697 27.38 85.1364 26.94C85.2831 26.6867 85.4897 26.4667 85.7564 26.28C86.0231 26.08 86.3231 25.92 86.6564 25.8C86.9897 25.6667 87.3431 25.5733 87.7164 25.52C88.1031 25.4533 88.4764 25.4267 88.8364 25.44ZM98.1964 26.9C98.2631 26.9 98.3231 26.9067 98.3764 26.92C98.4431 26.9333 98.5097 26.94 98.5764 26.94C98.6431 26.9533 98.7164 26.9667 98.7964 26.98C98.8764 26.98 98.9564 26.9867 99.0364 27C99.1831 27.0267 99.3297 27.08 99.4764 27.16C99.6231 27.2267 99.7297 27.3333 99.7964 27.48C99.8897 27.6267 99.9364 27.8 99.9364 28C99.9364 28.1067 99.9297 28.2067 99.9164 28.3C99.9164 28.38 99.9031 28.4733 99.8764 28.58C99.8497 28.6867 99.8164 28.8 99.7764 28.92C99.7497 29.04 99.6897 29.1333 99.5964 29.2C99.4097 29.3333 99.2297 29.42 99.0564 29.46C98.8431 29.4867 98.5831 29.4933 98.2764 29.48C97.9697 29.4667 97.7097 29.4667 97.4964 29.48C97.4831 29.48 97.4697 29.4867 97.4564 29.5H97.4364L97.4164 29.52V29.58C97.4031 29.9133 97.3964 30.3 97.3964 30.74C97.4097 31.18 97.4164 31.5733 97.4164 31.92C97.4431 32.6133 97.4431 33.2933 97.4164 33.96V34.24C97.4164 34.4133 97.4097 34.6067 97.3964 34.82C97.3964 35.02 97.3831 35.22 97.3564 35.42C97.3297 35.62 97.2831 35.8133 97.2164 36C97.1497 36.1733 97.0564 36.32 96.9364 36.44C96.7764 36.6267 96.5631 36.72 96.2964 36.72C96.2964 36.72 96.2831 36.7133 96.2564 36.7C95.9364 36.6867 95.6764 36.5933 95.4764 36.42C95.2897 36.2467 95.1431 36.0333 95.0364 35.78C94.9431 35.5267 94.8831 35.2667 94.8564 35C94.8297 34.72 94.8164 34.4733 94.8164 34.26V22.38C94.8164 22.3667 94.8164 22.3067 94.8164 22.2C94.8164 22.08 94.8297 21.9467 94.8564 21.8C94.8831 21.64 94.9231 21.48 94.9764 21.32C95.0431 21.1467 95.1297 21.0067 95.2364 20.9C95.3297 20.8067 95.4631 20.74 95.6364 20.7C95.8231 20.6467 95.9897 20.62 96.1364 20.62C96.4297 20.62 96.6764 20.72 96.8764 20.92C97.0631 21.1067 97.1697 21.3067 97.1964 21.52C97.2364 21.72 97.2697 21.9333 97.2964 22.16C97.3097 22.2133 97.3164 22.2933 97.3164 22.4C97.3431 22.6267 97.3564 22.86 97.3564 23.1C97.3697 23.34 97.3831 23.58 97.3964 23.82C97.3964 23.9667 97.3964 24.1133 97.3964 24.26C97.4097 24.3933 97.4164 24.5333 97.4164 24.68C97.4031 24.76 97.3964 24.84 97.3964 24.92C97.4097 24.9867 97.4164 25.0533 97.4164 25.12V26.42C97.4164 26.4867 97.4164 26.56 97.4164 26.64C97.4164 26.72 97.4297 26.7933 97.4564 26.86C97.4564 26.8733 97.5231 26.88 97.6564 26.88C97.7897 26.88 97.8631 26.88 97.8764 26.88C97.9964 26.9067 98.0897 26.9133 98.1564 26.9H98.1964ZM91.6364 22.24C91.9031 22.24 92.1697 22.28 92.4364 22.36C92.7031 22.44 92.9097 22.6133 93.0564 22.88C93.1497 23.0533 93.1831 23.2733 93.1564 23.54C93.1297 23.7933 93.0497 24.0067 92.9164 24.18C92.7831 24.34 92.5764 24.4533 92.2964 24.52C92.0164 24.5867 91.7231 24.6333 91.4164 24.66C91.1097 24.6733 90.8231 24.6733 90.5564 24.66C90.3031 24.6467 90.1297 24.64 90.0364 24.64C89.9297 24.6533 89.8231 24.66 89.7164 24.66C89.6231 24.66 89.5164 24.66 89.3964 24.66H88.7564C88.6497 24.6467 88.5431 24.64 88.4364 24.64C88.3431 24.64 88.2431 24.64 88.1364 24.64L85.7764 24.6C85.0964 24.6 84.6097 24.5133 84.3164 24.34C84.0231 24.1667 83.8497 23.8933 83.7964 23.52C83.7431 23.1333 83.8431 22.82 84.0964 22.58C84.2831 22.42 84.4364 22.32 84.5564 22.28C84.6897 22.24 84.8564 22.22 85.0564 22.22C85.1097 22.22 85.1631 22.2267 85.2164 22.24C85.2697 22.24 85.3231 22.24 85.3764 22.24H85.8764C86.0631 22.24 86.2831 22.24 86.5364 22.24C86.7897 22.2267 87.0097 22.2133 87.1964 22.2C87.1964 22.1467 87.1964 22.0733 87.1964 21.98C87.2097 21.8733 87.2164 21.7667 87.2164 21.66C87.2297 21.5533 87.2364 21.4533 87.2364 21.36C87.2497 21.2533 87.2564 21.18 87.2564 21.14C87.2831 20.9133 87.3564 20.7067 87.4764 20.52C87.7564 20.1333 88.1031 19.9533 88.5164 19.98C88.7031 20.0067 88.8897 20.04 89.0764 20.08C89.2631 20.1067 89.4164 20.2 89.5364 20.36C89.6831 20.5733 89.7497 20.8667 89.7364 21.24C89.7364 21.6 89.7497 21.9267 89.7764 22.22H90.3564C90.4631 22.22 90.6164 22.2267 90.8164 22.24C91.0164 22.24 91.1697 22.24 91.2764 22.24H91.6364ZM88.7564 33.9C89.0497 33.86 89.3031 33.7467 89.5164 33.56C89.7297 33.36 89.9031 33.1267 90.0364 32.86C90.1697 32.5933 90.2631 32.3067 90.3164 32C90.3697 31.6933 90.3964 31.4067 90.3964 31.14C90.3964 30.9133 90.3831 30.66 90.3564 30.38C90.3431 30.0867 90.3097 29.8067 90.2564 29.54C90.2031 29.26 90.1164 29.0067 89.9964 28.78C89.8764 28.54 89.7164 28.3467 89.5164 28.2C89.3297 28.08 89.1097 28.0067 88.8564 27.98C88.6031 27.94 88.3431 27.9467 88.0764 28C87.8231 28.0533 87.5897 28.1467 87.3764 28.28C87.1631 28.4 87.0097 28.5667 86.9164 28.78C86.6631 29.3267 86.5297 29.8733 86.5164 30.42C86.5164 30.9667 86.5764 31.5267 86.6964 32.1C86.7631 32.3933 86.8564 32.7 86.9764 33.02C87.0964 33.3267 87.2831 33.5667 87.5364 33.74C87.5897 33.78 87.6697 33.8133 87.7764 33.84C87.8964 33.8533 88.0164 33.8667 88.1364 33.88C88.2697 33.8933 88.3897 33.9067 88.4964 33.92C88.6164 33.92 88.7031 33.9133 88.7564 33.9ZM116.178 35.14C116.151 35.3 116.131 35.46 116.118 35.62C116.105 35.7667 116.071 35.92 116.018 36.08C115.991 36.1333 115.971 36.18 115.958 36.22C115.945 36.26 115.925 36.3067 115.898 36.36C115.805 36.5467 115.685 36.6933 115.538 36.8C115.231 36.9867 114.891 37.0333 114.518 36.94C114.305 36.9 114.131 36.82 113.998 36.7C113.878 36.5933 113.785 36.4533 113.718 36.28C113.665 36.12 113.618 35.96 113.578 35.8C113.551 35.64 113.538 35.5 113.538 35.38C113.538 35.26 113.538 35.1933 113.538 35.18V22.82C113.538 22.66 113.538 22.4867 113.538 22.3C113.538 22.1133 113.551 21.9267 113.578 21.74C113.605 21.5533 113.645 21.38 113.698 21.22C113.751 21.06 113.825 20.9333 113.918 20.84C114.065 20.6933 114.218 20.6067 114.378 20.58C114.538 20.54 114.711 20.52 114.898 20.52C115.125 20.52 115.331 20.5867 115.518 20.72C115.718 20.84 115.858 21.0133 115.938 21.24C116.058 21.52 116.125 21.8133 116.138 22.12C116.151 22.4267 116.165 22.7333 116.178 23.04V23.14C116.205 24.1667 116.211 25.22 116.198 26.3C116.185 27.38 116.178 28.4 116.178 29.36V34.42C116.178 34.54 116.178 34.66 116.178 34.78C116.191 34.9 116.191 35.02 116.178 35.14ZM106.738 33.18C106.725 33.02 106.718 32.86 106.718 32.7C106.718 32.54 106.718 32.38 106.718 32.22V25.86C106.718 25.6467 106.718 25.4333 106.718 25.22C106.718 25.0067 106.705 24.7867 106.678 24.56C106.665 24.4933 106.645 24.4 106.618 24.28C106.605 24.16 106.565 24.0867 106.498 24.06C106.431 24.02 106.351 24.0067 106.258 24.02C106.178 24.02 106.098 24.0133 106.018 24C105.925 23.9867 105.831 23.9867 105.738 24C105.658 24.0133 105.571 24.0133 105.478 24H104.538C104.311 24.0133 104.085 24.0133 103.858 24C103.631 23.9867 103.405 23.9867 103.178 24C103.071 24.0133 102.971 24.02 102.878 24.02C102.798 24.0067 102.705 24 102.598 24C102.451 24 102.298 23.9933 102.138 23.98C101.978 23.9667 101.831 23.9133 101.698 23.82C101.511 23.6867 101.385 23.52 101.318 23.32C101.251 23.12 101.218 22.9133 101.218 22.7C101.205 22.4467 101.258 22.1933 101.378 21.94C101.445 21.78 101.531 21.6667 101.638 21.6C101.705 21.5333 101.798 21.48 101.918 21.44C102.051 21.3867 102.165 21.3467 102.258 21.32C102.538 21.2533 102.831 21.22 103.138 21.22C103.445 21.2067 103.745 21.2 104.038 21.2H107.518C107.691 21.2267 107.871 21.2533 108.058 21.28C108.258 21.2933 108.438 21.3333 108.598 21.4C108.705 21.44 108.805 21.4933 108.898 21.56C109.005 21.6267 109.091 21.7067 109.158 21.8C109.278 21.9867 109.345 22.1733 109.358 22.36C109.385 22.5467 109.411 22.7533 109.438 22.98C109.465 23.3533 109.478 23.7267 109.478 24.1C109.478 24.46 109.478 24.8267 109.478 25.2V31.76C109.478 31.7733 109.478 31.88 109.478 32.08C109.491 32.2667 109.498 32.4933 109.498 32.76C109.498 33.0133 109.498 33.2867 109.498 33.58C109.498 33.86 109.491 34.1067 109.478 34.32C109.465 34.4533 109.445 34.5933 109.418 34.74C109.391 34.8867 109.345 35.0267 109.278 35.16C109.225 35.2933 109.145 35.4133 109.038 35.52C108.931 35.6267 108.791 35.7133 108.618 35.78C108.391 35.8733 108.165 35.92 107.938 35.92C107.765 35.92 107.591 35.8867 107.418 35.82C107.245 35.74 107.125 35.6267 107.058 35.48C106.845 35.0533 106.738 34.58 106.738 34.06V33.18Z" fill="white"/>
<defs>
<filter id="filter0_d_420_352" x="3" y="2.70068" width="159.979" height="58.2905" filterUnits="userSpaceOnUse" color-interpolation-filters="sRGB">
<feFlood flood-opacity="0" result="BackgroundImageFix"/>
<feColorMatrix in="SourceAlpha" type="matrix" values="0 0 0 0 0 0 0 0 0 0 0 0 0 0 0 0 0 0 127 0" result="hardAlpha"/>
<feOffset dx="4" dy="4"/>
<feColorMatrix type="matrix" values="0 0 0 0 0.694118 0 0 0 0 0.721569 0 0 0 0 0.741176 0 0 0 1 0"/>
<feBlend mode="multiply" in2="BackgroundImageFix" result="effect1_dropShadow_420_352"/>
<feBlend mode="normal" in="SourceGraphic" in2="effect1_dropShadow_420_352" result="shape"/>
</filter>
</defs>
</svg>
