<svg width="240" height="70" viewBox="0 0 240 70" fill="none" xmlns="http://www.w3.org/2000/svg">
<g filter="url(#filter0_d_111_283)">
<path d="M4.02707 62.7482L5.07512 4.16927C5.09007 3.33359 5.78516 2.67133 6.62058 2.6968L28.6061 3.367H102.424L169.212 4.37721L234.461 2.6903C235.305 2.66849 236 3.34618 236 4.18979V63.8277C236 64.4756 235.584 65.0502 234.969 65.2526L232.941 65.9195C232.779 65.9728 232.609 65.9981 232.439 65.9943L155.424 64.2615L77.2345 64.9134L5.51348 64.2749C4.67982 64.2675 4.01216 63.5817 4.02707 62.7482Z" fill="#14385D"/>
</g>
<path d="M1.5 2.82336C39.3092 2.82336 45.0373 3.0079 82.8265 3.0079C120.636 3.0079 122.934 3.25987 160.743 3.25987C198.552 3.25987 199.691 2.82336 237.5 2.82336" stroke="black" stroke-width="3" stroke-miterlimit="10" stroke-linecap="round" stroke-linejoin="round"/>
<path d="M4 65.4016C42.6701 65.4016 42.6701 65.3071 81.3197 65.3071C119.99 65.3071 119.99 64.9922 158.66 64.9922C197.33 64.9922 197.33 66.0001 236 66.0001" stroke="black" stroke-width="3" stroke-miterlimit="10" stroke-linecap="round" stroke-linejoin="round"/>
<path d="M236.831 65.6743C237.065 65.3782 236.286 2.23999 236.286 2.23999C236.286 2.23999 235.895 65.0785 236.027 65.6743C236.159 66.2701 236.643 65.9112 236.831 65.6743Z" stroke="black" stroke-width="3" stroke-miterlimit="10" stroke-linecap="round" stroke-linejoin="round"/>
<path d="M4.05024 65.4343C3.78328 65.1382 4.67005 2 4.67005 2C4.67005 2 5.11524 64.8385 4.9652 65.4343C4.81516 66.0302 4.2638 65.6712 4.05024 65.4343Z" stroke="black" stroke-width="3" stroke-miterlimit="10" stroke-linecap="round" stroke-linejoin="round"/>
<path d="M68.32 43.92C68.4 44.0533 68.4667 44.2 68.52 44.36C68.6 44.4933 68.6667 44.6533 68.72 44.84C68.8 45.1333 68.8533 45.4533 68.88 45.8C68.9067 46.1467 68.8267 46.5067 68.64 46.88C68.2133 47.7067 67.6267 48.1467 66.88 48.2H66.84C66.36 48.2 65.9333 48.04 65.56 47.72C65.2133 47.4 64.84 47.0133 64.44 46.56C64.04 46.1333 63.68 45.7067 63.36 45.28C63.04 44.8533 62.7467 44.4667 62.48 44.12C62.4533 44.0667 62.4133 44.0133 62.36 43.96C62.3333 43.88 62.2933 43.7867 62.24 43.68C61.5733 42.6667 61.08 41.96 60.76 41.56C60.44 41.16 60.2533 40.9467 60.2 40.92C60.1467 40.9733 60.0133 41.12 59.8 41.36C59.6133 41.5733 59.4933 41.7067 59.44 41.76C59.3867 41.84 59.3333 41.92 59.28 42C59.2267 42.0533 59.1733 42.1067 59.12 42.16C58.88 42.4267 58.68 42.7067 58.52 43C58.3867 43.2667 58.2133 43.5467 58 43.84C57.7867 44.1333 57.56 44.4133 57.32 44.68C57.1067 44.9467 56.88 45.2133 56.64 45.48C56.5333 45.5867 56.4267 45.72 56.32 45.88C55.92 46.3333 55.4933 46.7733 55.04 47.2C54.6133 47.6267 54.1067 47.9467 53.52 48.16C53.28 48.2667 53.0133 48.32 52.72 48.32C52.1067 48.32 51.56 48.08 51.08 47.6C50.6267 47.1467 50.4 46.5867 50.4 45.92C50.4267 45.44 50.5467 44.9867 50.76 44.56C51 44.1333 51.2267 43.7333 51.44 43.36L51.52 43.2C51.6 43.0667 51.68 42.9467 51.76 42.84C51.84 42.7333 51.92 42.6267 52 42.52C52.0533 42.44 52.0933 42.3733 52.12 42.32C52.1733 42.24 52.2267 42.1733 52.28 42.12C52.6 41.64 52.88 41.2533 53.12 40.96C53.1733 40.9067 53.2 40.8667 53.2 40.84C53.2267 40.7867 53.2667 40.7333 53.32 40.68C53.3733 40.5733 53.4267 40.5067 53.48 40.48L53.56 40.36C53.6667 40.2267 53.76 40.1067 53.84 40C53.92 39.8667 54 39.7333 54.08 39.6C54.2667 39.3067 54.4267 39.04 54.56 38.8C54.72 38.5333 54.8667 38.28 55 38.04C55.16 37.7467 55.32 37.4667 55.48 37.2C55.64 36.9067 55.8267 36.6267 56.04 36.36C56.1733 36.1467 56.3067 35.9333 56.44 35.72C56.6 35.5067 56.7467 35.2933 56.88 35.08L57.04 34.84C57.2267 34.5467 57.36 34.2933 57.44 34.08C57.5467 33.84 57.6133 33.5733 57.64 33.28C57.6933 32.8533 57.72 32.44 57.72 32.04C57.72 31.6133 57.72 31.16 57.72 30.68V24.08C57.72 23.8133 57.72 23.56 57.72 23.32C57.72 23.08 57.7333 22.8267 57.76 22.56C57.76 22.2667 57.7867 21.9733 57.84 21.68C57.8933 21.3867 57.96 21.12 58.04 20.88C58.1733 20.5333 58.3467 20.1867 58.56 19.84C58.6933 19.6267 58.88 19.4667 59.12 19.36C59.3867 19.2533 59.6667 19.1733 59.96 19.12L60.04 19.08C60.2533 19.0267 60.44 19.0133 60.6 19.04C60.7867 19.04 60.9867 19.08 61.2 19.16C61.4667 19.2667 61.6667 19.3867 61.8 19.52C61.9333 19.6267 62.04 19.7733 62.12 19.96C62.2 20.1467 62.28 20.3467 62.36 20.56C62.6 21.0667 62.76 21.72 62.84 22.52C62.9467 23.64 63.0133 24.8267 63.04 26.08C63.0667 27.3067 63.08 28.48 63.08 29.6C63.1067 30.2933 63.12 30.9867 63.12 31.68C63.12 32.3467 63.1467 33.0133 63.2 33.68C63.2267 34.2667 63.3733 34.8133 63.64 35.32C63.9333 35.8267 64.2267 36.3333 64.52 36.84C64.8133 37.4267 65.12 38.0133 65.44 38.6C65.76 39.16 66.0933 39.72 66.44 40.28C66.5733 40.5467 66.7067 40.8133 66.84 41.08C67 41.32 67.16 41.5733 67.32 41.84C67.3733 41.9733 67.4267 42.0933 67.48 42.2C67.56 42.3067 67.6267 42.4133 67.68 42.52C67.7333 42.6533 67.8 42.8 67.88 42.96C67.96 43.0933 68.0267 43.2267 68.08 43.36L68.2 43.68L68.32 43.92ZM78.4 47.28C78.3467 47.6 78.3067 47.92 78.28 48.24C78.2533 48.5333 78.1867 48.84 78.08 49.16C78.0267 49.2667 77.9867 49.36 77.96 49.44C77.9333 49.52 77.8933 49.6133 77.84 49.72C77.6533 50.0933 77.4133 50.3867 77.12 50.6C76.5067 50.9733 75.8267 51.0667 75.08 50.88C74.6533 50.8 74.3067 50.64 74.04 50.4C73.8 50.1867 73.6133 49.9067 73.48 49.56C73.3733 49.24 73.28 48.92 73.2 48.6C73.1467 48.28 73.12 48 73.12 47.76C73.12 47.52 73.12 47.3867 73.12 47.36V22.64C73.12 22.32 73.12 21.9733 73.12 21.6C73.12 21.2267 73.1467 20.8533 73.2 20.48C73.2533 20.1067 73.3333 19.76 73.44 19.44C73.5467 19.12 73.6933 18.8667 73.88 18.68C74.1733 18.3867 74.48 18.2133 74.8 18.16C75.12 18.08 75.4667 18.04 75.84 18.04C76.2933 18.04 76.7067 18.1733 77.08 18.44C77.48 18.68 77.76 19.0267 77.92 19.48C78.16 20.04 78.2933 20.6267 78.32 21.24C78.3467 21.8533 78.3733 22.4667 78.4 23.08V23.28C78.4533 25.3333 78.4667 27.44 78.44 29.6C78.4133 31.76 78.4 33.8 78.4 35.72V45.84C78.4 46.08 78.4 46.32 78.4 46.56C78.4267 46.8 78.4267 47.04 78.4 47.28ZM96.9581 23.12C96.9581 23.12 96.9448 23.28 96.9181 23.6C96.9181 23.92 96.9181 24.28 96.9181 24.68C96.9181 25.08 96.9181 25.4533 96.9181 25.8C96.9448 26.1467 96.9581 26.3467 96.9581 26.4C97.0915 26.5333 97.3315 26.76 97.6781 27.08C98.0248 27.3733 98.3181 27.6267 98.5581 27.84C98.8248 28.0533 99.0915 28.2933 99.3581 28.56C99.6515 28.8 99.9448 29.0667 100.238 29.36C100.425 29.5467 100.598 29.7333 100.758 29.92C100.918 30.08 101.065 30.2267 101.198 30.36C101.705 30.8667 102.211 31.4133 102.718 32C103.225 32.5867 103.571 33.1867 103.758 33.8C103.838 34.04 103.851 34.3067 103.798 34.6C103.745 34.8933 103.571 35.1467 103.278 35.36C102.825 35.6267 102.345 35.76 101.838 35.76C101.251 35.76 100.691 35.64 100.158 35.4C99.6248 35.16 99.1981 34.92 98.8781 34.68C98.3715 34.3067 97.9048 33.92 97.4781 33.52C97.0515 33.0933 96.6248 32.6667 96.1981 32.24C95.9048 31.9467 95.5715 31.6133 95.1981 31.24C94.8248 30.84 94.4515 30.4933 94.0781 30.2L92.9981 31.28C92.8115 31.4667 92.6248 31.6533 92.4381 31.84C92.2515 32 92.0781 32.1733 91.9181 32.36C91.5715 32.7333 91.2115 33.12 90.8381 33.52C90.4648 33.8933 90.0381 34.2533 89.5581 34.6C88.4648 35.4 87.4381 35.8 86.4781 35.8C86.3448 35.8 86.2248 35.8 86.1181 35.8C86.0381 35.8 85.9315 35.7733 85.7981 35.72C85.2115 35.5867 84.8248 35.3467 84.6381 35C84.4515 34.7067 84.3848 34.3733 84.4381 34C84.5181 33.6267 84.6381 33.2933 84.7981 33C85.0115 32.7067 85.2515 32.4267 85.5181 32.16C85.7848 31.8667 86.0515 31.5733 86.3181 31.28C86.5581 31.0133 86.9315 30.64 87.4381 30.16C87.9715 29.6533 88.5048 29.1467 89.0381 28.64C89.5715 28.1067 90.0648 27.6267 90.5181 27.2C90.9715 26.7733 91.2515 26.5067 91.3581 26.4V23.12H88.7981C88.4781 23.12 88.1048 23.1333 87.6781 23.16C87.2515 23.16 86.8248 23.1333 86.3981 23.08C85.9981 23.0267 85.6248 22.92 85.2781 22.76C84.9315 22.5733 84.6781 22.28 84.5181 21.88C84.3848 21.5867 84.2915 21.2533 84.2381 20.88C84.2115 20.5067 84.2381 20.16 84.3181 19.84C84.4248 19.4667 84.6648 19.2133 85.0381 19.08C85.4115 18.92 85.7715 18.8133 86.1181 18.76C86.1715 18.76 86.3848 18.76 86.7581 18.76C87.1581 18.76 87.5848 18.76 88.0381 18.76C88.4915 18.76 88.9181 18.76 89.3181 18.76C89.7181 18.76 89.9581 18.7467 90.0381 18.72H99.3981C100.465 18.72 101.358 18.7867 102.078 18.92C102.825 19.0533 103.425 19.3867 103.878 19.92C104.011 20.08 104.091 20.2933 104.118 20.56C104.171 20.8267 104.171 21.1067 104.118 21.4C104.091 21.6667 104.011 21.92 103.878 22.16C103.771 22.4 103.611 22.5733 103.398 22.68C103.185 22.76 102.931 22.8533 102.638 22.96C102.345 23.04 102.091 23.0933 101.878 23.12C101.505 23.1467 101.118 23.16 100.718 23.16C100.345 23.1333 99.9715 23.12 99.5981 23.12H96.9581ZM109.838 39.2C110.958 39.2 111.771 39.44 112.278 39.92C112.811 40.4 113.078 40.9467 113.078 41.56V43.84C113.078 43.92 113.078 44.12 113.078 44.44C113.078 44.7333 113.078 45.0533 113.078 45.4C113.078 45.7467 113.078 46.0667 113.078 46.36C113.105 46.6533 113.118 46.84 113.118 46.92C113.118 47.2133 113.118 47.5067 113.118 47.8C113.118 48.0933 113.105 48.3867 113.078 48.68C113.025 49.24 112.798 49.6933 112.398 50.04C112.025 50.3867 111.531 50.56 110.918 50.56C110.785 50.56 110.545 50.5467 110.198 50.52C109.878 50.52 109.651 50.4933 109.518 50.44C109.145 50.3333 108.851 50.1733 108.638 49.96C108.451 49.7467 108.305 49.5067 108.198 49.24C108.091 48.9733 108.025 48.6933 107.998 48.4C107.971 48.08 107.945 47.7733 107.918 47.48C107.918 47.3733 107.918 47.1467 107.918 46.8C107.918 46.4533 107.905 46.0933 107.878 45.72C107.878 45.32 107.865 44.96 107.838 44.64C107.811 44.2933 107.785 44.0667 107.758 43.96C107.678 43.9333 107.465 43.9067 107.118 43.88C106.771 43.8533 106.091 43.84 105.078 43.84C104.225 43.84 103.691 43.8533 103.478 43.88C103.291 43.88 103.185 43.88 103.158 43.88H88.7181C88.6915 43.88 88.5848 43.8533 88.3981 43.8C88.2381 43.7467 88.0515 43.6667 87.8381 43.56C87.6248 43.4267 87.4248 43.2667 87.2381 43.08C87.0515 42.8933 86.9448 42.6667 86.9181 42.4C86.7581 41.36 86.9181 40.56 87.3981 40C87.7181 39.6267 88.0648 39.4133 88.4381 39.36C88.8115 39.28 89.0115 39.2267 89.0381 39.2H109.838ZM113.038 30.2V33.84C113.011 34.1333 112.971 34.44 112.918 34.76C112.865 35.0533 112.758 35.3467 112.598 35.64C112.438 35.96 112.211 36.2267 111.918 36.44C111.705 36.5733 111.451 36.68 111.158 36.76C110.891 36.8133 110.651 36.84 110.438 36.84C110.225 36.84 109.998 36.8267 109.758 36.8C109.518 36.7467 109.318 36.6667 109.158 36.56C108.891 36.4 108.678 36.2 108.518 35.96C108.358 35.72 108.225 35.4933 108.118 35.28C108.038 35.04 107.985 34.84 107.958 34.68C107.931 34.4933 107.918 34.4 107.918 34.4V21.2C107.891 21.0933 107.905 20.8 107.958 20.32C108.011 19.84 108.118 19.44 108.278 19.12C108.411 18.8533 108.638 18.64 108.958 18.48C109.305 18.32 109.665 18.2133 110.038 18.16C110.491 18.1067 110.945 18.1333 111.398 18.24C111.851 18.3467 112.185 18.52 112.398 18.76C112.558 18.9733 112.665 19.1867 112.718 19.4C112.798 19.5867 112.865 19.7867 112.918 20C112.998 20.2667 113.038 20.5467 113.038 20.84C113.065 21.1333 113.065 21.4267 113.038 21.72V24.48V24.84C113.038 24.9733 113.025 25.12 112.998 25.28C112.998 25.4133 113.011 25.5733 113.038 25.76C113.145 25.76 113.345 25.7733 113.638 25.8C113.931 25.8 114.238 25.8133 114.558 25.84C114.878 25.84 115.185 25.8533 115.478 25.88C115.771 25.9067 115.985 25.9333 116.118 25.96C116.651 26.0667 117.025 26.2267 117.238 26.44C117.451 26.6267 117.585 26.8667 117.638 27.16C117.718 27.4533 117.758 27.8 117.758 28.2C117.758 28.5733 117.678 28.8933 117.518 29.16C117.198 29.6933 116.718 30 116.078 30.08C115.438 30.1333 114.731 30.1733 113.958 30.2H113.038ZM132.634 27.88C134.074 27.9333 135.287 28.28 136.274 28.92C137.26 29.56 138.06 30.3867 138.674 31.4C139.287 32.4133 139.714 33.56 139.954 34.84C140.194 36.12 140.287 37.4133 140.234 38.72C140.207 40.0267 140.02 41.3067 139.674 42.56C139.354 43.8133 138.927 44.92 138.394 45.88C137.807 46.92 136.98 47.72 135.914 48.28C134.874 48.8133 133.754 49.12 132.554 49.2C131.354 49.28 130.167 49.12 128.994 48.72C127.847 48.32 126.874 47.6933 126.074 46.84C125.38 46.0933 124.887 45.32 124.594 44.52C124.3 43.6933 124.087 42.7867 123.954 41.8C123.82 40.8133 123.714 39.8667 123.634 38.96C123.554 38.0267 123.54 37.1067 123.594 36.2C123.647 35.2933 123.794 34.4 124.034 33.52C124.3 32.64 124.7 31.76 125.234 30.88C125.527 30.3733 125.94 29.9333 126.474 29.56C127.007 29.16 127.607 28.84 128.274 28.6C128.94 28.3333 129.647 28.1467 130.394 28.04C131.167 27.9067 131.914 27.8533 132.634 27.88ZM151.354 30.8C151.487 30.8 151.607 30.8133 151.714 30.84C151.847 30.8667 151.98 30.88 152.114 30.88C152.247 30.9067 152.394 30.9333 152.554 30.96C152.714 30.96 152.874 30.9733 153.034 31C153.327 31.0533 153.62 31.16 153.914 31.32C154.207 31.4533 154.42 31.6667 154.554 31.96C154.74 32.2533 154.834 32.6 154.834 33C154.834 33.2133 154.82 33.4133 154.794 33.6C154.794 33.76 154.767 33.9467 154.714 34.16C154.66 34.3733 154.594 34.6 154.514 34.84C154.46 35.08 154.34 35.2667 154.154 35.4C153.78 35.6667 153.42 35.84 153.074 35.92C152.647 35.9733 152.127 35.9867 151.514 35.96C150.9 35.9333 150.38 35.9333 149.954 35.96C149.927 35.96 149.9 35.9733 149.874 36H149.834L149.794 36.04V36.16C149.767 36.8267 149.754 37.6 149.754 38.48C149.78 39.36 149.794 40.1467 149.794 40.84C149.847 42.2267 149.847 43.5867 149.794 44.92V45.48C149.794 45.8267 149.78 46.2133 149.754 46.64C149.754 47.04 149.727 47.44 149.674 47.84C149.62 48.24 149.527 48.6267 149.394 49C149.26 49.3467 149.074 49.64 148.834 49.88C148.514 50.2533 148.087 50.44 147.554 50.44C147.554 50.44 147.527 50.4267 147.474 50.4C146.834 50.3733 146.314 50.1867 145.914 49.84C145.54 49.4933 145.247 49.0667 145.034 48.56C144.847 48.0533 144.727 47.5333 144.674 47C144.62 46.44 144.594 45.9467 144.594 45.52V21.76C144.594 21.7333 144.594 21.6133 144.594 21.4C144.594 21.16 144.62 20.8933 144.674 20.6C144.727 20.28 144.807 19.96 144.914 19.64C145.047 19.2933 145.22 19.0133 145.434 18.8C145.62 18.6133 145.887 18.48 146.234 18.4C146.607 18.2933 146.94 18.24 147.234 18.24C147.82 18.24 148.314 18.44 148.714 18.84C149.087 19.2133 149.3 19.6133 149.354 20.04C149.434 20.44 149.5 20.8667 149.554 21.32C149.58 21.4267 149.594 21.5867 149.594 21.8C149.647 22.2533 149.674 22.72 149.674 23.2C149.7 23.68 149.727 24.16 149.754 24.64C149.754 24.9333 149.754 25.2267 149.754 25.52C149.78 25.7867 149.794 26.0667 149.794 26.36C149.767 26.52 149.754 26.68 149.754 26.84C149.78 26.9733 149.794 27.1067 149.794 27.24V29.84C149.794 29.9733 149.794 30.12 149.794 30.28C149.794 30.44 149.82 30.5867 149.874 30.72C149.874 30.7467 150.007 30.76 150.274 30.76C150.54 30.76 150.687 30.76 150.714 30.76C150.954 30.8133 151.14 30.8267 151.274 30.8H151.354ZM138.234 21.48C138.767 21.48 139.3 21.56 139.834 21.72C140.367 21.88 140.78 22.2267 141.074 22.76C141.26 23.1067 141.327 23.5467 141.274 24.08C141.22 24.5867 141.06 25.0133 140.794 25.36C140.527 25.68 140.114 25.9067 139.554 26.04C138.994 26.1733 138.407 26.2667 137.794 26.32C137.18 26.3467 136.607 26.3467 136.074 26.32C135.567 26.2933 135.22 26.28 135.034 26.28C134.82 26.3067 134.607 26.32 134.394 26.32C134.207 26.32 133.994 26.32 133.754 26.32H132.474C132.26 26.2933 132.047 26.28 131.834 26.28C131.647 26.28 131.447 26.28 131.234 26.28L126.514 26.2C125.154 26.2 124.18 26.0267 123.594 25.68C123.007 25.3333 122.66 24.7867 122.554 24.04C122.447 23.2667 122.647 22.64 123.154 22.16C123.527 21.84 123.834 21.64 124.074 21.56C124.34 21.48 124.674 21.44 125.074 21.44C125.18 21.44 125.287 21.4533 125.394 21.48C125.5 21.48 125.607 21.48 125.714 21.48H126.714C127.087 21.48 127.527 21.48 128.034 21.48C128.54 21.4533 128.98 21.4267 129.354 21.4C129.354 21.2933 129.354 21.1467 129.354 20.96C129.38 20.7467 129.394 20.5333 129.394 20.32C129.42 20.1067 129.434 19.9067 129.434 19.72C129.46 19.5067 129.474 19.36 129.474 19.28C129.527 18.8267 129.674 18.4133 129.914 18.04C130.474 17.2667 131.167 16.9067 131.994 16.96C132.367 17.0133 132.74 17.08 133.114 17.16C133.487 17.2133 133.794 17.4 134.034 17.72C134.327 18.1467 134.46 18.7333 134.434 19.48C134.434 20.2 134.46 20.8533 134.514 21.44H135.674C135.887 21.44 136.194 21.4533 136.594 21.48C136.994 21.48 137.3 21.48 137.514 21.48H138.234ZM132.474 44.8C133.06 44.72 133.567 44.4933 133.994 44.12C134.42 43.72 134.767 43.2533 135.034 42.72C135.3 42.1867 135.487 41.6133 135.594 41C135.7 40.3867 135.754 39.8133 135.754 39.28C135.754 38.8267 135.727 38.32 135.674 37.76C135.647 37.1733 135.58 36.6133 135.474 36.08C135.367 35.52 135.194 35.0133 134.954 34.56C134.714 34.08 134.394 33.6933 133.994 33.4C133.62 33.16 133.18 33.0133 132.674 32.96C132.167 32.88 131.647 32.8933 131.114 33C130.607 33.1067 130.14 33.2933 129.714 33.56C129.287 33.8 128.98 34.1333 128.794 34.56C128.287 35.6533 128.02 36.7467 127.994 37.84C127.994 38.9333 128.114 40.0533 128.354 41.2C128.487 41.7867 128.674 42.4 128.914 43.04C129.154 43.6533 129.527 44.1333 130.034 44.48C130.14 44.56 130.3 44.6267 130.514 44.68C130.754 44.7067 130.994 44.7333 131.234 44.76C131.5 44.7867 131.74 44.8133 131.954 44.84C132.194 44.84 132.367 44.8267 132.474 44.8ZM189.317 47.28C189.264 47.6 189.224 47.92 189.197 48.24C189.17 48.5333 189.104 48.84 188.997 49.16C188.944 49.2667 188.904 49.36 188.877 49.44C188.85 49.52 188.81 49.6133 188.757 49.72C188.57 50.0933 188.33 50.3867 188.037 50.6C187.424 50.9733 186.744 51.0667 185.997 50.88C185.57 50.8 185.224 50.64 184.957 50.4C184.717 50.1867 184.53 49.9067 184.397 49.56C184.29 49.24 184.197 48.92 184.117 48.6C184.064 48.28 184.037 48 184.037 47.76C184.037 47.52 184.037 47.3867 184.037 47.36V22.64C184.037 22.32 184.037 21.9733 184.037 21.6C184.037 21.2267 184.064 20.8533 184.117 20.48C184.17 20.1067 184.25 19.76 184.357 19.44C184.464 19.12 184.61 18.8667 184.797 18.68C185.09 18.3867 185.397 18.2133 185.717 18.16C186.037 18.08 186.384 18.04 186.757 18.04C187.21 18.04 187.624 18.1733 187.997 18.44C188.397 18.68 188.677 19.0267 188.837 19.48C189.077 20.04 189.21 20.6267 189.237 21.24C189.264 21.8533 189.29 22.4667 189.317 23.08V23.28C189.37 25.3333 189.384 27.44 189.357 29.6C189.33 31.76 189.317 33.8 189.317 35.72V45.84C189.317 46.08 189.317 46.32 189.317 46.56C189.344 46.8 189.344 47.04 189.317 47.28ZM170.437 43.36C170.41 43.04 170.397 42.72 170.397 42.4C170.397 42.08 170.397 41.76 170.397 41.44V28.72C170.397 28.2933 170.397 27.8667 170.397 27.44C170.397 27.0133 170.37 26.5733 170.317 26.12C170.29 25.9867 170.25 25.8 170.197 25.56C170.17 25.32 170.09 25.1733 169.957 25.12C169.824 25.04 169.664 25.0133 169.477 25.04C169.317 25.04 169.157 25.0267 168.997 25C168.81 24.9733 168.624 24.9733 168.437 25C168.277 25.0267 168.104 25.0267 167.917 25H166.037C165.584 25.0267 165.13 25.0267 164.677 25C164.224 24.9733 163.77 24.9733 163.317 25C163.104 25.0267 162.904 25.04 162.717 25.04C162.557 25.0133 162.37 25 162.157 25C161.864 25 161.557 24.9867 161.237 24.96C160.917 24.9333 160.624 24.8267 160.357 24.64C159.984 24.3733 159.73 24.04 159.597 23.64C159.464 23.24 159.397 22.8267 159.397 22.4C159.37 21.8933 159.477 21.3867 159.717 20.88C159.85 20.56 160.024 20.3333 160.237 20.2C160.37 20.0667 160.557 19.96 160.797 19.88C161.064 19.7733 161.29 19.6933 161.477 19.64C162.037 19.5067 162.624 19.44 163.237 19.44C163.85 19.4133 164.45 19.4 165.037 19.4H171.997C172.344 19.4533 172.704 19.5067 173.077 19.56C173.477 19.5867 173.837 19.6667 174.157 19.8C174.37 19.88 174.57 19.9867 174.757 20.12C174.97 20.2533 175.144 20.4133 175.277 20.6C175.517 20.9733 175.65 21.3467 175.677 21.72C175.73 22.0933 175.784 22.5067 175.837 22.96C175.89 23.7067 175.917 24.4533 175.917 25.2C175.917 25.92 175.917 26.6533 175.917 27.4V40.52C175.917 40.5467 175.917 40.76 175.917 41.16C175.944 41.5333 175.957 41.9867 175.957 42.52C175.957 43.0267 175.957 43.5733 175.957 44.16C175.957 44.72 175.944 45.2133 175.917 45.64C175.89 45.9067 175.85 46.1867 175.797 46.48C175.744 46.7733 175.65 47.0533 175.517 47.32C175.41 47.5867 175.25 47.8267 175.037 48.04C174.824 48.2533 174.544 48.4267 174.197 48.56C173.744 48.7467 173.29 48.84 172.837 48.84C172.49 48.84 172.144 48.7733 171.797 48.64C171.45 48.48 171.21 48.2533 171.077 47.96C170.65 47.1067 170.437 46.16 170.437 45.12V43.36Z" fill="white"/>
<defs>
<filter id="filter0_d_111_283" x="4.02686" y="2.68982" width="235.973" height="67.3048" filterUnits="userSpaceOnUse" color-interpolation-filters="sRGB">
<feFlood flood-opacity="0" result="BackgroundImageFix"/>
<feColorMatrix in="SourceAlpha" type="matrix" values="0 0 0 0 0 0 0 0 0 0 0 0 0 0 0 0 0 0 127 0" result="hardAlpha"/>
<feOffset dx="4" dy="4"/>
<feColorMatrix type="matrix" values="0 0 0 0 0.694118 0 0 0 0 0.721569 0 0 0 0 0.741176 0 0 0 1 0"/>
<feBlend mode="multiply" in2="BackgroundImageFix" result="effect1_dropShadow_111_283"/>
<feBlend mode="normal" in="SourceGraphic" in2="effect1_dropShadow_111_283" result="shape"/>
</filter>
</defs>
</svg>
